<svg width="96" height="96" viewBox="0 0 96 96" fill="none" xmlns="http://www.w3.org/2000/svg">
<g filter="url(#filter0_d_31_9364)">
<rect x="11" y="9" width="72" height="72" rx="16" fill="white"/>
<path d="M39.8685 41.3278H47.462C46.424 38.6509 45.9324 35.8102 45.9324 32.9148C45.9324 31.8768 45.987 30.8935 46.1509 29.8555C46.2055 29.4731 45.9324 29.1453 45.55 29.0907C44.8944 29.0361 44.2389 28.9814 43.5833 28.9814C40.087 28.9814 36.8092 29.9102 34.0231 31.5491V35.4824C33.9685 38.7055 36.6453 41.3278 39.8685 41.3278Z" fill="#830EBF"/>
<path d="M73.6842 38.5418C73.2473 38.6511 72.8648 38.7057 72.4277 38.7057C71.9361 38.7057 71.4444 38.6511 70.8981 38.5418C69.15 38.1594 67.4565 37.0668 66.1454 35.5372C64.8889 34.0075 64.1241 32.1501 64.0148 30.3474C63.9602 28.9816 64.2879 27.7251 64.9981 26.6872C64.1241 26.4687 63.1954 26.3048 62.212 26.3048C61.9389 26.3048 61.7204 26.3048 61.4472 26.3594C60.8463 26.414 60.1907 26.2501 59.6444 25.977C56.9129 24.6659 53.8537 23.9011 50.6305 24.0103C50.6305 24.0103 50.6305 24.0103 50.5759 24.0103C49.8657 25.4307 49.2648 26.9057 48.937 28.4899C48.6092 29.9649 48.4453 31.44 48.4453 32.9149C48.4453 37.2307 49.7564 41.3826 52.1602 44.8789C52.5426 45.4798 52.4333 46.2446 51.8324 46.6816C51.6139 46.8455 51.3407 46.9002 51.1222 46.9002C50.7398 46.9002 50.3027 46.6816 50.0842 46.3539C49.5926 45.589 49.1009 44.8242 48.6639 44.0594H39.8685C35.1157 44.0594 31.237 40.1807 31.237 35.4279V33.4066C28.5055 35.7011 26.4296 38.7057 25.2277 42.1474C24.2444 45.4252 22.0045 48.102 19 49.6863C20.9665 49.7955 22.8241 49.4677 24.4629 48.7576C24.7907 48.5937 25.1731 48.7576 25.2824 49.0853C25.5555 49.8502 25.8287 50.6696 26.0472 51.489C26.5388 53.2918 26.812 55.1492 26.812 57.1159C26.812 60.0113 26.2657 62.7974 25.2277 65.3104C24.9 66.0752 25.5009 66.8946 26.3203 66.8946H33.8046C34.5148 66.8946 35.1703 66.403 35.3342 65.7474C35.7713 63.9446 36.6453 62.3604 37.7925 60.94C38.1203 60.5029 38.6666 60.3391 39.2129 60.3937C39.9231 60.5029 40.6879 60.5576 41.3981 60.5576C42.4361 60.5576 43.4194 60.4483 44.4027 60.2844C45.0037 60.1752 45.6592 60.3937 46.0416 60.8854C47.1889 62.3604 47.899 64.1085 48.1722 66.0205C48.2268 66.5122 48.7185 66.8946 49.2101 66.8946C51.1768 66.8946 55.6018 66.8946 57.5139 66.8946C57.9509 66.8946 58.2241 66.4576 58.0602 66.0752C56.6944 62.9066 55.9296 59.4103 55.9296 55.6955C55.9296 54.1113 56.0935 52.5816 56.3667 51.1066C56.3667 51.052 56.4213 50.8881 56.4213 50.7789C56.8037 49.577 57.35 48.6483 58.3333 47.9927C58.4972 47.8288 59.3713 47.5011 59.5898 47.4465C59.863 47.3918 60.1361 47.3372 60.4092 47.3372C62.4305 47.3372 63.7963 48.8122 64.3972 50.6696C64.5611 51.052 64.6703 51.3798 64.725 51.8168C64.8889 52.7455 64.9981 53.6742 64.9981 54.6576C64.9981 60.1752 61.9935 63.7261 59.9176 66.2391C59.6991 66.4576 59.9176 66.84 60.1907 66.84H63.8509C64.3426 66.84 64.725 66.5668 64.9435 66.1844C66.1454 63.7807 70.1333 55.6955 70.8434 53.8928C70.8434 53.8381 70.8981 53.7835 70.8981 53.7835C72.6464 49.9594 73.6296 45.7529 73.6296 41.2733C73.7936 40.3992 73.7388 39.4705 73.6842 38.5418Z" fill="#830EBF"/>
<path d="M71.3351 36.3563C72.0452 36.5202 72.7556 36.5202 73.3565 36.3563C73.1927 35.2638 72.9194 34.2258 72.6464 33.1878L72.4823 32.86C71.4443 30.4017 69.5324 28.7082 67.1287 27.5063C66.4731 28.1619 66.1453 29.0906 66.2 30.2378C66.2546 31.5489 66.8009 32.9693 67.7842 34.1165C68.8222 35.2638 70.0787 36.0832 71.3351 36.3563Z" fill="#830EBF"/>
<path d="M71.0313 49.3649C73.6065 48.9183 74.7954 39.5746 73.4243 34.8671C72.0534 30.1597 67.1011 25.068 62.3936 26.439C57.6862 27.81 51.4713 33.2782 52.9676 38.4157C54.4638 43.5531 68.4563 49.8116 71.0313 49.3649Z" fill="#830EBF"/>
<path d="M50.9273 30.7011C50.6606 28.3901 42.1348 28.6062 36.7308 30.1622C31.3267 31.7182 24.2514 39.7694 25.2317 44.022C26.2119 48.2746 34.2608 49.6587 38.9019 48.5889C43.543 47.5191 51.1941 33.012 50.9273 30.7011Z" fill="#830EBF"/>
<path d="M61.0375 33.5526C60.7708 31.2417 52.245 31.4578 46.8409 33.0138C41.4368 34.5698 34.3616 42.621 35.3418 46.8736C36.3221 51.1262 44.371 52.5103 49.0121 51.4405C53.6531 50.3707 61.3042 35.8636 61.0375 33.5526Z" fill="#830EBF"/>
<rect x="11.36" y="9.36" width="71.28" height="71.28" rx="15.64" stroke="#E8E8E8" stroke-width="0.72"/>
</g>
<defs>
<filter id="filter0_d_31_9364" x="0.92" y="0.36" width="95.04" height="95.04" filterUnits="userSpaceOnUse" color-interpolation-filters="sRGB">
<feFlood flood-opacity="0" result="BackgroundImageFix"/>
<feColorMatrix in="SourceAlpha" type="matrix" values="0 0 0 0 0 0 0 0 0 0 0 0 0 0 0 0 0 0 127 0" result="hardAlpha"/>
<feOffset dx="1.44" dy="2.88"/>
<feGaussianBlur stdDeviation="5.76"/>
<feComposite in2="hardAlpha" operator="out"/>
<feColorMatrix type="matrix" values="0 0 0 0 0 0 0 0 0 0 0 0 0 0 0 0 0 0 0.1 0"/>
<feBlend mode="normal" in2="BackgroundImageFix" result="effect1_dropShadow_31_9364"/>
<feBlend mode="normal" in="SourceGraphic" in2="effect1_dropShadow_31_9364" result="shape"/>
</filter>
</defs>
</svg>
