<svg width="390" height="618" viewBox="0 0 390 618" fill="none" xmlns="http://www.w3.org/2000/svg">
<g clip-path="url(#clip0_26_8141)">
<g opacity="0.4">
<circle cx="5.16649" cy="380.862" r="8" transform="rotate(-45 5.16649 380.862)" fill="#D3E3FC"/>
<circle cx="33.4508" cy="352.578" r="8" transform="rotate(-45 33.4508 352.578)" fill="#D3E3FC"/>
<circle cx="61.735" cy="324.293" r="8" transform="rotate(-45 61.735 324.293)" fill="#D3E3FC"/>
<circle cx="90.0193" cy="296.009" r="8" transform="rotate(-45 90.0193 296.009)" fill="#D3E3FC"/>
<circle cx="118.304" cy="267.725" r="8" transform="rotate(-45 118.304 267.725)" fill="#D3E3FC"/>
<circle cx="146.588" cy="239.441" r="8" transform="rotate(-45 146.588 239.441)" fill="#D3E3FC"/>
<circle cx="174.872" cy="211.156" r="8" transform="rotate(-45 174.872 211.156)" fill="#D3E3FC"/>
<circle cx="5.16649" cy="437.431" r="8" transform="rotate(-45 5.16649 437.431)" fill="#D3E3FC"/>
<circle cx="33.4507" cy="409.146" r="8" transform="rotate(-45 33.4507 409.146)" fill="#D3E3FC"/>
<circle cx="61.735" cy="380.862" r="8" transform="rotate(-45 61.735 380.862)" fill="#D3E3FC"/>
<circle cx="90.0193" cy="352.578" r="8" transform="rotate(-45 90.0193 352.578)" fill="#D3E3FC"/>
<circle cx="118.304" cy="324.293" r="8" transform="rotate(-45 118.304 324.293)" fill="#D3E3FC"/>
<circle cx="146.588" cy="296.009" r="8" transform="rotate(-45 146.588 296.009)" fill="#D3E3FC"/>
<circle cx="174.872" cy="267.725" r="8" transform="rotate(-45 174.872 267.725)" fill="#D3E3FC"/>
<circle cx="203.156" cy="239.44" r="8" transform="rotate(-45 203.156 239.44)" fill="#D3E3FC"/>
<circle cx="5.16649" cy="493.999" r="8" transform="rotate(-45 5.16649 493.999)" fill="#D3E3FC"/>
<circle cx="33.4508" cy="465.715" r="8" transform="rotate(-45 33.4508 465.715)" fill="#D3E3FC"/>
<circle cx="61.735" cy="437.43" r="8" transform="rotate(-45 61.735 437.43)" fill="#D3E3FC"/>
<circle cx="90.0193" cy="409.146" r="8" transform="rotate(-45 90.0193 409.146)" fill="#D3E3FC"/>
<circle cx="118.304" cy="380.862" r="8" transform="rotate(-45 118.304 380.862)" fill="#D3E3FC"/>
<circle cx="146.588" cy="352.578" r="8" transform="rotate(-45 146.588 352.578)" fill="#D3E3FC"/>
<circle cx="174.872" cy="324.293" r="8" transform="rotate(-45 174.872 324.293)" fill="#D3E3FC"/>
<circle cx="203.156" cy="296.009" r="8" transform="rotate(-45 203.156 296.009)" fill="#D3E3FC"/>
<circle cx="231.441" cy="267.725" r="8" transform="rotate(-45 231.441 267.725)" fill="#D3E3FC"/>
<circle cx="5.16649" cy="550.568" r="8" transform="rotate(-45 5.16649 550.568)" fill="#D3E3FC"/>
<circle cx="33.4507" cy="522.284" r="8" transform="rotate(-45 33.4507 522.284)" fill="#D3E3FC"/>
<circle cx="61.735" cy="494" r="8" transform="rotate(-45 61.735 494)" fill="#D3E3FC"/>
<circle cx="90.0193" cy="465.715" r="8" transform="rotate(-45 90.0193 465.715)" fill="#D3E3FC"/>
<circle cx="118.304" cy="437.431" r="8" transform="rotate(-45 118.304 437.431)" fill="#D3E3FC"/>
<circle cx="146.588" cy="409.146" r="8" transform="rotate(-45 146.588 409.146)" fill="#D3E3FC"/>
<circle cx="174.872" cy="380.862" r="8" transform="rotate(-45 174.872 380.862)" fill="#D3E3FC"/>
<circle cx="203.156" cy="352.578" r="8" transform="rotate(-45 203.156 352.578)" fill="#D3E3FC"/>
<circle cx="231.441" cy="324.294" r="8" transform="rotate(-45 231.441 324.294)" fill="#D3E3FC"/>
<circle cx="259.725" cy="296.009" r="8" transform="rotate(-45 259.725 296.009)" fill="#D3E3FC"/>
<circle cx="33.4508" cy="578.852" r="8" transform="rotate(-45 33.4508 578.852)" fill="#D3E3FC"/>
<circle cx="61.735" cy="550.568" r="8" transform="rotate(-45 61.735 550.568)" fill="#D3E3FC"/>
<circle cx="90.0193" cy="522.284" r="8" transform="rotate(-45 90.0193 522.284)" fill="#D3E3FC"/>
<circle cx="118.304" cy="493.999" r="8" transform="rotate(-45 118.304 493.999)" fill="#D3E3FC"/>
<circle cx="146.588" cy="465.715" r="8" transform="rotate(-45 146.588 465.715)" fill="#D3E3FC"/>
<circle cx="174.872" cy="437.431" r="8" transform="rotate(-45 174.872 437.431)" fill="#D3E3FC"/>
<circle cx="203.156" cy="409.146" r="8" transform="rotate(-45 203.156 409.146)" fill="#D3E3FC"/>
<circle cx="231.441" cy="380.862" r="8" transform="rotate(-45 231.441 380.862)" fill="#D3E3FC"/>
<circle cx="259.725" cy="352.578" r="8" transform="rotate(-45 259.725 352.578)" fill="#D3E3FC"/>
<circle cx="288.009" cy="324.293" r="8" transform="rotate(-45 288.009 324.293)" fill="#D3E3FC"/>
<circle cx="61.735" cy="607.136" r="8" transform="rotate(-45 61.735 607.136)" fill="#D3E3FC"/>
<circle cx="90.0193" cy="578.852" r="8" transform="rotate(-45 90.0193 578.852)" fill="#D3E3FC"/>
<circle cx="118.304" cy="550.568" r="8" transform="rotate(-45 118.304 550.568)" fill="#D3E3FC"/>
<circle cx="146.588" cy="522.283" r="8" transform="rotate(-45 146.588 522.283)" fill="#D3E3FC"/>
<circle cx="174.872" cy="493.999" r="8" transform="rotate(-45 174.872 493.999)" fill="#D3E3FC"/>
<circle cx="203.156" cy="465.715" r="8" transform="rotate(-45 203.156 465.715)" fill="#D3E3FC"/>
<circle cx="231.441" cy="437.431" r="8" transform="rotate(-45 231.441 437.431)" fill="#D3E3FC"/>
<circle cx="259.725" cy="409.146" r="8" transform="rotate(-45 259.725 409.146)" fill="#D3E3FC"/>
<circle cx="288.009" cy="380.862" r="8" transform="rotate(-45 288.009 380.862)" fill="#D3E3FC"/>
<circle cx="316.293" cy="352.578" r="8" transform="rotate(-45 316.293 352.578)" fill="#D3E3FC"/>
<circle cx="118.304" cy="607.136" r="8" transform="rotate(-45 118.304 607.136)" fill="#D3E3FC"/>
<circle cx="146.588" cy="578.852" r="8" transform="rotate(-45 146.588 578.852)" fill="#D3E3FC"/>
<circle cx="174.872" cy="550.567" r="8" transform="rotate(-45 174.872 550.567)" fill="#D3E3FC"/>
<circle cx="203.156" cy="522.283" r="8" transform="rotate(-45 203.156 522.283)" fill="#D3E3FC"/>
<circle cx="231.441" cy="493.999" r="8" transform="rotate(-45 231.441 493.999)" fill="#D3E3FC"/>
<circle cx="259.725" cy="465.715" r="8" transform="rotate(-45 259.725 465.715)" fill="#D3E3FC"/>
<circle cx="288.009" cy="437.431" r="8" transform="rotate(-45 288.009 437.431)" fill="#D3E3FC"/>
<circle cx="316.294" cy="409.146" r="8" transform="rotate(-45 316.294 409.146)" fill="#D3E3FC"/>
<circle cx="344.578" cy="380.862" r="8" transform="rotate(-45 344.578 380.862)" fill="#D3E3FC"/>
<circle cx="174.872" cy="607.136" r="8" transform="rotate(-45 174.872 607.136)" fill="#D3E3FC"/>
<circle cx="203.156" cy="578.852" r="8" transform="rotate(-45 203.156 578.852)" fill="#D3E3FC"/>
<circle cx="231.441" cy="550.567" r="8" transform="rotate(-45 231.441 550.567)" fill="#D3E3FC"/>
<circle cx="259.725" cy="522.283" r="8" transform="rotate(-45 259.725 522.283)" fill="#D3E3FC"/>
<circle cx="288.009" cy="493.999" r="8" transform="rotate(-45 288.009 493.999)" fill="#D3E3FC"/>
<circle cx="316.293" cy="465.715" r="8" transform="rotate(-45 316.293 465.715)" fill="#D3E3FC"/>
<circle cx="344.578" cy="437.431" r="8" transform="rotate(-45 344.578 437.431)" fill="#D3E3FC"/>
<circle cx="372.862" cy="409.146" r="8" transform="rotate(-45 372.862 409.146)" fill="#D3E3FC"/>
<circle cx="231.441" cy="607.136" r="8" transform="rotate(-45 231.441 607.136)" fill="#D3E3FC"/>
<circle cx="259.725" cy="578.852" r="8" transform="rotate(-45 259.725 578.852)" fill="#D3E3FC"/>
<circle cx="288.009" cy="550.567" r="8" transform="rotate(-45 288.009 550.567)" fill="#D3E3FC"/>
<circle cx="316.294" cy="522.283" r="8" transform="rotate(-45 316.294 522.283)" fill="#D3E3FC"/>
<circle cx="344.578" cy="493.999" r="8" transform="rotate(-45 344.578 493.999)" fill="#D3E3FC"/>
<circle cx="372.862" cy="465.715" r="8" transform="rotate(-45 372.862 465.715)" fill="#D3E3FC"/>
<circle cx="401.146" cy="437.43" r="8" transform="rotate(-45 401.146 437.43)" fill="#D3E3FC"/>
<circle cx="288.009" cy="607.136" r="8" transform="rotate(-45 288.009 607.136)" fill="#D3E3FC"/>
<circle cx="316.294" cy="578.852" r="8" transform="rotate(-45 316.294 578.852)" fill="#D3E3FC"/>
<circle cx="344.578" cy="550.568" r="8" transform="rotate(-45 344.578 550.568)" fill="#D3E3FC"/>
<circle cx="372.862" cy="522.284" r="8" transform="rotate(-45 372.862 522.284)" fill="#D3E3FC"/>
<circle cx="401.146" cy="494" r="8" transform="rotate(-45 401.146 494)" fill="#D3E3FC"/>
<circle cx="203.156" cy="182.872" r="8" transform="rotate(-45 203.156 182.872)" fill="#D3E3FC"/>
<circle cx="231.441" cy="154.588" r="8" transform="rotate(-45 231.441 154.588)" fill="#D3E3FC"/>
<circle cx="259.725" cy="126.304" r="8" transform="rotate(-45 259.725 126.304)" fill="#D3E3FC"/>
<circle cx="288.009" cy="98.019" r="8" transform="rotate(-45 288.009 98.019)" fill="#D3E3FC"/>
<circle cx="316.294" cy="69.7349" r="8" transform="rotate(-45 316.294 69.7349)" fill="#D3E3FC"/>
<circle cx="344.578" cy="41.4507" r="8" transform="rotate(-45 344.578 41.4507)" fill="#D3E3FC"/>
<circle cx="372.862" cy="13.1665" r="8" transform="rotate(-45 372.862 13.1665)" fill="#D3E3FC"/>
<circle cx="231.441" cy="211.156" r="8" transform="rotate(-45 231.441 211.156)" fill="#D3E3FC"/>
<circle cx="259.725" cy="182.872" r="8" transform="rotate(-45 259.725 182.872)" fill="#D3E3FC"/>
<circle cx="288.009" cy="154.588" r="8" transform="rotate(-45 288.009 154.588)" fill="#D3E3FC"/>
<circle cx="316.294" cy="126.303" r="8" transform="rotate(-45 316.294 126.303)" fill="#D3E3FC"/>
<circle cx="344.578" cy="98.019" r="8" transform="rotate(-45 344.578 98.019)" fill="#D3E3FC"/>
<circle cx="372.862" cy="69.7349" r="8" transform="rotate(-45 372.862 69.7349)" fill="#D3E3FC"/>
<circle cx="401.146" cy="41.4507" r="8" transform="rotate(-45 401.146 41.4507)" fill="#D3E3FC"/>
<circle cx="259.725" cy="239.44" r="8" transform="rotate(-45 259.725 239.44)" fill="#D3E3FC"/>
<circle cx="288.009" cy="211.156" r="8" transform="rotate(-45 288.009 211.156)" fill="#D3E3FC"/>
<circle cx="316.294" cy="182.872" r="8" transform="rotate(-45 316.294 182.872)" fill="#D3E3FC"/>
<circle cx="344.578" cy="154.587" r="8" transform="rotate(-45 344.578 154.587)" fill="#D3E3FC"/>
<circle cx="372.862" cy="126.303" r="8" transform="rotate(-45 372.862 126.303)" fill="#D3E3FC"/>
<circle cx="401.146" cy="98.019" r="8" transform="rotate(-45 401.146 98.019)" fill="#D3E3FC"/>
<circle cx="288.009" cy="267.725" r="8" transform="rotate(-45 288.009 267.725)" fill="#D3E3FC"/>
<circle cx="316.294" cy="239.441" r="8" transform="rotate(-45 316.294 239.441)" fill="#D3E3FC"/>
<circle cx="344.578" cy="211.157" r="8" transform="rotate(-45 344.578 211.157)" fill="#D3E3FC"/>
<circle cx="372.862" cy="182.872" r="8" transform="rotate(-45 372.862 182.872)" fill="#D3E3FC"/>
<circle cx="401.146" cy="154.588" r="8" transform="rotate(-45 401.146 154.588)" fill="#D3E3FC"/>
<circle cx="316.294" cy="296.009" r="8" transform="rotate(-45 316.294 296.009)" fill="#D3E3FC"/>
<circle cx="344.578" cy="267.725" r="8" transform="rotate(-45 344.578 267.725)" fill="#D3E3FC"/>
<circle cx="372.862" cy="239.441" r="8" transform="rotate(-45 372.862 239.441)" fill="#D3E3FC"/>
<circle cx="401.146" cy="211.156" r="8" transform="rotate(-45 401.146 211.156)" fill="#D3E3FC"/>
<circle cx="344.578" cy="324.293" r="8" transform="rotate(-45 344.578 324.293)" fill="#D3E3FC"/>
<circle cx="372.862" cy="296.009" r="8" transform="rotate(-45 372.862 296.009)" fill="#D3E3FC"/>
<circle cx="401.146" cy="267.725" r="8" transform="rotate(-45 401.146 267.725)" fill="#D3E3FC"/>
<circle cx="372.862" cy="352.578" r="8" transform="rotate(-45 372.862 352.578)" fill="#D3E3FC"/>
<circle cx="401.146" cy="324.293" r="8" transform="rotate(-45 401.146 324.293)" fill="#D3E3FC"/>
<circle cx="401.146" cy="380.862" r="8" transform="rotate(-45 401.146 380.862)" fill="#D3E3FC"/>
</g>
</g>
<defs>
<clipPath id="clip0_26_8141">
<rect width="390" height="618" fill="white"/>
</clipPath>
</defs>
</svg>
