<svg width="286" height="152" viewBox="0 0 286 152" fill="none" xmlns="http://www.w3.org/2000/svg">
<g filter="url(#filter0_d_42_1854)">
<g clip-path="url(#clip0_42_1854)">
<mask id="path-3-inside-1_42_1854" fill="white">
<path d="M13 29.4738C13 23.3275 13 20.2543 14.1962 17.9067C15.2483 15.8418 16.9272 14.1629 18.9922 13.1107C21.3398 11.9146 24.4129 11.9146 30.5592 11.9146H251.513C257.659 11.9146 260.732 11.9146 263.08 13.1107C265.145 14.1629 266.824 15.8418 267.876 17.9067C269.072 20.2543 269.072 23.3275 269.072 29.4738V53.0345H13V29.4738Z"/>
</mask>
<path d="M13 29.4738C13 23.3275 13 20.2543 14.1962 17.9067C15.2483 15.8418 16.9272 14.1629 18.9922 13.1107C21.3398 11.9146 24.4129 11.9146 30.5592 11.9146H251.513C257.659 11.9146 260.732 11.9146 263.08 13.1107C265.145 14.1629 266.824 15.8418 267.876 17.9067C269.072 20.2543 269.072 23.3275 269.072 29.4738V53.0345H13V29.4738Z" fill="white"/>
<path d="M29.0295 37.9746V27.0202H30.6161L34.3663 36.1603H34.4877L38.2379 27.0202H39.8245V37.9746H38.5491V29.6089H38.4656L35.004 37.9746H33.8501L30.3884 29.6089H30.3049V37.9746H29.0295ZM44.3251 38.1188C42.7688 38.1188 41.5922 37.1775 41.5922 35.6896V35.6744C41.5922 34.2169 42.6701 33.3742 44.5756 33.2603L46.9213 33.1161V32.3721C46.9213 31.3625 46.3064 30.8159 45.0842 30.8159C44.1049 30.8159 43.4596 31.1803 43.2471 31.818L43.2395 31.8407H41.9186L41.9262 31.7952C42.1387 30.5122 43.3837 29.6468 45.1298 29.6468C47.1263 29.6468 48.2422 30.6717 48.2422 32.3721V37.9746H46.9213V36.7676H46.7999C46.2836 37.6406 45.4258 38.1188 44.3251 38.1188ZM42.9434 35.6592C42.9434 36.4867 43.6494 36.9725 44.5984 36.9725C45.942 36.9725 46.9213 36.0919 46.9213 34.9229V34.1789L44.735 34.3155C43.49 34.3915 42.9434 34.8318 42.9434 35.644V35.6592ZM50.2832 37.9746V29.7911H51.6041V31.0209H51.7255C52.1355 30.1554 52.9022 29.6468 54.1092 29.6468C55.9464 29.6468 56.9712 30.7324 56.9712 32.6758V37.9746H55.6503V32.9946C55.6503 31.5219 55.043 30.8159 53.7373 30.8159C52.4315 30.8159 51.6041 31.6965 51.6041 33.1313V37.9746H50.2832ZM61.2364 38.1188C59.6802 38.1188 58.5035 37.1775 58.5035 35.6896V35.6744C58.5035 34.2169 59.5815 33.3742 61.4869 33.2603L63.8327 33.1161V32.3721C63.8327 31.3625 63.2178 30.8159 61.9956 30.8159C61.0163 30.8159 60.371 31.1803 60.1585 31.818L60.1509 31.8407H58.83L58.8375 31.7952C59.0501 30.5122 60.2951 29.6468 62.0411 29.6468C64.0377 29.6468 65.1536 30.6717 65.1536 32.3721V37.9746H63.8327V36.7676H63.7112C63.195 37.6406 62.3372 38.1188 61.2364 38.1188ZM59.8548 35.6592C59.8548 36.4867 60.5608 36.9725 61.5097 36.9725C62.8534 36.9725 63.8327 36.0919 63.8327 34.9229V34.1789L61.6464 34.3155C60.4014 34.3915 59.8548 34.8318 59.8548 35.644V35.6592ZM70.5651 40.8593C68.5914 40.8593 67.3312 39.9712 67.1262 38.6275L67.1414 38.6199H68.5079L68.5154 38.6275C68.6597 39.25 69.3885 39.6903 70.5651 39.6903C72.0303 39.6903 72.9033 38.9995 72.9033 37.7924V36.1375H72.7818C72.2656 37.0409 71.3395 37.5495 70.2159 37.5495C68.0979 37.5495 66.7846 35.9097 66.7846 33.6171V33.602C66.7846 31.3093 68.1055 29.6468 70.2463 29.6468C71.4002 29.6468 72.296 30.2162 72.797 31.1423H72.8881V29.7911H74.209V37.8607C74.209 39.6903 72.797 40.8593 70.5651 40.8593ZM70.5044 36.3804C72.0227 36.3804 72.9337 35.2417 72.9337 33.6171V33.602C72.9337 31.9774 72.0151 30.8159 70.5044 30.8159C68.9861 30.8159 68.1359 31.9774 68.1359 33.602V33.6171C68.1359 35.2417 68.9861 36.3804 70.5044 36.3804ZM79.6357 38.1188C77.2976 38.1188 75.8856 36.4791 75.8856 33.9132V33.9056C75.8856 31.3777 77.3279 29.6468 79.5522 29.6468C81.7765 29.6468 83.1278 31.3018 83.1278 33.7462V34.2624H77.2368C77.2748 35.9553 78.2085 36.9422 79.6661 36.9422C80.7744 36.9422 81.4577 36.4184 81.6778 35.9249L81.7082 35.8566H83.0291L83.0139 35.9173C82.733 37.0257 81.5639 38.1188 79.6357 38.1188ZM79.5446 30.8235C78.33 30.8235 77.4038 31.651 77.2596 33.2072H81.7841C81.6474 31.5902 80.7517 30.8235 79.5446 30.8235ZM88.9709 37.9746V27.0202H95.7576V28.25H90.3373V31.7648H95.4767V32.9795H90.3373V36.7448H95.7576V37.9746H88.9709ZM97.0394 37.9746L99.8406 33.8828L97.009 29.7911H98.5653L100.509 32.8352H100.63L102.551 29.7911H104.031L101.253 33.8297L104.069 37.9746H102.52L100.585 34.8849H100.463L98.5197 37.9746H97.0394ZM108.38 38.0353C106.695 38.0353 105.989 37.4128 105.989 35.849V30.8842H104.698V29.7911H105.989V27.6731H107.355V29.7911H109.147V30.8842H107.355V35.515C107.355 36.4791 107.689 36.8663 108.539 36.8663C108.775 36.8663 108.904 36.8587 109.147 36.8359V37.9594C108.888 38.005 108.638 38.0353 108.38 38.0353ZM113.966 38.1188C111.628 38.1188 110.216 36.4791 110.216 33.9132V33.9056C110.216 31.3777 111.658 29.6468 113.882 29.6468C116.107 29.6468 117.458 31.3018 117.458 33.7462V34.2624H111.567C111.605 35.9553 112.539 36.9422 113.996 36.9422C115.105 36.9422 115.788 36.4184 116.008 35.9249L116.038 35.8566H117.359L117.344 35.9173C117.063 37.0257 115.894 38.1188 113.966 38.1188ZM113.875 30.8235C112.66 30.8235 111.734 31.651 111.59 33.2072H116.114C115.978 31.5902 115.082 30.8235 113.875 30.8235ZM119.135 37.9746V29.7911H120.455V31.0209H120.577C120.987 30.1554 121.754 29.6468 122.961 29.6468C124.798 29.6468 125.823 30.7324 125.823 32.6758V37.9746H124.502V32.9946C124.502 31.5219 123.894 30.8159 122.589 30.8159C121.283 30.8159 120.455 31.6965 120.455 33.1313V37.9746H119.135ZM130.65 38.1188C128.828 38.1188 127.575 37.2382 127.423 35.887H128.774C128.995 36.5702 129.647 37.0181 130.695 37.0181C131.796 37.0181 132.578 36.4943 132.578 35.7503V35.7351C132.578 35.181 132.16 34.7938 131.151 34.5509L129.883 34.2472C128.349 33.8828 127.659 33.2148 127.659 32.0381V32.0305C127.659 30.6717 128.964 29.6468 130.703 29.6468C132.418 29.6468 133.61 30.5047 133.792 31.8407H132.494C132.32 31.1955 131.682 30.7476 130.695 30.7476C129.723 30.7476 129.01 31.2486 129.01 31.9698V31.985C129.01 32.5392 129.42 32.8884 130.384 33.1237L131.644 33.4274C133.185 33.7993 133.929 34.4674 133.929 35.6365V35.6516C133.929 37.1092 132.509 38.1188 130.65 38.1188ZM136.304 28.212C135.803 28.212 135.393 27.8021 135.393 27.3011C135.393 26.8 135.803 26.3901 136.304 26.3901C136.805 26.3901 137.215 26.8 137.215 27.3011C137.215 27.8021 136.805 28.212 136.304 28.212ZM135.636 37.9746V29.7911H136.957V37.9746H135.636ZM142.437 38.1188C140.106 38.1188 138.664 36.5095 138.664 33.8904V33.8752C138.664 31.2486 140.106 29.6468 142.437 29.6468C144.767 29.6468 146.21 31.2486 146.21 33.8752V33.8904C146.21 36.5095 144.767 38.1188 142.437 38.1188ZM142.437 36.9498C143.985 36.9498 144.858 35.8186 144.858 33.8904V33.8752C144.858 31.9394 143.985 30.8159 142.437 30.8159C140.888 30.8159 140.015 31.9394 140.015 33.8752V33.8904C140.015 35.8186 140.888 36.9498 142.437 36.9498ZM147.886 37.9746V29.7911H149.207V31.0209H149.329C149.739 30.1554 150.505 29.6468 151.712 29.6468C153.549 29.6468 154.574 30.7324 154.574 32.6758V37.9746H153.253V32.9946C153.253 31.5219 152.646 30.8159 151.34 30.8159C150.035 30.8159 149.207 31.6965 149.207 33.1313V37.9746H147.886ZM159.401 38.1188C157.579 38.1188 156.327 37.2382 156.175 35.887H157.526C157.746 36.5702 158.399 37.0181 159.447 37.0181C160.548 37.0181 161.329 36.4943 161.329 35.7503V35.7351C161.329 35.181 160.912 34.7938 159.902 34.5509L158.634 34.2472C157.101 33.8828 156.41 33.2148 156.41 32.0381V32.0305C156.41 30.6717 157.716 29.6468 159.454 29.6468C161.17 29.6468 162.362 30.5047 162.544 31.8407H161.246C161.071 31.1955 160.434 30.7476 159.447 30.7476C158.475 30.7476 157.761 31.2486 157.761 31.9698V31.985C157.761 32.5392 158.171 32.8884 159.136 33.1237L160.396 33.4274C161.937 33.7993 162.681 34.4674 162.681 35.6365V35.6516C162.681 37.1092 161.261 38.1188 159.401 38.1188Z" fill="black"/>
<path d="M240.607 26.1871C240.607 25.0296 241.545 24.0913 242.703 24.0913C243.86 24.0913 244.798 25.0296 244.798 26.1871V27.4446H245.637C246.809 27.4446 247.395 27.4446 247.857 27.6361C248.473 27.8913 248.963 28.3809 249.218 28.9972C249.409 29.4594 249.409 30.0453 249.409 31.2171H250.667C251.824 31.2171 252.763 32.1555 252.763 33.3129C252.763 34.4704 251.824 35.4088 250.667 35.4088H249.409V36.8339C249.409 38.2425 249.409 38.9467 249.135 39.4847C248.894 39.9579 248.509 40.3427 248.036 40.5838C247.498 40.8579 246.794 40.8579 245.385 40.8579H244.798V39.3908C244.798 38.3491 243.954 37.5046 242.912 37.5046C241.87 37.5046 241.026 38.3491 241.026 39.3908V40.8579H240.02C238.611 40.8579 237.907 40.8579 237.369 40.5838C236.896 40.3427 236.511 39.9579 236.27 39.4847C235.996 38.9467 235.996 38.2425 235.996 36.8339V35.4088H237.253C238.411 35.4088 239.349 34.4704 239.349 33.3129C239.349 32.1555 238.411 31.2171 237.253 31.2171H235.996C235.996 30.0453 235.996 29.4594 236.187 28.9972C236.443 28.3809 236.932 27.8913 237.548 27.6361C238.011 27.4446 238.597 27.4446 239.768 27.4446H240.607V26.1871Z" stroke="black" stroke-width="1.37181" stroke-linecap="round" stroke-linejoin="round"/>
<path d="M13 11.9146H269.072H13ZM269.072 53.4918H13V52.5772H269.072V53.4918ZM13 53.0345V11.9146V53.0345ZM269.072 11.9146V53.0345V11.9146Z" fill="#E8E8E8" mask="url(#path-3-inside-1_42_1854)"/>
<mask id="path-7-inside-2_42_1854" fill="white">
<path d="M13 53.0347H269.072V93.2745H13V53.0347Z"/>
</mask>
<path d="M13 53.0347H269.072V93.2745H13V53.0347Z" fill="white"/>
<rect x="27.6327" y="67.6675" width="184.738" height="10.9745" rx="5.48725" fill="#CED6E3"/>
<rect x="234.319" y="63.0947" width="20.1199" height="20.1199" rx="5.48726" fill="#CED6E3"/>
<path d="M269.072 92.36H13V94.1891H269.072V92.36Z" fill="#E8E8E8" mask="url(#path-7-inside-2_42_1854)"/>
<mask id="path-11-inside-3_42_1854" fill="white">
<path d="M13 93.2744H269.072V133.514H13V93.2744Z"/>
</mask>
<path d="M13 93.2744H269.072V133.514H13V93.2744Z" fill="white"/>
<rect x="27.6327" y="107.907" width="184.738" height="10.9745" rx="5.48725" fill="#CED6E3"/>
<rect x="234.319" y="103.334" width="20.1199" height="20.1199" rx="5.48726" fill="#CED6E3"/>
<path d="M269.072 133.057H13V133.972H269.072V133.057Z" fill="#3C3C43" fill-opacity="0.36" mask="url(#path-11-inside-3_42_1854)"/>
</g>
<rect x="13.4573" y="12.3718" width="255.157" height="120.685" rx="10.5172" stroke="#E8E8E8" stroke-width="0.914542" shape-rendering="crispEdges"/>
</g>
<rect x="221.973" y="11.4573" width="44.8126" height="42.9835" rx="5.94453" stroke="#2375EF" stroke-opacity="0.5" stroke-width="0.914542"/>
<defs>
<filter id="filter0_d_42_1854" x="0.196405" y="0.940041" width="285.337" height="150.865" filterUnits="userSpaceOnUse" color-interpolation-filters="sRGB">
<feFlood flood-opacity="0" result="BackgroundImageFix"/>
<feColorMatrix in="SourceAlpha" type="matrix" values="0 0 0 0 0 0 0 0 0 0 0 0 0 0 0 0 0 0 127 0" result="hardAlpha"/>
<feOffset dx="1.82908" dy="3.65817"/>
<feGaussianBlur stdDeviation="7.31634"/>
<feComposite in2="hardAlpha" operator="out"/>
<feColorMatrix type="matrix" values="0 0 0 0 0 0 0 0 0 0 0 0 0 0 0 0 0 0 0.1 0"/>
<feBlend mode="normal" in2="BackgroundImageFix" result="effect1_dropShadow_42_1854"/>
<feBlend mode="normal" in="SourceGraphic" in2="effect1_dropShadow_42_1854" result="shape"/>
</filter>
<clipPath id="clip0_42_1854">
<rect x="13" y="11.9146" width="256.072" height="121.6" rx="10.9745" fill="white"/>
</clipPath>
</defs>
</svg>
