<svg width="289" height="407" viewBox="0 0 289 407" fill="none" xmlns="http://www.w3.org/2000/svg">
<g filter="url(#filter0_d_76_2257)">
<g clip-path="url(#clip0_76_2257)">
<path d="M156.6 9C165.6 9 170.1 9 175 10.5C180.3 12.4 184.5 16.6 186.4 21.9C188 26.8 188 31.4 188 40.4V67.6C188 76.6 188 81.1 186.5 86C184.6 91.3 180.4 95.5 175.1 97.4C170.1 99 165.6 99 156.6 99H129.4C120.4 99 115.9 99 111 97.5C105.6 95.5 101.5 91.4 99.5 86C98 81.2 98 76.7 98 67.6V40.4C98 31.4 98 26.9 99.5 22C101.5 16.7 105.6 12.5 111 10.6C115.8 9 120.3 9 129.4 9H156.6Z" fill="url(#paint0_linear_76_2257)"/>
<path d="M143 93C164.539 93 182 75.5391 182 54C182 32.4609 164.539 15 143 15C121.461 15 104 32.4609 104 54C104 75.5391 121.461 93 143 93Z" fill="#2E2E30"/>
<path d="M145.626 33.2418C145.725 33.2557 145.824 33.2696 145.923 33.2835C146.121 33.3113 146.418 33.3531 146.616 33.3809L147.699 30.7056C148.022 29.8422 148.206 29.9691 148.194 30.7752L148.101 33.5897C148.399 33.6314 148.781 33.7861 149.078 33.8279L150.444 31.2933C150.852 30.5429 151.05 30.5707 150.925 31.462L150.436 34.2208C150.719 34.3616 151.102 34.5163 151.399 34.558L153.034 32.2633C153.541 31.5267 153.726 31.6536 153.501 32.5309L152.716 35.248C152.999 35.3888 153.381 35.5435 153.65 35.7833L155.47 33.6154C156.062 32.9918 156.246 33.1186 155.937 33.883L154.854 36.5584C155.123 36.7982 155.406 36.9389 155.676 37.1787L157.764 35.2507C158.456 34.641 158.64 34.7678 158.218 35.6173L156.866 38.0529C157.135 38.2927 157.404 38.5325 157.574 38.7584L159.918 37.1691C160.596 36.6585 160.78 36.7853 160.273 37.5219L158.51 40.0007C158.78 40.2405 158.95 40.4664 159.205 40.8053L161.706 39.5409C162.468 39.1432 162.652 39.2701 162.046 39.9927L160.141 42.0477C160.312 42.2735 160.567 42.6124 160.723 42.9373L163.394 41.8988C164.242 41.6141 164.313 41.826 163.635 42.3367L161.461 44.1518C161.618 44.4768 161.774 44.8017 161.93 45.1266L164.658 44.3991C165.492 44.2134 165.563 44.4254 164.9 44.837L162.556 46.4262C162.712 46.7512 162.769 47.0622 162.925 47.3871L165.711 46.9706C166.531 46.8839 166.701 47.1098 165.839 47.4936L163.339 48.7579C163.396 49.0689 163.552 49.3938 163.596 49.8039L166.325 49.7835C167.23 49.8098 167.202 50.0078 166.454 50.3065L163.896 51.2598C163.953 51.5708 163.997 51.9808 164.054 52.2918L166.841 52.5825C167.732 52.7078 167.704 52.9058 166.87 53.0916L164.156 53.72C164.213 54.031 164.158 54.4271 164.116 54.7242L166.748 55.397C167.625 55.6213 167.597 55.8193 166.678 55.8921L163.907 56.2096C163.865 56.5066 163.81 56.9027 163.768 57.1998C163.768 57.1998 163.768 57.1998 163.754 57.2989L166.358 58.1698C167.222 58.4931 167.194 58.6911 166.289 58.6649L163.559 58.6852C163.504 59.0813 163.363 59.3645 163.307 59.7606L165.757 61.0137C166.507 61.4221 166.479 61.6202 165.588 61.4949L162.914 61.1191C162.773 61.4023 162.718 61.7984 162.577 62.0816L164.886 63.6178C165.622 64.1253 165.495 64.3094 164.717 64.0991L162.085 63.4262C161.944 63.7094 161.79 64.0916 161.649 64.3747L163.718 66.1802C164.341 66.7728 164.313 66.9708 163.45 66.6475L160.959 65.6915C160.719 65.9608 160.564 66.3429 160.325 66.6122L162.168 68.5879C162.791 69.1805 162.65 69.4636 161.801 69.0413L159.308 67.3782C159.068 67.6474 158.828 67.9167 158.589 68.1859L160.206 70.3319C160.716 71.0095 160.59 71.1937 159.853 70.6862L157.643 69.1639C157.404 69.4331 157.164 69.7024 156.839 69.8587L158.23 72.1748C158.628 72.9376 158.501 73.1217 157.778 72.5153L155.709 70.7098C155.371 70.9651 155.145 71.1353 154.82 71.2916L155.886 73.7641C156.27 74.6259 156.058 74.6971 155.448 74.0055L153.605 72.0298C153.28 72.1861 152.955 72.3424 152.63 72.4987L153.372 75.1274C153.657 75.9753 153.445 76.0465 152.934 75.3688L151.43 73.1378C151.105 73.2941 150.78 73.4504 150.356 73.5928L150.786 76.2788C150.972 77.1128 150.76 77.184 150.263 76.4073L148.985 74.006C148.674 74.0633 148.25 74.2057 147.939 74.2629L148.073 76.9072C148.145 77.8263 147.848 77.7845 147.55 77.0357L146.554 74.7752C146.243 74.8325 145.833 74.8758 145.522 74.9331L145.345 77.6347C145.319 78.5398 145.021 78.4981 144.836 77.6641L144.094 75.0354C143.783 75.0926 143.387 75.037 142.977 75.0803L142.403 77.7262C142.278 78.6174 141.981 78.5757 141.894 77.7556L141.676 74.9984C141.28 74.9427 140.983 74.901 140.573 74.9444L139.702 77.5485C139.378 78.4119 139.18 78.3841 139.207 77.4789L139.186 74.7495C138.79 74.6938 138.493 74.6521 138.111 74.4974L136.957 76.9608C136.648 77.7251 136.35 77.6834 136.476 76.7921L136.752 74.1045C136.37 73.9498 136.073 73.908 135.79 73.7673L134.254 76.0759C133.845 76.8264 133.548 76.7846 133.773 75.9073L134.346 73.2614C134.063 73.1207 133.681 72.966 133.398 72.8252L131.677 75.007C131.17 75.7435 130.887 75.6027 131.21 74.7393L132.081 72.1352C131.798 71.9944 131.529 71.7546 131.146 71.5999L129.157 73.5419C128.564 74.1655 128.38 74.0387 128.689 73.2743L129.943 70.8248C129.673 70.585 129.404 70.3452 129.121 70.2044L126.961 71.9206C126.283 72.4312 126.099 72.3043 126.607 71.5678L128.143 69.2591C127.874 69.0193 127.604 68.7795 127.448 68.4546L125.16 69.6478C124.383 70.1445 124.213 69.9186 124.806 69.295L126.526 67.1132C126.257 66.8734 126.1 66.5485 125.93 66.3226L123.444 67.4879C122.681 67.8856 122.511 67.6597 123.103 67.0361L125.093 65.0941C124.937 64.7692 124.766 64.5433 124.61 64.2184L121.967 65.0588C121.12 65.3436 121.048 65.1316 121.726 64.6209L123.985 62.9187C123.829 62.5938 123.672 62.2689 123.615 61.9579L120.915 62.4873C120.081 62.6731 120.01 62.4611 120.787 61.9643L123.202 60.5871C123.046 60.2622 122.988 59.9512 122.931 59.6402L119.976 59.8307C119.057 59.9035 118.985 59.6915 119.847 59.3077L122.419 58.2554C122.361 57.9444 122.318 57.5344 122.261 57.2234L119.446 57.1308C118.541 57.1045 118.569 56.9065 119.417 56.6217L122.06 55.7813C122.002 55.4703 122.058 55.0742 122.001 54.7632L119.242 54.2745C118.351 54.1493 118.392 53.8522 119.212 53.7655L122.011 53.25C122.053 52.9529 122.01 52.5429 122.051 52.2458L119.334 51.46C118.457 51.2357 118.499 50.9386 119.404 50.9649L122.246 50.8594C122.288 50.5623 122.344 50.1662 122.386 49.8692L119.809 48.8002C119.045 48.4908 119.087 48.1937 119.978 48.319L122.778 48.5106C122.82 48.2135 122.975 47.8313 123.116 47.5482L120.68 46.1961C119.93 45.7876 119.957 45.5896 120.849 45.7148L123.608 46.2036C123.748 45.9204 123.903 45.5382 124.044 45.255L121.749 43.6198C121.013 43.1123 121.139 42.9282 122.017 43.1525L124.72 44.0373C124.861 43.7541 125.1 43.4849 125.241 43.2017L123.186 41.2972C122.563 40.7046 122.69 40.5205 123.454 40.8299L126.016 41.9979C126.256 41.7286 126.397 41.4455 126.637 41.1762L124.822 39.0024C124.212 38.3109 124.438 38.1406 125.174 38.6481L127.596 40.0992C127.836 39.83 128.062 39.6598 128.301 39.3905L126.726 36.9475C126.229 36.1708 126.441 36.0996 127.079 36.5931L129.36 38.3275C129.599 38.0582 129.924 37.9019 130.164 37.6327L128.942 34.8353C128.544 34.0725 128.77 33.9023 129.393 34.4948L131.434 36.4984C131.66 36.3282 131.985 36.1719 132.31 36.0156L131.371 33.359C131.086 32.5111 131.298 32.4399 131.809 33.1176L133.61 35.3904C133.935 35.2341 134.26 35.0778 134.486 34.9075L133.871 32.0947C133.685 31.2607 133.897 31.1895 134.408 31.8672L135.884 34.2963C136.209 34.14 136.52 34.0827 136.831 34.0254L136.528 31.1552C136.455 30.2362 136.667 30.165 137.051 31.0268L138.202 33.6122C138.513 33.5549 138.824 33.4976 139.135 33.4403L139.228 30.6258C139.254 29.7207 139.452 29.7485 139.737 30.5964L140.563 33.3381C140.874 33.2808 141.284 33.2375 141.581 33.2792L141.985 30.4074C142.11 29.5162 142.308 29.544 142.494 30.378L143.108 33.1909C143.405 33.2327 143.815 33.1893 144.113 33.2311L144.799 30.5001C145.024 29.6227 145.222 29.6506 145.294 30.5696L145.626 33.2418ZM140.606 71.1118C150.014 72.4339 158.711 65.8805 160.033 56.4729C161.355 47.0654 154.802 38.3687 145.394 37.0465C135.986 35.7244 127.205 42.1649 125.882 51.5724C124.56 60.98 131.199 69.7896 140.606 71.1118Z" fill="black"/>
<path d="M145.626 33.2418C145.725 33.2557 145.824 33.2696 145.923 33.2835C146.121 33.3113 146.418 33.3531 146.616 33.3809L147.699 30.7056C148.022 29.8422 148.206 29.9691 148.194 30.7752L148.101 33.5897C148.399 33.6314 148.781 33.7861 149.078 33.8279L150.444 31.2933C150.852 30.5429 151.05 30.5707 150.925 31.462L150.436 34.2208C150.719 34.3616 151.102 34.5163 151.399 34.558L153.034 32.2633C153.541 31.5267 153.726 31.6536 153.501 32.5309L152.716 35.248C152.999 35.3888 153.381 35.5435 153.65 35.7833L155.47 33.6154C156.062 32.9918 156.246 33.1186 155.937 33.883L154.854 36.5584C155.123 36.7982 155.406 36.9389 155.676 37.1787L157.764 35.2507C158.456 34.641 158.64 34.7678 158.218 35.6173L156.866 38.0529C157.135 38.2927 157.404 38.5325 157.574 38.7584L159.918 37.1691C160.596 36.6585 160.78 36.7853 160.273 37.5219L158.51 40.0007C158.78 40.2405 158.95 40.4664 159.205 40.8053L161.706 39.5409C162.468 39.1432 162.652 39.2701 162.046 39.9927L160.141 42.0477C160.312 42.2735 160.567 42.6124 160.723 42.9373L163.394 41.8988C164.242 41.6141 164.313 41.826 163.635 42.3367L161.461 44.1518C161.618 44.4768 161.774 44.8017 161.93 45.1266L164.658 44.3991C165.492 44.2134 165.563 44.4254 164.9 44.837L162.556 46.4262C162.712 46.7512 162.769 47.0622 162.925 47.3871L165.711 46.9706C166.531 46.8839 166.701 47.1098 165.839 47.4936L163.339 48.7579C163.396 49.0689 163.552 49.3938 163.596 49.8039L166.325 49.7835C167.23 49.8098 167.202 50.0078 166.454 50.3065L163.896 51.2598C163.953 51.5708 163.997 51.9808 164.054 52.2918L166.841 52.5825C167.732 52.7078 167.704 52.9058 166.87 53.0916L164.156 53.72C164.213 54.031 164.158 54.4271 164.116 54.7242L166.748 55.397C167.625 55.6213 167.597 55.8193 166.678 55.8921L163.907 56.2096C163.865 56.5066 163.81 56.9027 163.768 57.1998C163.768 57.1998 163.768 57.1998 163.754 57.2989L166.358 58.1698C167.222 58.4931 167.194 58.6911 166.289 58.6649L163.559 58.6852C163.504 59.0813 163.363 59.3645 163.307 59.7606L165.757 61.0137C166.507 61.4221 166.479 61.6202 165.588 61.4949L162.914 61.1191C162.773 61.4023 162.718 61.7984 162.577 62.0816L164.886 63.6178C165.622 64.1253 165.495 64.3094 164.717 64.0991L162.085 63.4262C161.944 63.7094 161.79 64.0916 161.649 64.3747L163.718 66.1802C164.341 66.7728 164.313 66.9708 163.45 66.6475L160.959 65.6915C160.719 65.9608 160.564 66.3429 160.325 66.6122L162.168 68.5879C162.791 69.1805 162.65 69.4636 161.801 69.0413L159.308 67.3782C159.068 67.6474 158.828 67.9167 158.589 68.1859L160.206 70.3319C160.716 71.0095 160.59 71.1937 159.853 70.6862L157.643 69.1639C157.404 69.4331 157.164 69.7024 156.839 69.8587L158.23 72.1748C158.628 72.9376 158.501 73.1217 157.778 72.5153L155.709 70.7098C155.371 70.9651 155.145 71.1353 154.82 71.2916L155.886 73.7641C156.27 74.6259 156.058 74.6971 155.448 74.0055L153.605 72.0298C153.28 72.1861 152.955 72.3424 152.63 72.4987L153.372 75.1274C153.657 75.9753 153.445 76.0465 152.934 75.3688L151.43 73.1378C151.105 73.2941 150.78 73.4504 150.356 73.5928L150.786 76.2788C150.972 77.1128 150.76 77.184 150.263 76.4073L148.985 74.006C148.674 74.0633 148.25 74.2057 147.939 74.2629L148.073 76.9072C148.145 77.8263 147.848 77.7845 147.55 77.0357L146.554 74.7752C146.243 74.8325 145.833 74.8758 145.522 74.9331L145.345 77.6347C145.319 78.5398 145.021 78.4981 144.836 77.6641L144.094 75.0354C143.783 75.0926 143.387 75.037 142.977 75.0803L142.403 77.7262C142.278 78.6174 141.981 78.5757 141.894 77.7556L141.676 74.9984C141.28 74.9427 140.983 74.901 140.573 74.9444L139.702 77.5485C139.378 78.4119 139.18 78.3841 139.207 77.4789L139.186 74.7495C138.79 74.6938 138.493 74.6521 138.111 74.4974L136.957 76.9608C136.648 77.7251 136.35 77.6834 136.476 76.7921L136.752 74.1045C136.37 73.9498 136.073 73.908 135.79 73.7673L134.254 76.0759C133.845 76.8264 133.548 76.7846 133.773 75.9073L134.346 73.2614C134.063 73.1207 133.681 72.966 133.398 72.8252L131.677 75.007C131.17 75.7435 130.887 75.6027 131.21 74.7393L132.081 72.1352C131.798 71.9944 131.529 71.7546 131.146 71.5999L129.157 73.5419C128.564 74.1655 128.38 74.0387 128.689 73.2743L129.943 70.8248C129.673 70.585 129.404 70.3452 129.121 70.2044L126.961 71.9206C126.283 72.4312 126.099 72.3043 126.607 71.5678L128.143 69.2591C127.874 69.0193 127.604 68.7795 127.448 68.4546L125.16 69.6478C124.383 70.1445 124.213 69.9186 124.806 69.295L126.526 67.1132C126.257 66.8734 126.1 66.5485 125.93 66.3226L123.444 67.4879C122.681 67.8856 122.511 67.6597 123.103 67.0361L125.093 65.0941C124.937 64.7692 124.766 64.5433 124.61 64.2184L121.967 65.0588C121.12 65.3436 121.048 65.1316 121.726 64.6209L123.985 62.9187C123.829 62.5938 123.672 62.2689 123.615 61.9579L120.915 62.4873C120.081 62.6731 120.01 62.4611 120.787 61.9643L123.202 60.5871C123.046 60.2622 122.988 59.9512 122.931 59.6402L119.976 59.8307C119.057 59.9035 118.985 59.6915 119.847 59.3077L122.419 58.2554C122.361 57.9444 122.318 57.5344 122.261 57.2234L119.446 57.1308C118.541 57.1045 118.569 56.9065 119.417 56.6217L122.06 55.7813C122.002 55.4703 122.058 55.0742 122.001 54.7632L119.242 54.2745C118.351 54.1493 118.392 53.8522 119.212 53.7655L122.011 53.25C122.053 52.9529 122.01 52.5429 122.051 52.2458L119.334 51.46C118.457 51.2357 118.499 50.9386 119.404 50.9649L122.246 50.8594C122.288 50.5623 122.344 50.1662 122.386 49.8692L119.809 48.8002C119.045 48.4908 119.087 48.1937 119.978 48.319L122.778 48.5106C122.82 48.2135 122.975 47.8313 123.116 47.5482L120.68 46.1961C119.93 45.7876 119.957 45.5896 120.849 45.7148L123.608 46.2036C123.748 45.9204 123.903 45.5382 124.044 45.255L121.749 43.6198C121.013 43.1123 121.139 42.9282 122.017 43.1525L124.72 44.0373C124.861 43.7541 125.1 43.4849 125.241 43.2017L123.186 41.2972C122.563 40.7046 122.69 40.5205 123.454 40.8299L126.016 41.9979C126.256 41.7286 126.397 41.4455 126.637 41.1762L124.822 39.0024C124.212 38.3109 124.438 38.1406 125.174 38.6481L127.596 40.0992C127.836 39.83 128.062 39.6598 128.301 39.3905L126.726 36.9475C126.229 36.1708 126.441 36.0996 127.079 36.5931L129.36 38.3275C129.599 38.0582 129.924 37.9019 130.164 37.6327L128.942 34.8353C128.544 34.0725 128.77 33.9023 129.393 34.4948L131.434 36.4984C131.66 36.3282 131.985 36.1719 132.31 36.0156L131.371 33.359C131.086 32.5111 131.298 32.4399 131.809 33.1176L133.61 35.3904C133.935 35.2341 134.26 35.0778 134.486 34.9075L133.871 32.0947C133.685 31.2607 133.897 31.1895 134.408 31.8672L135.884 34.2963C136.209 34.14 136.52 34.0827 136.831 34.0254L136.528 31.1552C136.455 30.2362 136.667 30.165 137.051 31.0268L138.202 33.6122C138.513 33.5549 138.824 33.4976 139.135 33.4403L139.228 30.6258C139.254 29.7207 139.452 29.7485 139.737 30.5964L140.563 33.3381C140.874 33.2808 141.284 33.2375 141.581 33.2792L141.985 30.4074C142.11 29.5162 142.308 29.544 142.494 30.378L143.108 33.1909C143.405 33.2327 143.815 33.1893 144.113 33.2311L144.799 30.5001C145.024 29.6227 145.222 29.6506 145.294 30.5696L145.626 33.2418ZM140.606 71.1118C150.014 72.4339 158.711 65.8805 160.033 56.4729C161.355 47.0654 154.802 38.3687 145.394 37.0465C135.986 35.7244 127.205 42.1649 125.882 51.5724C124.56 60.98 131.199 69.7896 140.606 71.1118Z" fill="#7F7F7F"/>
<path d="M145.626 33.2418C145.725 33.2557 145.824 33.2696 145.923 33.2835C146.121 33.3113 146.418 33.3531 146.616 33.3809L147.699 30.7056C148.022 29.8422 148.206 29.9691 148.194 30.7752L148.101 33.5897C148.399 33.6314 148.781 33.7861 149.078 33.8279L150.444 31.2933C150.852 30.5429 151.05 30.5707 150.925 31.462L150.436 34.2208C150.719 34.3616 151.102 34.5163 151.399 34.558L153.034 32.2633C153.541 31.5267 153.726 31.6536 153.501 32.5309L152.716 35.248C152.999 35.3888 153.381 35.5435 153.65 35.7833L155.47 33.6154C156.062 32.9918 156.246 33.1186 155.937 33.883L154.854 36.5584C155.123 36.7982 155.406 36.9389 155.676 37.1787L157.764 35.2507C158.456 34.641 158.64 34.7678 158.218 35.6173L156.866 38.0529C157.135 38.2927 157.404 38.5325 157.574 38.7584L159.918 37.1691C160.596 36.6585 160.78 36.7853 160.273 37.5219L158.51 40.0007C158.78 40.2405 158.95 40.4664 159.205 40.8053L161.706 39.5409C162.468 39.1432 162.652 39.2701 162.046 39.9927L160.141 42.0477C160.312 42.2735 160.567 42.6124 160.723 42.9373L163.394 41.8988C164.242 41.6141 164.313 41.826 163.635 42.3367L161.461 44.1518C161.618 44.4768 161.774 44.8017 161.93 45.1266L164.658 44.3991C165.492 44.2134 165.563 44.4254 164.9 44.837L162.556 46.4262C162.712 46.7512 162.769 47.0622 162.925 47.3871L165.711 46.9706C166.531 46.8839 166.701 47.1098 165.839 47.4936L163.339 48.7579C163.396 49.0689 163.552 49.3938 163.596 49.8039L166.325 49.7835C167.23 49.8098 167.202 50.0078 166.454 50.3065L163.896 51.2598C163.953 51.5708 163.997 51.9808 164.054 52.2918L166.841 52.5825C167.732 52.7078 167.704 52.9058 166.87 53.0916L164.156 53.72C164.213 54.031 164.158 54.4271 164.116 54.7242L166.748 55.397C167.625 55.6213 167.597 55.8193 166.678 55.8921L163.907 56.2096C163.865 56.5066 163.81 56.9027 163.768 57.1998C163.768 57.1998 163.768 57.1998 163.754 57.2989L166.358 58.1698C167.222 58.4931 167.194 58.6911 166.289 58.6649L163.559 58.6852C163.504 59.0813 163.363 59.3645 163.307 59.7606L165.757 61.0137C166.507 61.4221 166.479 61.6202 165.588 61.4949L162.914 61.1191C162.773 61.4023 162.718 61.7984 162.577 62.0816L164.886 63.6178C165.622 64.1253 165.495 64.3094 164.717 64.0991L162.085 63.4262C161.944 63.7094 161.79 64.0916 161.649 64.3747L163.718 66.1802C164.341 66.7728 164.313 66.9708 163.45 66.6475L160.959 65.6915C160.719 65.9608 160.564 66.3429 160.325 66.6122L162.168 68.5879C162.791 69.1805 162.65 69.4636 161.801 69.0413L159.308 67.3782C159.068 67.6474 158.828 67.9167 158.589 68.1859L160.206 70.3319C160.716 71.0095 160.59 71.1937 159.853 70.6862L157.643 69.1639C157.404 69.4331 157.164 69.7024 156.839 69.8587L158.23 72.1748C158.628 72.9376 158.501 73.1217 157.778 72.5153L155.709 70.7098C155.371 70.9651 155.145 71.1353 154.82 71.2916L155.886 73.7641C156.27 74.6259 156.058 74.6971 155.448 74.0055L153.605 72.0298C153.28 72.1861 152.955 72.3424 152.63 72.4987L153.372 75.1274C153.657 75.9753 153.445 76.0465 152.934 75.3688L151.43 73.1378C151.105 73.2941 150.78 73.4504 150.356 73.5928L150.786 76.2788C150.972 77.1128 150.76 77.184 150.263 76.4073L148.985 74.006C148.674 74.0633 148.25 74.2057 147.939 74.2629L148.073 76.9072C148.145 77.8263 147.848 77.7845 147.55 77.0357L146.554 74.7752C146.243 74.8325 145.833 74.8758 145.522 74.9331L145.345 77.6347C145.319 78.5398 145.021 78.4981 144.836 77.6641L144.094 75.0354C143.783 75.0926 143.387 75.037 142.977 75.0803L142.403 77.7262C142.278 78.6174 141.981 78.5757 141.894 77.7556L141.676 74.9984C141.28 74.9427 140.983 74.901 140.573 74.9444L139.702 77.5485C139.378 78.4119 139.18 78.3841 139.207 77.4789L139.186 74.7495C138.79 74.6938 138.493 74.6521 138.111 74.4974L136.957 76.9608C136.648 77.7251 136.35 77.6834 136.476 76.7921L136.752 74.1045C136.37 73.9498 136.073 73.908 135.79 73.7673L134.254 76.0759C133.845 76.8264 133.548 76.7846 133.773 75.9073L134.346 73.2614C134.063 73.1207 133.681 72.966 133.398 72.8252L131.677 75.007C131.17 75.7435 130.887 75.6027 131.21 74.7393L132.081 72.1352C131.798 71.9944 131.529 71.7546 131.146 71.5999L129.157 73.5419C128.564 74.1655 128.38 74.0387 128.689 73.2743L129.943 70.8248C129.673 70.585 129.404 70.3452 129.121 70.2044L126.961 71.9206C126.283 72.4312 126.099 72.3043 126.607 71.5678L128.143 69.2591C127.874 69.0193 127.604 68.7795 127.448 68.4546L125.16 69.6478C124.383 70.1445 124.213 69.9186 124.806 69.295L126.526 67.1132C126.257 66.8734 126.1 66.5485 125.93 66.3226L123.444 67.4879C122.681 67.8856 122.511 67.6597 123.103 67.0361L125.093 65.0941C124.937 64.7692 124.766 64.5433 124.61 64.2184L121.967 65.0588C121.12 65.3436 121.048 65.1316 121.726 64.6209L123.985 62.9187C123.829 62.5938 123.672 62.2689 123.615 61.9579L120.915 62.4873C120.081 62.6731 120.01 62.4611 120.787 61.9643L123.202 60.5871C123.046 60.2622 122.988 59.9512 122.931 59.6402L119.976 59.8307C119.057 59.9035 118.985 59.6915 119.847 59.3077L122.419 58.2554C122.361 57.9444 122.318 57.5344 122.261 57.2234L119.446 57.1308C118.541 57.1045 118.569 56.9065 119.417 56.6217L122.06 55.7813C122.002 55.4703 122.058 55.0742 122.001 54.7632L119.242 54.2745C118.351 54.1493 118.392 53.8522 119.212 53.7655L122.011 53.25C122.053 52.9529 122.01 52.5429 122.051 52.2458L119.334 51.46C118.457 51.2357 118.499 50.9386 119.404 50.9649L122.246 50.8594C122.288 50.5623 122.344 50.1662 122.386 49.8692L119.809 48.8002C119.045 48.4908 119.087 48.1937 119.978 48.319L122.778 48.5106C122.82 48.2135 122.975 47.8313 123.116 47.5482L120.68 46.1961C119.93 45.7876 119.957 45.5896 120.849 45.7148L123.608 46.2036C123.748 45.9204 123.903 45.5382 124.044 45.255L121.749 43.6198C121.013 43.1123 121.139 42.9282 122.017 43.1525L124.72 44.0373C124.861 43.7541 125.1 43.4849 125.241 43.2017L123.186 41.2972C122.563 40.7046 122.69 40.5205 123.454 40.8299L126.016 41.9979C126.256 41.7286 126.397 41.4455 126.637 41.1762L124.822 39.0024C124.212 38.3109 124.438 38.1406 125.174 38.6481L127.596 40.0992C127.836 39.83 128.062 39.6598 128.301 39.3905L126.726 36.9475C126.229 36.1708 126.441 36.0996 127.079 36.5931L129.36 38.3275C129.599 38.0582 129.924 37.9019 130.164 37.6327L128.942 34.8353C128.544 34.0725 128.77 33.9023 129.393 34.4948L131.434 36.4984C131.66 36.3282 131.985 36.1719 132.31 36.0156L131.371 33.359C131.086 32.5111 131.298 32.4399 131.809 33.1176L133.61 35.3904C133.935 35.2341 134.26 35.0778 134.486 34.9075L133.871 32.0947C133.685 31.2607 133.897 31.1895 134.408 31.8672L135.884 34.2963C136.209 34.14 136.52 34.0827 136.831 34.0254L136.528 31.1552C136.455 30.2362 136.667 30.165 137.051 31.0268L138.202 33.6122C138.513 33.5549 138.824 33.4976 139.135 33.4403L139.228 30.6258C139.254 29.7207 139.452 29.7485 139.737 30.5964L140.563 33.3381C140.874 33.2808 141.284 33.2375 141.581 33.2792L141.985 30.4074C142.11 29.5162 142.308 29.544 142.494 30.378L143.108 33.1909C143.405 33.2327 143.815 33.1893 144.113 33.2311L144.799 30.5001C145.024 29.6227 145.222 29.6506 145.294 30.5696L145.626 33.2418ZM140.606 71.1118C150.014 72.4339 158.711 65.8805 160.033 56.4729C161.355 47.0654 154.802 38.3687 145.394 37.0465C135.986 35.7244 127.205 42.1649 125.882 51.5724C124.56 60.98 131.199 69.7896 140.606 71.1118Z" fill="#777777"/>
<path d="M178.1 55.8002C179.4 55.6002 179.4 55.3002 178.1 55.0002L174.4 54.3002C174.4 54.2002 174.4 54.1002 174.4 54.0002C174.4 53.5002 174.4 53.0002 174.4 52.5002L178 51.6002C179.3 51.3002 179.2 50.9002 177.9 50.8002L174.2 50.5002C174.1 49.9002 174.1 49.4002 174 48.8002L177.5 47.5002C178.7 47.0002 178.7 46.7002 177.4 46.7002L173.7 46.8002C173.6 46.2002 173.4 45.7002 173.3 45.1002L176.6 43.4002C177.8 42.8002 177.6 42.5002 176.4 42.7002L172.7 43.3002C172.5 42.8002 172.3 42.2002 172.1 41.7002L175.2 39.6002C176.3 38.8002 176.1 38.5002 174.9 38.9002L171.3 39.9002C171 39.4002 170.8 38.9002 170.5 38.4002L173.3 35.9002C174.3 35.0002 174.1 34.7002 172.9 35.2002L169.5 36.6002C169.2 36.1002 168.8 35.6002 168.5 35.2002L171 32.4002C171.9 31.4002 171.7 31.2002 170.5 31.8002L167 33.6002C166.6 33.2002 166.3 32.7002 165.9 32.3002L168.1 29.2002C168.9 28.1002 168.6 27.9002 167.5 28.6002L164.5 30.8002C164.1 30.4002 163.7 30.0002 163.2 29.7002L165 26.4002C165.6 25.2002 165.3 25.0002 164.4 25.9002L161.7 28.4002C161.2 28.1002 160.8 27.7002 160.3 27.4002L161.7 23.9002C162.2 22.7002 161.9 22.5002 161 23.5002L158.6 26.3002C158.1 26.0002 157.6 25.8002 157.1 25.5002L158 21.9002C158.3 20.6002 158 20.5002 157.3 21.6002L155.3 24.7002C154.8 24.5002 154.2 24.3002 153.7 24.1002L154.2 20.4002C154.4 19.1002 154.1 19.0002 153.5 20.2002L151.8 23.5002C151.3 23.3002 150.7 23.2002 150.1 23.1002L150.2 19.4002C150.2 18.1002 149.9 18.0002 149.4 19.3002L148.1 22.8002C147.5 22.7002 147 22.6002 146.4 22.6002L145.8 19.0002C145.7 17.7002 145.3 17.7002 145 18.9002L144.1 22.5002C143.7 22.5002 143.3 22.5002 142.9 22.5002C142.7 22.5002 142.5 22.5002 142.4 22.5002L141.6 18.8002C141.3 17.5002 141 17.5002 140.8 18.8002L140.4 22.5002C139.8 22.5002 139.3 22.6002 138.7 22.7002L137.4 19.2002C137 18.0002 136.6 18.0002 136.6 19.3002L136.7 23.0002C136.1 23.1002 135.6 23.2002 135 23.4002L133.4 20.0002C132.8 18.8002 132.5 18.9002 132.6 20.2002L133 23.9002C132.5 24.1002 131.9 24.3002 131.4 24.5002L129.4 21.4002C128.7 20.3002 128.4 20.4002 128.7 21.7002L129.6 25.3002C129.1 25.5002 128.6 25.8002 128.1 26.1002L125.7 23.2002C124.9 22.2002 124.6 22.4002 125 23.6002L126.3 27.1002C125.8 27.4002 125.3 27.7002 124.9 28.0002L122.2 25.4002C121.2 24.5002 121 24.7002 121.6 25.9002L123.3 29.2002C122.9 29.6002 122.4 29.9002 122 30.3002L119 28.1002C117.9 27.3002 117.7 27.6002 118.4 28.6002L120.5 31.7002C120.1 32.1002 119.7 32.5002 119.3 33.0002L116.1 31.1002C115 30.4002 114.7 30.7002 115.6 31.7002L118 34.5002C117.7 34.9002 117.3 35.4002 117 35.9002L113.6 34.4002C112.4 33.9002 112.2 34.2002 113.2 35.1002L116 37.6002C115.7 38.1002 115.4 38.6002 115.2 39.1002L111.6 38.1002C110.3 37.7002 110.2 38.1002 111.3 38.8002L114.3 40.9002C114.1 41.4002 113.8 41.9002 113.6 42.5002L109.9 41.9002C108.6 41.7002 108.5 42.0002 109.6 42.6002L112.9 44.4002C112.7 44.9002 112.6 45.5002 112.4 46.0002L108.7 45.9002C107.4 45.9002 107.3 46.2002 108.5 46.7002L112 48.0002C111.9 48.6002 111.8 49.1002 111.7 49.7002L108 50.2002C106.7 50.3002 106.7 50.6002 107.9 51.0002L111.5 52.0002C111.5 52.6002 111.4 53.1002 111.4 53.7002L107.7 54.4002C106.4 54.6002 106.4 55.0002 107.7 55.2002L111.4 55.7002C111.4 56.3002 111.5 56.8002 111.5 57.4002L107.9 58.5002C106.6 58.9002 106.7 59.2002 108 59.3002L111.7 59.4002C111.8 60.0002 111.9 60.5002 112 61.1002L108.6 62.7002C107.4 63.3002 107.5 63.6002 108.8 63.5002L112.5 63.1002C112.7 63.7002 112.8 64.2002 113 64.8002L109.8 66.7002C108.7 67.4002 108.8 67.7002 110.1 67.4002L113.8 66.6002C114 67.1002 114.3 67.6002 114.5 68.2002L111.6 70.5002C110.6 71.3002 110.7 71.6002 112 71.2002L115.5 70.0002C115.8 70.5002 116.1 71.0002 116.4 71.5002L114 73.9002C113.1 74.8002 113.3 75.1002 114.4 74.5002L117.8 72.9002C118.1 73.4002 118.5 73.8002 118.9 74.2002L116.6 77.1002C115.8 78.1002 116 78.4002 117.1 77.7002L120.2 75.7002C120.6 76.1002 121 76.5002 121.4 76.9002L119.5 80.1002C118.8 81.2002 119.1 81.4002 120.1 80.6002L123 78.2002C123.4 78.6002 123.9 78.9002 124.4 79.3002L122.8 82.7002C122.2 83.9002 122.5 84.1002 123.4 83.1002L126 80.4002C126.5 80.7002 127 81.0002 127.5 81.3002L126.3 84.8002C125.9 86.0002 126.2 86.2002 127 85.2002L129.3 82.2002C129.8 82.4002 130.3 82.7002 130.9 82.9002L130.2 86.6002C129.9 87.9002 130.3 88.0002 130.9 86.9002L132.8 83.7002C133.3 83.9002 133.9 84.1002 134.4 84.2002L134 88.0002C133.9 89.3002 134.2 89.4002 134.8 88.2002L136.3 84.8002C136.9 84.9002 137.4 85.0002 138 85.1002L138.2 88.8002C138.3 90.1002 138.6 90.1002 139 88.9002L140 85.3002C140.6 85.4002 141.2 85.4002 141.7 85.4002L142.3 89.1002C142.5 90.4002 142.8 90.4002 143.1 89.1002L143.8 85.4002C144.4 85.4002 144.9 85.4002 145.5 85.3002L146.5 88.9002C146.9 90.2002 147.2 90.1002 147.3 88.8002L147.5 85.1002C148.1 85.0002 148.6 84.9002 149.2 84.8002L150.6 88.2002C151.1 89.4002 151.4 89.3002 151.4 88.0002L151 84.5002C151.6 84.4002 152.1 84.2002 152.6 84.0002L154.5 87.2002C155.2 88.3002 155.5 88.2002 155.2 86.9002L154.5 83.2002C155 83.0002 155.6 82.8002 156.1 82.5002L158.3 85.5002C159.1 86.6002 159.4 86.4002 159 85.1002L158 81.7002C158.5 81.4002 159 81.1002 159.5 80.8002L162 83.5002C162.9 84.5002 163.2 84.3002 162.7 83.1002L161.2 79.7002C161.7 79.4002 162.1 79.0002 162.6 78.7002L165.5 81.1002C166.5 81.9002 166.8 81.7002 166.1 80.6002L164.2 77.4002C164.6 77.0002 165 76.6002 165.4 76.2002L168.5 78.2002C169.6 78.9002 169.8 78.7002 169 77.6002L166.7 74.7002C167.1 74.3002 167.4 73.8002 167.8 73.4002L171.2 75.1002C172.4 75.7002 172.6 75.4002 171.7 74.5002L169 71.8002C169.3 71.3002 169.6 70.9002 169.9 70.4002L173.4 71.6002C174.6 72.0002 174.8 71.7002 173.8 70.9002L170.9 68.6002C171.2 68.1002 171.4 67.6002 171.7 67.0002L175.3 67.8002C176.6 68.1002 176.7 67.8002 175.6 67.1002L172.4 65.1002C172.6 64.6002 172.8 64.0002 173 63.5002L176.7 63.9002C178 64.0002 178.1 63.7002 176.9 63.1002L173.5 61.5002C173.6 60.9002 173.8 60.4002 173.9 59.8002L177.6 59.7002C178.9 59.7002 179 59.3002 177.7 58.9002L174.2 58.0002C174.3 57.4002 174.3 56.9002 174.4 56.3002L178.1 55.8002ZM129.9 73.4002C128.9 75.2002 126.3 75.4002 124.7 74.5002C123.6 73.9002 121 71.4002 118.6 67.5002C116.4 63.5002 115.2 59.0002 115.2 54.1002C115.2 45.9002 118.7 38.6002 124.4 33.5002C126.2 32.5002 128.7 32.7002 129.7 34.4002L139.6 51.4002C140.4 52.8002 140.4 55.5002 139.5 56.9002L129.9 73.4002ZM164.4 71.6002C161.2 75.4002 157.1 78.4002 152.3 80.1002C146.1 81.9002 138 82.0002 134.9 80.3002C132.8 79.3002 132 77.1002 133 75.3002L142.8 58.3002C143.6 56.9002 145.7 55.7002 147.3 55.7002H166.4C168.5 55.7002 169.9 57.5002 169.9 59.3002C169.9 60.9002 168.6 66.4002 164.4 71.6002ZM141.5 54.0002C141.5 53.2002 142.2 52.5002 143 52.5002C143.8 52.5002 144.5 53.2002 144.5 54.0002C144.5 54.8002 143.8 55.5002 143 55.5002C142.2 55.5002 141.5 54.8002 141.5 54.0002ZM166.8 52.2002H146.8C145.1 52.1002 143.1 50.7002 142.3 49.2002L132.8 32.7002C131.8 30.9002 132.9 28.9002 134.5 28.0002C135.6 27.4002 139.1 26.3002 143.7 26.3002C156.8 26.6002 167.6 36.1002 170.1 48.5002C170.4 50.6002 168.6 52.2002 166.8 52.2002Z" fill="url(#paint1_linear_76_2257)"/>
</g>
<rect x="98.5" y="9.5" width="89" height="89" rx="20.5" stroke="#E8E8E8" shape-rendering="crispEdges"/>
</g>
<g filter="url(#filter1_d_76_2257)">
<g filter="url(#filter2_d_76_2257)">
<g clip-path="url(#clip1_76_2257)">
<mask id="path-11-inside-1_76_2257" fill="white">
<path d="M15 132.559C15 126.413 15 123.34 16.1962 120.992C17.2483 118.927 18.9272 117.248 20.9922 116.196C23.3398 115 26.4129 115 32.5592 115H253.513C259.659 115 262.732 115 265.08 116.196C267.145 117.248 268.824 118.927 269.876 120.992C271.072 123.34 271.072 126.413 271.072 132.559V156H15V132.559Z"/>
</mask>
<path d="M15 132.559C15 126.413 15 123.34 16.1962 120.992C17.2483 118.927 18.9272 117.248 20.9922 116.196C23.3398 115 26.4129 115 32.5592 115H253.513C259.659 115 262.732 115 265.08 116.196C267.145 117.248 268.824 118.927 269.876 120.992C271.072 123.34 271.072 126.413 271.072 132.559V156H15V132.559Z" fill="white"/>
<g filter="url(#filter3_d_76_2257)">
<rect x="29.6327" y="122" width="27" height="27" rx="5" fill="white" shape-rendering="crispEdges"/>
<path d="M55.6327 135.5C55.6327 138.815 54.3157 141.995 51.9715 144.339C49.6273 146.683 46.4479 148 43.1327 148C39.8175 148 36.6381 146.683 34.2939 144.339C31.9497 141.995 30.6327 138.815 30.6327 135.5C30.6327 132.185 31.9497 129.005 34.2939 126.661C36.6381 124.317 39.8175 123 43.1327 123C46.4479 123 49.6273 124.317 51.9715 126.661C54.3157 129.005 55.6327 132.185 55.6327 135.5Z" fill="url(#paint2_linear_76_2257)"/>
<path d="M43.1327 123.652C43.0317 123.652 42.9505 123.733 42.9505 123.834V125.936C42.9505 126.037 43.0317 126.118 43.1327 126.118C43.2337 126.118 43.3149 126.037 43.3149 125.936V123.834C43.3149 123.733 43.2337 123.652 43.1327 123.652ZM41.9405 123.727C41.9284 123.726 41.9159 123.726 41.9034 123.727C41.803 123.738 41.7306 123.827 41.7411 123.928L41.8329 124.807C41.8434 124.907 41.9327 124.98 42.0331 124.969C42.1335 124.959 42.2059 124.87 42.1954 124.769L42.1036 123.89C42.0945 123.802 42.025 123.735 41.9405 123.727ZM44.3333 123.728C44.2488 123.736 44.1792 123.803 44.17 123.89L44.0775 124.77C44.0669 124.87 44.1394 124.96 44.2398 124.97C44.3402 124.981 44.4295 124.908 44.44 124.808L44.5325 123.929C44.5431 123.828 44.4707 123.739 44.3703 123.728C44.3577 123.727 44.3454 123.727 44.3333 123.728ZM40.7157 123.905C40.7036 123.905 40.6913 123.906 40.6789 123.909C40.5801 123.93 40.5174 124.026 40.5384 124.125L40.9737 126.181C40.9946 126.28 41.091 126.343 41.1898 126.322C41.2886 126.301 41.3512 126.205 41.3303 126.106L40.895 124.049C40.8767 123.963 40.8006 123.904 40.7157 123.905ZM45.5579 123.907C45.473 123.906 45.397 123.965 45.3786 124.051L44.9418 126.107C44.9208 126.206 44.9834 126.302 45.0822 126.323C45.1809 126.344 45.2773 126.282 45.2983 126.183L45.7352 124.127C45.7561 124.028 45.6935 123.932 45.5948 123.911C45.5824 123.908 45.5701 123.907 45.5579 123.907ZM39.5469 124.234C39.5233 124.232 39.4989 124.235 39.4749 124.243C39.3789 124.274 39.3267 124.376 39.3579 124.472L39.6311 125.313C39.6624 125.409 39.7648 125.462 39.8608 125.43C39.9568 125.399 40.009 125.297 39.9778 125.201L39.7045 124.36C39.6812 124.288 39.6177 124.24 39.5469 124.234ZM46.7201 124.235C46.6494 124.241 46.5859 124.288 46.5625 124.36L46.2891 125.201C46.2579 125.297 46.3101 125.4 46.4061 125.431C46.5021 125.462 46.6045 125.41 46.6358 125.314L46.9092 124.473C46.9404 124.377 46.8882 124.274 46.7922 124.243C46.7682 124.235 46.7437 124.233 46.7201 124.235ZM38.3911 124.657C38.3674 124.658 38.3434 124.663 38.3204 124.673C38.2282 124.714 38.1869 124.821 38.2279 124.914L39.0817 126.835C39.1227 126.927 39.2299 126.968 39.3222 126.927C39.4144 126.886 39.4558 126.779 39.4148 126.687L38.5609 124.766C38.5301 124.697 38.4621 124.656 38.3911 124.657ZM47.889 124.664C47.818 124.662 47.7499 124.703 47.7191 124.772L46.8627 126.692C46.8215 126.784 46.8626 126.891 46.9549 126.932C47.0471 126.973 47.1544 126.932 47.1955 126.84L48.0519 124.92C48.0931 124.828 48.052 124.721 47.9597 124.68C47.9367 124.669 47.9127 124.664 47.889 124.664ZM37.3182 125.225C37.2832 125.222 37.2472 125.23 37.2144 125.249C37.127 125.3 37.0972 125.411 37.1477 125.498L37.5898 126.264C37.6403 126.351 37.7513 126.381 37.8388 126.331C37.9262 126.28 37.9559 126.169 37.9055 126.082L37.4633 125.316C37.4318 125.261 37.3765 125.229 37.3182 125.225ZM48.9472 125.225C48.8889 125.229 48.8337 125.261 48.8021 125.316L48.3599 126.082C48.3095 126.169 48.3393 126.28 48.4267 126.331C48.5142 126.381 48.6252 126.351 48.6757 126.264L49.1178 125.498C49.1683 125.411 49.1385 125.3 49.0511 125.249C49.0183 125.23 48.9822 125.223 48.9472 125.225ZM36.2764 125.875C36.2414 125.876 36.2063 125.887 36.1756 125.91C36.0939 125.969 36.0758 126.082 36.1351 126.164L37.3694 127.866C37.4287 127.947 37.5423 127.965 37.6241 127.906C37.7058 127.847 37.7238 127.733 37.6645 127.652L36.4301 125.95C36.3931 125.899 36.3349 125.873 36.2764 125.875ZM50.002 125.884C49.9436 125.882 49.8854 125.908 49.8482 125.959L48.6116 127.659C48.5522 127.741 48.5701 127.854 48.6517 127.914C48.7334 127.973 48.847 127.955 48.9064 127.873L50.143 126.174C50.2024 126.092 50.1844 125.978 50.1028 125.919C50.0722 125.897 50.0371 125.885 50.002 125.884ZM35.3452 126.656C35.2987 126.653 35.2513 126.669 35.2137 126.702C35.1387 126.77 35.1327 126.885 35.2002 126.96L35.7919 127.617C35.8594 127.692 35.9742 127.698 36.0492 127.631C36.1243 127.563 36.1303 127.448 36.0627 127.373L35.4712 126.716C35.4374 126.678 35.3918 126.658 35.3452 126.656ZM50.9215 126.657C50.875 126.66 50.8293 126.68 50.7956 126.717L50.2039 127.374C50.1364 127.449 50.1423 127.564 50.2174 127.632C50.2924 127.699 50.4072 127.693 50.4748 127.618L51.0665 126.961C51.134 126.886 51.128 126.771 51.053 126.704C51.0154 126.67 50.968 126.655 50.9215 126.657ZM34.4528 127.513C34.4062 127.516 34.3607 127.536 34.3269 127.573C34.2593 127.648 34.2654 127.763 34.3404 127.831L35.9027 129.237C35.9778 129.305 36.0925 129.299 36.1601 129.224C36.2276 129.148 36.2217 129.034 36.1466 128.966L34.5842 127.56C34.5467 127.526 34.4993 127.511 34.4528 127.513ZM51.8183 127.519C51.7718 127.517 51.7243 127.532 51.6867 127.566L50.1235 128.971C50.0484 129.039 50.0422 129.153 50.1097 129.228C50.1772 129.304 50.292 129.31 50.3671 129.242L51.9305 127.837C52.0056 127.769 52.0117 127.655 51.9442 127.579C51.9104 127.542 51.8648 127.522 51.8183 127.519ZM33.7106 128.467C33.6521 128.465 33.5939 128.491 33.5568 128.543C33.4974 128.624 33.5154 128.738 33.5971 128.797L34.3125 129.317C34.3942 129.376 34.5077 129.358 34.567 129.277C34.6264 129.195 34.6084 129.081 34.5268 129.022L33.8114 128.502C33.7808 128.48 33.7456 128.469 33.7106 128.467ZM52.5598 128.474C52.5247 128.475 52.4896 128.486 52.459 128.509L51.7433 129.028C51.6616 129.087 51.6435 129.201 51.7028 129.283C51.762 129.364 51.8756 129.382 51.9573 129.323L52.673 128.804C52.7548 128.744 52.7728 128.631 52.7135 128.549C52.6764 128.498 52.6182 128.472 52.5598 128.474ZM33.017 129.485C32.9587 129.489 32.9035 129.522 32.8719 129.576C32.8215 129.664 32.8512 129.775 32.9386 129.825L34.7591 130.876C34.8465 130.927 34.9576 130.897 35.0081 130.809C35.0585 130.722 35.0288 130.611 34.9414 130.561L33.1209 129.509C33.0881 129.491 33.052 129.483 33.017 129.485ZM53.2484 129.485C53.2134 129.483 53.1773 129.491 53.1445 129.509L51.324 130.561C51.2366 130.611 51.2069 130.722 51.2573 130.809C51.3078 130.897 51.4189 130.927 51.5063 130.876L53.3268 129.825C53.4143 129.775 53.444 129.664 53.3935 129.576C53.362 129.522 53.3067 129.489 53.2484 129.485ZM32.4926 130.57C32.4216 130.569 32.3535 130.609 32.3226 130.678C32.2815 130.771 32.3226 130.878 32.4148 130.919L33.2224 131.279C33.3146 131.32 33.422 131.279 33.4631 131.187C33.5042 131.095 33.4631 130.988 33.3709 130.946L32.5633 130.586C32.5403 130.576 32.5163 130.571 32.4926 130.57ZM53.7763 130.578C53.7527 130.578 53.7286 130.583 53.7056 130.594L52.8978 130.953C52.8055 130.994 52.7643 131.102 52.8054 131.194C52.8464 131.286 52.9538 131.327 53.046 131.286L53.8538 130.927C53.9461 130.886 53.9872 130.778 53.9462 130.686C53.9154 130.617 53.8474 130.576 53.7763 130.578ZM32.0252 131.704C31.9544 131.71 31.891 131.758 31.8675 131.83C31.8363 131.926 31.8883 132.028 31.9843 132.059L33.983 132.711C34.079 132.742 34.1815 132.69 34.2128 132.594C34.244 132.498 34.192 132.395 34.096 132.364L32.0973 131.713C32.0733 131.705 32.0488 131.702 32.0252 131.704ZM54.2428 131.712C54.2193 131.71 54.1949 131.713 54.1709 131.721L52.1717 132.37C52.0757 132.402 52.0235 132.504 52.0548 132.6C52.086 132.696 52.1884 132.748 52.2844 132.717L54.2835 132.067C54.3795 132.036 54.4318 131.934 54.4006 131.838C54.3771 131.766 54.3136 131.718 54.2428 131.712ZM31.734 132.895C31.6491 132.894 31.573 132.953 31.5546 133.039C31.5336 133.138 31.5963 133.235 31.695 133.255L32.56 133.439C32.6588 133.46 32.7551 133.398 32.7761 133.299C32.7971 133.2 32.7345 133.104 32.6357 133.083L31.7709 132.899C31.7585 132.896 31.7462 132.895 31.734 132.895ZM54.5318 132.897C54.5196 132.897 54.5074 132.898 54.495 132.9L53.6301 133.084C53.5313 133.105 53.4687 133.202 53.4897 133.3C53.5107 133.399 53.607 133.462 53.7058 133.441L54.5707 133.257C54.6695 133.236 54.7322 133.14 54.7112 133.041C54.6928 132.954 54.6166 132.896 54.5318 132.897ZM31.5137 134.092C31.4291 134.1 31.3596 134.167 31.3503 134.255C31.3397 134.355 31.4119 134.444 31.5123 134.455L33.6028 134.676C33.7032 134.687 33.7926 134.614 33.8032 134.514C33.8138 134.413 33.7415 134.324 33.6411 134.313L31.5506 134.092C31.5381 134.091 31.5257 134.091 31.5137 134.092ZM54.7537 134.108C54.7416 134.107 54.7292 134.107 54.7166 134.108L52.6259 134.326C52.5255 134.337 52.4531 134.426 52.4636 134.527C52.4741 134.627 52.5633 134.699 52.6638 134.689L54.7545 134.471C54.8549 134.46 54.9273 134.371 54.9168 134.271C54.9076 134.183 54.8382 134.116 54.7537 134.108ZM31.4783 135.318C31.3773 135.318 31.296 135.399 31.296 135.5C31.296 135.601 31.3773 135.683 31.4783 135.683H32.3625C32.4635 135.683 32.5448 135.601 32.5448 135.5C32.5448 135.399 32.4635 135.318 32.3625 135.318H31.4783ZM53.9029 135.318C53.8019 135.318 53.7207 135.399 53.7207 135.5C53.7207 135.601 53.8019 135.683 53.9029 135.683H54.7871C54.8881 135.683 54.9694 135.601 54.9694 135.5C54.9694 135.399 54.8881 135.318 54.7871 135.318H53.9029ZM33.6387 136.312C33.6266 136.31 33.6143 136.31 33.6017 136.312L31.5109 136.53C31.4105 136.54 31.3381 136.63 31.3486 136.73C31.359 136.83 31.4483 136.903 31.5487 136.892L33.6395 136.674C33.74 136.664 33.8123 136.574 33.8019 136.474C33.7927 136.386 33.7232 136.32 33.6387 136.312ZM52.6256 136.324C52.5411 136.333 52.4715 136.399 52.4623 136.487C52.4517 136.587 52.5239 136.677 52.6243 136.687L54.7148 136.908C54.8152 136.919 54.9046 136.846 54.9152 136.746C54.9258 136.646 54.8535 136.556 54.7531 136.546L52.6627 136.325C52.6501 136.323 52.6377 136.323 52.6256 136.324ZM32.5965 137.556C32.5844 137.556 32.572 137.557 32.5597 137.56L31.6947 137.743C31.596 137.764 31.5334 137.861 31.5543 137.959C31.5753 138.058 31.6717 138.121 31.7705 138.1L32.6354 137.916C32.7342 137.895 32.7968 137.799 32.7758 137.7C32.7575 137.614 32.6814 137.555 32.5965 137.556ZM53.6687 137.557C53.5838 137.556 53.5077 137.615 53.4893 137.702C53.4683 137.801 53.5309 137.897 53.6297 137.918L54.4946 138.102C54.5934 138.123 54.6898 138.06 54.7108 137.961C54.7318 137.863 54.6691 137.766 54.5704 137.745L53.7055 137.561C53.6931 137.559 53.6808 137.557 53.6687 137.557ZM34.053 138.275C34.0294 138.273 34.0051 138.276 33.9811 138.284L31.9819 138.933C31.8859 138.965 31.8337 139.067 31.8649 139.163C31.8961 139.259 31.9986 139.311 32.0946 139.28L34.0937 138.63C34.1897 138.599 34.2419 138.497 34.2107 138.401C34.1873 138.329 34.1238 138.281 34.053 138.275ZM52.2104 138.282C52.1396 138.288 52.0762 138.335 52.0527 138.407C52.0214 138.503 52.0735 138.605 52.1695 138.637L54.1682 139.288C54.2642 139.319 54.3667 139.267 54.398 139.171C54.4293 139.075 54.3772 138.973 54.2812 138.941L52.2825 138.29C52.2585 138.282 52.234 138.28 52.2104 138.282ZM33.2902 139.699C33.2665 139.699 33.2425 139.704 33.2194 139.714L32.4116 140.074C32.3193 140.115 32.2782 140.222 32.3192 140.315C32.3603 140.407 32.4676 140.448 32.5598 140.407L33.3677 140.047C33.4599 140.006 33.5011 139.899 33.46 139.807C33.4293 139.738 33.3612 139.697 33.2902 139.699ZM52.9723 139.705C52.9013 139.704 52.8332 139.744 52.8024 139.814C52.7612 139.906 52.8023 140.013 52.8945 140.054L53.7021 140.414C53.7943 140.456 53.9017 140.414 53.9428 140.322C53.9839 140.23 53.9428 140.123 53.8506 140.082L53.0431 139.721C53.02 139.711 52.996 139.706 52.9723 139.705ZM34.863 140.1C34.828 140.098 34.7919 140.106 34.7591 140.125L32.9386 141.176C32.8512 141.226 32.8215 141.337 32.8719 141.425C32.9224 141.512 33.0335 141.542 33.1209 141.491L34.9414 140.44C35.0288 140.39 35.0585 140.279 35.0081 140.191C34.9765 140.137 34.9213 140.104 34.863 140.1ZM51.4025 140.1C51.3441 140.104 51.2889 140.137 51.2573 140.191C51.2069 140.279 51.2366 140.39 51.324 140.44L53.1445 141.491C53.232 141.542 53.343 141.512 53.3935 141.425C53.444 141.337 53.4143 141.226 53.3268 141.176L51.5063 140.125C51.4735 140.106 51.4375 140.098 51.4025 140.1ZM34.4089 141.643C34.3739 141.644 34.3388 141.655 34.3081 141.678L33.5924 142.197C33.5107 142.256 33.4926 142.37 33.5519 142.451C33.6112 142.533 33.7247 142.551 33.8064 142.492L34.5222 141.973C34.6039 141.913 34.622 141.8 34.5627 141.718C34.5256 141.667 34.4674 141.641 34.4089 141.643ZM51.8521 141.649C51.7937 141.647 51.7355 141.673 51.6984 141.724C51.639 141.806 51.657 141.919 51.7387 141.979L52.4541 142.498C52.5358 142.558 52.6493 142.54 52.7086 142.458C52.768 142.376 52.75 142.263 52.6683 142.204L51.953 141.684C51.9224 141.662 51.8872 141.65 51.8521 141.649ZM36.0299 141.712C35.9833 141.709 35.9359 141.725 35.8983 141.758L34.335 143.164C34.2599 143.231 34.2538 143.346 34.3213 143.421C34.3888 143.496 34.5036 143.502 34.5787 143.435L36.142 142.03C36.2171 141.962 36.2232 141.847 36.1557 141.772C36.122 141.735 36.0764 141.714 36.0299 141.712ZM50.2312 141.717C50.1847 141.719 50.1391 141.74 50.1053 141.777C50.0377 141.852 50.0438 141.967 50.1188 142.034L51.6811 143.441C51.7562 143.508 51.871 143.502 51.9386 143.427C52.0061 143.352 52.0001 143.238 51.9251 143.17L50.3626 141.764C50.3251 141.73 50.2777 141.714 50.2312 141.717ZM37.513 143.052C37.4546 143.05 37.3962 143.076 37.3591 143.127L36.1225 144.827C36.0631 144.909 36.081 145.022 36.1626 145.081C36.2443 145.141 36.3578 145.123 36.4172 145.041L37.6538 143.341C37.7132 143.26 37.6953 143.146 37.6137 143.087C37.5831 143.065 37.548 143.053 37.513 143.052ZM48.7423 143.06C48.7072 143.061 48.6721 143.072 48.6414 143.094C48.5597 143.154 48.5417 143.267 48.6009 143.349L49.8352 145.05C49.8945 145.132 50.008 145.15 50.0898 145.091C50.1715 145.032 50.1896 144.918 50.1303 144.836L48.896 143.135C48.8589 143.084 48.8007 143.058 48.7423 143.06ZM35.9166 143.322C35.8701 143.325 35.8245 143.345 35.7907 143.382L35.199 144.039C35.1315 144.114 35.1374 144.229 35.2125 144.297C35.2875 144.364 35.4023 144.358 35.4698 144.283L36.0616 143.626C36.1291 143.551 36.1231 143.436 36.0481 143.369C36.0105 143.335 35.9631 143.32 35.9166 143.322ZM50.3477 143.323C50.3012 143.32 50.2538 143.336 50.2163 143.37C50.1412 143.437 50.1352 143.552 50.2027 143.627L50.7943 144.284C50.8618 144.359 50.9766 144.365 51.0517 144.298C51.1267 144.23 51.1327 144.115 51.0652 144.04L50.4736 143.383C50.4398 143.346 50.3942 143.325 50.3477 143.323ZM39.2398 144.052C39.1688 144.05 39.1008 144.091 39.0699 144.16L38.2135 146.08C38.1723 146.172 38.2134 146.279 38.3057 146.32C38.3979 146.362 38.5052 146.32 38.5463 146.228L39.4028 144.309C39.4439 144.216 39.4028 144.109 39.3106 144.068C39.2876 144.058 39.2635 144.052 39.2398 144.052ZM47.014 144.057C46.9903 144.058 46.9663 144.063 46.9432 144.073C46.851 144.114 46.8097 144.221 46.8507 144.314L47.7045 146.234C47.7455 146.327 47.8529 146.368 47.9451 146.327C48.0373 146.286 48.0786 146.179 48.0376 146.086L47.1838 144.166C47.1531 144.096 47.085 144.056 47.014 144.057ZM37.7349 144.646C37.6765 144.649 37.6214 144.682 37.5898 144.736L37.1477 145.502C37.0972 145.59 37.127 145.701 37.2144 145.751C37.3018 145.802 37.4129 145.772 37.4633 145.684L37.9055 144.919C37.9559 144.831 37.9262 144.72 37.8388 144.67C37.806 144.651 37.7698 144.643 37.7349 144.646ZM48.5305 144.646C48.4956 144.643 48.4595 144.651 48.4267 144.67C48.3393 144.72 48.3095 144.831 48.36 144.919L48.8021 145.684C48.8526 145.772 48.9636 145.802 49.0511 145.751C49.1385 145.701 49.1683 145.59 49.1178 145.502L48.6757 144.736C48.6441 144.682 48.5889 144.65 48.5305 144.646ZM41.1465 144.673C41.0616 144.672 40.9855 144.731 40.9672 144.817L40.5303 146.874C40.5093 146.972 40.572 147.069 40.6707 147.09C40.7695 147.111 40.8659 147.048 40.8869 146.949L41.3237 144.893C41.3447 144.794 41.2821 144.698 41.1833 144.677C41.171 144.674 41.1586 144.673 41.1465 144.673ZM45.1124 144.674C45.1003 144.674 45.0881 144.676 45.0757 144.678C44.9769 144.699 44.9143 144.795 44.9352 144.894L45.3705 146.951C45.3914 147.049 45.4878 147.112 45.5866 147.091C45.6854 147.07 45.7481 146.974 45.7271 146.875L45.2917 144.819C45.2734 144.732 45.1973 144.674 45.1124 144.674ZM43.1327 144.882C43.0317 144.882 42.9505 144.963 42.9505 145.064V147.166C42.9505 147.267 43.0317 147.348 43.1327 147.348C43.2337 147.348 43.3149 147.267 43.3149 147.166V145.064C43.3149 144.963 43.2337 144.882 43.1327 144.882ZM39.7874 145.561C39.7166 145.567 39.6531 145.614 39.6297 145.686L39.3563 146.527C39.3251 146.623 39.3773 146.726 39.4733 146.757C39.5693 146.788 39.6717 146.736 39.703 146.64L39.9763 145.799C40.0075 145.703 39.9553 145.601 39.8593 145.569C39.8353 145.562 39.8109 145.559 39.7874 145.561ZM46.4766 145.561C46.453 145.559 46.4287 145.562 46.4047 145.57C46.3086 145.601 46.2564 145.703 46.2876 145.799L46.5609 146.64C46.5921 146.736 46.6945 146.789 46.7905 146.757C46.8866 146.726 46.9388 146.624 46.9076 146.528L46.6343 145.687C46.6108 145.615 46.5474 145.567 46.4766 145.561ZM41.9887 146.03C41.9042 146.038 41.8346 146.104 41.8254 146.192L41.733 147.072C41.7224 147.172 41.7947 147.261 41.8951 147.272C41.9956 147.282 42.0849 147.21 42.0955 147.11L42.1879 146.23C42.1985 146.13 42.1261 146.04 42.0257 146.03C42.0132 146.029 42.0008 146.029 41.9887 146.03ZM44.2693 146.031C44.2573 146.029 44.2448 146.029 44.2323 146.031C44.1319 146.041 44.0594 146.131 44.0699 146.231L44.1618 147.11C44.1723 147.211 44.2616 147.283 44.362 147.273C44.4624 147.262 44.5348 147.173 44.5243 147.073L44.4325 146.193C44.4234 146.105 44.3538 146.039 44.2693 146.031Z" fill="#F4F2F3"/>
<path d="M44.1574 136.7L42.0484 134.24L49.4783 129.124C49.963 128.79 50.5256 129.422 50.1381 129.865L44.1574 136.7Z" fill="#FF3B30"/>
<path d="M44.1574 136.7L42.0483 134.24L35.9461 141.196C35.5571 141.639 36.1222 142.273 36.6069 141.937L44.1574 136.7Z" fill="#F1F1F1"/>
<rect x="29.1327" y="121.5" width="28" height="28" rx="5.5" stroke="#E8E8E8" shape-rendering="crispEdges"/>
</g>
<path d="M78.1855 132.52C78.1192 131.96 77.8505 131.526 77.3794 131.217C76.9083 130.908 76.3304 130.753 75.6458 130.753C75.1452 130.753 74.7072 130.834 74.3318 130.996C73.96 131.158 73.6693 131.381 73.4595 131.664C73.2533 131.947 73.1503 132.269 73.1503 132.63C73.1503 132.932 73.2221 133.191 73.3656 133.409C73.5128 133.622 73.7005 133.801 73.9287 133.944C74.1569 134.084 74.3962 134.2 74.6465 134.292C74.8968 134.38 75.1268 134.452 75.3366 134.507L76.485 134.816C76.7794 134.894 77.107 135 77.4677 135.137C77.8321 135.273 78.1799 135.459 78.5112 135.694C78.8461 135.926 79.1222 136.224 79.3394 136.589C79.5565 136.953 79.6651 137.4 79.6651 137.93C79.6651 138.541 79.505 139.093 79.1848 139.587C78.8682 140.08 78.4045 140.472 77.7935 140.763C77.1862 141.053 76.4482 141.199 75.5795 141.199C74.7698 141.199 74.0686 141.068 73.476 140.807C72.8871 140.545 72.4233 140.181 72.0847 139.714C71.7498 139.246 71.5602 138.703 71.5161 138.085H72.9294C72.9662 138.512 73.1098 138.865 73.3601 139.145C73.614 139.421 73.9343 139.627 74.3207 139.763C74.7109 139.896 75.1305 139.962 75.5795 139.962C76.1022 139.962 76.5715 139.877 76.9874 139.708C77.4033 139.535 77.7327 139.296 77.9757 138.99C78.2186 138.681 78.34 138.32 78.34 137.908C78.34 137.533 78.2351 137.227 78.0254 136.992C77.8156 136.756 77.5395 136.565 77.1972 136.418C76.8549 136.27 76.485 136.141 76.0875 136.031L74.6962 135.634C73.8128 135.38 73.1135 135.017 72.5982 134.546C72.0829 134.075 71.8252 133.458 71.8252 132.696C71.8252 132.063 71.9964 131.511 72.3387 131.04C72.6847 130.565 73.1484 130.197 73.73 129.936C74.3152 129.671 74.9685 129.538 75.69 129.538C76.4187 129.538 77.0665 129.669 77.6334 129.93C78.2002 130.188 78.6492 130.541 78.9805 130.99C79.3154 131.439 79.4921 131.949 79.5105 132.52H78.1855ZM83.862 141.199C83.3246 141.199 82.8369 141.098 82.3989 140.895C81.9609 140.689 81.6131 140.393 81.3554 140.006C81.0978 139.616 80.969 139.145 80.969 138.593C80.969 138.107 81.0647 137.713 81.2561 137.411C81.4475 137.106 81.7033 136.867 82.0235 136.694C82.3437 136.521 82.6971 136.392 83.0835 136.307C83.4737 136.219 83.8657 136.149 84.2595 136.097C84.7748 136.031 85.1926 135.981 85.5128 135.948C85.8367 135.911 86.0722 135.851 86.2195 135.766C86.3704 135.681 86.4458 135.534 86.4458 135.324V135.28C86.4458 134.735 86.2968 134.312 85.9986 134.01C85.7042 133.709 85.257 133.558 84.657 133.558C84.035 133.558 83.5473 133.694 83.194 133.966C82.8406 134.239 82.5922 134.529 82.4486 134.839L81.2119 134.397C81.4327 133.882 81.7272 133.48 82.0953 133.193C82.467 132.902 82.8719 132.7 83.3099 132.586C83.7516 132.468 84.1859 132.409 84.6129 132.409C84.8852 132.409 85.1981 132.442 85.5514 132.509C85.9085 132.571 86.2526 132.702 86.5839 132.901C86.9188 133.099 87.1967 133.399 87.4175 133.801C87.6384 134.202 87.7488 134.739 87.7488 135.413V141H86.4458V139.852H86.3796C86.2912 140.036 86.144 140.233 85.9379 140.442C85.7318 140.652 85.4576 140.831 85.1153 140.978C84.773 141.125 84.3552 141.199 83.862 141.199ZM84.0608 140.028C84.576 140.028 85.0104 139.927 85.3637 139.725C85.7207 139.522 85.9894 139.261 86.1698 138.941C86.3538 138.62 86.4458 138.284 86.4458 137.93V136.738C86.3906 136.804 86.2692 136.865 86.0815 136.92C85.8974 136.971 85.6839 137.017 85.441 137.058C85.2018 137.095 84.968 137.128 84.7398 137.157C84.5153 137.183 84.3331 137.205 84.1933 137.224C83.8546 137.268 83.5381 137.34 83.2436 137.439C82.9529 137.535 82.7173 137.68 82.5369 137.875C82.3603 138.066 82.2719 138.328 82.2719 138.659C82.2719 139.112 82.4394 139.454 82.7744 139.686C83.113 139.914 83.5418 140.028 84.0608 140.028ZM93.5302 132.52V133.624H88.9588V132.52H93.5302ZM90.328 141V131.349C90.328 130.863 90.4421 130.459 90.6703 130.135C90.8985 129.811 91.1948 129.568 91.5592 129.406C91.9236 129.244 92.3082 129.163 92.7131 129.163C93.0333 129.163 93.2947 129.189 93.4971 129.24C93.6995 129.292 93.8505 129.34 93.9498 129.384L93.5744 130.51C93.5082 130.488 93.4161 130.46 93.2984 130.427C93.1843 130.394 93.0333 130.378 92.8456 130.378C92.415 130.378 92.104 130.486 91.9126 130.703C91.7249 130.92 91.631 131.239 91.631 131.658V141H90.328ZM97.2358 141.199C96.6984 141.199 96.2107 141.098 95.7727 140.895C95.3347 140.689 94.9869 140.393 94.7292 140.006C94.4716 139.616 94.3427 139.145 94.3427 138.593C94.3427 138.107 94.4384 137.713 94.6298 137.411C94.8212 137.106 95.077 136.867 95.3973 136.694C95.7175 136.521 96.0708 136.392 96.4573 136.307C96.8475 136.219 97.2394 136.149 97.6333 136.097C98.1486 136.031 98.5663 135.981 98.8866 135.948C99.2105 135.911 99.446 135.851 99.5932 135.766C99.7442 135.681 99.8196 135.534 99.8196 135.324V135.28C99.8196 134.735 99.6705 134.312 99.3724 134.01C99.0779 133.709 98.6307 133.558 98.0308 133.558C97.4088 133.558 96.9211 133.694 96.5677 133.966C96.2144 134.239 95.9659 134.529 95.8224 134.839L94.5857 134.397C94.8065 133.882 95.101 133.48 95.469 133.193C95.8408 132.902 96.2457 132.7 96.6837 132.586C97.1253 132.468 97.5597 132.409 97.9866 132.409C98.259 132.409 98.5719 132.442 98.9252 132.509C99.2822 132.571 99.6264 132.702 99.9576 132.901C100.293 133.099 100.57 133.399 100.791 133.801C101.012 134.202 101.123 134.739 101.123 135.413V141H99.8196V139.852H99.7534C99.665 140.036 99.5178 140.233 99.3117 140.442C99.1056 140.652 98.8313 140.831 98.489 140.978C98.1467 141.125 97.729 141.199 97.2358 141.199ZM97.4345 140.028C97.9498 140.028 98.3841 139.927 98.7375 139.725C99.0945 139.522 99.3632 139.261 99.5436 138.941C99.7276 138.62 99.8196 138.284 99.8196 137.93V136.738C99.7644 136.804 99.6429 136.865 99.4552 136.92C99.2712 136.971 99.0577 137.017 98.8148 137.058C98.5755 137.095 98.3418 137.128 98.1136 137.157C97.8891 137.183 97.7069 137.205 97.567 137.224C97.2284 137.268 96.9119 137.34 96.6174 137.439C96.3266 137.535 96.0911 137.68 95.9107 137.875C95.734 138.066 95.6457 138.328 95.6457 138.659C95.6457 139.112 95.8132 139.454 96.1481 139.686C96.4867 139.914 96.9155 140.028 97.4345 140.028ZM103.128 141V132.52H104.386V133.801H104.475C104.629 133.381 104.909 133.041 105.314 132.779C105.719 132.518 106.175 132.387 106.683 132.387C106.779 132.387 106.898 132.389 107.042 132.393C107.186 132.396 107.294 132.402 107.368 132.409V133.734C107.324 133.723 107.222 133.707 107.064 133.685C106.91 133.659 106.746 133.646 106.573 133.646C106.161 133.646 105.792 133.732 105.469 133.905C105.148 134.075 104.894 134.31 104.707 134.612C104.523 134.91 104.431 135.251 104.431 135.634V141H103.128ZM108.539 141V132.52H109.842V141H108.539ZM109.202 131.106C108.948 131.106 108.729 131.02 108.545 130.847C108.364 130.674 108.274 130.466 108.274 130.223C108.274 129.98 108.364 129.772 108.545 129.599C108.729 129.426 108.948 129.34 109.202 129.34C109.456 129.34 109.673 129.426 109.853 129.599C110.037 129.772 110.129 129.98 110.129 130.223C110.129 130.466 110.037 130.674 109.853 130.847C109.673 131.02 109.456 131.106 109.202 131.106Z" fill="black"/>
<path d="M249.631 135.064C249.631 135.201 249.603 135.331 249.549 135.454C249.499 135.573 249.417 135.687 249.303 135.796L244.046 140.943C243.868 141.117 243.652 141.203 243.396 141.203C243.232 141.203 243.08 141.162 242.938 141.08C242.797 140.998 242.683 140.889 242.597 140.752C242.515 140.615 242.474 140.46 242.474 140.287C242.474 140.036 242.569 139.813 242.761 139.617L247.443 135.064L242.761 130.512C242.569 130.32 242.474 130.097 242.474 129.842C242.474 129.673 242.515 129.521 242.597 129.384C242.683 129.243 242.797 129.131 242.938 129.049C243.08 128.967 243.232 128.926 243.396 128.926C243.652 128.926 243.868 129.012 244.046 129.186L249.303 134.333C249.412 134.442 249.494 134.556 249.549 134.675C249.603 134.793 249.631 134.923 249.631 135.064Z" fill="#C7C7CC"/>
<path d="M15 115H271.072H15ZM271.072 156.457H15V155.543H271.072V156.457ZM15 156V115V156ZM271.072 115V156V115Z" fill="#E8E8E8" mask="url(#path-11-inside-1_76_2257)"/>
<mask id="path-21-inside-2_76_2257" fill="white">
<path d="M15 156H271.072V195H15V156Z"/>
</mask>
<path d="M15 156H271.072V195H15V156Z" fill="white"/>
<rect x="29.6327" y="163" width="25" height="25" rx="5.48726" fill="#CED6E3"/>
<rect x="76.5817" y="170.013" width="146.908" height="10.9745" rx="5.48725" fill="#CED6E3"/>
<path d="M255.437 175.064C255.437 175.201 255.41 175.331 255.355 175.454C255.305 175.573 255.223 175.687 255.109 175.796L249.852 180.943C249.675 181.117 249.458 181.203 249.203 181.203C249.039 181.203 248.886 181.162 248.745 181.08C248.604 180.998 248.49 180.889 248.403 180.752C248.321 180.615 248.28 180.46 248.28 180.287C248.28 180.036 248.376 179.813 248.567 179.617L253.25 175.064L248.567 170.512C248.376 170.32 248.28 170.097 248.28 169.842C248.28 169.673 248.321 169.521 248.403 169.384C248.49 169.243 248.604 169.131 248.745 169.049C248.886 168.967 249.039 168.926 249.203 168.926C249.458 168.926 249.675 169.012 249.852 169.186L255.109 174.333C255.219 174.442 255.301 174.556 255.355 174.675C255.41 174.793 255.437 174.923 255.437 175.064Z" fill="#C7C7CC"/>
<path d="M271.072 194.085H15V195.915H271.072V194.085Z" fill="#E8E8E8" mask="url(#path-21-inside-2_76_2257)"/>
<mask id="path-26-inside-3_76_2257" fill="white">
<path d="M15 195H271.072V234H15V195Z"/>
</mask>
<path d="M15 195H271.072V234H15V195Z" fill="white"/>
<rect x="29.6327" y="202" width="25" height="25" rx="5.48726" fill="#CED6E3"/>
<rect x="76.5817" y="209.013" width="146.908" height="10.9745" rx="5.48725" fill="#CED6E3"/>
<path d="M255.437 214.064C255.437 214.201 255.41 214.331 255.355 214.454C255.305 214.573 255.223 214.687 255.109 214.796L249.852 219.943C249.675 220.117 249.458 220.203 249.203 220.203C249.039 220.203 248.886 220.162 248.745 220.08C248.604 219.998 248.49 219.889 248.403 219.752C248.321 219.615 248.28 219.46 248.28 219.287C248.28 219.036 248.376 218.813 248.567 218.617L253.25 214.064L248.567 209.512C248.376 209.32 248.28 209.097 248.28 208.842C248.28 208.673 248.321 208.521 248.403 208.384C248.49 208.243 248.604 208.131 248.745 208.049C248.886 207.967 249.039 207.926 249.203 207.926C249.458 207.926 249.675 208.012 249.852 208.186L255.109 213.333C255.219 213.442 255.301 213.556 255.355 213.675C255.41 213.793 255.437 213.923 255.437 214.064Z" fill="#C7C7CC"/>
<path d="M271.072 233.543H15V234.457H271.072V233.543Z" fill="#3C3C43" fill-opacity="0.36" mask="url(#path-26-inside-3_76_2257)"/>
</g>
<rect x="15.4573" y="115.457" width="255.157" height="118.085" rx="10.5172" stroke="#E8E8E8" stroke-width="0.914542" shape-rendering="crispEdges"/>
</g>
<rect x="11.4541" y="112.454" width="263.092" height="46.0919" rx="5.90283" stroke="#2375EF" stroke-opacity="0.5" stroke-width="0.908127"/>
</g>
<g filter="url(#filter4_d_76_2257)">
<g filter="url(#filter5_d_76_2257)">
<g clip-path="url(#clip2_76_2257)">
<mask id="path-34-inside-4_76_2257" fill="white">
<path d="M15 267.559C15 261.413 15 258.34 16.1962 255.992C17.2483 253.927 18.9272 252.248 20.9922 251.196C23.3398 250 26.4129 250 32.5592 250H253.513C259.659 250 262.732 250 265.08 251.196C267.145 252.248 268.824 253.927 269.876 255.992C271.072 258.34 271.072 261.413 271.072 267.559V298.12H15V267.559Z"/>
</mask>
<path d="M15 267.559C15 261.413 15 258.34 16.1962 255.992C17.2483 253.927 18.9272 252.248 20.9922 251.196C23.3398 250 26.4129 250 32.5592 250H253.513C259.659 250 262.732 250 265.08 251.196C267.145 252.248 268.824 253.927 269.876 255.992C271.072 258.34 271.072 261.413 271.072 267.559V298.12H15V267.559Z" fill="white"/>
<rect x="29.6327" y="268.573" width="199.37" height="10.9745" rx="5.48725" fill="#CED6E3"/>
<rect x="236.319" y="264" width="20.1199" height="20.1199" rx="5.48726" fill="#CED6E3"/>
<path d="M15 250H271.072H15ZM271.072 298.577H15V297.663H271.072V298.577ZM15 298.12V250V298.12ZM271.072 250V298.12V250Z" fill="#E8E8E8" mask="url(#path-34-inside-4_76_2257)"/>
<mask id="path-38-inside-5_76_2257" fill="white">
<path d="M15 298.12H271.072V341.12H15V298.12Z"/>
</mask>
<path d="M15 298.12H271.072V341.12H15V298.12Z" fill="white"/>
<path d="M31.0019 325.12V313.813H34.955C35.7426 313.813 36.3923 313.949 36.9039 314.222C37.4155 314.49 37.7965 314.853 38.0467 315.309C38.297 315.762 38.4222 316.264 38.4222 316.816C38.4222 317.302 38.3357 317.704 38.1627 318.02C37.9934 318.337 37.7688 318.587 37.4891 318.771C37.2131 318.955 36.9131 319.091 36.5892 319.179V319.29C36.9352 319.312 37.283 319.433 37.6327 319.654C37.9823 319.875 38.2749 320.192 38.5105 320.604C38.7461 321.016 38.8639 321.52 38.8639 322.117C38.8639 322.684 38.735 323.193 38.4774 323.646C38.2197 324.099 37.813 324.458 37.2572 324.723C36.7015 324.988 35.9782 325.12 35.0875 325.12H31.0019ZM32.3711 323.905H35.0875C35.9819 323.905 36.6168 323.732 36.9922 323.387C37.3713 323.037 37.5609 322.614 37.5609 322.117C37.5609 321.734 37.4634 321.381 37.2683 321.057C37.0732 320.729 36.7953 320.468 36.4346 320.273C36.0739 320.074 35.6469 319.975 35.1537 319.975H32.3711V323.905ZM32.3711 318.782H34.9108C35.323 318.782 35.6948 318.701 36.026 318.539C36.361 318.377 36.626 318.149 36.8211 317.854C37.0198 317.56 37.1192 317.214 37.1192 316.816C37.1192 316.32 36.9462 315.898 36.6002 315.552C36.2542 315.203 35.7058 315.028 34.955 315.028H32.3711V318.782ZM41.8668 313.813V325.12H40.5639V313.813H41.8668ZM47.3253 325.297C46.5597 325.297 45.888 325.115 45.3101 324.75C44.7359 324.386 44.2869 323.876 43.963 323.221C43.6428 322.566 43.4826 321.8 43.4826 320.924C43.4826 320.041 43.6428 319.27 43.963 318.611C44.2869 317.952 44.7359 317.44 45.3101 317.076C45.888 316.712 46.5597 316.529 47.3253 316.529C48.0909 316.529 48.7608 316.712 49.3349 317.076C49.9128 317.44 50.3619 317.952 50.6821 318.611C51.006 319.27 51.1679 320.041 51.1679 320.924C51.1679 321.8 51.006 322.566 50.6821 323.221C50.3619 323.876 49.9128 324.386 49.3349 324.75C48.7608 325.115 48.0909 325.297 47.3253 325.297ZM47.3253 324.126C47.9068 324.126 48.3853 323.977 48.7608 323.679C49.1362 323.381 49.4141 322.989 49.5944 322.503C49.7748 322.017 49.865 321.491 49.865 320.924C49.865 320.357 49.7748 319.829 49.5944 319.34C49.4141 318.85 49.1362 318.454 48.7608 318.153C48.3853 317.851 47.9068 317.7 47.3253 317.7C46.7437 317.7 46.2652 317.851 45.8898 318.153C45.5144 318.454 45.2365 318.85 45.0561 319.34C44.8758 319.829 44.7856 320.357 44.7856 320.924C44.7856 321.491 44.8758 322.017 45.0561 322.503C45.2365 322.989 45.5144 323.381 45.8898 323.679C46.2652 323.977 46.7437 324.126 47.3253 324.126ZM56.2289 325.297C55.4338 325.297 54.7492 325.109 54.175 324.734C53.6009 324.358 53.1592 323.841 52.85 323.182C52.5408 322.523 52.3862 321.771 52.3862 320.924C52.3862 320.063 52.5445 319.303 52.861 318.644C53.1813 317.981 53.6266 317.464 54.1971 317.093C54.7713 316.717 55.4412 316.529 56.2068 316.529C56.8031 316.529 57.3404 316.64 57.8189 316.861C58.2974 317.081 58.6894 317.391 58.9949 317.788C59.3004 318.186 59.49 318.649 59.5636 319.179H58.2606C58.1612 318.793 57.9404 318.451 57.5981 318.153C57.2595 317.851 56.8031 317.7 56.2289 317.7C55.7209 317.7 55.2756 317.832 54.8928 318.097C54.5137 318.359 54.2174 318.729 54.0039 319.207C53.7941 319.682 53.6892 320.24 53.6892 320.88C53.6892 321.535 53.7922 322.106 53.9984 322.591C54.2082 323.077 54.5026 323.455 54.8817 323.723C55.2645 323.992 55.7136 324.126 56.2289 324.126C56.5675 324.126 56.8748 324.067 57.1509 323.95C57.4269 323.832 57.6607 323.663 57.852 323.442C58.0434 323.221 58.1796 322.956 58.2606 322.647H59.5636C59.49 323.147 59.3078 323.598 59.017 323.999C58.7299 324.397 58.3489 324.713 57.8741 324.949C57.403 325.181 56.8546 325.297 56.2289 325.297ZM62.3098 322.028L62.2877 320.416H62.5527L66.2629 316.64H67.875L63.922 320.637H63.8115L62.3098 322.028ZM61.0952 325.12V313.813H62.3982V325.12H61.0952ZM66.4837 325.12L63.1711 320.924L64.0986 320.019L68.14 325.12H66.4837ZM73.3551 325.12V313.813H77.1756C78.0627 313.813 78.7878 313.973 79.3509 314.293C79.9178 314.61 80.3374 315.039 80.6097 315.58C80.8821 316.121 81.0183 316.724 81.0183 317.391C81.0183 318.057 80.8821 318.662 80.6097 319.207C80.341 319.752 79.9251 320.186 79.362 320.51C78.7988 320.83 78.0774 320.99 77.1977 320.99H74.4593V319.776H77.1536C77.7609 319.776 78.2486 319.671 78.6166 319.461C78.9847 319.251 79.2516 318.968 79.4172 318.611C79.5865 318.25 79.6711 317.843 79.6711 317.391C79.6711 316.938 79.5865 316.533 79.4172 316.176C79.2516 315.819 78.9829 315.539 78.6111 315.337C78.2394 315.131 77.7461 315.028 77.1315 315.028H74.7243V325.12H73.3551ZM86.0282 325.297C85.2626 325.297 84.5908 325.115 84.013 324.75C83.4388 324.386 82.9897 323.876 82.6658 323.221C82.3456 322.566 82.1855 321.8 82.1855 320.924C82.1855 320.041 82.3456 319.27 82.6658 318.611C82.9897 317.952 83.4388 317.44 84.013 317.076C84.5908 316.712 85.2626 316.529 86.0282 316.529C86.7937 316.529 87.4636 316.712 88.0378 317.076C88.6157 317.44 89.0647 317.952 89.3849 318.611C89.7088 319.27 89.8708 320.041 89.8708 320.924C89.8708 321.8 89.7088 322.566 89.3849 323.221C89.0647 323.876 88.6157 324.386 88.0378 324.75C87.4636 325.115 86.7937 325.297 86.0282 325.297ZM86.0282 324.126C86.6097 324.126 87.0882 323.977 87.4636 323.679C87.8391 323.381 88.1169 322.989 88.2973 322.503C88.4777 322.017 88.5678 321.491 88.5678 320.924C88.5678 320.357 88.4777 319.829 88.2973 319.34C88.1169 318.85 87.8391 318.454 87.4636 318.153C87.0882 317.851 86.6097 317.7 86.0282 317.7C85.4466 317.7 84.9681 317.851 84.5927 318.153C84.2173 318.454 83.9394 318.85 83.759 319.34C83.5787 319.829 83.4885 320.357 83.4885 320.924C83.4885 321.491 83.5787 322.017 83.759 322.503C83.9394 322.989 84.2173 323.381 84.5927 323.679C84.9681 323.977 85.4466 324.126 86.0282 324.126ZM91.4866 328.3V316.64H92.7454V317.987H92.9C92.9957 317.84 93.1282 317.652 93.2975 317.424C93.4705 317.192 93.7171 316.986 94.0373 316.805C94.3612 316.621 94.7992 316.529 95.3513 316.529C96.0654 316.529 96.6948 316.708 97.2395 317.065C97.7843 317.422 98.2094 317.928 98.5149 318.583C98.8204 319.238 98.9731 320.011 98.9731 320.902C98.9731 321.8 98.8204 322.579 98.5149 323.237C98.2094 323.893 97.7861 324.401 97.245 324.761C96.704 325.118 96.0801 325.297 95.3734 325.297C94.8287 325.297 94.3925 325.207 94.0649 325.026C93.7373 324.842 93.4852 324.634 93.3085 324.402C93.1319 324.167 92.9957 323.972 92.9 323.817H92.7896V328.3H91.4866ZM92.7675 320.88C92.7675 321.52 92.8613 322.085 93.0491 322.575C93.2368 323.061 93.511 323.442 93.8717 323.718C94.2324 323.99 94.6741 324.126 95.1967 324.126C95.7415 324.126 96.196 323.983 96.5604 323.696C96.9285 323.405 97.2046 323.015 97.3886 322.525C97.5763 322.032 97.6702 321.484 97.6702 320.88C97.6702 320.284 97.5781 319.746 97.3941 319.268C97.2138 318.786 96.9395 318.405 96.5715 318.125C96.2071 317.842 95.7488 317.7 95.1967 317.7C94.6667 317.7 94.2214 317.834 93.8606 318.103C93.4999 318.368 93.2276 318.74 93.0435 319.218C92.8595 319.693 92.7675 320.247 92.7675 320.88ZM105.446 319.665V320.88H100.499V319.665H105.446ZM112.71 321.653V316.64H114.013V325.12H112.71V323.685H112.622C112.423 324.115 112.114 324.482 111.694 324.783C111.274 325.081 110.744 325.231 110.104 325.231C109.574 325.231 109.103 325.115 108.691 324.883C108.278 324.647 107.954 324.294 107.719 323.823C107.483 323.348 107.366 322.75 107.366 322.028V316.64H108.669V321.94C108.669 322.558 108.842 323.052 109.187 323.42C109.537 323.788 109.983 323.972 110.524 323.972C110.847 323.972 111.177 323.889 111.512 323.723C111.85 323.558 112.134 323.304 112.362 322.961C112.594 322.619 112.71 322.183 112.71 321.653ZM116.026 328.3V316.64H117.285V317.987H117.44C117.535 317.84 117.668 317.652 117.837 317.424C118.01 317.192 118.257 316.986 118.577 316.805C118.901 316.621 119.339 316.529 119.891 316.529C120.605 316.529 121.234 316.708 121.779 317.065C122.324 317.422 122.749 317.928 123.054 318.583C123.36 319.238 123.513 320.011 123.513 320.902C123.513 321.8 123.36 322.579 123.054 323.237C122.749 323.893 122.326 324.401 121.785 324.761C121.244 325.118 120.62 325.297 119.913 325.297C119.368 325.297 118.932 325.207 118.605 325.026C118.277 324.842 118.025 324.634 117.848 324.402C117.671 324.167 117.535 323.972 117.44 323.817H117.329V328.3H116.026ZM117.307 320.88C117.307 321.52 117.401 322.085 117.589 322.575C117.776 323.061 118.051 323.442 118.411 323.718C118.772 323.99 119.214 324.126 119.736 324.126C120.281 324.126 120.736 323.983 121.1 323.696C121.468 323.405 121.744 323.015 121.928 322.525C122.116 322.032 122.21 321.484 122.21 320.88C122.21 320.284 122.118 319.746 121.934 319.268C121.753 318.786 121.479 318.405 121.111 318.125C120.747 317.842 120.288 317.7 119.736 317.7C119.206 317.7 118.761 317.834 118.4 318.103C118.04 318.368 117.767 318.74 117.583 319.218C117.399 319.693 117.307 320.247 117.307 320.88ZM131.134 318.539L129.964 318.87C129.89 318.675 129.781 318.486 129.638 318.302C129.498 318.114 129.307 317.959 129.064 317.838C128.821 317.716 128.51 317.656 128.131 317.656C127.612 317.656 127.179 317.775 126.833 318.015C126.491 318.25 126.32 318.55 126.32 318.914C126.32 319.238 126.437 319.494 126.673 319.682C126.909 319.87 127.277 320.026 127.777 320.151L129.036 320.46C129.794 320.644 130.359 320.926 130.731 321.305C131.103 321.681 131.289 322.165 131.289 322.757C131.289 323.243 131.149 323.677 130.869 324.06C130.593 324.443 130.206 324.745 129.71 324.966C129.213 325.186 128.635 325.297 127.976 325.297C127.111 325.297 126.395 325.109 125.828 324.734C125.261 324.358 124.903 323.81 124.752 323.088L125.988 322.779C126.106 323.236 126.329 323.578 126.656 323.806C126.988 324.034 127.42 324.148 127.954 324.148C128.561 324.148 129.043 324.02 129.4 323.762C129.761 323.501 129.941 323.188 129.941 322.823C129.941 322.529 129.838 322.282 129.632 322.084C129.426 321.881 129.11 321.73 128.683 321.631L127.269 321.3C126.493 321.116 125.922 320.83 125.558 320.444C125.197 320.054 125.017 319.566 125.017 318.981C125.017 318.502 125.151 318.079 125.42 317.711C125.692 317.343 126.062 317.054 126.529 316.844C127.001 316.634 127.534 316.529 128.131 316.529C128.97 316.529 129.629 316.713 130.107 317.081C130.589 317.45 130.932 317.935 131.134 318.539Z" fill="black"/>
<g clip-path="url(#clip3_76_2257)">
<rect x="205.439" y="304.12" width="51" height="31" rx="15.5" fill="#E6E6EB"/>
<g filter="url(#filter6_dd_76_2257)">
<rect x="207.439" y="306.12" width="27" height="27" rx="13.5" fill="white"/>
</g>
</g>
<path d="M271.072 340.206H15V342.035H271.072V340.206Z" fill="#E8E8E8" mask="url(#path-38-inside-5_76_2257)"/>
<mask id="path-44-inside-6_76_2257" fill="white">
<path d="M15 341.12H271.072V389.24H15V341.12Z"/>
</mask>
<path d="M15 341.12H271.072V389.24H15V341.12Z" fill="white"/>
<rect x="29.6327" y="359.693" width="184.738" height="10.9745" rx="5.48725" fill="#CED6E3"/>
<rect x="236.319" y="355.12" width="20.1199" height="20.1199" rx="5.48726" fill="#CED6E3"/>
<path d="M271.072 388.783H15V389.697H271.072V388.783Z" fill="#3C3C43" fill-opacity="0.36" mask="url(#path-44-inside-6_76_2257)"/>
</g>
<rect x="15.4573" y="250.457" width="255.157" height="138.325" rx="10.5172" stroke="#E8E8E8" stroke-width="0.914542" shape-rendering="crispEdges"/>
</g>
<rect x="11.5" y="294.5" width="263" height="50" rx="5.825" stroke="#2375EF" stroke-opacity="0.5"/>
</g>
<defs>
<filter id="filter0_d_76_2257" x="87.5" y="0" width="114" height="114" filterUnits="userSpaceOnUse" color-interpolation-filters="sRGB">
<feFlood flood-opacity="0" result="BackgroundImageFix"/>
<feColorMatrix in="SourceAlpha" type="matrix" values="0 0 0 0 0 0 0 0 0 0 0 0 0 0 0 0 0 0 127 0" result="hardAlpha"/>
<feOffset dx="1.5" dy="3"/>
<feGaussianBlur stdDeviation="6"/>
<feComposite in2="hardAlpha" operator="out"/>
<feColorMatrix type="matrix" values="0 0 0 0 0 0 0 0 0 0 0 0 0 0 0 0 0 0 0.1 0"/>
<feBlend mode="normal" in2="BackgroundImageFix" result="effect1_dropShadow_76_2257"/>
<feBlend mode="normal" in="SourceGraphic" in2="effect1_dropShadow_76_2257" result="shape"/>
</filter>
<filter id="filter1_d_76_2257" x="-0.5" y="103" width="289" height="146" filterUnits="userSpaceOnUse" color-interpolation-filters="sRGB">
<feFlood flood-opacity="0" result="BackgroundImageFix"/>
<feColorMatrix in="SourceAlpha" type="matrix" values="0 0 0 0 0 0 0 0 0 0 0 0 0 0 0 0 0 0 127 0" result="hardAlpha"/>
<feOffset dx="1.5" dy="3"/>
<feGaussianBlur stdDeviation="6"/>
<feComposite in2="hardAlpha" operator="out"/>
<feColorMatrix type="matrix" values="0 0 0 0 0 0 0 0 0 0 0 0 0 0 0 0 0 0 0.1 0"/>
<feBlend mode="normal" in2="BackgroundImageFix" result="effect1_dropShadow_76_2257"/>
<feBlend mode="normal" in="SourceGraphic" in2="effect1_dropShadow_76_2257" result="shape"/>
</filter>
<filter id="filter2_d_76_2257" x="2.19641" y="104.025" width="285.337" height="148.265" filterUnits="userSpaceOnUse" color-interpolation-filters="sRGB">
<feFlood flood-opacity="0" result="BackgroundImageFix"/>
<feColorMatrix in="SourceAlpha" type="matrix" values="0 0 0 0 0 0 0 0 0 0 0 0 0 0 0 0 0 0 127 0" result="hardAlpha"/>
<feOffset dx="1.82908" dy="3.65817"/>
<feGaussianBlur stdDeviation="7.31634"/>
<feComposite in2="hardAlpha" operator="out"/>
<feColorMatrix type="matrix" values="0 0 0 0 0 0 0 0 0 0 0 0 0 0 0 0 0 0 0.1 0"/>
<feBlend mode="normal" in2="BackgroundImageFix" result="effect1_dropShadow_76_2257"/>
<feBlend mode="normal" in="SourceGraphic" in2="effect1_dropShadow_76_2257" result="shape"/>
</filter>
<filter id="filter3_d_76_2257" x="18.1327" y="112" width="53" height="53" filterUnits="userSpaceOnUse" color-interpolation-filters="sRGB">
<feFlood flood-opacity="0" result="BackgroundImageFix"/>
<feColorMatrix in="SourceAlpha" type="matrix" values="0 0 0 0 0 0 0 0 0 0 0 0 0 0 0 0 0 0 127 0" result="hardAlpha"/>
<feOffset dx="1.5" dy="3"/>
<feGaussianBlur stdDeviation="6"/>
<feComposite in2="hardAlpha" operator="out"/>
<feColorMatrix type="matrix" values="0 0 0 0 0 0 0 0 0 0 0 0 0 0 0 0 0 0 0.1 0"/>
<feBlend mode="normal" in2="BackgroundImageFix" result="effect1_dropShadow_76_2257"/>
<feBlend mode="normal" in="SourceGraphic" in2="effect1_dropShadow_76_2257" result="shape"/>
</filter>
<filter id="filter4_d_76_2257" x="0.5" y="241" width="288" height="163.24" filterUnits="userSpaceOnUse" color-interpolation-filters="sRGB">
<feFlood flood-opacity="0" result="BackgroundImageFix"/>
<feColorMatrix in="SourceAlpha" type="matrix" values="0 0 0 0 0 0 0 0 0 0 0 0 0 0 0 0 0 0 127 0" result="hardAlpha"/>
<feOffset dx="1.5" dy="3"/>
<feGaussianBlur stdDeviation="6"/>
<feComposite in2="hardAlpha" operator="out"/>
<feColorMatrix type="matrix" values="0 0 0 0 0 0 0 0 0 0 0 0 0 0 0 0 0 0 0.1 0"/>
<feBlend mode="normal" in2="BackgroundImageFix" result="effect1_dropShadow_76_2257"/>
<feBlend mode="normal" in="SourceGraphic" in2="effect1_dropShadow_76_2257" result="shape"/>
</filter>
<filter id="filter5_d_76_2257" x="4.5" y="241" width="280.072" height="163.24" filterUnits="userSpaceOnUse" color-interpolation-filters="sRGB">
<feFlood flood-opacity="0" result="BackgroundImageFix"/>
<feColorMatrix in="SourceAlpha" type="matrix" values="0 0 0 0 0 0 0 0 0 0 0 0 0 0 0 0 0 0 127 0" result="hardAlpha"/>
<feOffset dx="1.5" dy="3"/>
<feGaussianBlur stdDeviation="6"/>
<feComposite in2="hardAlpha" operator="out"/>
<feColorMatrix type="matrix" values="0 0 0 0 0 0 0 0 0 0 0 0 0 0 0 0 0 0 0.1 0"/>
<feBlend mode="normal" in2="BackgroundImageFix" result="effect1_dropShadow_76_2257"/>
<feBlend mode="normal" in="SourceGraphic" in2="effect1_dropShadow_76_2257" result="shape"/>
</filter>
<filter id="filter6_dd_76_2257" x="199.439" y="301.12" width="43" height="43" filterUnits="userSpaceOnUse" color-interpolation-filters="sRGB">
<feFlood flood-opacity="0" result="BackgroundImageFix"/>
<feColorMatrix in="SourceAlpha" type="matrix" values="0 0 0 0 0 0 0 0 0 0 0 0 0 0 0 0 0 0 127 0" result="hardAlpha"/>
<feOffset dy="3"/>
<feGaussianBlur stdDeviation="0.5"/>
<feColorMatrix type="matrix" values="0 0 0 0 0 0 0 0 0 0 0 0 0 0 0 0 0 0 0.06 0"/>
<feBlend mode="normal" in2="BackgroundImageFix" result="effect1_dropShadow_76_2257"/>
<feColorMatrix in="SourceAlpha" type="matrix" values="0 0 0 0 0 0 0 0 0 0 0 0 0 0 0 0 0 0 127 0" result="hardAlpha"/>
<feOffset dy="3"/>
<feGaussianBlur stdDeviation="4"/>
<feColorMatrix type="matrix" values="0 0 0 0 0 0 0 0 0 0 0 0 0 0 0 0 0 0 0.15 0"/>
<feBlend mode="normal" in2="effect1_dropShadow_76_2257" result="effect2_dropShadow_76_2257"/>
<feBlend mode="normal" in="SourceGraphic" in2="effect2_dropShadow_76_2257" result="shape"/>
</filter>
<linearGradient id="paint0_linear_76_2257" x1="142.986" y1="9.028" x2="142.986" y2="98.998" gradientUnits="userSpaceOnUse">
<stop stop-color="#D3D7DD"/>
<stop offset="1" stop-color="#888C90"/>
</linearGradient>
<linearGradient id="paint1_linear_76_2257" x1="142.98" y1="17.9464" x2="142.98" y2="90.1538" gradientUnits="userSpaceOnUse">
<stop stop-color="#D9DADB"/>
<stop offset="1" stop-color="#7D8082"/>
</linearGradient>
<linearGradient id="paint2_linear_76_2257" x1="39.5878" y1="122.992" x2="46.9694" y2="147.949" gradientUnits="userSpaceOnUse">
<stop stop-color="#06C2E7"/>
<stop offset="0.25" stop-color="#0DB8EC"/>
<stop offset="0.5" stop-color="#12AEF1"/>
<stop offset="0.75" stop-color="#1F86F9"/>
<stop offset="1" stop-color="#107DDD"/>
</linearGradient>
<clipPath id="clip0_76_2257">
<rect x="98" y="9" width="90" height="90" rx="21" fill="white"/>
</clipPath>
<clipPath id="clip1_76_2257">
<rect x="15" y="115" width="256.072" height="119" rx="10.9745" fill="white"/>
</clipPath>
<clipPath id="clip2_76_2257">
<rect x="15" y="250" width="256.072" height="139.24" rx="10.9745" fill="white"/>
</clipPath>
<clipPath id="clip3_76_2257">
<rect x="205.439" y="304.12" width="51" height="31" rx="15.5" fill="white"/>
</clipPath>
</defs>
</svg>
