<svg width="32" height="32" viewBox="0 0 32 32" fill="none" xmlns="http://www.w3.org/2000/svg">
<path d="M13 27.6669L14.964 28.758C15.3421 28.9681 15.5312 29.0731 15.7314 29.1143C15.9086 29.1508 16.0914 29.1508 16.2686 29.1143C16.4688 29.0731 16.6579 28.9681 17.036 28.758L19 27.6669M7 24.3336L5.0973 23.2766C4.69794 23.0547 4.49824 22.9437 4.35284 22.786C4.22421 22.6464 4.12686 22.4809 4.06731 22.3007C4 22.097 4 21.8685 4 21.4117V19.3336M4 12.6669V10.5889C4 10.132 4 9.90359 4.06731 9.69985C4.12686 9.51962 4.22421 9.35418 4.35284 9.21459C4.49825 9.05681 4.69793 8.94587 5.0973 8.724L7 7.66694M13 4.33361L14.964 3.24252C15.3421 3.03244 15.5312 2.9274 15.7314 2.88622C15.9086 2.84977 16.0914 2.84977 16.2686 2.88622C16.4688 2.9274 16.6579 3.03244 17.036 3.24252L19 4.33361M25 7.66694L26.9027 8.724C27.3021 8.94587 27.5018 9.0568 27.6472 9.21459C27.7758 9.35417 27.8731 9.51962 27.9327 9.69985C28 9.90358 28 10.132 28 10.5889V12.6669M28 19.3336V21.4117C28 21.8685 28 22.097 27.9327 22.3007C27.8731 22.4809 27.7758 22.6464 27.6472 22.786C27.5018 22.9437 27.3021 23.0547 26.9027 23.2766L25 24.3336M13 14.3336L16 16.0003M16 16.0003L19 14.3336M16 16.0003V19.3336M4 9.33361L7 11.0003M25 11.0003L28 9.33361M16 26.0003V29.3336" stroke="#2375EF" stroke-width="2.66667" stroke-linecap="round" stroke-linejoin="round"/>
</svg>
