<svg width="312" height="228" viewBox="0 0 312 228" fill="none" xmlns="http://www.w3.org/2000/svg">
<g filter="url(#filter0_bd_42_1929)">
<rect x="14" y="12" width="280" height="196" rx="14" fill="white" shape-rendering="crispEdges"/>
<rect x="54" y="28" width="200" height="10" rx="5" fill="#CED6E3"/>
<rect x="74" y="50" width="160" height="10" rx="5" fill="#CED6E3"/>
<path d="M294 75.5H14V76.5H294V75.5Z" fill="#3C3C43" fill-opacity="0.36" mask="url(#path-2-inside-1_42_1929)"/>
<path d="M85.9105 104L90.1605 92.022H92.576L96.826 104H94.5848L93.5804 100.904H89.1478L88.1517 104H85.9105ZM91.2977 94.2466L89.6873 99.252H93.0492L91.4388 94.2466H91.2977ZM98.3438 104V91.416H100.411V104H98.3438ZM102.7 104V91.416H104.767V104H102.7ZM110.892 104.183C108.169 104.183 106.526 102.406 106.526 99.4678V99.4512C106.526 96.5376 108.194 94.7529 110.892 94.7529C113.598 94.7529 115.258 96.5293 115.258 99.4512V99.4678C115.258 102.406 113.606 104.183 110.892 104.183ZM110.892 102.506C112.328 102.506 113.142 101.385 113.142 99.4761V99.4595C113.142 97.5503 112.32 96.4214 110.892 96.4214C109.456 96.4214 108.634 97.5503 108.634 99.4595V99.4761C108.634 101.385 109.456 102.506 110.892 102.506ZM118.287 104L115.83 94.9272H117.905L119.416 101.742H119.557L121.3 94.9272H123.267L125.027 101.742H125.168L126.671 94.9272H128.721L126.264 104H124.097L122.329 97.4258H122.188L120.428 104H118.287ZM134.902 104V96.5293H133.417V94.9272H134.902V94.0308C134.902 92.2212 135.824 91.333 137.841 91.333C138.281 91.333 138.654 91.3579 138.986 91.416V92.8604C138.829 92.8354 138.571 92.8188 138.281 92.8188C137.31 92.8188 136.936 93.2837 136.936 94.147V94.9272H138.903V96.5293H136.969V104H134.902ZM144.074 104.183C141.351 104.183 139.707 102.406 139.707 99.4678V99.4512C139.707 96.5376 141.376 94.7529 144.074 94.7529C146.78 94.7529 148.44 96.5293 148.44 99.4512V99.4678C148.44 102.406 146.788 104.183 144.074 104.183ZM144.074 102.506C145.51 102.506 146.323 101.385 146.323 99.4761V99.4595C146.323 97.5503 145.501 96.4214 144.074 96.4214C142.637 96.4214 141.816 97.5503 141.816 99.4595V99.4761C141.816 101.385 142.637 102.506 144.074 102.506ZM150.107 104V94.9272H152.174V96.3218H152.315C152.622 95.3506 153.452 94.7778 154.647 94.7778C154.963 94.7778 155.287 94.8193 155.486 94.8774V96.7285C155.154 96.6621 154.813 96.6123 154.457 96.6123C153.079 96.6123 152.174 97.4341 152.174 98.729V104H150.107ZM164.813 104.183C162.091 104.183 160.447 102.406 160.447 99.4678V99.4512C160.447 96.5376 162.116 94.7529 164.813 94.7529C167.519 94.7529 169.18 96.5293 169.18 99.4512V99.4678C169.18 102.406 167.528 104.183 164.813 104.183ZM164.813 102.506C166.249 102.506 167.063 101.385 167.063 99.4761V99.4595C167.063 97.5503 166.241 96.4214 164.813 96.4214C163.377 96.4214 162.556 97.5503 162.556 99.4595V99.4761C162.556 101.385 163.377 102.506 164.813 102.506ZM170.847 104V94.9272H172.914V96.3135H173.055C173.486 95.3423 174.358 94.7529 175.67 94.7529C177.695 94.7529 178.799 95.9731 178.799 98.1313V104H176.732V98.6128C176.732 97.2017 176.159 96.4878 174.906 96.4878C173.677 96.4878 172.914 97.3511 172.914 98.7124V104H170.847ZM184.716 104.183C182.018 104.183 180.383 102.373 180.383 99.4844V99.4761C180.383 96.6206 182.035 94.7529 184.617 94.7529C187.198 94.7529 188.792 96.5625 188.792 99.3018V99.9824H182.45C182.475 101.609 183.355 102.556 184.758 102.556C185.878 102.556 186.517 101.991 186.717 101.576L186.742 101.518H188.709L188.684 101.593C188.393 102.763 187.181 104.183 184.716 104.183ZM184.641 96.3716C183.488 96.3716 182.624 97.1519 182.467 98.5962H186.775C186.634 97.1104 185.795 96.3716 184.641 96.3716ZM197.845 104.149C195.571 104.149 194.127 102.348 194.127 99.4761V99.4595C194.127 96.5708 195.546 94.7778 197.845 94.7778C199.091 94.7778 200.128 95.3921 200.601 96.3716H200.742V91.416H202.818V104H200.742V102.581H200.601C200.103 103.568 199.124 104.149 197.845 104.149ZM198.493 102.406C199.904 102.406 200.776 101.294 200.776 99.4761V99.4595C200.776 97.6416 199.896 96.521 198.493 96.521C197.09 96.521 196.227 97.6333 196.227 99.4595V99.4761C196.227 101.302 197.082 102.406 198.493 102.406ZM207.481 104.149C205.755 104.149 204.501 103.087 204.501 101.435V101.418C204.501 99.7998 205.738 98.8535 207.946 98.7207L210.279 98.5796V97.7993C210.279 96.8945 209.689 96.3965 208.577 96.3965C207.631 96.3965 207.017 96.7368 206.809 97.3345L206.801 97.3677H204.85L204.858 97.293C205.058 95.7656 206.519 94.7529 208.677 94.7529C211.009 94.7529 212.321 95.8818 212.321 97.7993V104H210.279V102.755H210.138C209.64 103.635 208.677 104.149 207.481 104.149ZM206.543 101.335C206.543 102.107 207.199 102.564 208.112 102.564C209.357 102.564 210.279 101.75 210.279 100.671V99.9409L208.237 100.074C207.083 100.148 206.543 100.572 206.543 101.319V101.335ZM215.084 107.188C214.835 107.188 214.544 107.179 214.295 107.154V105.569C214.461 105.585 214.694 105.594 214.909 105.594C215.756 105.594 216.262 105.245 216.486 104.423L216.594 104.008L213.349 94.9272H215.607L217.723 102.016H217.881L219.989 94.9272H222.164L218.91 104.191C218.13 106.465 217.092 107.188 215.084 107.188Z" fill="#007AFF"/>
<path d="M294 119.5H14V120.5H294V119.5Z" fill="#3C3C43" fill-opacity="0.36" mask="url(#path-6-inside-2_42_1929)"/>
<path d="M99.8628 148L104.279 136.022H105.756L110.172 148H108.604L107.4 144.572H102.635L101.432 148H99.8628ZM104.951 137.956L103.075 143.302H106.96L105.084 137.956H104.951ZM111.765 148V135.499H113.209V148H111.765ZM117.3 148L114.793 139.052H116.238L117.998 146.207H118.13L120.131 139.052H121.5L123.501 146.207H123.634L125.394 139.052H126.83L124.323 148H122.87L120.87 141.077H120.737L118.745 148H117.3ZM130.539 148.158C128.837 148.158 127.55 147.128 127.55 145.501V145.485C127.55 143.891 128.729 142.97 130.813 142.845L133.378 142.688V141.874C133.378 140.77 132.705 140.172 131.369 140.172C130.298 140.172 129.592 140.571 129.36 141.268L129.352 141.293H127.907L127.916 141.243C128.148 139.84 129.509 138.894 131.419 138.894C133.602 138.894 134.822 140.015 134.822 141.874V148H133.378V146.68H133.245C132.68 147.635 131.742 148.158 130.539 148.158ZM129.028 145.468C129.028 146.373 129.8 146.904 130.838 146.904C132.307 146.904 133.378 145.941 133.378 144.663V143.85L130.987 143.999C129.626 144.082 129.028 144.563 129.028 145.452V145.468ZM137.485 151.138C137.294 151.138 137.045 151.121 136.846 151.088V149.901C137.02 149.934 137.245 149.942 137.444 149.942C138.266 149.942 138.764 149.569 139.087 148.54L139.253 148.008L135.941 139.052H137.485L139.942 146.415H140.075L142.524 139.052H144.043L140.548 148.548C139.809 150.557 139.071 151.138 137.485 151.138ZM148.366 148.158C146.374 148.158 145.004 147.195 144.838 145.717H146.316C146.557 146.464 147.271 146.954 148.416 146.954C149.62 146.954 150.475 146.381 150.475 145.568V145.551C150.475 144.945 150.018 144.522 148.914 144.256L147.528 143.924C145.851 143.526 145.096 142.795 145.096 141.509V141.5C145.096 140.015 146.524 138.894 148.424 138.894C150.3 138.894 151.604 139.832 151.803 141.293H150.383C150.192 140.587 149.495 140.098 148.416 140.098C147.354 140.098 146.573 140.646 146.573 141.434V141.451C146.573 142.057 147.022 142.438 148.076 142.696L149.454 143.028C151.139 143.435 151.952 144.165 151.952 145.443V145.46C151.952 147.054 150.4 148.158 148.366 148.158ZM160.616 148.158C158.914 148.158 157.627 147.128 157.627 145.501V145.485C157.627 143.891 158.806 142.97 160.89 142.845L163.455 142.688V141.874C163.455 140.77 162.782 140.172 161.446 140.172C160.375 140.172 159.669 140.571 159.437 141.268L159.429 141.293H157.984L157.993 141.243C158.225 139.84 159.586 138.894 161.496 138.894C163.679 138.894 164.899 140.015 164.899 141.874V148H163.455V146.68H163.322C162.757 147.635 161.819 148.158 160.616 148.158ZM159.105 145.468C159.105 146.373 159.877 146.904 160.915 146.904C162.384 146.904 163.455 145.941 163.455 144.663V143.85L161.064 143.999C159.703 144.082 159.105 144.563 159.105 145.452V145.468ZM167.214 148V135.499H168.658V148H167.214ZM171.105 148V135.499H172.55V148H171.105ZM178.591 148.158C176.043 148.158 174.466 146.398 174.466 143.534V143.518C174.466 140.646 176.043 138.894 178.591 138.894C181.14 138.894 182.717 140.646 182.717 143.518V143.534C182.717 146.398 181.14 148.158 178.591 148.158ZM178.591 146.879C180.285 146.879 181.239 145.643 181.239 143.534V143.518C181.239 141.401 180.285 140.172 178.591 140.172C176.898 140.172 175.943 141.401 175.943 143.518V143.534C175.943 145.643 176.898 146.879 178.591 146.879ZM185.945 148L183.438 139.052H184.882L186.642 146.207H186.775L188.775 139.052H190.145L192.145 146.207H192.278L194.038 139.052H195.474L192.967 148H191.514L189.514 141.077H189.381L187.389 148H185.945ZM196.909 148.083C196.319 148.083 195.83 147.593 195.83 147.004C195.83 146.406 196.319 145.925 196.909 145.925C197.506 145.925 197.988 146.406 197.988 147.004C197.988 147.593 197.506 148.083 196.909 148.083ZM201.548 148.083C200.958 148.083 200.469 147.593 200.469 147.004C200.469 146.406 200.958 145.925 201.548 145.925C202.145 145.925 202.627 146.406 202.627 147.004C202.627 147.593 202.145 148.083 201.548 148.083ZM206.186 148.083C205.597 148.083 205.107 147.593 205.107 147.004C205.107 146.406 205.597 145.925 206.186 145.925C206.784 145.925 207.266 146.406 207.266 147.004C207.266 147.593 206.784 148.083 206.186 148.083Z" fill="#007AFF"/>
<path d="M294 163.5H14V164.5H294V163.5Z" fill="#3C3C43" fill-opacity="0.36" mask="url(#path-9-inside-3_42_1929)"/>
<path d="M133.87 192.282C130.616 192.282 128.582 189.875 128.582 186.023V186.007C128.582 182.147 130.607 179.74 133.861 179.74C136.385 179.74 138.352 181.325 138.709 183.625L138.701 183.641H137.198L137.19 183.625C136.791 182.089 135.513 181.118 133.861 181.118C131.562 181.118 130.118 183.01 130.118 186.007V186.023C130.118 189.02 131.562 190.904 133.87 190.904C135.538 190.904 136.808 190.049 137.182 188.671L137.198 188.655H138.709V188.671C138.311 190.863 136.418 192.282 133.87 192.282ZM143.082 192.158C141.381 192.158 140.094 191.128 140.094 189.501V189.485C140.094 187.891 141.273 186.97 143.356 186.845L145.921 186.688V185.874C145.921 184.77 145.249 184.172 143.912 184.172C142.841 184.172 142.136 184.571 141.904 185.268L141.895 185.293H140.451L140.459 185.243C140.692 183.84 142.053 182.894 143.962 182.894C146.145 182.894 147.365 184.015 147.365 185.874V192H145.921V190.68H145.788C145.224 191.635 144.286 192.158 143.082 192.158ZM141.571 189.468C141.571 190.373 142.343 190.904 143.381 190.904C144.85 190.904 145.921 189.941 145.921 188.663V187.85L143.53 187.999C142.169 188.082 141.571 188.563 141.571 189.452V189.468ZM149.597 192V183.052H151.041V184.396H151.174C151.622 183.45 152.461 182.894 153.781 182.894C155.789 182.894 156.91 184.081 156.91 186.206V192H155.466V186.555C155.466 184.944 154.802 184.172 153.374 184.172C151.946 184.172 151.041 185.135 151.041 186.704V192H149.597ZM162.777 192.158C160.271 192.158 158.669 190.34 158.669 187.501V187.484C158.669 184.704 160.262 182.894 162.769 182.894C164.944 182.894 166.247 184.147 166.513 185.741L166.521 185.791H165.085L165.077 185.766C164.853 184.886 164.056 184.172 162.769 184.172C161.159 184.172 160.146 185.467 160.146 187.484V187.501C160.146 189.56 161.175 190.879 162.769 190.879C163.973 190.879 164.736 190.348 165.068 189.352L165.085 189.302L166.513 189.294L166.496 189.385C166.131 191.004 164.927 192.158 162.777 192.158ZM171.874 192.158C169.317 192.158 167.773 190.365 167.773 187.559V187.551C167.773 184.787 169.35 182.894 171.783 182.894C174.215 182.894 175.692 184.704 175.692 187.376V187.941H169.251C169.292 189.792 170.313 190.871 171.907 190.871C173.119 190.871 173.866 190.298 174.107 189.759L174.14 189.684H175.584L175.568 189.75C175.261 190.962 173.982 192.158 171.874 192.158ZM171.774 184.181C170.446 184.181 169.433 185.085 169.276 186.787H174.223C174.074 185.019 173.094 184.181 171.774 184.181ZM177.608 192V179.499H179.053V192H177.608Z" fill="#007AFF"/>
</g>
<defs>
<filter id="filter0_bd_42_1929" x="-8" y="-10" width="324" height="240" filterUnits="userSpaceOnUse" color-interpolation-filters="sRGB">
<feFlood flood-opacity="0" result="BackgroundImageFix"/>
<feGaussianBlur in="BackgroundImageFix" stdDeviation="11"/>
<feComposite in2="SourceAlpha" operator="in" result="effect1_backgroundBlur_42_1929"/>
<feColorMatrix in="SourceAlpha" type="matrix" values="0 0 0 0 0 0 0 0 0 0 0 0 0 0 0 0 0 0 127 0" result="hardAlpha"/>
<feOffset dx="2" dy="4"/>
<feGaussianBlur stdDeviation="8"/>
<feComposite in2="hardAlpha" operator="out"/>
<feColorMatrix type="matrix" values="0 0 0 0 0 0 0 0 0 0 0 0 0 0 0 0 0 0 0.1 0"/>
<feBlend mode="normal" in2="effect1_backgroundBlur_42_1929" result="effect2_dropShadow_42_1929"/>
<feBlend mode="normal" in="SourceGraphic" in2="effect2_dropShadow_42_1929" result="shape"/>
</filter>
</defs>
</svg>
