<svg width="58" height="58" viewBox="0 0 58 58" fill="none" xmlns="http://www.w3.org/2000/svg">
<g clip-path="url(#clip0_50_2034)">
<path d="M38.4492 32.2383L44.8195 22.5088L43.7223 21.5277L34.8459 29.0169C33.2147 28.6834 31.4578 29.1813 30.2688 30.5104C28.4901 32.4993 28.6617 35.5564 30.653 37.3351C32.6443 39.1138 35.699 38.9422 37.4777 36.9508C38.6667 35.6217 38.9639 33.8213 38.4492 32.2383ZM29 6.5105V0H38.6667V6.5105C35.1891 5.92325 32.4027 5.93533 29 6.5105ZM50.3899 11.4985L53.7902 8.09825L57.2073 11.5154L54.0149 14.7078C52.8984 13.5382 51.6853 12.4676 50.3899 11.4985ZM4.83333 21.75H24.1667V26.5833H4.83333V21.75ZM0 31.4167H19.3333V36.25H0V31.4167ZM7.25 41.0833H24.1667V45.9167H7.25V41.0833ZM58 33.8333C58 47.1806 47.1806 58 33.8333 58C27.0908 58 21.025 55.2088 16.6484 50.75H24.5751C27.3253 52.2749 30.4693 53.1667 33.8333 53.1667C44.4933 53.1667 53.1667 44.4933 53.1667 33.8333C53.1667 23.1734 44.4933 14.5 33.8333 14.5C30.4693 14.5 27.3253 15.3918 24.5751 16.9167H16.6484C21.025 12.4579 27.0908 9.66667 33.8333 9.66667C47.1806 9.66667 58 20.4861 58 33.8333Z" fill="#2375EF"/>
</g>
<defs>
<clipPath id="clip0_50_2034">
<rect width="58" height="58" fill="white"/>
</clipPath>
</defs>
</svg>
