<svg width="58" height="58" viewBox="0 0 32 32" fill="none" xmlns="http://www.w3.org/2000/svg">
<path d="M20.8418 10.175C20.3138 9.64698 20.0498 9.38296 19.9508 9.07853C19.8638 8.81074 19.8638 8.52227 19.9508 8.25448C20.0498 7.95004 20.3138 7.68603 20.8418 7.15801L24.6263 3.37351C23.622 2.91934 22.5072 2.6665 21.3333 2.6665C16.915 2.6665 13.3333 6.24823 13.3333 10.6665C13.3333 11.3212 13.4119 11.9576 13.5603 12.5666C13.7192 13.2188 13.7986 13.5449 13.7845 13.7509C13.7698 13.9666 13.7376 14.0814 13.6381 14.2733C13.5431 14.4567 13.3611 14.6387 12.997 15.0027L4.66662 23.3332C3.56205 24.4377 3.56205 26.2286 4.66662 27.3332C5.77119 28.4377 7.56205 28.4377 8.66662 27.3332L16.997 19.0027C17.3611 18.6387 17.5431 18.4567 17.7265 18.3617C17.9184 18.2622 18.0332 18.23 18.2489 18.2153C18.4549 18.2012 18.781 18.2806 19.4332 18.4395C20.0422 18.5879 20.6786 18.6665 21.3333 18.6665C25.7516 18.6665 29.3333 15.0848 29.3333 10.6665C29.3333 9.49263 29.0805 8.3778 28.6263 7.37351L24.8418 11.158C24.3138 11.686 24.0498 11.95 23.7453 12.049C23.4775 12.136 23.1891 12.136 22.9213 12.049C22.6168 11.95 22.3528 11.686 21.8248 11.158L20.8418 10.175Z" stroke="#2375EF" stroke-width="2.66667" stroke-linecap="round" stroke-linejoin="round"/>
</svg>
