<svg width="284" height="67" viewBox="0 0 284 67" fill="none" xmlns="http://www.w3.org/2000/svg">
<g filter="url(#filter0_d_42_1820)">
<rect x="12.7244" y="11.6328" width="254.276" height="36.3251" rx="9.08127" fill="white"/>
<path d="M101.889 34.8233H106.955C107.641 34.8233 107.976 34.4827 107.976 33.7378V29.8321C107.976 29.1617 107.7 28.8158 107.13 28.7573V27.4164C107.13 25.4103 105.816 24.4419 104.422 24.4419C103.028 24.4419 101.714 25.4103 101.714 27.4164V28.7839C101.192 28.8637 100.867 29.2042 100.867 29.8321V33.7378C100.867 34.4827 101.203 34.8233 101.889 34.8233ZM102.57 27.3046C102.57 25.969 103.427 25.2613 104.422 25.2613C105.417 25.2613 106.274 25.969 106.274 27.3046V28.752L102.57 28.7573V27.3046Z" fill="#3C3C43" fill-opacity="0.6"/>
<path d="M116.878 34.776C115.332 34.776 114.164 33.8413 114.164 32.3638V32.3487C114.164 30.9014 115.234 30.0647 117.126 29.9516L119.456 29.8084V29.0696C119.456 28.0671 118.845 27.5243 117.631 27.5243C116.659 27.5243 116.018 27.8862 115.807 28.5194L115.8 28.542H114.488L114.496 28.4967C114.707 27.2228 115.943 26.3634 117.677 26.3634C119.659 26.3634 120.767 27.3811 120.767 29.0696V34.6328H119.456V33.4342H119.335C118.823 34.3011 117.971 34.776 116.878 34.776ZM115.506 32.3337C115.506 33.1553 116.207 33.6378 117.149 33.6378C118.483 33.6378 119.456 32.7633 119.456 31.6025V30.8637L117.285 30.9994C116.048 31.0748 115.506 31.512 115.506 32.3186V32.3337ZM122.794 34.6328V26.5067H124.106V27.7128H124.226C124.535 26.861 125.297 26.3634 126.397 26.3634C126.646 26.3634 126.925 26.3936 127.053 26.4162V27.6902C126.782 27.6449 126.533 27.6148 126.246 27.6148C124.995 27.6148 124.106 28.4063 124.106 29.5973V34.6328H122.794ZM131.077 34.776C129.019 34.776 127.67 33.1101 127.67 30.5773V30.5622C127.67 28.0143 129.012 26.3634 131.077 26.3634C132.193 26.3634 133.165 26.9213 133.61 27.7882H133.731V23.2803H135.042V34.6328H133.731V33.3362H133.61C133.113 34.2408 132.208 34.776 131.077 34.776ZM131.379 33.6152C132.856 33.6152 133.761 32.4543 133.761 30.5773V30.5622C133.761 28.6852 132.856 27.5243 131.379 27.5243C129.894 27.5243 129.012 28.6701 129.012 30.5622V30.5773C129.012 32.4694 129.894 33.6152 131.379 33.6152ZM137.19 34.6328V26.5067H138.501V27.7128H138.622C138.931 26.861 139.692 26.3634 140.793 26.3634C141.042 26.3634 141.321 26.3936 141.449 26.4162V27.6902C141.177 27.6449 140.929 27.6148 140.642 27.6148C139.391 27.6148 138.501 28.4063 138.501 29.5973V34.6328H137.19ZM143.392 24.9387C142.895 24.9387 142.488 24.5317 142.488 24.0342C142.488 23.5366 142.895 23.1296 143.392 23.1296C143.89 23.1296 144.297 23.5366 144.297 24.0342C144.297 24.5317 143.89 24.9387 143.392 24.9387ZM142.729 34.6328V26.5067H144.041V34.6328H142.729ZM148.442 34.6328L145.434 26.5067H146.821L149.045 33.2006H149.165L151.389 26.5067H152.776L149.769 34.6328H148.442ZM157.155 34.776C154.833 34.776 153.431 33.1478 153.431 30.5999V30.5924C153.431 28.0821 154.863 26.3634 157.072 26.3634C159.281 26.3634 160.622 28.0068 160.622 30.4341V30.9466H154.773C154.81 32.6277 155.738 33.6076 157.185 33.6076C158.285 33.6076 158.964 33.0875 159.183 32.5975L159.213 32.5297H160.524L160.509 32.59C160.23 33.6905 159.069 34.776 157.155 34.776ZM157.064 27.5319C155.858 27.5319 154.939 28.3535 154.795 29.8988H159.288C159.152 28.2932 158.263 27.5319 157.064 27.5319ZM163.358 34.7082C162.822 34.7082 162.378 34.2634 162.378 33.7282C162.378 33.1855 162.822 32.7483 163.358 32.7483C163.9 32.7483 164.337 33.1855 164.337 33.7282C164.337 34.2634 163.9 34.7082 163.358 34.7082ZM167.193 24.9387C166.696 24.9387 166.289 24.5317 166.289 24.0342C166.289 23.5366 166.696 23.1296 167.193 23.1296C167.691 23.1296 168.098 23.5366 168.098 24.0342C168.098 24.5317 167.691 24.9387 167.193 24.9387ZM166.53 34.6328V26.5067H167.842V34.6328H166.53ZM173.283 34.776C170.969 34.776 169.537 33.1779 169.537 30.5773V30.5622C169.537 27.954 170.969 26.3634 173.283 26.3634C175.597 26.3634 177.029 27.954 177.029 30.5622V30.5773C177.029 33.1779 175.597 34.776 173.283 34.776ZM173.283 33.6152C174.821 33.6152 175.688 32.492 175.688 30.5773V30.5622C175.688 28.64 174.821 27.5243 173.283 27.5243C171.745 27.5243 170.878 28.64 170.878 30.5622V30.5773C170.878 32.492 171.745 33.6152 173.283 33.6152Z" fill="black"/>
<path d="M242.205 31.0865C242.205 34.8144 245.242 37.8058 249.02 37.8058C252.797 37.8058 255.827 34.8144 255.827 31.0865C255.827 30.7221 255.565 30.4564 255.187 30.4564C254.825 30.4564 254.586 30.7221 254.586 31.0865C254.586 34.1387 252.111 36.5834 249.02 36.5834C245.928 36.5834 243.446 34.1387 243.446 31.0865C243.446 28.042 245.928 25.6049 249.02 25.6049C249.606 25.6049 250.153 25.6504 250.608 25.7567L248.303 28.0041C248.187 28.1255 248.125 28.2774 248.125 28.4368C248.125 28.7861 248.388 29.0442 248.734 29.0442C248.927 29.0442 249.074 28.9835 249.182 28.8696L252.358 25.7264C252.496 25.5973 252.55 25.4454 252.55 25.2708C252.55 25.1038 252.481 24.9368 252.358 24.8153L249.182 21.6417C249.074 21.5202 248.919 21.4595 248.734 21.4595C248.388 21.4595 248.125 21.7328 248.125 22.082C248.125 22.2415 248.187 22.3933 248.295 22.5148L250.346 24.5116C249.945 24.4357 249.49 24.3825 249.02 24.3825C245.242 24.3825 242.205 27.3663 242.205 31.0865Z" fill="black"/>
<path d="M32.5028 35.0816C32.9813 35.0816 33.2351 34.8782 33.3946 34.3696L34.2065 32.103H38.3461L39.1509 34.3696C39.3104 34.8782 39.5641 35.0816 40.0426 35.0816C40.5501 35.0816 40.8763 34.7765 40.8763 34.297C40.8763 34.1226 40.8473 33.9773 40.7821 33.7812L37.5632 25.0922C37.3457 24.4819 36.9397 24.1841 36.28 24.1841C35.6492 24.1841 35.236 24.4819 35.0258 25.0849L31.7924 33.8175C31.7271 34.0064 31.6981 34.159 31.6981 34.3115C31.6981 34.791 32.0026 35.0816 32.5028 35.0816ZM34.6198 30.7589L36.2582 26.0367H36.3017L37.9402 30.7589H34.6198ZM24.3614 35.0598C24.7383 35.0598 24.9703 34.8637 25.1081 34.4132L25.6301 32.8512H28.4502L28.965 34.4205C29.1027 34.8782 29.3419 35.0598 29.7334 35.0598C30.1684 35.0598 30.4657 34.7837 30.4657 34.3696C30.4657 34.2025 30.4294 34.0354 30.3642 33.8466L28.1675 27.9619C27.9572 27.388 27.5875 27.1119 27.0293 27.1119C26.4928 27.1119 26.1303 27.3807 25.9201 27.9619L23.7234 33.8466C23.6581 34.0209 23.6219 34.2098 23.6219 34.3696C23.6219 34.7983 23.9046 35.0598 24.3614 35.0598ZM25.9781 31.7179L26.9495 28.6884H27.109L28.095 31.7179H25.9781Z" fill="black"/>
<rect x="13.1784" y="12.0869" width="253.368" height="35.417" rx="8.62721" stroke="#E8E8E8" stroke-width="0.908127"/>
</g>
<rect x="10.4541" y="8.45406" width="44.4982" height="42.682" rx="5.90283" stroke="#2375EF" stroke-opacity="0.5" stroke-width="0.908127"/>
<defs>
<filter id="filter0_d_42_1820" x="0.0105838" y="0.735286" width="283.336" height="65.3853" filterUnits="userSpaceOnUse" color-interpolation-filters="sRGB">
<feFlood flood-opacity="0" result="BackgroundImageFix"/>
<feColorMatrix in="SourceAlpha" type="matrix" values="0 0 0 0 0 0 0 0 0 0 0 0 0 0 0 0 0 0 127 0" result="hardAlpha"/>
<feOffset dx="1.81625" dy="3.63251"/>
<feGaussianBlur stdDeviation="7.26502"/>
<feComposite in2="hardAlpha" operator="out"/>
<feColorMatrix type="matrix" values="0 0 0 0 0 0 0 0 0 0 0 0 0 0 0 0 0 0 0.1 0"/>
<feBlend mode="normal" in2="BackgroundImageFix" result="effect1_dropShadow_42_1820"/>
<feBlend mode="normal" in="SourceGraphic" in2="effect1_dropShadow_42_1820" result="shape"/>
</filter>
</defs>
</svg>
