<svg width="320" height="399" viewBox="0 0 320 399" fill="none" xmlns="http://www.w3.org/2000/svg">
<g filter="url(#filter0_d_75_1177)">
<mask id="path-1-inside-1_75_1177" fill="white">
<path d="M33 351.349C33 345.276 33 342.24 34.1818 339.92C35.2213 337.88 36.8801 336.221 38.9203 335.182C41.2397 334 44.276 334 50.3486 334H268.651C274.724 334 277.76 334 280.08 335.182C282.12 336.221 283.779 337.88 284.818 339.92C286 342.24 286 345.276 286 351.349V366.348C286 372.42 286 375.457 284.818 377.776C283.779 379.816 282.12 381.475 280.08 382.515C277.76 383.696 274.724 383.696 268.651 383.696H50.3486C44.276 383.696 41.2397 383.696 38.9203 382.515C36.8801 381.475 35.2213 379.816 34.1818 377.776C33 375.457 33 372.42 33 366.348V351.349Z"/>
</mask>
<path d="M33 351.349C33 345.276 33 342.24 34.1818 339.92C35.2213 337.88 36.8801 336.221 38.9203 335.182C41.2397 334 44.276 334 50.3486 334H268.651C274.724 334 277.76 334 280.08 335.182C282.12 336.221 283.779 337.88 284.818 339.92C286 342.24 286 345.276 286 351.349V366.348C286 372.42 286 375.457 284.818 377.776C283.779 379.816 282.12 381.475 280.08 382.515C277.76 383.696 274.724 383.696 268.651 383.696H50.3486C44.276 383.696 41.2397 383.696 38.9203 382.515C36.8801 381.475 35.2213 379.816 34.1818 377.776C33 375.457 33 372.42 33 366.348V351.349Z" fill="white" shape-rendering="crispEdges"/>
<g clip-path="url(#clip0_75_1177)">
<g clip-path="url(#clip1_75_1177)">
<circle cx="58.3" cy="359.3" r="9.73222" fill="white" stroke="#2375EF" stroke-width="0.414137"/>
<rect x="52.7092" y="356.039" width="11.0055" height="5.92778" rx="2.96389" fill="#2375EF"/>
<rect x="57.6924" y="356.247" width="5.81458" height="5.51246" rx="2.75623" fill="white"/>
</g>
</g>
<path d="M82.2967 364.103C79.1916 364.103 77.3315 361.898 77.3315 358.44V358.425C77.3315 354.953 79.2366 352.77 82.2967 352.77C85.3719 352.77 87.262 354.96 87.262 358.425V358.44C87.262 361.891 85.3869 364.103 82.2967 364.103ZM82.2967 362.858C84.5168 362.858 85.8819 361.118 85.8819 358.44V358.425C85.8819 355.725 84.5093 354.015 82.2967 354.015C80.0916 354.015 78.7116 355.725 78.7116 358.425V358.44C78.7116 361.118 80.0466 362.858 82.2967 362.858ZM91.941 363.908C90.276 363.908 89.5784 363.293 89.5784 361.748V356.843H88.3034V355.763H89.5784V353.67H90.9285V355.763H92.6986V356.843H90.9285V361.418C90.9285 362.371 91.2585 362.753 92.0986 362.753C92.3311 362.753 92.4586 362.746 92.6986 362.723V363.833C92.4436 363.878 92.1961 363.908 91.941 363.908ZM94.355 363.848V352.553H95.6601V356.978H95.7801C96.1851 356.123 96.9426 355.62 98.1352 355.62C99.9503 355.62 100.963 356.693 100.963 358.613V363.848H99.6578V358.928C99.6578 357.473 99.0577 356.775 97.7677 356.775C96.4776 356.775 95.6601 357.645 95.6601 359.063V363.848H94.355ZM106.257 363.991C103.947 363.991 102.552 362.371 102.552 359.835V359.828C102.552 357.33 103.977 355.62 106.174 355.62C108.372 355.62 109.707 357.255 109.707 359.67V360.18H103.887C103.924 361.853 104.847 362.828 106.287 362.828C107.382 362.828 108.057 362.311 108.275 361.823L108.305 361.756H109.61L109.595 361.816C109.317 362.911 108.162 363.991 106.257 363.991ZM106.167 356.783C104.967 356.783 104.052 357.6 103.909 359.138H108.38C108.245 357.54 107.359 356.783 106.167 356.783ZM111.364 363.848V355.763H112.669V356.978H112.789C113.194 356.123 113.951 355.62 115.144 355.62C116.959 355.62 117.971 356.693 117.971 358.613V363.848H116.666V358.928C116.666 357.473 116.066 356.775 114.776 356.775C113.486 356.775 112.669 357.645 112.669 359.063V363.848H111.364ZM122.838 363.908C121.173 363.908 120.475 363.293 120.475 361.748V356.843H119.2V355.763H120.475V353.67H121.825V355.763H123.595V356.843H121.825V361.418C121.825 362.371 122.155 362.753 122.995 362.753C123.228 362.753 123.355 362.746 123.595 362.723V363.833C123.34 363.878 123.093 363.908 122.838 363.908Z" fill="black"/>
<path fill-rule="evenodd" clip-rule="evenodd" d="M239.296 344.469C240.868 344.379 242.438 344.386 244.011 344.386C244.021 344.386 251.977 344.386 251.977 344.386C253.58 344.386 255.151 344.379 256.722 344.469C258.151 344.55 259.542 344.724 260.927 345.111C263.843 345.926 266.389 347.629 268.23 350.042C270.06 352.44 271.05 355.376 271.05 358.39C271.05 361.408 270.06 364.342 268.23 366.74C266.389 369.153 263.843 370.856 260.927 371.671C259.542 372.059 258.151 372.231 256.722 372.313C255.151 372.404 253.58 372.396 252.008 372.396C251.997 372.396 244.04 372.397 244.04 372.397C242.438 372.396 240.868 372.404 239.296 372.313C237.868 372.231 236.477 372.059 235.091 371.671C232.176 370.856 229.629 369.153 227.789 366.74C225.959 364.342 224.968 361.408 224.968 358.391C224.968 355.376 225.959 352.44 227.789 350.042C229.629 347.629 232.176 345.926 235.091 345.111C236.477 344.724 237.868 344.55 239.296 344.469Z" fill="#34C759"/>
<g filter="url(#filter1_dd_75_1177)">
<path fill-rule="evenodd" clip-rule="evenodd" d="M257.045 370.589C263.782 370.589 269.243 365.128 269.243 358.391C269.243 351.654 263.782 346.193 257.045 346.193C250.308 346.193 244.846 351.654 244.846 358.391C244.846 365.128 250.308 370.589 257.045 370.589Z" fill="white"/>
</g>
<path d="M33 334H286H33ZM286 372.854C286 379.091 280.943 384.148 274.705 384.148H44.2946C38.0568 384.148 33 379.091 33 372.854V372.854C33 378.592 37.8545 383.245 43.8429 383.245H275.157C281.145 383.245 286 378.592 286 372.854V372.854ZM33 383.696V334V383.696ZM286 334V383.696V334Z" fill="#E8E8E8" mask="url(#path-1-inside-1_75_1177)"/>
</g>
<rect x="223.202" y="338.066" width="51.5036" height="42.4679" rx="5.87321" stroke="#2375EF" stroke-opacity="0.5" stroke-width="0.903571"/>
<path opacity="0.7" d="M5.256 362.216C4.452 362.216 3.726 362.072 3.078 361.784C2.43 361.484 1.908 361.04 1.512 360.452C1.128 359.864 0.924 359.132 0.9 358.256H2.43C2.442 358.976 2.694 359.6 3.186 360.128C3.678 360.644 4.368 360.902 5.256 360.902C6.144 360.902 6.81 360.656 7.254 360.164C7.71 359.672 7.938 359.078 7.938 358.382C7.938 357.794 7.794 357.314 7.506 356.942C7.23 356.57 6.852 356.294 6.372 356.114C5.904 355.934 5.388 355.844 4.824 355.844H3.888V354.566H4.824C5.64 354.566 6.276 354.38 6.732 354.008C7.2 353.636 7.434 353.114 7.434 352.442C7.434 351.878 7.248 351.416 6.876 351.056C6.516 350.684 5.976 350.498 5.256 350.498C4.56 350.498 4.002 350.708 3.582 351.128C3.162 351.536 2.928 352.052 2.88 352.676H1.35C1.386 351.992 1.566 351.386 1.89 350.858C2.226 350.33 2.682 349.922 3.258 349.634C3.834 349.334 4.5 349.184 5.256 349.184C6.072 349.184 6.75 349.328 7.29 349.616C7.842 349.904 8.256 350.288 8.532 350.768C8.82 351.248 8.964 351.776 8.964 352.352C8.964 352.988 8.79 353.57 8.442 354.098C8.094 354.614 7.572 354.962 6.876 355.142C7.62 355.298 8.238 355.652 8.73 356.204C9.222 356.756 9.468 357.482 9.468 358.382C9.468 359.078 9.306 359.72 8.982 360.308C8.67 360.884 8.202 361.346 7.578 361.694C6.954 362.042 6.18 362.216 5.256 362.216ZM12.346 362.09C12.046 362.09 11.794 361.994 11.59 361.802C11.398 361.598 11.302 361.352 11.302 361.064C11.302 360.776 11.398 360.536 11.59 360.344C11.794 360.14 12.046 360.038 12.346 360.038C12.634 360.038 12.874 360.14 13.066 360.344C13.27 360.536 13.372 360.776 13.372 361.064C13.372 361.352 13.27 361.598 13.066 361.802C12.874 361.994 12.634 362.09 12.346 362.09Z" fill="black"/>
<g filter="url(#filter2_d_75_1177)">
<g clip-path="url(#clip2_75_1177)">
<mask id="path-14-inside-2_75_1177" fill="white">
<path d="M32 210.474C32 204.327 32 201.254 33.1962 198.907C34.2483 196.842 35.9272 195.163 37.9922 194.111C40.3398 192.915 43.4129 192.915 49.5592 192.915H270.513C276.659 192.915 279.732 192.915 282.08 194.111C284.145 195.163 285.824 196.842 286.876 198.907C288.072 201.254 288.072 204.327 288.072 210.474V234.034H32V210.474Z"/>
</mask>
<path d="M32 210.474C32 204.327 32 201.254 33.1962 198.907C34.2483 196.842 35.9272 195.163 37.9922 194.111C40.3398 192.915 43.4129 192.915 49.5592 192.915H270.513C276.659 192.915 279.732 192.915 282.08 194.111C284.145 195.163 285.824 196.842 286.876 198.907C288.072 201.254 288.072 204.327 288.072 210.474V234.034H32V210.474Z" fill="white"/>
<path d="M48.0295 218.975V208.02H49.6161L53.3663 217.16H53.4877L57.2379 208.02H58.8245V218.975H57.5491V210.609H57.4656L54.004 218.975H52.8501L49.3884 210.609H49.3049V218.975H48.0295ZM63.3251 219.119C61.7688 219.119 60.5922 218.178 60.5922 216.69V216.674C60.5922 215.217 61.6701 214.374 63.5756 214.26L65.9213 214.116V213.372C65.9213 212.362 65.3064 211.816 64.0842 211.816C63.1049 211.816 62.4596 212.18 62.2471 212.818L62.2395 212.841H60.9186L60.9262 212.795C61.1387 211.512 62.3837 210.647 64.1298 210.647C66.1263 210.647 67.2422 211.672 67.2422 213.372V218.975H65.9213V217.768H65.7999C65.2836 218.641 64.4258 219.119 63.3251 219.119ZM61.9434 216.659C61.9434 217.487 62.6494 217.973 63.5984 217.973C64.942 217.973 65.9213 217.092 65.9213 215.923V215.179L63.735 215.316C62.49 215.391 61.9434 215.832 61.9434 216.644V216.659ZM69.2832 218.975V210.791H70.6041V212.021H70.7255C71.1355 211.155 71.9022 210.647 73.1092 210.647C74.9464 210.647 75.9712 211.732 75.9712 213.676V218.975H74.6503V213.995C74.6503 212.522 74.043 211.816 72.7373 211.816C71.4315 211.816 70.6041 212.697 70.6041 214.131V218.975H69.2832ZM80.2364 219.119C78.6802 219.119 77.5035 218.178 77.5035 216.69V216.674C77.5035 215.217 78.5815 214.374 80.4869 214.26L82.8327 214.116V213.372C82.8327 212.362 82.2178 211.816 80.9956 211.816C80.0163 211.816 79.371 212.18 79.1585 212.818L79.1509 212.841H77.83L77.8375 212.795C78.0501 211.512 79.2951 210.647 81.0411 210.647C83.0377 210.647 84.1536 211.672 84.1536 213.372V218.975H82.8327V217.768H82.7112C82.195 218.641 81.3372 219.119 80.2364 219.119ZM78.8548 216.659C78.8548 217.487 79.5608 217.973 80.5097 217.973C81.8534 217.973 82.8327 217.092 82.8327 215.923V215.179L80.6464 215.316C79.4014 215.391 78.8548 215.832 78.8548 216.644V216.659ZM89.5651 221.859C87.5914 221.859 86.3312 220.971 86.1262 219.627L86.1414 219.62H87.5079L87.5154 219.627C87.6597 220.25 88.3885 220.69 89.5651 220.69C91.0303 220.69 91.9033 219.999 91.9033 218.792V217.137H91.7818C91.2656 218.041 90.3395 218.549 89.2159 218.549C87.0979 218.549 85.7846 216.91 85.7846 214.617V214.602C85.7846 212.309 87.1055 210.647 89.2463 210.647C90.4002 210.647 91.296 211.216 91.797 212.142H91.8881V210.791H93.209V218.861C93.209 220.69 91.797 221.859 89.5651 221.859ZM89.5044 217.38C91.0227 217.38 91.9337 216.242 91.9337 214.617V214.602C91.9337 212.977 91.0151 211.816 89.5044 211.816C87.9861 211.816 87.1359 212.977 87.1359 214.602V214.617C87.1359 216.242 87.9861 217.38 89.5044 217.38ZM98.6357 219.119C96.2976 219.119 94.8856 217.479 94.8856 214.913V214.906C94.8856 212.378 96.3279 210.647 98.5522 210.647C100.776 210.647 102.128 212.302 102.128 214.746V215.262H96.2368C96.2748 216.955 97.2085 217.942 98.6661 217.942C99.7744 217.942 100.458 217.418 100.678 216.925L100.708 216.857H102.029L102.014 216.917C101.733 218.026 100.564 219.119 98.6357 219.119ZM98.5446 211.823C97.33 211.823 96.4038 212.651 96.2596 214.207H100.784C100.647 212.59 99.7517 211.823 98.5446 211.823ZM107.971 218.975V208.02H114.758V209.25H109.337V212.765H114.477V213.979H109.337V217.745H114.758V218.975H107.971ZM116.039 218.975L118.841 214.883L116.009 210.791H117.565L119.509 213.835H119.63L121.551 210.791H123.031L120.253 214.83L123.069 218.975H121.52L119.585 215.885H119.463L117.52 218.975H116.039ZM127.38 219.035C125.695 219.035 124.989 218.413 124.989 216.849V211.884H123.698V210.791H124.989V208.673H126.355V210.791H128.147V211.884H126.355V216.515C126.355 217.479 126.689 217.866 127.539 217.866C127.775 217.866 127.904 217.859 128.147 217.836V218.959C127.888 219.005 127.638 219.035 127.38 219.035ZM132.966 219.119C130.628 219.119 129.216 217.479 129.216 214.913V214.906C129.216 212.378 130.658 210.647 132.882 210.647C135.107 210.647 136.458 212.302 136.458 214.746V215.262H130.567C130.605 216.955 131.539 217.942 132.996 217.942C134.105 217.942 134.788 217.418 135.008 216.925L135.038 216.857H136.359L136.344 216.917C136.063 218.026 134.894 219.119 132.966 219.119ZM132.875 211.823C131.66 211.823 130.734 212.651 130.59 214.207H135.114C134.978 212.59 134.082 211.823 132.875 211.823ZM138.135 218.975V210.791H139.455V212.021H139.577C139.987 211.155 140.754 210.647 141.961 210.647C143.798 210.647 144.823 211.732 144.823 213.676V218.975H143.502V213.995C143.502 212.522 142.894 211.816 141.589 211.816C140.283 211.816 139.455 212.697 139.455 214.131V218.975H138.135ZM149.65 219.119C147.828 219.119 146.575 218.238 146.423 216.887H147.774C147.995 217.57 148.647 218.018 149.695 218.018C150.796 218.018 151.578 217.494 151.578 216.75V216.735C151.578 216.181 151.16 215.794 150.151 215.551L148.883 215.247C147.349 214.883 146.659 214.215 146.659 213.038V213.031C146.659 211.672 147.964 210.647 149.703 210.647C151.418 210.647 152.61 211.505 152.792 212.841H151.494C151.32 212.195 150.682 211.748 149.695 211.748C148.723 211.748 148.01 212.249 148.01 212.97V212.985C148.01 213.539 148.42 213.888 149.384 214.124L150.644 214.427C152.185 214.799 152.929 215.467 152.929 216.636V216.652C152.929 218.109 151.509 219.119 149.65 219.119ZM155.304 209.212C154.803 209.212 154.393 208.802 154.393 208.301C154.393 207.8 154.803 207.39 155.304 207.39C155.805 207.39 156.215 207.8 156.215 208.301C156.215 208.802 155.805 209.212 155.304 209.212ZM154.636 218.975V210.791H155.957V218.975H154.636ZM161.437 219.119C159.106 219.119 157.664 217.509 157.664 214.89V214.875C157.664 212.249 159.106 210.647 161.437 210.647C163.767 210.647 165.21 212.249 165.21 214.875V214.89C165.21 217.509 163.767 219.119 161.437 219.119ZM161.437 217.95C162.985 217.95 163.858 216.819 163.858 214.89V214.875C163.858 212.939 162.985 211.816 161.437 211.816C159.888 211.816 159.015 212.939 159.015 214.875V214.89C159.015 216.819 159.888 217.95 161.437 217.95ZM166.886 218.975V210.791H168.207V212.021H168.329C168.739 211.155 169.505 210.647 170.712 210.647C172.549 210.647 173.574 211.732 173.574 213.676V218.975H172.253V213.995C172.253 212.522 171.646 211.816 170.34 211.816C169.035 211.816 168.207 212.697 168.207 214.131V218.975H166.886ZM178.401 219.119C176.579 219.119 175.327 218.238 175.175 216.887H176.526C176.746 217.57 177.399 218.018 178.447 218.018C179.548 218.018 180.329 217.494 180.329 216.75V216.735C180.329 216.181 179.912 215.794 178.902 215.551L177.634 215.247C176.101 214.883 175.41 214.215 175.41 213.038V213.031C175.41 211.672 176.716 210.647 178.454 210.647C180.17 210.647 181.362 211.505 181.544 212.841H180.246C180.071 212.195 179.434 211.748 178.447 211.748C177.475 211.748 176.761 212.249 176.761 212.97V212.985C176.761 213.539 177.171 213.888 178.136 214.124L179.396 214.427C180.937 214.799 181.681 215.467 181.681 216.636V216.652C181.681 218.109 180.261 219.119 178.401 219.119Z" fill="black"/>
<path d="M259.607 207.187C259.607 206.03 260.545 205.091 261.703 205.091C262.86 205.091 263.798 206.03 263.798 207.187V208.445H264.637C265.809 208.445 266.395 208.445 266.857 208.636C267.473 208.891 267.963 209.381 268.218 209.997C268.409 210.459 268.409 211.045 268.409 212.217H269.667C270.824 212.217 271.763 213.155 271.763 214.313C271.763 215.47 270.824 216.409 269.667 216.409H268.409V217.834C268.409 219.242 268.409 219.947 268.135 220.485C267.894 220.958 267.509 221.343 267.036 221.584C266.498 221.858 265.794 221.858 264.385 221.858H263.798V220.391C263.798 219.349 262.954 218.505 261.912 218.505C260.87 218.505 260.026 219.349 260.026 220.391V221.858H259.02C257.611 221.858 256.907 221.858 256.369 221.584C255.896 221.343 255.511 220.958 255.27 220.485C254.996 219.947 254.996 219.242 254.996 217.834V216.409H256.253C257.411 216.409 258.349 215.47 258.349 214.313C258.349 213.155 257.411 212.217 256.253 212.217H254.996C254.996 211.045 254.996 210.459 255.187 209.997C255.443 209.381 255.932 208.891 256.548 208.636C257.011 208.445 257.597 208.445 258.768 208.445H259.607V207.187Z" stroke="black" stroke-width="1.37181" stroke-linecap="round" stroke-linejoin="round"/>
<path d="M32 192.915H288.072H32ZM288.072 234.492H32V233.577H288.072V234.492ZM32 234.034V192.915V234.034ZM288.072 192.915V234.034V192.915Z" fill="#E8E8E8" mask="url(#path-14-inside-2_75_1177)"/>
<mask id="path-18-inside-3_75_1177" fill="white">
<path d="M32 234.035H288.072V274.275H32V234.035Z"/>
</mask>
<path d="M32 234.035H288.072V274.275H32V234.035Z" fill="white"/>
<rect x="46.6327" y="248.667" width="184.738" height="10.9745" rx="5.48725" fill="#CED6E3"/>
<rect x="253.319" y="244.095" width="20.1199" height="20.1199" rx="5.48726" fill="#CED6E3"/>
<path d="M288.072 273.36H32V275.189H288.072V273.36Z" fill="#E8E8E8" mask="url(#path-18-inside-3_75_1177)"/>
<mask id="path-22-inside-4_75_1177" fill="white">
<path d="M32 274.274H288.072V314.514H32V274.274Z"/>
</mask>
<path d="M32 274.274H288.072V314.514H32V274.274Z" fill="white"/>
<rect x="46.6327" y="288.907" width="184.738" height="10.9745" rx="5.48725" fill="#CED6E3"/>
<rect x="253.319" y="284.334" width="20.1199" height="20.1199" rx="5.48726" fill="#CED6E3"/>
<path d="M288.072 314.057H32V314.972H288.072V314.057Z" fill="#3C3C43" fill-opacity="0.36" mask="url(#path-22-inside-4_75_1177)"/>
</g>
<rect x="32.4573" y="193.372" width="255.157" height="120.685" rx="10.5172" stroke="#E8E8E8" stroke-width="0.914542" shape-rendering="crispEdges"/>
</g>
<rect x="240.973" y="192.457" width="44.8126" height="42.9835" rx="5.94453" stroke="#2375EF" stroke-opacity="0.5" stroke-width="0.914542"/>
<path opacity="0.7" d="M1.134 220V218.938C1.986 218.266 2.79 217.588 3.546 216.904C4.314 216.208 4.992 215.524 5.58 214.852C6.18 214.18 6.648 213.52 6.984 212.872C7.332 212.224 7.506 211.6 7.506 211C7.506 210.556 7.428 210.142 7.272 209.758C7.128 209.374 6.888 209.068 6.552 208.84C6.216 208.6 5.76 208.48 5.184 208.48C4.632 208.48 4.17 208.606 3.798 208.858C3.426 209.098 3.144 209.422 2.952 209.83C2.772 210.238 2.682 210.676 2.682 211.144H1.224C1.224 210.316 1.398 209.608 1.746 209.02C2.094 208.42 2.568 207.964 3.168 207.652C3.768 207.34 4.446 207.184 5.202 207.184C6.318 207.184 7.23 207.502 7.938 208.138C8.658 208.762 9.018 209.698 9.018 210.946C9.018 211.69 8.832 212.428 8.46 213.16C8.088 213.88 7.614 214.582 7.038 215.266C6.462 215.938 5.844 216.568 5.184 217.156C4.536 217.744 3.93 218.272 3.366 218.74H9.45V220H1.134ZM12.0648 220.09C11.7648 220.09 11.5128 219.994 11.3088 219.802C11.1168 219.598 11.0208 219.352 11.0208 219.064C11.0208 218.776 11.1168 218.536 11.3088 218.344C11.5128 218.14 11.7648 218.038 12.0648 218.038C12.3528 218.038 12.5928 218.14 12.7848 218.344C12.9888 218.536 13.0908 218.776 13.0908 219.064C13.0908 219.352 12.9888 219.598 12.7848 219.802C12.5928 219.994 12.3528 220.09 12.0648 220.09Z" fill="black"/>
<g filter="url(#filter3_d_75_1177)">
<rect x="31.7244" y="134.633" width="254.276" height="36.3251" rx="9.08127" fill="white"/>
<path d="M120.889 157.823H125.955C126.641 157.823 126.976 157.483 126.976 156.738V152.832C126.976 152.162 126.7 151.816 126.13 151.757V150.416C126.13 148.41 124.816 147.442 123.422 147.442C122.028 147.442 120.714 148.41 120.714 150.416V151.784C120.192 151.864 119.867 152.204 119.867 152.832V156.738C119.867 157.483 120.203 157.823 120.889 157.823ZM121.57 150.305C121.57 148.969 122.427 148.261 123.422 148.261C124.417 148.261 125.274 148.969 125.274 150.305V151.752L121.57 151.757V150.305Z" fill="#3C3C43" fill-opacity="0.6"/>
<path d="M135.878 157.776C134.332 157.776 133.164 156.841 133.164 155.364V155.349C133.164 153.901 134.234 153.065 136.126 152.952L138.456 152.808V152.07C138.456 151.067 137.845 150.524 136.631 150.524C135.659 150.524 135.018 150.886 134.807 151.519L134.8 151.542H133.488L133.496 151.497C133.707 150.223 134.943 149.363 136.677 149.363C138.659 149.363 139.767 150.381 139.767 152.07V157.633H138.456V156.434H138.335C137.823 157.301 136.971 157.776 135.878 157.776ZM134.506 155.334C134.506 156.155 135.207 156.638 136.149 156.638C137.483 156.638 138.456 155.763 138.456 154.602V153.864L136.285 153.999C135.048 154.075 134.506 154.512 134.506 155.319V155.334ZM141.794 157.633V149.507H143.106V150.713H143.226C143.535 149.861 144.297 149.363 145.397 149.363C145.646 149.363 145.925 149.394 146.053 149.416V150.69C145.782 150.645 145.533 150.615 145.246 150.615C143.995 150.615 143.106 151.406 143.106 152.597V157.633H141.794ZM150.077 157.776C148.019 157.776 146.67 156.11 146.67 153.577V153.562C146.67 151.014 148.012 149.363 150.077 149.363C151.193 149.363 152.165 149.921 152.61 150.788H152.731V146.28H154.042V157.633H152.731V156.336H152.61C152.113 157.241 151.208 157.776 150.077 157.776ZM150.379 156.615C151.856 156.615 152.761 155.454 152.761 153.577V153.562C152.761 151.685 151.856 150.524 150.379 150.524C148.894 150.524 148.012 151.67 148.012 153.562V153.577C148.012 155.469 148.894 156.615 150.379 156.615ZM156.19 157.633V149.507H157.501V150.713H157.622C157.931 149.861 158.692 149.363 159.793 149.363C160.042 149.363 160.321 149.394 160.449 149.416V150.69C160.177 150.645 159.929 150.615 159.642 150.615C158.391 150.615 157.501 151.406 157.501 152.597V157.633H156.19ZM162.392 147.939C161.895 147.939 161.488 147.532 161.488 147.034C161.488 146.537 161.895 146.13 162.392 146.13C162.89 146.13 163.297 146.537 163.297 147.034C163.297 147.532 162.89 147.939 162.392 147.939ZM161.729 157.633V149.507H163.041V157.633H161.729ZM167.442 157.633L164.434 149.507H165.821L168.045 156.201H168.165L170.389 149.507H171.776L168.769 157.633H167.442ZM176.155 157.776C173.833 157.776 172.431 156.148 172.431 153.6V153.592C172.431 151.082 173.863 149.363 176.072 149.363C178.281 149.363 179.622 151.007 179.622 153.434V153.947H173.773C173.81 155.628 174.738 156.608 176.185 156.608C177.285 156.608 177.964 156.087 178.183 155.598L178.213 155.53H179.524L179.509 155.59C179.23 156.691 178.069 157.776 176.155 157.776ZM176.064 150.532C174.858 150.532 173.939 151.354 173.795 152.899H178.288C178.152 151.293 177.263 150.532 176.064 150.532ZM182.358 157.708C181.822 157.708 181.378 157.263 181.378 156.728C181.378 156.185 181.822 155.748 182.358 155.748C182.9 155.748 183.337 156.185 183.337 156.728C183.337 157.263 182.9 157.708 182.358 157.708ZM186.193 147.939C185.696 147.939 185.289 147.532 185.289 147.034C185.289 146.537 185.696 146.13 186.193 146.13C186.691 146.13 187.098 146.537 187.098 147.034C187.098 147.532 186.691 147.939 186.193 147.939ZM185.53 157.633V149.507H186.842V157.633H185.53ZM192.283 157.776C189.969 157.776 188.537 156.178 188.537 153.577V153.562C188.537 150.954 189.969 149.363 192.283 149.363C194.597 149.363 196.029 150.954 196.029 153.562V153.577C196.029 156.178 194.597 157.776 192.283 157.776ZM192.283 156.615C193.821 156.615 194.688 155.492 194.688 153.577V153.562C194.688 151.64 193.821 150.524 192.283 150.524C190.745 150.524 189.878 151.64 189.878 153.562V153.577C189.878 155.492 190.745 156.615 192.283 156.615Z" fill="black"/>
<path d="M261.205 154.087C261.205 157.814 264.242 160.806 268.02 160.806C271.797 160.806 274.827 157.814 274.827 154.087C274.827 153.722 274.565 153.456 274.187 153.456C273.825 153.456 273.586 153.722 273.586 154.087C273.586 157.139 271.111 159.583 268.02 159.583C264.928 159.583 262.446 157.139 262.446 154.087C262.446 151.042 264.928 148.605 268.02 148.605C268.606 148.605 269.153 148.65 269.608 148.757L267.303 151.004C267.187 151.126 267.125 151.277 267.125 151.437C267.125 151.786 267.388 152.044 267.734 152.044C267.927 152.044 268.074 151.983 268.182 151.87L271.358 148.726C271.496 148.597 271.55 148.445 271.55 148.271C271.55 148.104 271.481 147.937 271.358 147.815L268.182 144.642C268.074 144.52 267.919 144.459 267.734 144.459C267.388 144.459 267.125 144.733 267.125 145.082C267.125 145.241 267.187 145.393 267.295 145.515L269.346 147.512C268.945 147.436 268.49 147.383 268.02 147.383C264.242 147.383 261.205 150.366 261.205 154.087Z" fill="black"/>
<path d="M51.5028 158.082C51.9813 158.082 52.2351 157.878 52.3946 157.37L53.2065 155.103H57.3461L58.1509 157.37C58.3104 157.878 58.5641 158.082 59.0426 158.082C59.5501 158.082 59.8763 157.776 59.8763 157.297C59.8763 157.123 59.8473 156.977 59.7821 156.781L56.5632 148.092C56.3457 147.482 55.9397 147.184 55.28 147.184C54.6492 147.184 54.236 147.482 54.0258 148.085L50.7924 156.817C50.7271 157.006 50.6981 157.159 50.6981 157.312C50.6981 157.791 51.0026 158.082 51.5028 158.082ZM53.6198 153.759L55.2582 149.037H55.3017L56.9402 153.759H53.6198ZM43.3614 158.06C43.7383 158.06 43.9703 157.864 44.1081 157.413L44.6301 155.851H47.4502L47.965 157.42C48.1027 157.878 48.3419 158.06 48.7334 158.06C49.1684 158.06 49.4657 157.784 49.4657 157.37C49.4657 157.203 49.4294 157.035 49.3642 156.847L47.1675 150.962C46.9572 150.388 46.5875 150.112 46.0293 150.112C45.4928 150.112 45.1303 150.381 44.9201 150.962L42.7234 156.847C42.6581 157.021 42.6219 157.21 42.6219 157.37C42.6219 157.798 42.9046 158.06 43.3614 158.06ZM44.9781 154.718L45.9495 151.688H46.109L47.095 154.718H44.9781Z" fill="black"/>
<rect x="32.1784" y="135.087" width="253.368" height="35.417" rx="8.62721" stroke="#E8E8E8" stroke-width="0.908127"/>
</g>
<rect x="29.4541" y="131.454" width="44.4982" height="42.682" rx="5.90283" stroke="#2375EF" stroke-opacity="0.5" stroke-width="0.908127"/>
<path opacity="0.7" d="M2.574 159V148.092L0.54 148.542V147.498L3.078 146.4H4.104V159H2.574ZM7.19564 159.09C6.89564 159.09 6.64364 158.994 6.43964 158.802C6.24764 158.598 6.15164 158.352 6.15164 158.064C6.15164 157.776 6.24764 157.536 6.43964 157.344C6.64364 157.14 6.89564 157.038 7.19564 157.038C7.48364 157.038 7.72364 157.14 7.91564 157.344C8.11964 157.536 8.22164 157.776 8.22164 158.064C8.22164 158.352 8.11964 158.598 7.91564 158.802C7.72364 158.994 7.48364 159.09 7.19564 159.09Z" fill="black"/>
<g filter="url(#filter4_d_75_1177)">
<rect x="114" y="10" width="89" height="89" rx="18" fill="white" shape-rendering="crispEdges"/>
<path d="M187.491 83.4914C195.18 75.8024 199.5 65.3739 199.5 54.5C199.5 43.6261 195.18 33.1976 187.491 25.5086C179.802 17.8196 169.374 13.5 158.5 13.5C147.626 13.5 137.198 17.8196 129.509 25.5086C121.82 33.1976 117.5 43.6261 117.5 54.5C117.5 65.3739 121.82 75.8024 129.509 83.4914C137.198 91.1804 147.626 95.5 158.5 95.5C169.374 95.5 179.802 91.1804 187.491 83.4914Z" fill="url(#paint0_linear_75_1177)" stroke="#E8E8E8"/>
<path d="M158.5 16.1118C158.173 16.1118 157.91 16.3752 157.91 16.7023V23.5132C157.91 23.8403 158.173 24.1037 158.5 24.1037C158.827 24.1037 159.09 23.8403 159.09 23.5132V16.7023C159.09 16.3752 158.827 16.1118 158.5 16.1118ZM154.637 16.356C154.598 16.3518 154.558 16.3518 154.517 16.3565C154.192 16.3904 153.957 16.6797 153.991 17.005L154.289 19.8544C154.323 20.1798 154.612 20.4144 154.937 20.3804C155.263 20.3465 155.497 20.0572 155.463 19.7318L155.166 16.8825C155.136 16.5978 154.911 16.3825 154.637 16.356ZM162.39 16.3588C162.116 16.3851 161.891 16.6003 161.861 16.885L161.561 19.7341C161.527 20.0595 161.762 20.349 162.087 20.3832C162.412 20.4175 162.701 20.1831 162.736 19.8577L163.035 17.0084C163.07 16.683 162.835 16.3937 162.51 16.3595C162.469 16.3553 162.429 16.3553 162.39 16.3588ZM150.669 16.9314C150.63 16.9317 150.59 16.9356 150.55 16.944C150.23 17.0118 150.027 17.324 150.094 17.6441L151.505 24.3072C151.573 24.6272 151.885 24.8303 152.205 24.7626C152.525 24.6948 152.728 24.3828 152.66 24.0628L151.25 17.3994C151.19 17.1194 150.944 16.9292 150.669 16.9314ZM166.358 16.937C166.083 16.9342 165.836 17.1249 165.777 17.4049L164.361 24.0672C164.293 24.3872 164.496 24.6995 164.816 24.7675C165.136 24.8355 165.449 24.6326 165.517 24.3126L166.932 17.6503C167 17.3303 166.797 17.0179 166.477 16.95C166.437 16.9416 166.397 16.937 166.358 16.937ZM146.882 17.9992C146.806 17.9922 146.727 18.0006 146.649 18.0264C146.338 18.1275 146.169 18.4592 146.27 18.7703L147.155 21.495C147.256 21.8062 147.588 21.9753 147.899 21.8742C148.21 21.7731 148.379 21.4412 148.278 21.1301L147.393 18.4053C147.317 18.172 147.111 18.0187 146.882 17.9992ZM170.123 18.0006C169.894 18.0201 169.688 18.1735 169.613 18.4068L168.727 21.1313C168.626 21.4424 168.795 21.7743 169.106 21.8754C169.417 21.9766 169.749 21.8075 169.85 21.4965L170.736 18.7717C170.837 18.4606 170.668 18.1287 170.357 18.0276C170.279 18.0023 170.2 17.9941 170.123 18.0006ZM143.137 19.3696C143.06 19.371 142.983 19.3878 142.908 19.4211C142.609 19.5539 142.475 19.9014 142.608 20.2004L145.375 26.4241C145.507 26.723 145.855 26.8567 146.154 26.7238C146.453 26.591 146.587 26.2434 146.454 25.9445L143.687 19.7208C143.588 19.4966 143.367 19.3651 143.137 19.3696ZM173.911 19.3905C173.68 19.3863 173.46 19.5169 173.36 19.7409L170.585 25.9608C170.452 26.2596 170.585 26.6074 170.884 26.7406C171.183 26.8739 171.53 26.7407 171.664 26.442L174.438 20.222C174.572 19.9233 174.438 19.5755 174.14 19.4422C174.065 19.409 173.987 19.3922 173.911 19.3905ZM139.661 21.2088C139.548 21.2004 139.431 21.2256 139.325 21.2871C139.041 21.4506 138.945 21.8103 139.109 22.0936L140.541 24.5748C140.705 24.8581 141.064 24.9544 141.348 24.7909C141.631 24.6273 141.727 24.2676 141.564 23.9843L140.131 21.5032C140.029 21.3261 139.85 21.222 139.661 21.2088ZM177.339 21.2088C177.15 21.2214 176.971 21.3261 176.869 21.5031L175.436 23.9843C175.273 24.2676 175.369 24.6273 175.653 24.7908C175.936 24.9544 176.296 24.858 176.459 24.5747L177.892 22.0936C178.055 21.8103 177.959 21.4506 177.676 21.287C177.569 21.2257 177.452 21.2009 177.339 21.2088ZM136.286 23.314C136.172 23.3182 136.058 23.3547 135.959 23.4267C135.694 23.6188 135.636 23.9865 135.828 24.2513L139.827 29.7643C140.019 30.0291 140.387 30.0877 140.652 29.8956C140.917 29.7035 140.975 29.3358 140.783 29.071L136.784 23.558C136.664 23.3925 136.475 23.3076 136.286 23.314ZM180.757 23.344C180.567 23.337 180.379 23.4219 180.258 23.5872L176.251 29.0948C176.059 29.3593 176.117 29.7273 176.382 29.9197C176.646 30.1122 177.014 30.0543 177.207 29.7898L181.213 24.2822C181.406 24.0176 181.347 23.6497 181.083 23.4573C180.984 23.3852 180.87 23.3481 180.757 23.344ZM133.269 25.8443C133.118 25.8359 132.964 25.8862 132.843 25.9957C132.599 26.2145 132.58 26.5864 132.799 26.8295L134.716 28.959C134.935 29.2021 135.306 29.2217 135.55 29.0027C135.793 28.7839 135.812 28.4118 135.593 28.1686L133.677 26.0394C133.567 25.9178 133.419 25.8522 133.269 25.8443ZM183.736 25.8485C183.585 25.8569 183.437 25.9221 183.328 26.0437L181.411 28.1727C181.192 28.4158 181.211 28.7879 181.454 29.0067C181.697 29.2256 182.069 29.206 182.288 28.963L184.205 26.834C184.424 26.5909 184.405 26.2188 184.162 25.9999C184.04 25.8905 183.886 25.8406 183.736 25.8485ZM130.377 28.6219C130.226 28.6303 130.079 28.6956 129.969 28.8171C129.75 29.0603 129.77 29.4321 130.013 29.651L135.075 34.2078C135.318 34.4267 135.69 34.4071 135.909 34.164C136.128 33.9209 136.108 33.5491 135.865 33.3302L130.803 28.7734C130.681 28.664 130.528 28.614 130.377 28.6219ZM186.641 28.6418C186.491 28.6334 186.337 28.6837 186.215 28.793L181.15 33.3462C180.907 33.5649 180.887 33.9368 181.105 34.1801C181.324 34.4233 181.696 34.4431 181.94 34.2244L187.005 29.6712C187.248 29.4525 187.268 29.0806 187.049 28.8373C186.94 28.7157 186.792 28.6499 186.641 28.6418ZM127.972 31.714C127.783 31.707 127.594 31.7923 127.474 31.9576C127.282 32.2223 127.34 32.59 127.605 32.7823L129.923 34.4663C130.187 34.6586 130.555 34.6005 130.747 34.3358C130.94 34.0712 130.881 33.7032 130.617 33.5109L128.299 31.8269C128.2 31.7548 128.086 31.7181 127.972 31.714ZM189.044 31.7354C188.93 31.7397 188.816 31.776 188.717 31.8481L186.398 33.5306C186.133 33.7227 186.075 34.0907 186.267 34.3555C186.459 34.6203 186.827 34.6786 187.092 34.4865L189.411 32.8041C189.675 32.612 189.734 32.2442 189.542 31.9794C189.422 31.8139 189.233 31.729 189.044 31.7354ZM125.725 35.0122C125.536 35.0248 125.357 35.1295 125.255 35.3065C125.092 35.5898 125.188 35.9495 125.471 36.1131L131.37 39.5186C131.653 39.6821 132.013 39.5858 132.176 39.3025C132.34 39.0192 132.243 38.6594 131.96 38.4959L126.062 35.0904C125.956 35.0291 125.838 35.0043 125.725 35.0122ZM191.275 35.0122C191.162 35.0038 191.044 35.029 190.938 35.0905L185.04 38.4959C184.757 38.6595 184.66 39.0192 184.824 39.3025C184.987 39.5858 185.347 39.6822 185.63 39.5186L191.529 36.1132C191.812 35.9496 191.909 35.5899 191.745 35.3066C191.643 35.1295 191.464 35.0254 191.275 35.0122ZM124.026 38.5277C123.796 38.5221 123.575 38.6539 123.475 38.8779C123.342 39.1767 123.475 39.5244 123.774 39.6577L126.391 40.8249C126.689 40.9581 127.037 40.825 127.171 40.5262C127.304 40.2274 127.17 39.8796 126.872 39.7464L124.255 38.5792C124.181 38.5458 124.103 38.5293 124.026 38.5277ZM192.985 38.552C192.909 38.5534 192.831 38.5702 192.756 38.6035L190.139 39.7686C189.84 39.9018 189.706 40.2493 189.839 40.5482C189.973 40.847 190.32 40.9807 190.619 40.8476L193.236 39.6822C193.535 39.5492 193.669 39.2015 193.536 38.9027C193.436 38.6785 193.216 38.5474 192.985 38.552ZM122.512 42.2021C122.282 42.2213 122.077 42.3745 122.001 42.6078C121.9 42.9188 122.068 43.2509 122.379 43.3522L128.855 45.4623C129.166 45.5636 129.498 45.3948 129.599 45.0839C129.701 44.7728 129.532 44.4408 129.221 44.3395L122.745 42.2294C122.667 42.204 122.588 42.1957 122.512 42.2021ZM194.497 42.2274C194.42 42.2203 194.341 42.2288 194.264 42.2546L187.786 44.3601C187.475 44.4612 187.306 44.7931 187.407 45.1042C187.509 45.4153 187.84 45.5843 188.152 45.4832L194.629 43.3777C194.94 43.2765 195.109 42.9446 195.008 42.6335C194.932 42.4002 194.726 42.2468 194.497 42.2274ZM121.568 46.0592C121.293 46.0564 121.047 46.2473 120.987 46.5273C120.919 46.8473 121.122 47.1596 121.442 47.2276L124.244 47.8232C124.564 47.8912 124.877 47.6882 124.945 47.3683C125.013 47.0483 124.81 46.736 124.49 46.668L121.688 46.0724C121.648 46.064 121.608 46.0592 121.568 46.0592ZM195.433 46.0648C195.394 46.0651 195.354 46.0704 195.314 46.0774L192.511 46.6727C192.191 46.7408 191.989 47.0528 192.057 47.3728C192.125 47.6928 192.437 47.8959 192.757 47.8279L195.559 47.2326C195.879 47.1646 196.082 46.8523 196.014 46.5323C195.955 46.2523 195.708 46.0625 195.433 46.0648ZM120.854 49.9389C120.58 49.9651 120.355 50.18 120.325 50.4646C120.291 50.7899 120.525 51.0796 120.85 51.114L127.623 51.8301C127.948 51.8644 128.238 51.6302 128.272 51.3048C128.307 50.9795 128.073 50.6899 127.747 50.6555L120.974 49.9394C120.933 49.9352 120.893 49.9352 120.854 49.9389ZM196.152 49.9898C196.113 49.9856 196.073 49.9856 196.032 49.9903L189.258 50.6972C188.933 50.7312 188.698 51.0204 188.732 51.3458C188.766 51.6712 189.055 51.9058 189.381 51.8718L196.155 51.1649C196.48 51.1309 196.714 50.8417 196.681 50.5163C196.651 50.2316 196.426 50.0164 196.152 49.9898ZM120.74 53.9103C120.412 53.9103 120.149 54.1736 120.149 54.5008C120.149 54.8279 120.412 55.0912 120.74 55.0912H123.605C123.932 55.0912 124.195 54.8279 124.195 54.5008C124.195 54.1736 123.932 53.9103 123.605 53.9103H120.74ZM193.395 53.9103C193.068 53.9103 192.805 54.1736 192.805 54.5008C192.805 54.8279 193.068 55.0912 193.395 55.0912H196.26C196.587 55.0912 196.851 54.8279 196.851 54.5008C196.851 54.1736 196.587 53.9103 196.26 53.9103H193.395ZM127.739 57.1292C127.7 57.125 127.66 57.125 127.62 57.1297L120.845 57.8366C120.52 57.8706 120.285 58.1598 120.319 58.4852C120.353 58.8106 120.643 59.0452 120.968 59.0112L127.742 58.3043C128.067 58.2703 128.302 57.981 128.268 57.6557C128.238 57.371 128.013 57.1558 127.739 57.1292ZM189.257 57.171C188.983 57.1972 188.758 57.4121 188.728 57.6967C188.693 58.0221 188.927 58.3117 189.253 58.3461L196.026 59.0622C196.351 59.0966 196.641 58.8623 196.675 58.537C196.71 58.2117 196.475 57.922 196.15 57.8876L189.377 57.1715C189.336 57.1673 189.296 57.1673 189.257 57.171ZM124.363 61.16C124.323 61.1604 124.283 61.1643 124.243 61.1727L121.441 61.768C121.121 61.836 120.918 62.1483 120.986 62.4683C121.054 62.7883 121.366 62.9911 121.686 62.9232L124.489 62.3281C124.809 62.2601 125.012 61.9478 124.944 61.6278C124.884 61.3478 124.638 61.1577 124.363 61.16ZM192.637 61.1657C192.361 61.1628 192.115 61.3535 192.055 61.6335C191.987 61.9535 192.19 62.2658 192.51 62.3339L195.313 62.9294C195.633 62.9974 195.945 62.7947 196.013 62.4748C196.081 62.1548 195.878 61.8422 195.558 61.7742L192.756 61.1786C192.716 61.1702 192.676 61.1657 192.637 61.1657ZM129.082 63.4913C129.005 63.4843 128.926 63.4927 128.849 63.5185L122.371 65.624C122.06 65.7252 121.891 66.0571 121.992 66.3682C122.094 66.6793 122.425 66.8483 122.737 66.7471L129.214 64.6416C129.525 64.5405 129.694 64.2086 129.593 63.8975C129.517 63.6642 129.311 63.5108 129.082 63.4913ZM187.912 63.5122C187.682 63.5315 187.477 63.6847 187.401 63.9179C187.3 64.229 187.468 64.561 187.779 64.6623L194.255 66.7724C194.566 66.8737 194.898 66.705 194.999 66.394C195.101 66.083 194.932 65.7509 194.621 65.6496L188.145 63.5395C188.067 63.5141 187.988 63.5058 187.912 63.5122ZM126.61 68.103C126.533 68.1044 126.456 68.1209 126.381 68.1542L123.764 69.3195C123.465 69.4525 123.331 69.8002 123.464 70.0991C123.597 70.398 123.945 70.5313 124.244 70.3983L126.861 69.2331C127.16 69.1002 127.294 68.7524 127.161 68.4536C127.061 68.2295 126.84 68.0984 126.61 68.103ZM190.38 68.1254C190.15 68.1198 189.93 68.2515 189.83 68.4756C189.696 68.7743 189.83 69.1221 190.128 69.2554L192.745 70.4225C193.044 70.5558 193.391 70.4226 193.525 70.1239C193.658 69.8251 193.525 69.4773 193.226 69.3441L190.61 68.1769C190.535 68.1435 190.457 68.1269 190.38 68.1254ZM131.706 69.405C131.593 69.3965 131.476 69.4218 131.37 69.4832L125.471 72.8887C125.188 73.0522 125.092 73.412 125.255 73.6953C125.419 73.9786 125.778 74.0749 126.062 73.9114L131.96 70.5062C132.243 70.3426 132.34 69.9826 132.176 69.6993C132.074 69.5223 131.895 69.4182 131.706 69.405ZM185.294 69.405C185.105 69.4176 184.926 69.5222 184.824 69.6993C184.66 69.9826 184.757 70.3426 185.04 70.5061L190.938 73.9113C191.222 74.0749 191.582 73.9785 191.745 73.6952C191.909 73.4119 191.812 73.0522 191.529 72.8886L185.63 69.4832C185.524 69.4219 185.407 69.3971 185.294 69.405ZM130.235 74.4024C130.121 74.4066 130.008 74.4432 129.908 74.5153L127.589 76.1978C127.325 76.3899 127.266 76.7577 127.458 77.0225C127.65 77.2872 128.018 77.3458 128.283 77.1536L130.602 75.4712C130.867 75.2791 130.925 74.9113 130.733 74.6465C130.613 74.481 130.424 74.3959 130.235 74.4024ZM186.751 74.4223C186.562 74.4153 186.373 74.5006 186.253 74.6659C186.06 74.9306 186.119 75.2986 186.383 75.4909L188.701 77.1749C188.966 77.3671 189.334 77.3088 189.526 77.0441C189.718 76.7795 189.66 76.4117 189.395 76.2194L187.078 74.5355C186.979 74.4634 186.865 74.4264 186.751 74.4223ZM135.487 74.6262C135.336 74.6178 135.182 74.668 135.061 74.7773L129.995 79.3306C129.752 79.5492 129.732 79.9211 129.951 80.1644C130.17 80.4077 130.542 80.4274 130.785 80.2087L135.85 75.6555C136.093 75.4368 136.113 75.0649 135.895 74.8216C135.785 74.7 135.637 74.6342 135.487 74.6262ZM181.499 74.6425C181.348 74.6509 181.201 74.7161 181.091 74.8377C180.872 75.0808 180.892 75.4526 181.135 75.6715L186.197 80.2283C186.44 80.4472 186.812 80.4276 187.031 80.1846C187.25 79.9414 187.23 79.5696 186.987 79.3507L181.925 74.7939C181.803 74.6845 181.65 74.6346 181.499 74.6425ZM140.292 78.9681C140.103 78.9611 139.914 79.0459 139.794 79.2113L135.787 84.7189C135.595 84.9834 135.652 85.3514 135.917 85.5438C136.181 85.7363 136.549 85.6783 136.742 85.4138L140.748 79.9061C140.941 79.6416 140.883 79.2737 140.619 79.0812C140.519 79.0091 140.406 78.9721 140.292 78.9681ZM176.675 78.9928C176.561 78.997 176.448 79.0334 176.348 79.1055C176.084 79.2976 176.025 79.6654 176.217 79.9302L180.216 85.4431C180.408 85.7079 180.776 85.7665 181.041 85.5744C181.306 85.3824 181.364 85.0146 181.172 84.7498L177.173 79.2368C177.053 79.0713 176.864 78.9864 176.675 78.9928ZM135.12 79.8435C134.969 79.8519 134.821 79.9171 134.712 80.0387L132.795 82.1677C132.576 82.4108 132.595 82.7829 132.839 83.0018C133.082 83.2206 133.453 83.201 133.672 82.9578L135.59 80.8289C135.808 80.5858 135.789 80.2137 135.546 79.9948C135.424 79.8854 135.271 79.8356 135.12 79.8435ZM181.877 79.8463C181.726 79.8379 181.572 79.8883 181.451 79.9977C181.208 80.2165 181.188 80.5884 181.407 80.8315L183.324 82.961C183.542 83.2041 183.914 83.2237 184.157 83.0047C184.401 82.7859 184.42 82.4138 184.201 82.1706L182.284 80.0415C182.175 79.9198 182.027 79.8542 181.877 79.8463ZM145.887 82.2082C145.657 82.2026 145.437 82.3343 145.337 82.5583L142.562 88.7782C142.428 89.077 142.562 89.4248 142.86 89.5581C143.159 89.6913 143.507 89.5581 143.64 89.2594L146.415 83.0395C146.548 82.7407 146.415 82.3929 146.116 82.2597C146.042 82.2263 145.964 82.2097 145.887 82.2082ZM171.075 82.2253C170.999 82.2267 170.921 82.2432 170.846 82.2765C170.547 82.4093 170.413 82.7569 170.546 83.0558L173.313 89.2795C173.445 89.5783 173.793 89.7121 174.092 89.5792C174.391 89.4464 174.525 89.0989 174.392 88.7999L171.626 82.5762C171.526 82.3521 171.306 82.2209 171.075 82.2253ZM141.011 84.1312C140.822 84.1439 140.643 84.2485 140.541 84.4256L139.109 86.9067C138.945 87.19 139.041 87.5497 139.325 87.7133C139.608 87.8769 139.968 87.7805 140.131 87.4972L141.564 85.0161C141.727 84.7328 141.631 84.373 141.348 84.2095C141.241 84.1482 141.124 84.1234 141.011 84.1312ZM175.989 84.1312C175.876 84.1228 175.759 84.1482 175.653 84.2095C175.369 84.3731 175.273 84.7328 175.437 85.0161L176.869 87.4972C177.033 87.7805 177.392 87.8769 177.676 87.7133C177.959 87.5498 178.055 87.1901 177.892 86.9068L176.459 84.4256C176.357 84.2486 176.178 84.1444 175.989 84.1312ZM152.065 84.2202C151.79 84.2174 151.543 84.4081 151.484 84.6881L150.068 91.3504C150 91.6704 150.203 91.9827 150.523 92.0507C150.843 92.1187 151.156 91.9157 151.224 91.5958L152.639 84.9335C152.707 84.6135 152.504 84.3012 152.184 84.2332C152.144 84.2248 152.104 84.2202 152.065 84.2202ZM164.914 84.2244C164.875 84.2247 164.835 84.2286 164.795 84.237C164.475 84.3048 164.272 84.6168 164.34 84.9368L165.751 91.6002C165.818 91.9202 166.131 92.1233 166.451 92.0556C166.771 91.9878 166.974 91.6756 166.906 91.3555L165.495 84.6926C165.436 84.4126 165.189 84.2223 164.914 84.2244ZM158.5 84.8964C158.173 84.8964 157.91 85.1597 157.91 85.4869V92.2978C157.91 92.6249 158.173 92.8882 158.5 92.8882C158.827 92.8882 159.09 92.6249 159.09 92.2978V85.4869C159.09 85.1597 158.827 84.8964 158.5 84.8964ZM147.661 87.0972C147.432 87.1167 147.226 87.2701 147.15 87.5034L146.265 90.2282C146.163 90.5393 146.332 90.8712 146.643 90.9724C146.955 91.0735 147.286 90.9042 147.388 90.5931L148.273 87.8686C148.374 87.5575 148.205 87.2256 147.894 87.1245C147.817 87.0992 147.738 87.0908 147.661 87.0972ZM169.334 87.0986C169.258 87.0916 169.179 87.1 169.101 87.1257C168.79 87.2268 168.621 87.5587 168.722 87.8699L169.607 90.5946C169.708 90.9057 170.04 91.0746 170.351 90.9736C170.663 90.8724 170.832 90.5408 170.731 90.2297L169.845 87.5049C169.769 87.2716 169.564 87.1181 169.334 87.0986ZM154.794 88.6162C154.52 88.6426 154.294 88.8575 154.264 89.1422L153.965 91.9916C153.931 92.3169 154.165 92.6062 154.49 92.6404C154.816 92.6746 155.105 92.4403 155.139 92.1149L155.439 89.2658C155.473 88.9404 155.239 88.6509 154.913 88.6167C154.873 88.6125 154.833 88.6125 154.794 88.6162ZM162.183 88.619C162.144 88.6148 162.103 88.6148 162.063 88.6195C161.737 88.6534 161.503 88.9427 161.537 89.2681L161.834 92.1177C161.868 92.4431 162.157 92.6774 162.483 92.6435C162.808 92.6095 163.043 92.3202 163.009 91.9949L162.711 89.1455C162.682 88.8608 162.457 88.6456 162.183 88.619Z" fill="#F4F2F3"/>
<path d="M161.82 58.3891L154.987 50.4171L186.431 28.7665C186.916 28.4327 187.479 29.0647 187.091 29.5075L161.82 58.3891Z" fill="#FF3B30"/>
<path d="M161.82 58.3892L154.987 50.417L129.2 79.8125C128.811 80.2559 129.376 80.8892 129.861 80.5531L161.82 58.3892Z" fill="#F1F1F1"/>
<rect x="113.5" y="9.5" width="90" height="90" rx="18.5" stroke="#E8E8E8" shape-rendering="crispEdges"/>
</g>
<defs>
<filter id="filter0_d_75_1177" x="22.5" y="325" width="277" height="73.6963" filterUnits="userSpaceOnUse" color-interpolation-filters="sRGB">
<feFlood flood-opacity="0" result="BackgroundImageFix"/>
<feColorMatrix in="SourceAlpha" type="matrix" values="0 0 0 0 0 0 0 0 0 0 0 0 0 0 0 0 0 0 127 0" result="hardAlpha"/>
<feOffset dx="1.5" dy="3"/>
<feGaussianBlur stdDeviation="6"/>
<feComposite in2="hardAlpha" operator="out"/>
<feColorMatrix type="matrix" values="0 0 0 0 0 0 0 0 0 0 0 0 0 0 0 0 0 0 0.1 0"/>
<feBlend mode="normal" in2="BackgroundImageFix" result="effect1_dropShadow_75_1177"/>
<feBlend mode="normal" in="SourceGraphic" in2="effect1_dropShadow_75_1177" result="shape"/>
</filter>
<filter id="filter1_dd_75_1177" x="237.618" y="341.675" width="38.8536" height="38.8536" filterUnits="userSpaceOnUse" color-interpolation-filters="sRGB">
<feFlood flood-opacity="0" result="BackgroundImageFix"/>
<feColorMatrix in="SourceAlpha" type="matrix" values="0 0 0 0 0 0 0 0 0 0 0 0 0 0 0 0 0 0 127 0" result="hardAlpha"/>
<feOffset dy="2.71071"/>
<feGaussianBlur stdDeviation="0.451786"/>
<feColorMatrix type="matrix" values="0 0 0 0 0 0 0 0 0 0 0 0 0 0 0 0 0 0 0.06 0"/>
<feBlend mode="normal" in2="BackgroundImageFix" result="effect1_dropShadow_75_1177"/>
<feColorMatrix in="SourceAlpha" type="matrix" values="0 0 0 0 0 0 0 0 0 0 0 0 0 0 0 0 0 0 127 0" result="hardAlpha"/>
<feOffset dy="2.71071"/>
<feGaussianBlur stdDeviation="3.61429"/>
<feColorMatrix type="matrix" values="0 0 0 0 0 0 0 0 0 0 0 0 0 0 0 0 0 0 0.15 0"/>
<feBlend mode="normal" in2="effect1_dropShadow_75_1177" result="effect2_dropShadow_75_1177"/>
<feBlend mode="normal" in="SourceGraphic" in2="effect2_dropShadow_75_1177" result="shape"/>
</filter>
<filter id="filter2_d_75_1177" x="21.5" y="183.915" width="280.072" height="145.6" filterUnits="userSpaceOnUse" color-interpolation-filters="sRGB">
<feFlood flood-opacity="0" result="BackgroundImageFix"/>
<feColorMatrix in="SourceAlpha" type="matrix" values="0 0 0 0 0 0 0 0 0 0 0 0 0 0 0 0 0 0 127 0" result="hardAlpha"/>
<feOffset dx="1.5" dy="3"/>
<feGaussianBlur stdDeviation="6"/>
<feComposite in2="hardAlpha" operator="out"/>
<feColorMatrix type="matrix" values="0 0 0 0 0 0 0 0 0 0 0 0 0 0 0 0 0 0 0.1 0"/>
<feBlend mode="normal" in2="BackgroundImageFix" result="effect1_dropShadow_75_1177"/>
<feBlend mode="normal" in="SourceGraphic" in2="effect1_dropShadow_75_1177" result="shape"/>
</filter>
<filter id="filter3_d_75_1177" x="21.2244" y="125.633" width="278.276" height="60.3252" filterUnits="userSpaceOnUse" color-interpolation-filters="sRGB">
<feFlood flood-opacity="0" result="BackgroundImageFix"/>
<feColorMatrix in="SourceAlpha" type="matrix" values="0 0 0 0 0 0 0 0 0 0 0 0 0 0 0 0 0 0 127 0" result="hardAlpha"/>
<feOffset dx="1.5" dy="3"/>
<feGaussianBlur stdDeviation="6"/>
<feComposite in2="hardAlpha" operator="out"/>
<feColorMatrix type="matrix" values="0 0 0 0 0 0 0 0 0 0 0 0 0 0 0 0 0 0 0.1 0"/>
<feBlend mode="normal" in2="BackgroundImageFix" result="effect1_dropShadow_75_1177"/>
<feBlend mode="normal" in="SourceGraphic" in2="effect1_dropShadow_75_1177" result="shape"/>
</filter>
<filter id="filter4_d_75_1177" x="102.5" y="0" width="115" height="115" filterUnits="userSpaceOnUse" color-interpolation-filters="sRGB">
<feFlood flood-opacity="0" result="BackgroundImageFix"/>
<feColorMatrix in="SourceAlpha" type="matrix" values="0 0 0 0 0 0 0 0 0 0 0 0 0 0 0 0 0 0 127 0" result="hardAlpha"/>
<feOffset dx="1.5" dy="3"/>
<feGaussianBlur stdDeviation="6"/>
<feComposite in2="hardAlpha" operator="out"/>
<feColorMatrix type="matrix" values="0 0 0 0 0 0 0 0 0 0 0 0 0 0 0 0 0 0 0.1 0"/>
<feBlend mode="normal" in2="BackgroundImageFix" result="effect1_dropShadow_75_1177"/>
<feBlend mode="normal" in="SourceGraphic" in2="effect1_dropShadow_75_1177" result="shape"/>
</filter>
<linearGradient id="paint0_linear_75_1177" x1="147.015" y1="13.9733" x2="170.931" y2="94.8334" gradientUnits="userSpaceOnUse">
<stop stop-color="#06C2E7"/>
<stop offset="0.25" stop-color="#0DB8EC"/>
<stop offset="0.5" stop-color="#12AEF1"/>
<stop offset="0.75" stop-color="#1F86F9"/>
<stop offset="1" stop-color="#107DDD"/>
</linearGradient>
<clipPath id="clip0_75_1177">
<rect x="47.4572" y="348.005" width="21.6857" height="21.6857" rx="7.22857" fill="white"/>
</clipPath>
<clipPath id="clip1_75_1177">
<rect width="19.8786" height="19.8786" fill="white" transform="translate(48.3607 349.361)"/>
</clipPath>
<clipPath id="clip2_75_1177">
<rect x="32" y="192.915" width="256.072" height="121.6" rx="10.9745" fill="white"/>
</clipPath>
</defs>
</svg>
