<svg width="236" height="217" viewBox="0 0 236 217" fill="none" xmlns="http://www.w3.org/2000/svg">
<path d="M20.8418 10.175C20.3138 9.64698 20.0498 9.38296 19.9508 9.07853C19.8638 8.81074 19.8638 8.52227 19.9508 8.25448C20.0498 7.95004 20.3138 7.68603 20.8418 7.15801L24.6263 3.37351C23.622 2.91934 22.5072 2.6665 21.3333 2.6665C16.915 2.6665 13.3333 6.24823 13.3333 10.6665C13.3333 11.3212 13.4119 11.9576 13.5603 12.5666C13.7192 13.2188 13.7986 13.5449 13.7845 13.7509C13.7698 13.9666 13.7376 14.0814 13.6381 14.2733C13.5431 14.4567 13.3611 14.6387 12.997 15.0027L4.66662 23.3332C3.56205 24.4377 3.56205 26.2286 4.66662 27.3332C5.77119 28.4377 7.56205 28.4377 8.66662 27.3332L16.997 19.0027C17.3611 18.6387 17.5431 18.4567 17.7265 18.3617C17.9184 18.2622 18.0332 18.23 18.2489 18.2153C18.4549 18.2012 18.781 18.2806 19.4332 18.4395C20.0422 18.5879 20.6786 18.6665 21.3333 18.6665C25.7516 18.6665 29.3333 15.0848 29.3333 10.6665C29.3333 9.49263 29.0805 8.3778 28.6263 7.37351L24.8418 11.158C24.3138 11.686 24.0498 11.95 23.7453 12.049C23.4775 12.136 23.1891 12.136 22.9213 12.049C22.6168 11.95 22.3528 11.686 21.8248 11.158L20.8418 10.175Z" stroke="#2375EF" stroke-width="2.66667" stroke-linecap="round" stroke-linejoin="round"/>
<path opacity="0.7" d="M89.128 24.288C87.896 24.288 86.824 24.064 85.912 23.616C85 23.168 84.296 22.544 83.8 21.744C83.304 20.944 83.056 20.016 83.056 18.96H85.168C85.168 19.616 85.32 20.224 85.624 20.784C85.928 21.328 86.368 21.768 86.944 22.104C87.536 22.424 88.264 22.584 89.128 22.584C90.264 22.584 91.144 22.312 91.768 21.768C92.392 21.224 92.704 20.544 92.704 19.728C92.704 19.056 92.56 18.52 92.272 18.12C91.984 17.704 91.592 17.368 91.096 17.112C90.616 16.856 90.056 16.632 89.416 16.44C88.792 16.248 88.136 16.032 87.448 15.792C86.152 15.344 85.192 14.792 84.568 14.136C83.944 13.464 83.632 12.592 83.632 11.52C83.616 10.624 83.824 9.832 84.256 9.144C84.688 8.44 85.296 7.896 86.08 7.512C86.88 7.112 87.824 6.912 88.912 6.912C89.984 6.912 90.912 7.112 91.696 7.512C92.496 7.912 93.112 8.464 93.544 9.168C93.992 9.872 94.224 10.672 94.24 11.568H92.128C92.128 11.104 92.008 10.648 91.768 10.2C91.528 9.736 91.16 9.36 90.664 9.072C90.184 8.784 89.576 8.64 88.84 8.64C87.928 8.624 87.176 8.856 86.584 9.336C86.008 9.816 85.72 10.48 85.72 11.328C85.72 12.048 85.92 12.6 86.32 12.984C86.736 13.368 87.312 13.688 88.048 13.944C88.784 14.184 89.632 14.464 90.592 14.784C91.392 15.072 92.112 15.408 92.752 15.792C93.392 16.176 93.888 16.672 94.24 17.28C94.608 17.888 94.792 18.664 94.792 19.608C94.792 20.408 94.584 21.168 94.168 21.888C93.752 22.592 93.12 23.168 92.272 23.616C91.44 24.064 90.392 24.288 89.128 24.288ZM98.755 9.456C98.355 9.456 98.019 9.328 97.747 9.072C97.491 8.8 97.363 8.464 97.363 8.064C97.363 7.68 97.491 7.36 97.747 7.104C98.019 6.848 98.355 6.72 98.755 6.72C99.139 6.72 99.467 6.848 99.739 7.104C100.011 7.36 100.147 7.68 100.147 8.064C100.147 8.464 100.011 8.8 99.739 9.072C99.467 9.328 99.139 9.456 98.755 9.456ZM97.747 24V12.096H99.763V24H97.747ZM103.273 24V12.096H105.097L105.241 13.824C105.625 13.184 106.137 12.688 106.777 12.336C107.417 11.984 108.137 11.808 108.937 11.808C109.881 11.808 110.689 12 111.361 12.384C112.049 12.768 112.577 13.352 112.945 14.136C113.361 13.416 113.929 12.848 114.649 12.432C115.385 12.016 116.177 11.808 117.025 11.808C118.449 11.808 119.585 12.24 120.433 13.104C121.281 13.952 121.705 15.264 121.705 17.04V24H119.713V17.256C119.713 16.024 119.465 15.096 118.969 14.472C118.473 13.848 117.761 13.536 116.833 13.536C115.873 13.536 115.073 13.912 114.433 14.664C113.809 15.4 113.497 16.456 113.497 17.832V24H111.481V17.256C111.481 16.024 111.233 15.096 110.737 14.472C110.241 13.848 109.529 13.536 108.601 13.536C107.657 13.536 106.865 13.912 106.225 14.664C105.601 15.4 105.289 16.456 105.289 17.832V24H103.273ZM124.742 29.28V12.096H126.566L126.758 14.064C127.142 13.488 127.686 12.968 128.39 12.504C129.11 12.04 130.022 11.808 131.126 11.808C132.31 11.808 133.342 12.08 134.222 12.624C135.102 13.168 135.782 13.912 136.262 14.856C136.758 15.8 137.006 16.872 137.006 18.072C137.006 19.272 136.758 20.344 136.262 21.288C135.782 22.216 135.094 22.952 134.198 23.496C133.318 24.024 132.286 24.288 131.102 24.288C130.126 24.288 129.254 24.088 128.486 23.688C127.734 23.288 127.158 22.728 126.758 22.008V29.28H124.742ZM130.886 22.536C131.686 22.536 132.39 22.352 132.998 21.984C133.606 21.6 134.086 21.072 134.438 20.4C134.79 19.728 134.966 18.944 134.966 18.048C134.966 17.152 134.79 16.368 134.438 15.696C134.086 15.024 133.606 14.504 132.998 14.136C132.39 13.752 131.686 13.56 130.886 13.56C130.086 13.56 129.382 13.752 128.774 14.136C128.166 14.504 127.686 15.024 127.334 15.696C126.982 16.368 126.806 17.152 126.806 18.048C126.806 18.944 126.982 19.728 127.334 20.4C127.686 21.072 128.166 21.6 128.774 21.984C129.382 22.352 130.086 22.536 130.886 22.536ZM139.812 24V6.72H141.828V24H139.812ZM150.485 24.288C149.349 24.288 148.341 24.032 147.461 23.52C146.581 22.992 145.885 22.264 145.373 21.336C144.877 20.408 144.629 19.312 144.629 18.048C144.629 16.8 144.877 15.712 145.373 14.784C145.869 13.84 146.557 13.112 147.437 12.6C148.333 12.072 149.365 11.808 150.533 11.808C151.685 11.808 152.677 12.072 153.509 12.6C154.357 13.112 155.005 13.792 155.453 14.64C155.901 15.488 156.125 16.4 156.125 17.376C156.125 17.552 156.117 17.728 156.101 17.904C156.101 18.08 156.101 18.28 156.101 18.504H146.621C146.669 19.416 146.877 20.176 147.245 20.784C147.629 21.376 148.101 21.824 148.661 22.128C149.237 22.432 149.845 22.584 150.485 22.584C151.317 22.584 152.013 22.392 152.573 22.008C153.133 21.624 153.541 21.104 153.797 20.448H155.789C155.469 21.552 154.853 22.472 153.941 23.208C153.045 23.928 151.893 24.288 150.485 24.288ZM150.485 13.512C149.525 13.512 148.669 13.808 147.917 14.4C147.181 14.976 146.757 15.824 146.645 16.944H154.133C154.085 15.872 153.717 15.032 153.029 14.424C152.341 13.816 151.493 13.512 150.485 13.512ZM169.708 24.288C168.284 24.288 167.1 23.928 166.156 23.208C165.212 22.488 164.66 21.512 164.5 20.28H166.564C166.692 20.904 167.02 21.448 167.548 21.912C168.092 22.36 168.82 22.584 169.732 22.584C170.58 22.584 171.204 22.408 171.604 22.056C172.004 21.688 172.204 21.256 172.204 20.76C172.204 20.04 171.94 19.56 171.412 19.32C170.9 19.08 170.172 18.864 169.228 18.672C168.588 18.544 167.948 18.36 167.308 18.12C166.668 17.88 166.132 17.544 165.7 17.112C165.268 16.664 165.052 16.08 165.052 15.36C165.052 14.32 165.436 13.472 166.204 12.816C166.988 12.144 168.044 11.808 169.372 11.808C170.636 11.808 171.668 12.128 172.468 12.768C173.284 13.392 173.756 14.288 173.884 15.456H171.892C171.812 14.848 171.548 14.376 171.1 14.04C170.668 13.688 170.084 13.512 169.348 13.512C168.628 13.512 168.068 13.664 167.668 13.968C167.284 14.272 167.092 14.672 167.092 15.168C167.092 15.648 167.34 16.024 167.836 16.296C168.348 16.568 169.036 16.8 169.9 16.992C170.636 17.152 171.332 17.352 171.988 17.592C172.66 17.816 173.204 18.16 173.62 18.624C174.052 19.072 174.268 19.728 174.268 20.592C174.284 21.664 173.876 22.552 173.044 23.256C172.228 23.944 171.116 24.288 169.708 24.288ZM182.5 24.288C181.364 24.288 180.356 24.032 179.476 23.52C178.596 22.992 177.9 22.264 177.388 21.336C176.892 20.408 176.644 19.312 176.644 18.048C176.644 16.8 176.892 15.712 177.388 14.784C177.884 13.84 178.572 13.112 179.452 12.6C180.348 12.072 181.38 11.808 182.548 11.808C183.7 11.808 184.692 12.072 185.524 12.6C186.372 13.112 187.02 13.792 187.468 14.64C187.916 15.488 188.14 16.4 188.14 17.376C188.14 17.552 188.132 17.728 188.116 17.904C188.116 18.08 188.116 18.28 188.116 18.504H178.636C178.684 19.416 178.892 20.176 179.26 20.784C179.644 21.376 180.116 21.824 180.676 22.128C181.252 22.432 181.86 22.584 182.5 22.584C183.332 22.584 184.028 22.392 184.588 22.008C185.148 21.624 185.556 21.104 185.812 20.448H187.804C187.484 21.552 186.868 22.472 185.956 23.208C185.06 23.928 183.908 24.288 182.5 24.288ZM182.5 13.512C181.54 13.512 180.684 13.808 179.932 14.4C179.196 14.976 178.772 15.824 178.66 16.944H186.148C186.1 15.872 185.732 15.032 185.044 14.424C184.356 13.816 183.508 13.512 182.5 13.512ZM195.118 24C194.03 24 193.174 23.736 192.55 23.208C191.926 22.68 191.614 21.728 191.614 20.352V13.8H189.55V12.096H191.614L191.878 9.24H193.63V12.096H197.134V13.8H193.63V20.352C193.63 21.104 193.782 21.616 194.086 21.888C194.39 22.144 194.926 22.272 195.694 22.272H196.942V24H195.118ZM204.039 24.288C202.631 24.288 201.511 23.864 200.679 23.016C199.847 22.152 199.431 20.832 199.431 19.056V12.096H201.447V18.84C201.447 21.32 202.463 22.56 204.495 22.56C205.535 22.56 206.391 22.192 207.063 21.456C207.751 20.704 208.095 19.64 208.095 18.264V12.096H210.111V24H208.287L208.143 21.864C207.775 22.616 207.223 23.208 206.487 23.64C205.767 24.072 204.951 24.288 204.039 24.288ZM213.429 29.28V12.096H215.253L215.445 14.064C215.829 13.488 216.373 12.968 217.077 12.504C217.797 12.04 218.709 11.808 219.813 11.808C220.997 11.808 222.029 12.08 222.909 12.624C223.789 13.168 224.469 13.912 224.949 14.856C225.445 15.8 225.693 16.872 225.693 18.072C225.693 19.272 225.445 20.344 224.949 21.288C224.469 22.216 223.781 22.952 222.885 23.496C222.005 24.024 220.973 24.288 219.789 24.288C218.813 24.288 217.941 24.088 217.173 23.688C216.421 23.288 215.845 22.728 215.445 22.008V29.28H213.429ZM219.573 22.536C220.373 22.536 221.077 22.352 221.685 21.984C222.293 21.6 222.773 21.072 223.125 20.4C223.477 19.728 223.653 18.944 223.653 18.048C223.653 17.152 223.477 16.368 223.125 15.696C222.773 15.024 222.293 14.504 221.685 14.136C221.077 13.752 220.373 13.56 219.573 13.56C218.773 13.56 218.069 13.752 217.461 14.136C216.853 14.504 216.373 15.024 216.021 15.696C215.669 16.368 215.493 17.152 215.493 18.048C215.493 18.944 215.669 19.728 216.021 20.4C216.373 21.072 216.853 21.6 217.461 21.984C218.069 22.352 218.773 22.536 219.573 22.536Z" fill="black"/>
<path d="M22.6666 78.3333V75.6667C22.6666 71.9848 19.6819 69 16 69C12.3181 69 9.33331 71.9848 9.33331 75.6667V78.3333M16 84.3333V87M11.7333 93H20.2666C22.5069 93 23.627 93 24.4826 92.564C25.2353 92.1805 25.8472 91.5686 26.2307 90.816C26.6666 89.9603 26.6666 88.8402 26.6666 86.6V84.7333C26.6666 82.4931 26.6666 81.373 26.2307 80.5174C25.8472 79.7647 25.2353 79.1528 24.4826 78.7693C23.627 78.3333 22.5069 78.3333 20.2666 78.3333H11.7333C9.4931 78.3333 8.373 78.3333 7.51735 78.7693C6.7647 79.1528 6.15278 79.7647 5.76929 80.5174C5.33331 81.373 5.33331 82.4931 5.33331 84.7333V86.6C5.33331 88.8402 5.33331 89.9603 5.76929 90.816C6.15278 91.5686 6.7647 92.1805 7.51735 92.564C8.373 93 9.4931 93 11.7333 93Z" stroke="#2375EF" stroke-width="2.66667" stroke-linecap="round" stroke-linejoin="round"/>
<path opacity="0.7" d="M89.128 89.288C87.896 89.288 86.824 89.064 85.912 88.616C85 88.168 84.296 87.544 83.8 86.744C83.304 85.944 83.056 85.016 83.056 83.96H85.168C85.168 84.616 85.32 85.224 85.624 85.784C85.928 86.328 86.368 86.768 86.944 87.104C87.536 87.424 88.264 87.584 89.128 87.584C90.264 87.584 91.144 87.312 91.768 86.768C92.392 86.224 92.704 85.544 92.704 84.728C92.704 84.056 92.56 83.52 92.272 83.12C91.984 82.704 91.592 82.368 91.096 82.112C90.616 81.856 90.056 81.632 89.416 81.44C88.792 81.248 88.136 81.032 87.448 80.792C86.152 80.344 85.192 79.792 84.568 79.136C83.944 78.464 83.632 77.592 83.632 76.52C83.616 75.624 83.824 74.832 84.256 74.144C84.688 73.44 85.296 72.896 86.08 72.512C86.88 72.112 87.824 71.912 88.912 71.912C89.984 71.912 90.912 72.112 91.696 72.512C92.496 72.912 93.112 73.464 93.544 74.168C93.992 74.872 94.224 75.672 94.24 76.568H92.128C92.128 76.104 92.008 75.648 91.768 75.2C91.528 74.736 91.16 74.36 90.664 74.072C90.184 73.784 89.576 73.64 88.84 73.64C87.928 73.624 87.176 73.856 86.584 74.336C86.008 74.816 85.72 75.48 85.72 76.328C85.72 77.048 85.92 77.6 86.32 77.984C86.736 78.368 87.312 78.688 88.048 78.944C88.784 79.184 89.632 79.464 90.592 79.784C91.392 80.072 92.112 80.408 92.752 80.792C93.392 81.176 93.888 81.672 94.24 82.28C94.608 82.888 94.792 83.664 94.792 84.608C94.792 85.408 94.584 86.168 94.168 86.888C93.752 87.592 93.12 88.168 92.272 88.616C91.44 89.064 90.392 89.288 89.128 89.288ZM102.883 89.288C101.747 89.288 100.739 89.032 99.859 88.52C98.979 87.992 98.283 87.264 97.771 86.336C97.275 85.408 97.027 84.312 97.027 83.048C97.027 81.8 97.275 80.712 97.771 79.784C98.267 78.84 98.955 78.112 99.835 77.6C100.731 77.072 101.763 76.808 102.931 76.808C104.083 76.808 105.075 77.072 105.907 77.6C106.755 78.112 107.403 78.792 107.851 79.64C108.299 80.488 108.523 81.4 108.523 82.376C108.523 82.552 108.515 82.728 108.499 82.904C108.499 83.08 108.499 83.28 108.499 83.504H99.019C99.067 84.416 99.275 85.176 99.643 85.784C100.027 86.376 100.499 86.824 101.059 87.128C101.635 87.432 102.243 87.584 102.883 87.584C103.715 87.584 104.411 87.392 104.971 87.008C105.531 86.624 105.939 86.104 106.195 85.448H108.187C107.867 86.552 107.251 87.472 106.339 88.208C105.443 88.928 104.291 89.288 102.883 89.288ZM102.883 78.512C101.923 78.512 101.067 78.808 100.315 79.4C99.579 79.976 99.155 80.824 99.043 81.944H106.531C106.483 80.872 106.115 80.032 105.427 79.424C104.739 78.816 103.891 78.512 102.883 78.512ZM116.667 89.288C115.531 89.288 114.507 89.032 113.595 88.52C112.699 87.992 111.987 87.264 111.459 86.336C110.947 85.392 110.691 84.296 110.691 83.048C110.691 81.8 110.947 80.712 111.459 79.784C111.987 78.84 112.699 78.112 113.595 77.6C114.507 77.072 115.531 76.808 116.667 76.808C118.075 76.808 119.259 77.176 120.219 77.912C121.195 78.648 121.811 79.632 122.067 80.864H120.003C119.843 80.128 119.451 79.56 118.827 79.16C118.203 78.744 117.475 78.536 116.643 78.536C115.971 78.536 115.339 78.704 114.747 79.04C114.155 79.376 113.675 79.88 113.307 80.552C112.939 81.224 112.755 82.056 112.755 83.048C112.755 84.04 112.939 84.872 113.307 85.544C113.675 86.216 114.155 86.728 114.747 87.08C115.339 87.416 115.971 87.584 116.643 87.584C117.475 87.584 118.203 87.384 118.827 86.984C119.451 86.568 119.843 85.984 120.003 85.232H122.067C121.827 86.432 121.219 87.408 120.243 88.16C119.267 88.912 118.075 89.288 116.667 89.288ZM129.227 89.288C127.819 89.288 126.699 88.864 125.867 88.016C125.035 87.152 124.619 85.832 124.619 84.056V77.096H126.635V83.84C126.635 86.32 127.651 87.56 129.683 87.56C130.723 87.56 131.579 87.192 132.251 86.456C132.939 85.704 133.283 84.64 133.283 83.264V77.096H135.299V89H133.475L133.331 86.864C132.963 87.616 132.411 88.208 131.675 88.64C130.955 89.072 130.139 89.288 129.227 89.288ZM138.617 89V77.096H140.441L140.609 79.376C140.977 78.592 141.537 77.968 142.289 77.504C143.041 77.04 143.969 76.808 145.073 76.808V78.92H144.521C143.817 78.92 143.169 79.048 142.577 79.304C141.985 79.544 141.513 79.96 141.161 80.552C140.809 81.144 140.633 81.96 140.633 83V89H138.617ZM152.242 89.288C151.106 89.288 150.098 89.032 149.218 88.52C148.338 87.992 147.642 87.264 147.13 86.336C146.634 85.408 146.386 84.312 146.386 83.048C146.386 81.8 146.634 80.712 147.13 79.784C147.626 78.84 148.314 78.112 149.194 77.6C150.09 77.072 151.122 76.808 152.29 76.808C153.442 76.808 154.434 77.072 155.266 77.6C156.114 78.112 156.762 78.792 157.21 79.64C157.658 80.488 157.882 81.4 157.882 82.376C157.882 82.552 157.874 82.728 157.858 82.904C157.858 83.08 157.858 83.28 157.858 83.504H148.378C148.426 84.416 148.634 85.176 149.002 85.784C149.386 86.376 149.858 86.824 150.418 87.128C150.994 87.432 151.602 87.584 152.242 87.584C153.074 87.584 153.77 87.392 154.33 87.008C154.89 86.624 155.298 86.104 155.554 85.448H157.546C157.226 86.552 156.61 87.472 155.698 88.208C154.802 88.928 153.65 89.288 152.242 89.288ZM152.242 78.512C151.282 78.512 150.426 78.808 149.674 79.4C148.938 79.976 148.514 80.824 148.402 81.944H155.89C155.842 80.872 155.474 80.032 154.786 79.424C154.098 78.816 153.25 78.512 152.242 78.512ZM84.88 106.456C84.48 106.456 84.144 106.328 83.872 106.072C83.616 105.8 83.488 105.464 83.488 105.064C83.488 104.68 83.616 104.36 83.872 104.104C84.144 103.848 84.48 103.72 84.88 103.72C85.264 103.72 85.592 103.848 85.864 104.104C86.136 104.36 86.272 104.68 86.272 105.064C86.272 105.464 86.136 105.8 85.864 106.072C85.592 106.328 85.264 106.456 84.88 106.456ZM83.872 121V109.096H85.888V121H83.872ZM89.3982 121V109.096H91.2222L91.3422 111.232C91.7262 110.48 92.2782 109.888 92.9982 109.456C93.7182 109.024 94.5342 108.808 95.4462 108.808C96.8542 108.808 97.9742 109.24 98.8062 110.104C99.6542 110.952 100.078 112.264 100.078 114.04V121H98.0622V114.256C98.0622 111.776 97.0382 110.536 94.9902 110.536C93.9662 110.536 93.1102 110.912 92.4222 111.664C91.7502 112.4 91.4142 113.456 91.4142 114.832V121H89.3982ZM103.781 121V110.8H101.981V109.096H103.781V107.032C103.781 105.88 104.069 105.04 104.645 104.512C105.221 103.984 106.061 103.72 107.165 103.72H108.365V105.448H107.477C106.869 105.448 106.437 105.576 106.181 105.832C105.925 106.072 105.797 106.488 105.797 107.08V109.096H108.725V110.8H105.797V121H103.781ZM111.125 121V109.096H112.949L113.117 111.376C113.485 110.592 114.045 109.968 114.797 109.504C115.549 109.04 116.477 108.808 117.581 108.808V110.92H117.029C116.325 110.92 115.677 111.048 115.085 111.304C114.493 111.544 114.021 111.96 113.669 112.552C113.317 113.144 113.141 113.96 113.141 115V121H111.125ZM123.804 121.288C122.812 121.288 121.988 121.12 121.332 120.784C120.676 120.448 120.188 120 119.868 119.44C119.548 118.88 119.388 118.272 119.388 117.616C119.388 116.4 119.852 115.464 120.78 114.808C121.708 114.152 122.972 113.824 124.572 113.824H127.788V113.68C127.788 112.64 127.516 111.856 126.972 111.328C126.428 110.784 125.7 110.512 124.788 110.512C124.004 110.512 123.324 110.712 122.748 111.112C122.188 111.496 121.836 112.064 121.692 112.816H119.628C119.708 111.952 119.996 111.224 120.492 110.632C121.004 110.04 121.636 109.592 122.388 109.288C123.14 108.968 123.94 108.808 124.788 108.808C126.452 108.808 127.7 109.256 128.532 110.152C129.38 111.032 129.804 112.208 129.804 113.68V121H128.004L127.884 118.864C127.548 119.536 127.052 120.112 126.396 120.592C125.756 121.056 124.892 121.288 123.804 121.288ZM124.116 119.584C124.884 119.584 125.54 119.384 126.084 118.984C126.644 118.584 127.068 118.064 127.356 117.424C127.644 116.784 127.788 116.112 127.788 115.408V115.384H124.74C123.556 115.384 122.716 115.592 122.22 116.008C121.74 116.408 121.5 116.912 121.5 117.52C121.5 118.144 121.724 118.648 122.172 119.032C122.636 119.4 123.284 119.584 124.116 119.584ZM137.388 121.288C135.964 121.288 134.78 120.928 133.836 120.208C132.892 119.488 132.34 118.512 132.18 117.28H134.244C134.372 117.904 134.7 118.448 135.228 118.912C135.772 119.36 136.5 119.584 137.412 119.584C138.26 119.584 138.884 119.408 139.284 119.056C139.684 118.688 139.884 118.256 139.884 117.76C139.884 117.04 139.62 116.56 139.092 116.32C138.58 116.08 137.852 115.864 136.908 115.672C136.268 115.544 135.628 115.36 134.988 115.12C134.348 114.88 133.812 114.544 133.38 114.112C132.948 113.664 132.732 113.08 132.732 112.36C132.732 111.32 133.116 110.472 133.884 109.816C134.668 109.144 135.724 108.808 137.052 108.808C138.316 108.808 139.348 109.128 140.148 109.768C140.964 110.392 141.436 111.288 141.564 112.456H139.572C139.492 111.848 139.228 111.376 138.78 111.04C138.348 110.688 137.764 110.512 137.028 110.512C136.308 110.512 135.748 110.664 135.348 110.968C134.964 111.272 134.772 111.672 134.772 112.168C134.772 112.648 135.02 113.024 135.516 113.296C136.028 113.568 136.716 113.8 137.58 113.992C138.316 114.152 139.012 114.352 139.668 114.592C140.34 114.816 140.884 115.16 141.3 115.624C141.732 116.072 141.948 116.728 141.948 117.592C141.964 118.664 141.556 119.552 140.724 120.256C139.908 120.944 138.796 121.288 137.388 121.288ZM148.993 121C147.905 121 147.049 120.736 146.425 120.208C145.801 119.68 145.489 118.728 145.489 117.352V110.8H143.425V109.096H145.489L145.753 106.24H147.505V109.096H151.009V110.8H147.505V117.352C147.505 118.104 147.657 118.616 147.961 118.888C148.265 119.144 148.801 119.272 149.569 119.272H150.817V121H148.993ZM153.57 121V109.096H155.394L155.562 111.376C155.93 110.592 156.49 109.968 157.242 109.504C157.994 109.04 158.922 108.808 160.026 108.808V110.92H159.474C158.77 110.92 158.122 111.048 157.53 111.304C156.938 111.544 156.466 111.96 156.114 112.552C155.762 113.144 155.586 113.96 155.586 115V121H153.57ZM166.633 121.288C165.225 121.288 164.105 120.864 163.273 120.016C162.441 119.152 162.025 117.832 162.025 116.056V109.096H164.041V115.84C164.041 118.32 165.057 119.56 167.089 119.56C168.129 119.56 168.985 119.192 169.657 118.456C170.345 117.704 170.689 116.64 170.689 115.264V109.096H172.705V121H170.881L170.737 118.864C170.369 119.616 169.817 120.208 169.081 120.64C168.361 121.072 167.545 121.288 166.633 121.288ZM181.495 121.288C180.359 121.288 179.335 121.032 178.423 120.52C177.527 119.992 176.815 119.264 176.287 118.336C175.775 117.392 175.519 116.296 175.519 115.048C175.519 113.8 175.775 112.712 176.287 111.784C176.815 110.84 177.527 110.112 178.423 109.6C179.335 109.072 180.359 108.808 181.495 108.808C182.903 108.808 184.087 109.176 185.047 109.912C186.023 110.648 186.639 111.632 186.895 112.864H184.831C184.671 112.128 184.279 111.56 183.655 111.16C183.031 110.744 182.303 110.536 181.471 110.536C180.799 110.536 180.167 110.704 179.575 111.04C178.983 111.376 178.503 111.88 178.135 112.552C177.767 113.224 177.583 114.056 177.583 115.048C177.583 116.04 177.767 116.872 178.135 117.544C178.503 118.216 178.983 118.728 179.575 119.08C180.167 119.416 180.799 119.584 181.471 119.584C182.303 119.584 183.031 119.384 183.655 118.984C184.279 118.568 184.671 117.984 184.831 117.232H186.895C186.655 118.432 186.047 119.408 185.071 120.16C184.095 120.912 182.903 121.288 181.495 121.288ZM194.087 121C192.999 121 192.143 120.736 191.519 120.208C190.895 119.68 190.583 118.728 190.583 117.352V110.8H188.519V109.096H190.583L190.847 106.24H192.599V109.096H196.103V110.8H192.599V117.352C192.599 118.104 192.751 118.616 193.055 118.888C193.359 119.144 193.895 119.272 194.663 119.272H195.911V121H194.087ZM203.008 121.288C201.6 121.288 200.48 120.864 199.648 120.016C198.816 119.152 198.4 117.832 198.4 116.056V109.096H200.416V115.84C200.416 118.32 201.432 119.56 203.464 119.56C204.504 119.56 205.36 119.192 206.032 118.456C206.72 117.704 207.064 116.64 207.064 115.264V109.096H209.08V121H207.256L207.112 118.864C206.744 119.616 206.192 120.208 205.456 120.64C204.736 121.072 203.92 121.288 203.008 121.288ZM212.398 121V109.096H214.222L214.39 111.376C214.758 110.592 215.318 109.968 216.07 109.504C216.822 109.04 217.75 108.808 218.854 108.808V110.92H218.302C217.598 110.92 216.95 111.048 216.358 111.304C215.766 111.544 215.294 111.96 214.942 112.552C214.59 113.144 214.414 113.96 214.414 115V121H212.398ZM226.024 121.288C224.888 121.288 223.88 121.032 223 120.52C222.12 119.992 221.424 119.264 220.912 118.336C220.416 117.408 220.168 116.312 220.168 115.048C220.168 113.8 220.416 112.712 220.912 111.784C221.408 110.84 222.096 110.112 222.976 109.6C223.872 109.072 224.904 108.808 226.072 108.808C227.224 108.808 228.216 109.072 229.048 109.6C229.896 110.112 230.544 110.792 230.992 111.64C231.44 112.488 231.664 113.4 231.664 114.376C231.664 114.552 231.656 114.728 231.64 114.904C231.64 115.08 231.64 115.28 231.64 115.504H222.16C222.208 116.416 222.416 117.176 222.784 117.784C223.168 118.376 223.64 118.824 224.2 119.128C224.776 119.432 225.384 119.584 226.024 119.584C226.856 119.584 227.552 119.392 228.112 119.008C228.672 118.624 229.08 118.104 229.336 117.448H231.328C231.008 118.552 230.392 119.472 229.48 120.208C228.584 120.928 227.432 121.288 226.024 121.288ZM226.024 110.512C225.064 110.512 224.208 110.808 223.456 111.4C222.72 111.976 222.296 112.824 222.184 113.944H229.672C229.624 112.872 229.256 112.032 228.568 111.424C227.88 110.816 227.032 110.512 226.024 110.512Z" fill="black"/>
<path d="M13 180.667L14.964 181.758C15.3421 181.968 15.5312 182.073 15.7314 182.114C15.9086 182.151 16.0914 182.151 16.2686 182.114C16.4688 182.073 16.6579 181.968 17.036 181.758L19 180.667M7 177.334L5.0973 176.277C4.69794 176.055 4.49824 175.944 4.35284 175.786C4.22421 175.646 4.12686 175.481 4.06731 175.301C4 175.097 4 174.869 4 174.412V172.334M4 165.667V163.589C4 163.132 4 162.904 4.06731 162.7C4.12686 162.52 4.22421 162.354 4.35284 162.215C4.49825 162.057 4.69793 161.946 5.0973 161.724L7 160.667M13 157.334L14.964 156.243C15.3421 156.032 15.5312 155.927 15.7314 155.886C15.9086 155.85 16.0914 155.85 16.2686 155.886C16.4688 155.927 16.6579 156.032 17.036 156.243L19 157.334M25 160.667L26.9027 161.724C27.3021 161.946 27.5018 162.057 27.6472 162.215C27.7758 162.354 27.8731 162.52 27.9327 162.7C28 162.904 28 163.132 28 163.589V165.667M28 172.334V174.412C28 174.869 28 175.097 27.9327 175.301C27.8731 175.481 27.7758 175.646 27.6472 175.786C27.5018 175.944 27.3021 176.055 26.9027 176.277L25 177.334M13 167.334L16 169M16 169L19 167.334M16 169V172.334M4 162.334L7 164M25 164L28 162.334M16 179V182.334" stroke="#2375EF" stroke-width="2.66667" stroke-linecap="round" stroke-linejoin="round"/>
<path opacity="0.7" d="M83.776 177V160.2H88.936C91.896 160.2 94.072 160.952 95.464 162.456C96.872 163.96 97.576 166.024 97.576 168.648C97.576 171.224 96.872 173.264 95.464 174.768C94.072 176.256 91.896 177 88.936 177H83.776ZM85.792 175.32H88.888C90.52 175.32 91.816 175.056 92.776 174.528C93.752 173.984 94.448 173.216 94.864 172.224C95.28 171.216 95.488 170.024 95.488 168.648C95.488 167.24 95.28 166.032 94.864 165.024C94.448 164.016 93.752 163.24 92.776 162.696C91.816 162.152 90.52 161.88 88.888 161.88H85.792V175.32ZM105.719 177.288C104.583 177.288 103.575 177.032 102.695 176.52C101.815 175.992 101.119 175.264 100.607 174.336C100.111 173.408 99.8629 172.312 99.8629 171.048C99.8629 169.8 100.111 168.712 100.607 167.784C101.103 166.84 101.791 166.112 102.671 165.6C103.567 165.072 104.599 164.808 105.767 164.808C106.919 164.808 107.911 165.072 108.743 165.6C109.591 166.112 110.239 166.792 110.687 167.64C111.135 168.488 111.359 169.4 111.359 170.376C111.359 170.552 111.351 170.728 111.335 170.904C111.335 171.08 111.335 171.28 111.335 171.504H101.855C101.903 172.416 102.111 173.176 102.479 173.784C102.863 174.376 103.335 174.824 103.895 175.128C104.471 175.432 105.079 175.584 105.719 175.584C106.551 175.584 107.247 175.392 107.807 175.008C108.367 174.624 108.775 174.104 109.031 173.448H111.023C110.703 174.552 110.087 175.472 109.175 176.208C108.279 176.928 107.127 177.288 105.719 177.288ZM105.719 166.512C104.759 166.512 103.903 166.808 103.151 167.4C102.415 167.976 101.991 168.824 101.879 169.944H109.367C109.319 168.872 108.951 168.032 108.263 167.424C107.575 166.816 106.727 166.512 105.719 166.512ZM119.503 177.288C118.367 177.288 117.343 177.032 116.431 176.52C115.535 175.992 114.823 175.264 114.295 174.336C113.783 173.392 113.527 172.296 113.527 171.048C113.527 169.8 113.783 168.712 114.295 167.784C114.823 166.84 115.535 166.112 116.431 165.6C117.343 165.072 118.367 164.808 119.503 164.808C120.911 164.808 122.095 165.176 123.055 165.912C124.031 166.648 124.647 167.632 124.903 168.864H122.839C122.679 168.128 122.287 167.56 121.663 167.16C121.039 166.744 120.311 166.536 119.479 166.536C118.807 166.536 118.175 166.704 117.583 167.04C116.991 167.376 116.511 167.88 116.143 168.552C115.775 169.224 115.591 170.056 115.591 171.048C115.591 172.04 115.775 172.872 116.143 173.544C116.511 174.216 116.991 174.728 117.583 175.08C118.175 175.416 118.807 175.584 119.479 175.584C120.311 175.584 121.039 175.384 121.663 174.984C122.287 174.568 122.679 173.984 122.839 173.232H124.903C124.663 174.432 124.055 175.408 123.079 176.16C122.103 176.912 120.911 177.288 119.503 177.288ZM133.071 177.288C131.935 177.288 130.927 177.032 130.047 176.52C129.167 175.992 128.471 175.264 127.959 174.336C127.463 173.408 127.215 172.312 127.215 171.048C127.215 169.8 127.463 168.712 127.959 167.784C128.455 166.84 129.143 166.112 130.023 165.6C130.919 165.072 131.951 164.808 133.118 164.808C134.271 164.808 135.263 165.072 136.095 165.6C136.943 166.112 137.591 166.792 138.039 167.64C138.487 168.488 138.711 169.4 138.711 170.376C138.711 170.552 138.703 170.728 138.687 170.904C138.687 171.08 138.687 171.28 138.687 171.504H129.207C129.255 172.416 129.463 173.176 129.831 173.784C130.215 174.376 130.687 174.824 131.247 175.128C131.823 175.432 132.431 175.584 133.071 175.584C133.903 175.584 134.599 175.392 135.159 175.008C135.719 174.624 136.127 174.104 136.383 173.448H138.375C138.055 174.552 137.439 175.472 136.527 176.208C135.631 176.928 134.479 177.288 133.071 177.288ZM133.071 166.512C132.111 166.512 131.255 166.808 130.503 167.4C129.767 167.976 129.343 168.824 129.23 169.944H136.719C136.671 168.872 136.303 168.032 135.615 167.424C134.927 166.816 134.079 166.512 133.071 166.512ZM141.383 177V165.096H143.207L143.327 167.232C143.711 166.48 144.263 165.888 144.983 165.456C145.703 165.024 146.519 164.808 147.431 164.808C148.839 164.808 149.959 165.24 150.791 166.104C151.639 166.952 152.063 168.264 152.063 170.04V177H150.047V170.256C150.047 167.776 149.023 166.536 146.975 166.536C145.951 166.536 145.095 166.912 144.407 167.664C143.735 168.4 143.399 169.456 143.399 170.832V177H141.383ZM159.821 177C158.733 177 157.877 176.736 157.253 176.208C156.629 175.68 156.317 174.728 156.317 173.352V166.8H154.253V165.096H156.317L156.581 162.24H158.333V165.096H161.837V166.8H158.333V173.352C158.333 174.104 158.485 174.616 158.789 174.888C159.093 175.144 159.629 175.272 160.397 175.272H161.645V177H159.821ZM164.398 177V165.096H166.222L166.39 167.376C166.758 166.592 167.318 165.968 168.07 165.504C168.822 165.04 169.75 164.808 170.854 164.808V166.92H170.302C169.598 166.92 168.95 167.048 168.358 167.304C167.766 167.544 167.294 167.96 166.942 168.552C166.59 169.144 166.414 169.96 166.414 171V177H164.398ZM177.077 177.288C176.085 177.288 175.261 177.12 174.605 176.784C173.949 176.448 173.461 176 173.141 175.44C172.821 174.88 172.661 174.272 172.661 173.616C172.661 172.4 173.125 171.464 174.053 170.808C174.981 170.152 176.245 169.824 177.845 169.824H181.061V169.68C181.061 168.64 180.789 167.856 180.245 167.328C179.701 166.784 178.973 166.512 178.061 166.512C177.277 166.512 176.597 166.712 176.021 167.112C175.461 167.496 175.109 168.064 174.965 168.816H172.901C172.981 167.952 173.269 167.224 173.765 166.632C174.277 166.04 174.909 165.592 175.661 165.288C176.413 164.968 177.213 164.808 178.061 164.808C179.725 164.808 180.973 165.256 181.805 166.152C182.653 167.032 183.077 168.208 183.077 169.68V177H181.277L181.157 174.864C180.821 175.536 180.325 176.112 179.669 176.592C179.029 177.056 178.165 177.288 177.077 177.288ZM177.389 175.584C178.157 175.584 178.813 175.384 179.357 174.984C179.917 174.584 180.341 174.064 180.629 173.424C180.917 172.784 181.061 172.112 181.061 171.408V171.384H178.013C176.829 171.384 175.989 171.592 175.493 172.008C175.013 172.408 174.773 172.912 174.773 173.52C174.773 174.144 174.997 174.648 175.445 175.032C175.909 175.4 176.557 175.584 177.389 175.584ZM186.101 177V159.72H188.117V177H186.101ZM192.646 162.456C192.246 162.456 191.91 162.328 191.638 162.072C191.382 161.8 191.254 161.464 191.254 161.064C191.254 160.68 191.382 160.36 191.638 160.104C191.91 159.848 192.246 159.72 192.646 159.72C193.03 159.72 193.358 159.848 193.63 160.104C193.902 160.36 194.038 160.68 194.038 161.064C194.038 161.464 193.902 161.8 193.63 162.072C193.358 162.328 193.03 162.456 192.646 162.456ZM191.638 177V165.096H193.654V177H191.638ZM196.348 177V175.344L202.972 166.776H196.468V165.096H205.228V166.752L198.604 175.32H205.348V177H196.348ZM213.367 177.288C212.231 177.288 211.223 177.032 210.343 176.52C209.463 175.992 208.767 175.264 208.255 174.336C207.759 173.408 207.511 172.312 207.511 171.048C207.511 169.8 207.759 168.712 208.255 167.784C208.751 166.84 209.439 166.112 210.319 165.6C211.215 165.072 212.247 164.808 213.415 164.808C214.567 164.808 215.559 165.072 216.391 165.6C217.239 166.112 217.887 166.792 218.335 167.64C218.783 168.488 219.007 169.4 219.007 170.376C219.007 170.552 218.999 170.728 218.983 170.904C218.983 171.08 218.983 171.28 218.983 171.504H209.503C209.551 172.416 209.759 173.176 210.127 173.784C210.511 174.376 210.983 174.824 211.543 175.128C212.119 175.432 212.727 175.584 213.367 175.584C214.199 175.584 214.895 175.392 215.455 175.008C216.015 174.624 216.423 174.104 216.679 173.448H218.671C218.351 174.552 217.735 175.472 216.823 176.208C215.927 176.928 214.775 177.288 213.367 177.288ZM213.367 166.512C212.407 166.512 211.551 166.808 210.799 167.4C210.063 167.976 209.639 168.824 209.527 169.944H217.015C216.967 168.872 216.599 168.032 215.911 167.424C215.223 166.816 214.375 166.512 213.367 166.512ZM227.079 177.288C225.895 177.288 224.855 177.016 223.959 176.472C223.079 175.928 222.391 175.184 221.895 174.24C221.415 173.296 221.175 172.224 221.175 171.024C221.175 169.824 221.423 168.76 221.919 167.832C222.415 166.888 223.103 166.152 223.983 165.624C224.863 165.08 225.903 164.808 227.103 164.808C228.079 164.808 228.943 165.008 229.695 165.408C230.447 165.808 231.031 166.368 231.447 167.088V159.72H233.463V177H231.639L231.447 175.032C231.063 175.608 230.511 176.128 229.791 176.592C229.071 177.056 228.167 177.288 227.079 177.288ZM227.295 175.536C228.095 175.536 228.799 175.352 229.407 174.984C230.031 174.6 230.511 174.072 230.847 173.4C231.199 172.728 231.375 171.944 231.375 171.048C231.375 170.152 231.199 169.368 230.847 168.696C230.511 168.024 230.031 167.504 229.407 167.136C228.799 166.752 228.095 166.56 227.295 166.56C226.511 166.56 225.807 166.752 225.183 167.136C224.575 167.504 224.095 168.024 223.743 168.696C223.407 169.368 223.239 170.152 223.239 171.048C223.239 171.944 223.407 172.728 223.743 173.4C224.095 174.072 224.575 174.6 225.183 174.984C225.807 175.352 226.511 175.536 227.295 175.536ZM87.616 209.288C86.624 209.288 85.8 209.12 85.144 208.784C84.488 208.448 84 208 83.68 207.44C83.36 206.88 83.2 206.272 83.2 205.616C83.2 204.4 83.664 203.464 84.592 202.808C85.52 202.152 86.784 201.824 88.384 201.824H91.6V201.68C91.6 200.64 91.328 199.856 90.784 199.328C90.24 198.784 89.512 198.512 88.6 198.512C87.816 198.512 87.136 198.712 86.56 199.112C86 199.496 85.648 200.064 85.504 200.816H83.44C83.52 199.952 83.808 199.224 84.304 198.632C84.816 198.04 85.448 197.592 86.2 197.288C86.952 196.968 87.752 196.808 88.6 196.808C90.264 196.808 91.512 197.256 92.344 198.152C93.192 199.032 93.616 200.208 93.616 201.68V209H91.816L91.696 206.864C91.36 207.536 90.864 208.112 90.208 208.592C89.568 209.056 88.704 209.288 87.616 209.288ZM87.928 207.584C88.696 207.584 89.352 207.384 89.896 206.984C90.456 206.584 90.88 206.064 91.168 205.424C91.456 204.784 91.6 204.112 91.6 203.408V203.384H88.552C87.368 203.384 86.528 203.592 86.032 204.008C85.552 204.408 85.312 204.912 85.312 205.52C85.312 206.144 85.536 206.648 85.984 207.032C86.448 207.4 87.096 207.584 87.928 207.584ZM96.6404 209V197.096H98.4644L98.6324 199.376C99.0004 198.592 99.5604 197.968 100.312 197.504C101.064 197.04 101.992 196.808 103.096 196.808V198.92H102.544C101.84 198.92 101.192 199.048 100.6 199.304C100.008 199.544 99.5364 199.96 99.1844 200.552C98.8324 201.144 98.6564 201.96 98.6564 203V209H96.6404ZM110.386 209.288C109.25 209.288 108.226 209.032 107.314 208.52C106.418 207.992 105.706 207.264 105.178 206.336C104.666 205.392 104.41 204.296 104.41 203.048C104.41 201.8 104.666 200.712 105.178 199.784C105.706 198.84 106.418 198.112 107.314 197.6C108.226 197.072 109.25 196.808 110.386 196.808C111.794 196.808 112.978 197.176 113.938 197.912C114.914 198.648 115.53 199.632 115.786 200.864H113.722C113.562 200.128 113.17 199.56 112.546 199.16C111.922 198.744 111.194 198.536 110.362 198.536C109.69 198.536 109.058 198.704 108.466 199.04C107.874 199.376 107.394 199.88 107.026 200.552C106.658 201.224 106.474 202.056 106.474 203.048C106.474 204.04 106.658 204.872 107.026 205.544C107.394 206.216 107.874 206.728 108.466 207.08C109.058 207.416 109.69 207.584 110.362 207.584C111.194 207.584 111.922 207.384 112.546 206.984C113.17 206.568 113.562 205.984 113.722 205.232H115.786C115.546 206.432 114.938 207.408 113.962 208.16C112.986 208.912 111.794 209.288 110.386 209.288ZM118.601 209V191.72H120.617V199.136C121.017 198.4 121.585 197.832 122.321 197.432C123.057 197.016 123.857 196.808 124.721 196.808C126.097 196.808 127.201 197.24 128.033 198.104C128.865 198.952 129.281 200.264 129.281 202.04V209H127.289V202.256C127.289 199.776 126.289 198.536 124.289 198.536C123.249 198.536 122.377 198.912 121.673 199.664C120.969 200.4 120.617 201.456 120.617 202.832V209H118.601ZM133.56 194.456C133.16 194.456 132.824 194.328 132.552 194.072C132.296 193.8 132.168 193.464 132.168 193.064C132.168 192.68 132.296 192.36 132.552 192.104C132.824 191.848 133.16 191.72 133.56 191.72C133.944 191.72 134.272 191.848 134.544 192.104C134.816 192.36 134.952 192.68 134.952 193.064C134.952 193.464 134.816 193.8 134.544 194.072C134.272 194.328 133.944 194.456 133.56 194.456ZM132.552 209V197.096H134.568V209H132.552ZM142.782 209C141.694 209 140.838 208.736 140.214 208.208C139.59 207.68 139.278 206.728 139.278 205.352V198.8H137.214V197.096H139.278L139.542 194.24H141.294V197.096H144.798V198.8H141.294V205.352C141.294 206.104 141.446 206.616 141.75 206.888C142.054 207.144 142.59 207.272 143.358 207.272H144.606V209H142.782ZM152.383 209.288C151.247 209.288 150.239 209.032 149.359 208.52C148.479 207.992 147.783 207.264 147.271 206.336C146.775 205.408 146.527 204.312 146.527 203.048C146.527 201.8 146.775 200.712 147.271 199.784C147.767 198.84 148.455 198.112 149.335 197.6C150.231 197.072 151.263 196.808 152.431 196.808C153.583 196.808 154.575 197.072 155.407 197.6C156.255 198.112 156.903 198.792 157.351 199.64C157.799 200.488 158.023 201.4 158.023 202.376C158.023 202.552 158.015 202.728 157.999 202.904C157.999 203.08 157.999 203.28 157.999 203.504H148.519C148.567 204.416 148.775 205.176 149.143 205.784C149.527 206.376 149.999 206.824 150.559 207.128C151.135 207.432 151.743 207.584 152.383 207.584C153.215 207.584 153.911 207.392 154.471 207.008C155.031 206.624 155.439 206.104 155.695 205.448H157.687C157.367 206.552 156.751 207.472 155.839 208.208C154.943 208.928 153.791 209.288 152.383 209.288ZM152.383 198.512C151.423 198.512 150.567 198.808 149.815 199.4C149.079 199.976 148.655 200.824 148.543 201.944H156.031C155.983 200.872 155.615 200.032 154.927 199.424C154.239 198.816 153.391 198.512 152.383 198.512ZM166.167 209.288C165.031 209.288 164.007 209.032 163.095 208.52C162.199 207.992 161.487 207.264 160.959 206.336C160.447 205.392 160.191 204.296 160.191 203.048C160.191 201.8 160.447 200.712 160.959 199.784C161.487 198.84 162.199 198.112 163.095 197.6C164.007 197.072 165.031 196.808 166.167 196.808C167.575 196.808 168.759 197.176 169.719 197.912C170.695 198.648 171.311 199.632 171.567 200.864H169.503C169.343 200.128 168.951 199.56 168.327 199.16C167.703 198.744 166.975 198.536 166.143 198.536C165.471 198.536 164.839 198.704 164.247 199.04C163.655 199.376 163.175 199.88 162.807 200.552C162.439 201.224 162.255 202.056 162.255 203.048C162.255 204.04 162.439 204.872 162.807 205.544C163.175 206.216 163.655 206.728 164.247 207.08C164.839 207.416 165.471 207.584 166.143 207.584C166.975 207.584 167.703 207.384 168.327 206.984C168.951 206.568 169.343 205.984 169.503 205.232H171.567C171.327 206.432 170.719 207.408 169.743 208.16C168.767 208.912 167.575 209.288 166.167 209.288ZM178.758 209C177.67 209 176.814 208.736 176.19 208.208C175.566 207.68 175.254 206.728 175.254 205.352V198.8H173.19V197.096H175.254L175.518 194.24H177.27V197.096H180.774V198.8H177.27V205.352C177.27 206.104 177.422 206.616 177.726 206.888C178.03 207.144 178.566 207.272 179.334 207.272H180.582V209H178.758ZM187.68 209.288C186.272 209.288 185.152 208.864 184.32 208.016C183.488 207.152 183.072 205.832 183.072 204.056V197.096H185.088V203.84C185.088 206.32 186.104 207.56 188.136 207.56C189.176 207.56 190.032 207.192 190.704 206.456C191.392 205.704 191.736 204.64 191.736 203.264V197.096H193.752V209H191.928L191.784 206.864C191.416 207.616 190.864 208.208 190.128 208.64C189.408 209.072 188.592 209.288 187.68 209.288ZM197.07 209V197.096H198.894L199.062 199.376C199.43 198.592 199.99 197.968 200.742 197.504C201.494 197.04 202.422 196.808 203.526 196.808V198.92H202.974C202.27 198.92 201.622 199.048 201.03 199.304C200.438 199.544 199.966 199.96 199.614 200.552C199.262 201.144 199.086 201.96 199.086 203V209H197.07ZM210.696 209.288C209.56 209.288 208.552 209.032 207.672 208.52C206.792 207.992 206.096 207.264 205.584 206.336C205.088 205.408 204.84 204.312 204.84 203.048C204.84 201.8 205.088 200.712 205.584 199.784C206.08 198.84 206.768 198.112 207.648 197.6C208.544 197.072 209.576 196.808 210.743 196.808C211.896 196.808 212.888 197.072 213.72 197.6C214.568 198.112 215.216 198.792 215.664 199.64C216.112 200.488 216.336 201.4 216.336 202.376C216.336 202.552 216.328 202.728 216.312 202.904C216.312 203.08 216.312 203.28 216.312 203.504H206.832C206.88 204.416 207.088 205.176 207.456 205.784C207.84 206.376 208.312 206.824 208.872 207.128C209.448 207.432 210.056 207.584 210.696 207.584C211.528 207.584 212.224 207.392 212.784 207.008C213.344 206.624 213.752 206.104 214.008 205.448H216C215.68 206.552 215.064 207.472 214.152 208.208C213.256 208.928 212.104 209.288 210.696 209.288ZM210.696 198.512C209.736 198.512 208.88 198.808 208.128 199.4C207.392 199.976 206.968 200.824 206.855 201.944H214.344C214.296 200.872 213.928 200.032 213.24 199.424C212.552 198.816 211.704 198.512 210.696 198.512Z" fill="black"/>
</svg>
