<svg width="96" height="96" viewBox="0 0 96 96" fill="none" xmlns="http://www.w3.org/2000/svg">
<g filter="url(#filter0_d_31_9366)">
<rect x="11" y="9" width="72" height="72" rx="16" fill="white"/>
<path d="M29 71.9997C29 71.0986 29 70.1975 29 69.2496C30.0188 69.1709 31.0071 69.1033 31.9932 69.0136C32.3196 68.9838 32.6675 68.9562 32.9585 68.8239C33.5152 68.5707 33.7634 68.0805 33.7676 67.4713C33.7762 66.1911 33.7894 64.911 33.7896 63.6308C33.7914 52.5422 33.7924 41.4536 33.7826 30.365C33.7822 30.0058 33.8815 29.796 34.1999 29.6183C34.9092 29.2227 35.5881 28.7726 36.2927 28.368C36.5745 28.2062 36.7004 28.0117 36.6899 27.6822C36.6698 27.05 36.6625 26.4156 36.698 25.7848C36.7085 25.5979 36.8676 25.2753 36.9795 25.266C37.283 25.2409 37.3224 25.52 37.3206 25.7789C37.3163 26.3961 37.3192 27.0134 37.3192 27.7317C38.2888 27.1516 39.2042 26.604 40.1908 26.0138C40.1908 32.5298 40.1908 38.9649 40.1908 45.4515C40.9431 45.5499 41.6526 45.6567 42.3654 45.7335C45.0327 46.0211 47.6639 45.8536 50.2043 44.9465C54.1592 43.5342 56.5248 40.734 57.2793 36.6049C57.7298 34.1398 57.7892 31.6634 57.2134 29.2063C56.2466 25.0812 53.7138 22.4821 49.5816 21.4777C48.0998 21.1175 46.5992 20.9017 45.0674 20.9222C43.7419 20.94 42.4159 20.9262 41.0901 20.9256C40.8965 20.9255 40.7233 20.9513 40.65 20.6715C40.3115 19.3796 39.7619 18.1822 38.8993 17.0681C39.0574 17.055 39.1538 17.0391 39.2501 17.0401C42.1113 17.0688 44.9755 17.0264 47.8328 17.148C51.3199 17.2964 54.7433 17.8527 57.9989 19.2083C61.8529 20.813 64.2643 23.6351 65.1826 27.7039C65.9642 31.1669 66.0119 34.6441 65.0225 38.0693C63.8172 42.2422 61.0702 45.1686 57.2839 47.1573C54.1239 48.8171 50.7113 49.5906 47.168 49.6949C45.0816 49.7562 42.9888 49.5985 40.8989 49.5365C40.6901 49.5303 40.4819 49.505 40.2154 49.484C40.2154 49.6771 40.2155 49.8382 40.2154 49.9992C40.2131 55.7543 40.2103 61.5094 40.2085 67.2645C40.2082 68.4779 40.6709 68.9523 41.8877 69.0154C43.0305 69.0747 44.1727 69.1463 45.315 69.2151C45.4469 69.2231 45.5778 69.2483 45.723 69.2673C45.723 70.1968 45.723 71.0982 45.723 71.9997C40.1486 71.9997 34.5743 71.9997 29 71.9997Z" fill="#1B1B1B"/>
<path d="M36.2231 17C36.6115 17.4278 37.0465 17.8224 37.3801 18.2894C38.6402 20.0536 39.2402 22.0411 39.1798 24.2034C39.1521 25.1973 38.6493 25.9508 37.6729 26.4512C38.3212 24.8525 37.8348 23.4569 37.2144 22.068C36.4618 23.3908 35.9471 24.7532 36.2831 26.302C35.554 26.2124 34.955 25.4123 34.9003 24.4968C34.854 23.7223 35.0634 23.0113 35.3887 22.3234C35.6582 21.7533 35.9503 21.1927 36.1922 20.6112C36.6819 19.4338 36.655 18.7931 36.1105 17.0903C36.148 17.0602 36.1856 17.0301 36.2231 17Z" fill="#FF8500"/>
<rect x="11.36" y="9.36" width="71.28" height="71.28" rx="15.64" stroke="#E8E8E8" stroke-width="0.72"/>
</g>
<defs>
<filter id="filter0_d_31_9366" x="0.92" y="0.36" width="95.04" height="95.04" filterUnits="userSpaceOnUse" color-interpolation-filters="sRGB">
<feFlood flood-opacity="0" result="BackgroundImageFix"/>
<feColorMatrix in="SourceAlpha" type="matrix" values="0 0 0 0 0 0 0 0 0 0 0 0 0 0 0 0 0 0 127 0" result="hardAlpha"/>
<feOffset dx="1.44" dy="2.88"/>
<feGaussianBlur stdDeviation="5.76"/>
<feComposite in2="hardAlpha" operator="out"/>
<feColorMatrix type="matrix" values="0 0 0 0 0 0 0 0 0 0 0 0 0 0 0 0 0 0 0.1 0"/>
<feBlend mode="normal" in2="BackgroundImageFix" result="effect1_dropShadow_31_9366"/>
<feBlend mode="normal" in="SourceGraphic" in2="effect1_dropShadow_31_9366" result="shape"/>
</filter>
</defs>
</svg>
