<?xml version="1.0" encoding="utf-8"?>
<!-- Svg Vector Icons : http://www.onlinewebfonts.com/icon -->
<!DOCTYPE svg PUBLIC "-//W3C//DTD SVG 1.1//EN" "http://www.w3.org/Graphics/SVG/1.1/DTD/svg11.dtd">
<svg version="1.1" xmlns="http://www.w3.org/2000/svg" xmlns:xlink="http://www.w3.org/1999/xlink" x="0px" y="0px" viewBox="0 0 1000 1000" enable-background="new 0 0 1000 1000" xml:space="preserve">
<metadata> Svg Vector Icons : http://www.onlinewebfonts.com/icon </metadata>
<g><g><g id="_x33__5_"><g><path d="M193.8,653.1V255h-61.3C64.8,255,10,309.8,10,377.5v490C10,935.2,64.8,990,132.5,990h490c67.7,0,122.5-54.8,122.5-122.5v-61.3H346.9C279.2,806.3,193.8,720.8,193.8,653.1z M867.5,10h-490C309.8,10,255,64.8,255,132.5v490c0,67.7,54.8,122.5,122.5,122.5h490c67.7,0,122.5-54.8,122.5-122.5v-490C990,64.8,935.2,10,867.5,10z"/></g></g></g><g></g><g></g><g></g><g></g><g></g><g></g><g></g><g></g><g></g><g></g><g></g><g></g><g></g><g></g><g></g></g>
</svg>