<svg width="1024" height="1024" viewBox="0 0 1024 1024" fill="none" xmlns="http://www.w3.org/2000/svg">
<g clip-path="url(#clip0_1312_1703)">
<path d="M512 1024C794.77 1024 1024 794.77 1024 512C1024 229.23 794.77 0 512 0C229.23 0 0 229.23 0 512C0 794.77 229.23 1024 512 1024Z" fill="white"/>
<path d="M648.693 337.92H378.171C282.421 337.92 204.8 415.541 204.8 511.291C204.8 607.041 282.421 684.662 378.171 684.662H648.693C744.444 684.662 822.065 607.041 822.065 511.291C822.065 415.541 744.444 337.92 648.693 337.92Z" fill="#2375EF"/>
<path d="M650.49 349.358H650.489C562.048 349.358 490.353 421.054 490.353 509.495V513.087C490.353 601.528 562.048 673.224 650.489 673.224H650.49C738.931 673.224 810.627 601.528 810.627 513.087V509.495C810.627 421.054 738.931 349.358 650.49 349.358Z" fill="#F7F7FA"/>
</g>
<defs>
<clipPath id="clip0_1312_1703">
<rect width="1024" height="1024" fill="white"/>
</clipPath>
</defs>
</svg>
