<svg width="312" height="122" viewBox="0 0 312 122" fill="none" xmlns="http://www.w3.org/2000/svg">
<g filter="url(#filter0_d_42_1916)">
<g clip-path="url(#clip0_42_1916)">
<mask id="path-3-inside-1_42_1916" fill="white">
<path d="M14 31.2C14 24.4794 14 21.1191 15.3079 18.5521C16.4584 16.2942 18.2942 14.4584 20.5521 13.3079C23.1191 12 26.4794 12 33.2 12H274.8C281.521 12 284.881 12 287.448 13.3079C289.706 14.4584 291.542 16.2942 292.692 18.5521C294 21.1191 294 24.4794 294 31.2V56H14V31.2Z"/>
</mask>
<path d="M14 31.2C14 24.4794 14 21.1191 15.3079 18.5521C16.4584 16.2942 18.2942 14.4584 20.5521 13.3079C23.1191 12 26.4794 12 33.2 12H274.8C281.521 12 284.881 12 287.448 13.3079C289.706 14.4584 291.542 16.2942 292.692 18.5521C294 21.1191 294 24.4794 294 31.2V56H14V31.2Z" fill="white"/>
<path d="M31.5273 40V28.022H33.2622L37.3628 38.0161H37.4956L41.5962 28.022H43.3311V40H41.9365V30.8525H41.8452L38.0601 40H36.7983L33.0132 30.8525H32.9219V40H31.5273ZM48.2522 40.1577C46.5505 40.1577 45.2639 39.1284 45.2639 37.5015V37.4849C45.2639 35.8911 46.4426 34.9697 48.5261 34.8452L51.091 34.6875V33.874C51.091 32.77 50.4187 32.1724 49.0822 32.1724C48.0114 32.1724 47.3059 32.5708 47.0734 33.2681L47.0651 33.293H45.6208L45.6291 33.2432C45.8615 31.8403 47.2229 30.894 49.132 30.894C51.3151 30.894 52.5354 32.0146 52.5354 33.874V40H51.091V38.6802H50.9582C50.3938 39.6348 49.4558 40.1577 48.2522 40.1577ZM46.7414 37.4683C46.7414 38.373 47.5134 38.9043 48.551 38.9043C50.0202 38.9043 51.091 37.9414 51.091 36.6631V35.8496L48.7004 35.999C47.3391 36.082 46.7414 36.5635 46.7414 37.4517V37.4683ZM54.767 40V31.0518H56.2113V32.3965H56.3442C56.7924 31.4502 57.6308 30.894 58.9506 30.894C60.9594 30.894 62.08 32.0811 62.08 34.2061V40H60.6357V34.5547C60.6357 32.9443 59.9716 32.1724 58.5439 32.1724C57.1161 32.1724 56.2113 33.1353 56.2113 34.7041V40H54.767ZM66.7438 40.1577C65.0421 40.1577 63.7555 39.1284 63.7555 37.5015V37.4849C63.7555 35.8911 64.9342 34.9697 67.0177 34.8452L69.5826 34.6875V33.874C69.5826 32.77 68.9103 32.1724 67.5739 32.1724C66.5031 32.1724 65.7975 32.5708 65.5651 33.2681L65.5568 33.293H64.1124L64.1207 33.2432C64.3531 31.8403 65.7145 30.894 67.6237 30.894C69.8068 30.894 71.027 32.0146 71.027 33.874V40H69.5826V38.6802H69.4498C68.8854 39.6348 67.9474 40.1577 66.7438 40.1577ZM65.233 37.4683C65.233 38.373 66.005 38.9043 67.0426 38.9043C68.5118 38.9043 69.5826 37.9414 69.5826 36.6631V35.8496L67.192 35.999C65.8307 36.082 65.233 36.5635 65.233 37.4517V37.4683ZM76.9442 43.1543C74.786 43.1543 73.408 42.1831 73.1839 40.7139L73.2005 40.7056H74.6947L74.703 40.7139C74.8607 41.3945 75.6576 41.876 76.9442 41.876C78.5462 41.876 79.5008 41.1206 79.5008 39.8008V37.9912H79.368C78.8035 38.979 77.7909 39.5352 76.5623 39.5352C74.2464 39.5352 72.8104 37.7422 72.8104 35.2354V35.2188C72.8104 32.7119 74.2547 30.894 76.5955 30.894C77.8573 30.894 78.8368 31.5166 79.3846 32.5293H79.4842V31.0518H80.9285V39.8755C80.9285 41.876 79.3846 43.1543 76.9442 43.1543ZM76.8778 38.2568C78.5379 38.2568 79.534 37.0117 79.534 35.2354V35.2188C79.534 33.4424 78.5296 32.1724 76.8778 32.1724C75.2176 32.1724 74.2879 33.4424 74.2879 35.2188V35.2354C74.2879 37.0117 75.2176 38.2568 76.8778 38.2568ZM86.8623 40.1577C84.3057 40.1577 82.7618 38.3647 82.7618 35.5591V35.5508C82.7618 32.7866 84.3389 30.894 86.771 30.894C89.2032 30.894 90.6807 32.7036 90.6807 35.3765V35.9409H84.2393C84.2808 37.792 85.3018 38.8711 86.8955 38.8711C88.1075 38.8711 88.8545 38.2983 89.0953 37.7588L89.1285 37.6841H90.5728L90.5562 37.7505C90.2491 38.9624 88.9707 40.1577 86.8623 40.1577ZM86.7627 32.1807C85.4346 32.1807 84.4219 33.0854 84.2642 34.7871H89.2115C89.062 33.019 88.0826 32.1807 86.7627 32.1807ZM97.0698 40V28.022H104.491V29.3667H98.5639V33.21H104.184V34.5381H98.5639V38.6553H104.491V40H97.0698ZM105.892 40L108.955 35.5259L105.859 31.0518H107.561L109.686 34.3804H109.819L111.919 31.0518H113.537L110.499 35.4678L113.579 40H111.885L109.769 36.6216H109.636L107.511 40H105.892ZM118.292 40.0664C116.45 40.0664 115.678 39.3857 115.678 37.6758V32.2471H114.266V31.0518H115.678V28.7358H117.172V31.0518H119.131V32.2471H117.172V37.3105C117.172 38.3647 117.537 38.7881 118.467 38.7881C118.724 38.7881 118.865 38.7798 119.131 38.7549V39.9834C118.849 40.0332 118.575 40.0664 118.292 40.0664ZM124.4 40.1577C121.844 40.1577 120.3 38.3647 120.3 35.5591V35.5508C120.3 32.7866 121.877 30.894 124.309 30.894C126.741 30.894 128.219 32.7036 128.219 35.3765V35.9409H121.777C121.819 37.792 122.84 38.8711 124.434 38.8711C125.646 38.8711 126.393 38.2983 126.633 37.7588L126.667 37.6841H128.111L128.094 37.7505C127.787 38.9624 126.509 40.1577 124.4 40.1577ZM124.301 32.1807C122.973 32.1807 121.96 33.0854 121.802 34.7871H126.75C126.6 33.019 125.621 32.1807 124.301 32.1807ZM130.052 40V31.0518H131.496V32.3965H131.629C132.077 31.4502 132.916 30.894 134.236 30.894C136.244 30.894 137.365 32.0811 137.365 34.2061V40H135.921V34.5547C135.921 32.9443 135.257 32.1724 133.829 32.1724C132.401 32.1724 131.496 33.1353 131.496 34.7041V40H130.052ZM142.643 40.1577C140.651 40.1577 139.281 39.1948 139.115 37.7173H140.593C140.833 38.4644 141.547 38.9541 142.693 38.9541C143.896 38.9541 144.751 38.3813 144.751 37.5679V37.5513C144.751 36.9453 144.295 36.522 143.191 36.2563L141.805 35.9243C140.128 35.5259 139.373 34.7954 139.373 33.5088V33.5005C139.373 32.0146 140.8 30.894 142.701 30.894C144.577 30.894 145.88 31.832 146.08 33.293H144.66C144.469 32.5874 143.772 32.0977 142.693 32.0977C141.63 32.0977 140.85 32.6455 140.85 33.4341V33.4507C140.85 34.0566 141.298 34.4385 142.353 34.6958L143.73 35.0278C145.416 35.4346 146.229 36.165 146.229 37.4434V37.46C146.229 39.0537 144.677 40.1577 142.643 40.1577ZM148.826 29.3252C148.278 29.3252 147.83 28.877 147.83 28.3291C147.83 27.7812 148.278 27.333 148.826 27.333C149.374 27.333 149.822 27.7812 149.822 28.3291C149.822 28.877 149.374 29.3252 148.826 29.3252ZM148.095 40V31.0518H149.54V40H148.095ZM155.532 40.1577C152.983 40.1577 151.406 38.3979 151.406 35.5342V35.5176C151.406 32.6455 152.983 30.894 155.532 30.894C158.08 30.894 159.657 32.6455 159.657 35.5176V35.5342C159.657 38.3979 158.08 40.1577 155.532 40.1577ZM155.532 38.8794C157.225 38.8794 158.18 37.6426 158.18 35.5342V35.5176C158.18 33.4009 157.225 32.1724 155.532 32.1724C153.838 32.1724 152.884 33.4009 152.884 35.5176V35.5342C152.884 37.6426 153.838 38.8794 155.532 38.8794ZM161.49 40V31.0518H162.935V32.3965H163.068C163.516 31.4502 164.354 30.894 165.674 30.894C167.683 30.894 168.803 32.0811 168.803 34.2061V40H167.359V34.5547C167.359 32.9443 166.695 32.1724 165.267 32.1724C163.839 32.1724 162.935 33.1353 162.935 34.7041V40H161.49ZM174.081 40.1577C172.089 40.1577 170.72 39.1948 170.554 37.7173H172.031C172.272 38.4644 172.986 38.9541 174.131 38.9541C175.335 38.9541 176.19 38.3813 176.19 37.5679V37.5513C176.19 36.9453 175.733 36.522 174.629 36.2563L173.243 35.9243C171.566 35.5259 170.811 34.7954 170.811 33.5088V33.5005C170.811 32.0146 172.239 30.894 174.139 30.894C176.015 30.894 177.319 31.832 177.518 33.293H176.098C175.908 32.5874 175.21 32.0977 174.131 32.0977C173.069 32.0977 172.288 32.6455 172.288 33.4341V33.4507C172.288 34.0566 172.737 34.4385 173.791 34.6958L175.169 35.0278C176.854 35.4346 177.667 36.165 177.667 37.4434V37.46C177.667 39.0537 176.115 40.1577 174.081 40.1577Z" fill="black"/>
<path d="M262.875 27.1252C262.875 25.8595 263.901 24.8335 265.167 24.8335C266.432 24.8335 267.458 25.8595 267.458 27.1252V28.5002H268.375C269.656 28.5002 270.297 28.5002 270.802 28.7095C271.476 28.9886 272.012 29.524 272.291 30.1978C272.5 30.7032 272.5 31.3438 272.5 32.6252H273.875C275.141 32.6252 276.167 33.6512 276.167 34.9168C276.167 36.1825 275.141 37.2085 273.875 37.2085H272.5V38.7668C272.5 40.307 272.5 41.077 272.2 41.6653C271.937 42.1827 271.516 42.6034 270.998 42.8671C270.41 43.1668 269.64 43.1668 268.1 43.1668H267.458V41.5627C267.458 40.4236 266.535 39.5002 265.396 39.5002C264.257 39.5002 263.333 40.4236 263.333 41.5627V43.1668H262.233C260.693 43.1668 259.923 43.1668 259.335 42.8671C258.817 42.6034 258.397 42.1827 258.133 41.6653C257.833 41.077 257.833 40.307 257.833 38.7668V37.2085H259.208C260.474 37.2085 261.5 36.1825 261.5 34.9168C261.5 33.6512 260.474 32.6252 259.208 32.6252H257.833C257.833 31.3438 257.833 30.7032 258.043 30.1978C258.322 29.524 258.857 28.9886 259.531 28.7095C260.036 28.5002 260.677 28.5002 261.958 28.5002H262.875V27.1252Z" stroke="black" stroke-width="1.5" stroke-linecap="round" stroke-linejoin="round"/>
<path d="M14 12H294H14ZM294 56.5H14V55.5H294V56.5ZM14 56V12V56ZM294 12V56V12Z" fill="#E8E8E8" mask="url(#path-3-inside-1_42_1916)"/>
<mask id="path-7-inside-2_42_1916" fill="white">
<path d="M14 56H294V102H14V56Z"/>
</mask>
<path d="M14 56H294V102H14V56Z" fill="white"/>
<path d="M36.5576 85.2822C33.1211 85.2822 31.0625 82.8418 31.0625 79.0151V78.9985C31.0625 75.1553 33.1709 72.7397 36.5576 72.7397C39.9609 72.7397 42.0527 75.1636 42.0527 78.9985V79.0151C42.0527 82.8335 39.9775 85.2822 36.5576 85.2822ZM36.5576 83.9043C39.0146 83.9043 40.5254 81.9785 40.5254 79.0151V78.9985C40.5254 76.0103 39.0063 74.1177 36.5576 74.1177C34.1172 74.1177 32.5898 76.0103 32.5898 78.9985V79.0151C32.5898 81.9785 34.0674 83.9043 36.5576 83.9043ZM47.2312 85.0664C45.3884 85.0664 44.6164 84.3857 44.6164 82.6758V77.2471H43.2053V76.0518H44.6164V73.7358H46.1106V76.0518H48.0695V77.2471H46.1106V82.3105C46.1106 83.3647 46.4758 83.7881 47.4055 83.7881C47.6628 83.7881 47.8039 83.7798 48.0695 83.7549V84.9834C47.7873 85.0332 47.5134 85.0664 47.2312 85.0664ZM49.9028 85V72.499H51.3471V77.3965H51.4799C51.9281 76.4502 52.7665 75.894 54.0863 75.894C56.0951 75.894 57.2157 77.0811 57.2157 79.2061V85H55.7714V79.5547C55.7714 77.9443 55.1073 77.1724 53.6796 77.1724C52.2519 77.1724 51.3471 78.1353 51.3471 79.7041V85H49.9028ZM63.0748 85.1577C60.5182 85.1577 58.9742 83.3647 58.9742 80.5591V80.5508C58.9742 77.7866 60.5514 75.894 62.9835 75.894C65.4156 75.894 66.8932 77.7036 66.8932 80.3765V80.9409H60.4518C60.4933 82.792 61.5143 83.8711 63.108 83.8711C64.3199 83.8711 65.067 83.2983 65.3077 82.7588L65.3409 82.6841H66.7853L66.7687 82.7505C66.4615 83.9624 65.1832 85.1577 63.0748 85.1577ZM62.9752 77.1807C61.6471 77.1807 60.6344 78.0854 60.4767 79.7871H65.424C65.2745 78.019 64.295 77.1807 62.9752 77.1807ZM68.7264 85V76.0518H70.1707V77.3965H70.3035C70.7518 76.4502 71.5902 75.894 72.91 75.894C74.9188 75.894 76.0394 77.0811 76.0394 79.2061V85H74.5951V79.5547C74.5951 77.9443 73.931 77.1724 72.5033 77.1724C71.0755 77.1724 70.1707 78.1353 70.1707 79.7041V85H68.7264ZM81.4253 85.0664C79.5826 85.0664 78.8106 84.3857 78.8106 82.6758V77.2471H77.3995V76.0518H78.8106V73.7358H80.3047V76.0518H82.2637V77.2471H80.3047V82.3105C80.3047 83.3647 80.67 83.7881 81.5996 83.7881C81.857 83.7881 81.9981 83.7798 82.2637 83.7549V84.9834C81.9815 85.0332 81.7076 85.0664 81.4253 85.0664Z" fill="black"/>
<g clip-path="url(#clip1_42_1916)">
<circle cx="266" cy="79.5" r="10.7708" fill="white" stroke="#2375EF" stroke-width="0.458333"/>
<rect x="259.812" y="75.8906" width="12.0061" height="6.92008" rx="3.46004" fill="#2375EF"/>
<rect x="265.154" y="76.1206" width="6.43511" height="6.46043" rx="3.21756" fill="white"/>
</g>
<path d="M294 101H14V103H294V101Z" fill="#E8E8E8" mask="url(#path-7-inside-2_42_1916)"/>
</g>
<rect x="14.5" y="12.5" width="279" height="89" rx="11.5" stroke="#E8E8E8" shape-rendering="crispEdges"/>
</g>
<rect x="11.4541" y="53.4541" width="284.092" height="50.0919" rx="5.90283" stroke="#2375EF" stroke-opacity="0.5" stroke-width="0.908127"/>
<defs>
<filter id="filter0_d_42_1916" x="0" y="0" width="312" height="122" filterUnits="userSpaceOnUse" color-interpolation-filters="sRGB">
<feFlood flood-opacity="0" result="BackgroundImageFix"/>
<feColorMatrix in="SourceAlpha" type="matrix" values="0 0 0 0 0 0 0 0 0 0 0 0 0 0 0 0 0 0 127 0" result="hardAlpha"/>
<feOffset dx="2" dy="4"/>
<feGaussianBlur stdDeviation="8"/>
<feComposite in2="hardAlpha" operator="out"/>
<feColorMatrix type="matrix" values="0 0 0 0 0 0 0 0 0 0 0 0 0 0 0 0 0 0 0.1 0"/>
<feBlend mode="normal" in2="BackgroundImageFix" result="effect1_dropShadow_42_1916"/>
<feBlend mode="normal" in="SourceGraphic" in2="effect1_dropShadow_42_1916" result="shape"/>
</filter>
<clipPath id="clip0_42_1916">
<rect x="14" y="12" width="280" height="90" rx="12" fill="white"/>
</clipPath>
<clipPath id="clip1_42_1916">
<rect width="22" height="22" fill="white" transform="translate(255 68.5)"/>
</clipPath>
</defs>
</svg>
