<svg width="305" height="406" viewBox="0 0 305 406" fill="none" xmlns="http://www.w3.org/2000/svg">
<g filter="url(#filter0_d_46_1986)">
<g filter="url(#filter1_d_46_1986)">
<rect x="106" y="9" width="94" height="94" rx="18" fill="white"/>
<rect x="106.4" y="9.4" width="93.2" height="93.2" rx="17.6" stroke="#E8E8E8" stroke-width="0.8"/>
</g>
</g>
<path opacity="0.7" d="M2.574 163V152.092L0.54 152.542V151.498L3.078 150.4H4.104V163H2.574ZM7.19564 163.09C6.89564 163.09 6.64364 162.994 6.43964 162.802C6.24764 162.598 6.15164 162.352 6.15164 162.064C6.15164 161.776 6.24764 161.536 6.43964 161.344C6.64364 161.14 6.89564 161.038 7.19564 161.038C7.48364 161.038 7.72364 161.14 7.91564 161.344C8.11964 161.536 8.22164 161.776 8.22164 162.064C8.22164 162.352 8.11964 162.598 7.91564 162.802C7.72364 162.994 7.48364 163.09 7.19564 163.09Z" fill="black"/>
<path opacity="0.7" d="M1.134 224V222.938C1.986 222.266 2.79 221.588 3.546 220.904C4.314 220.208 4.992 219.524 5.58 218.852C6.18 218.18 6.648 217.52 6.984 216.872C7.332 216.224 7.506 215.6 7.506 215C7.506 214.556 7.428 214.142 7.272 213.758C7.128 213.374 6.888 213.068 6.552 212.84C6.216 212.6 5.76 212.48 5.184 212.48C4.632 212.48 4.17 212.606 3.798 212.858C3.426 213.098 3.144 213.422 2.952 213.83C2.772 214.238 2.682 214.676 2.682 215.144H1.224C1.224 214.316 1.398 213.608 1.746 213.02C2.094 212.42 2.568 211.964 3.168 211.652C3.768 211.34 4.446 211.184 5.202 211.184C6.318 211.184 7.23 211.502 7.938 212.138C8.658 212.762 9.018 213.698 9.018 214.946C9.018 215.69 8.832 216.428 8.46 217.16C8.088 217.88 7.614 218.582 7.038 219.266C6.462 219.938 5.844 220.568 5.184 221.156C4.536 221.744 3.93 222.272 3.366 222.74H9.45V224H1.134ZM12.0648 224.09C11.7648 224.09 11.5128 223.994 11.3088 223.802C11.1168 223.598 11.0208 223.352 11.0208 223.064C11.0208 222.776 11.1168 222.536 11.3088 222.344C11.5128 222.14 11.7648 222.038 12.0648 222.038C12.3528 222.038 12.5928 222.14 12.7848 222.344C12.9888 222.536 13.0908 222.776 13.0908 223.064C13.0908 223.352 12.9888 223.598 12.7848 223.802C12.5928 223.994 12.3528 224.09 12.0648 224.09Z" fill="black"/>
<path opacity="0.7" d="M5.256 366.216C4.452 366.216 3.726 366.072 3.078 365.784C2.43 365.484 1.908 365.04 1.512 364.452C1.128 363.864 0.924 363.132 0.9 362.256H2.43C2.442 362.976 2.694 363.6 3.186 364.128C3.678 364.644 4.368 364.902 5.256 364.902C6.144 364.902 6.81 364.656 7.254 364.164C7.71 363.672 7.938 363.078 7.938 362.382C7.938 361.794 7.794 361.314 7.506 360.942C7.23 360.57 6.852 360.294 6.372 360.114C5.904 359.934 5.388 359.844 4.824 359.844H3.888V358.566H4.824C5.64 358.566 6.276 358.38 6.732 358.008C7.2 357.636 7.434 357.114 7.434 356.442C7.434 355.878 7.248 355.416 6.876 355.056C6.516 354.684 5.976 354.498 5.256 354.498C4.56 354.498 4.002 354.708 3.582 355.128C3.162 355.536 2.928 356.052 2.88 356.676H1.35C1.386 355.992 1.566 355.386 1.89 354.858C2.226 354.33 2.682 353.922 3.258 353.634C3.834 353.334 4.5 353.184 5.256 353.184C6.072 353.184 6.75 353.328 7.29 353.616C7.842 353.904 8.256 354.288 8.532 354.768C8.82 355.248 8.964 355.776 8.964 356.352C8.964 356.988 8.79 357.57 8.442 358.098C8.094 358.614 7.572 358.962 6.876 359.142C7.62 359.298 8.238 359.652 8.73 360.204C9.222 360.756 9.468 361.482 9.468 362.382C9.468 363.078 9.306 363.72 8.982 364.308C8.67 364.884 8.202 365.346 7.578 365.694C6.954 366.042 6.18 366.216 5.256 366.216ZM12.346 366.09C12.046 366.09 11.794 365.994 11.59 365.802C11.398 365.598 11.302 365.352 11.302 365.064C11.302 364.776 11.398 364.536 11.59 364.344C11.794 364.14 12.046 364.038 12.346 364.038C12.634 364.038 12.874 364.14 13.066 364.344C13.27 364.536 13.372 364.776 13.372 365.064C13.372 365.352 13.27 365.598 13.066 365.802C12.874 365.994 12.634 366.09 12.346 366.09Z" fill="black"/>
<g filter="url(#filter2_d_46_1986)">
<rect x="31.7244" y="138.633" width="254.276" height="36.3251" rx="9.08127" fill="white"/>
<path d="M120.889 161.823H125.955C126.641 161.823 126.976 161.483 126.976 160.738V156.832C126.976 156.162 126.7 155.816 126.13 155.757V154.416C126.13 152.41 124.816 151.442 123.422 151.442C122.028 151.442 120.714 152.41 120.714 154.416V155.784C120.192 155.864 119.867 156.204 119.867 156.832V160.738C119.867 161.483 120.203 161.823 120.889 161.823ZM121.57 154.305C121.57 152.969 122.427 152.261 123.422 152.261C124.417 152.261 125.274 152.969 125.274 154.305V155.752L121.57 155.757V154.305Z" fill="#3C3C43" fill-opacity="0.6"/>
<path d="M135.878 161.776C134.332 161.776 133.164 160.841 133.164 159.364V159.349C133.164 157.901 134.234 157.065 136.126 156.952L138.456 156.808V156.07C138.456 155.067 137.845 154.524 136.631 154.524C135.659 154.524 135.018 154.886 134.807 155.519L134.8 155.542H133.488L133.496 155.497C133.707 154.223 134.943 153.363 136.677 153.363C138.659 153.363 139.767 154.381 139.767 156.07V161.633H138.456V160.434H138.335C137.823 161.301 136.971 161.776 135.878 161.776ZM134.506 159.334C134.506 160.155 135.207 160.638 136.149 160.638C137.483 160.638 138.456 159.763 138.456 158.602V157.864L136.285 157.999C135.048 158.075 134.506 158.512 134.506 159.319V159.334ZM141.794 161.633V153.507H143.106V154.713H143.226C143.535 153.861 144.297 153.363 145.397 153.363C145.646 153.363 145.925 153.394 146.053 153.416V154.69C145.782 154.645 145.533 154.615 145.246 154.615C143.995 154.615 143.106 155.406 143.106 156.597V161.633H141.794ZM150.077 161.776C148.019 161.776 146.67 160.11 146.67 157.577V157.562C146.67 155.014 148.012 153.363 150.077 153.363C151.193 153.363 152.165 153.921 152.61 154.788H152.731V150.28H154.042V161.633H152.731V160.336H152.61C152.113 161.241 151.208 161.776 150.077 161.776ZM150.379 160.615C151.856 160.615 152.761 159.454 152.761 157.577V157.562C152.761 155.685 151.856 154.524 150.379 154.524C148.894 154.524 148.012 155.67 148.012 157.562V157.577C148.012 159.469 148.894 160.615 150.379 160.615ZM156.19 161.633V153.507H157.501V154.713H157.622C157.931 153.861 158.692 153.363 159.793 153.363C160.042 153.363 160.321 153.394 160.449 153.416V154.69C160.177 154.645 159.929 154.615 159.642 154.615C158.391 154.615 157.501 155.406 157.501 156.597V161.633H156.19ZM162.392 151.939C161.895 151.939 161.488 151.532 161.488 151.034C161.488 150.537 161.895 150.13 162.392 150.13C162.89 150.13 163.297 150.537 163.297 151.034C163.297 151.532 162.89 151.939 162.392 151.939ZM161.729 161.633V153.507H163.041V161.633H161.729ZM167.442 161.633L164.434 153.507H165.821L168.045 160.201H168.165L170.389 153.507H171.776L168.769 161.633H167.442ZM176.155 161.776C173.833 161.776 172.431 160.148 172.431 157.6V157.592C172.431 155.082 173.863 153.363 176.072 153.363C178.281 153.363 179.622 155.007 179.622 157.434V157.947H173.773C173.81 159.628 174.738 160.608 176.185 160.608C177.285 160.608 177.964 160.087 178.183 159.598L178.213 159.53H179.524L179.509 159.59C179.23 160.691 178.069 161.776 176.155 161.776ZM176.064 154.532C174.858 154.532 173.939 155.354 173.795 156.899H178.288C178.152 155.293 177.263 154.532 176.064 154.532ZM182.358 161.708C181.822 161.708 181.378 161.263 181.378 160.728C181.378 160.185 181.822 159.748 182.358 159.748C182.9 159.748 183.337 160.185 183.337 160.728C183.337 161.263 182.9 161.708 182.358 161.708ZM186.193 151.939C185.696 151.939 185.289 151.532 185.289 151.034C185.289 150.537 185.696 150.13 186.193 150.13C186.691 150.13 187.098 150.537 187.098 151.034C187.098 151.532 186.691 151.939 186.193 151.939ZM185.53 161.633V153.507H186.842V161.633H185.53ZM192.283 161.776C189.969 161.776 188.537 160.178 188.537 157.577V157.562C188.537 154.954 189.969 153.363 192.283 153.363C194.597 153.363 196.029 154.954 196.029 157.562V157.577C196.029 160.178 194.597 161.776 192.283 161.776ZM192.283 160.615C193.821 160.615 194.688 159.492 194.688 157.577V157.562C194.688 155.64 193.821 154.524 192.283 154.524C190.745 154.524 189.878 155.64 189.878 157.562V157.577C189.878 159.492 190.745 160.615 192.283 160.615Z" fill="black"/>
<path d="M261.205 158.087C261.205 161.814 264.242 164.806 268.02 164.806C271.797 164.806 274.827 161.814 274.827 158.087C274.827 157.722 274.565 157.456 274.187 157.456C273.825 157.456 273.586 157.722 273.586 158.087C273.586 161.139 271.111 163.583 268.02 163.583C264.928 163.583 262.446 161.139 262.446 158.087C262.446 155.042 264.928 152.605 268.02 152.605C268.606 152.605 269.153 152.65 269.608 152.757L267.303 155.004C267.187 155.126 267.125 155.277 267.125 155.437C267.125 155.786 267.388 156.044 267.734 156.044C267.927 156.044 268.074 155.983 268.182 155.87L271.358 152.726C271.496 152.597 271.55 152.445 271.55 152.271C271.55 152.104 271.481 151.937 271.358 151.815L268.182 148.642C268.074 148.52 267.919 148.459 267.734 148.459C267.388 148.459 267.125 148.733 267.125 149.082C267.125 149.241 267.187 149.393 267.295 149.515L269.346 151.512C268.945 151.436 268.49 151.383 268.02 151.383C264.242 151.383 261.205 154.366 261.205 158.087Z" fill="black"/>
<path d="M51.5028 162.082C51.9813 162.082 52.2351 161.878 52.3946 161.37L53.2065 159.103H57.3461L58.1509 161.37C58.3104 161.878 58.5641 162.082 59.0426 162.082C59.5501 162.082 59.8763 161.776 59.8763 161.297C59.8763 161.123 59.8473 160.977 59.7821 160.781L56.5632 152.092C56.3457 151.482 55.9397 151.184 55.28 151.184C54.6492 151.184 54.236 151.482 54.0258 152.085L50.7924 160.817C50.7271 161.006 50.6981 161.159 50.6981 161.312C50.6981 161.791 51.0026 162.082 51.5028 162.082ZM53.6198 157.759L55.2582 153.037H55.3017L56.9402 157.759H53.6198ZM43.3614 162.06C43.7383 162.06 43.9703 161.864 44.1081 161.413L44.6301 159.851H47.4502L47.965 161.42C48.1027 161.878 48.3419 162.06 48.7334 162.06C49.1684 162.06 49.4657 161.784 49.4657 161.37C49.4657 161.203 49.4294 161.035 49.3642 160.847L47.1675 154.962C46.9572 154.388 46.5875 154.112 46.0293 154.112C45.4928 154.112 45.1303 154.381 44.9201 154.962L42.7234 160.847C42.6581 161.021 42.6219 161.21 42.6219 161.37C42.6219 161.798 42.9046 162.06 43.3614 162.06ZM44.9781 158.718L45.9495 155.688H46.109L47.095 158.718H44.9781Z" fill="black"/>
<rect x="32.1784" y="139.087" width="253.368" height="35.417" rx="8.62721" stroke="#E8E8E8" stroke-width="0.908127"/>
</g>
<g filter="url(#filter3_d_46_1986)">
<g clip-path="url(#clip0_46_1986)">
<mask id="path-14-inside-1_46_1986" fill="white">
<path d="M32 214.474C32 208.327 32 205.254 33.1962 202.907C34.2483 200.842 35.9272 199.163 37.9922 198.111C40.3398 196.915 43.4129 196.915 49.5592 196.915H270.513C276.659 196.915 279.732 196.915 282.08 198.111C284.145 199.163 285.824 200.842 286.876 202.907C288.072 205.254 288.072 208.327 288.072 214.474V238.034H32V214.474Z"/>
</mask>
<path d="M32 214.474C32 208.327 32 205.254 33.1962 202.907C34.2483 200.842 35.9272 199.163 37.9922 198.111C40.3398 196.915 43.4129 196.915 49.5592 196.915H270.513C276.659 196.915 279.732 196.915 282.08 198.111C284.145 199.163 285.824 200.842 286.876 202.907C288.072 205.254 288.072 208.327 288.072 214.474V238.034H32V214.474Z" fill="white"/>
<path d="M48.0295 222.975V212.02H49.6161L53.3663 221.16H53.4877L57.2379 212.02H58.8245V222.975H57.5491V214.609H57.4656L54.004 222.975H52.8501L49.3884 214.609H49.3049V222.975H48.0295ZM63.3251 223.119C61.7688 223.119 60.5922 222.178 60.5922 220.69V220.674C60.5922 219.217 61.6701 218.374 63.5756 218.26L65.9213 218.116V217.372C65.9213 216.362 65.3064 215.816 64.0842 215.816C63.1049 215.816 62.4596 216.18 62.2471 216.818L62.2395 216.841H60.9186L60.9262 216.795C61.1387 215.512 62.3837 214.647 64.1298 214.647C66.1263 214.647 67.2422 215.672 67.2422 217.372V222.975H65.9213V221.768H65.7999C65.2836 222.641 64.4258 223.119 63.3251 223.119ZM61.9434 220.659C61.9434 221.487 62.6494 221.973 63.5984 221.973C64.942 221.973 65.9213 221.092 65.9213 219.923V219.179L63.735 219.316C62.49 219.391 61.9434 219.832 61.9434 220.644V220.659ZM69.2832 222.975V214.791H70.6041V216.021H70.7255C71.1355 215.155 71.9022 214.647 73.1092 214.647C74.9464 214.647 75.9712 215.732 75.9712 217.676V222.975H74.6503V217.995C74.6503 216.522 74.043 215.816 72.7373 215.816C71.4315 215.816 70.6041 216.697 70.6041 218.131V222.975H69.2832ZM80.2364 223.119C78.6802 223.119 77.5035 222.178 77.5035 220.69V220.674C77.5035 219.217 78.5815 218.374 80.4869 218.26L82.8327 218.116V217.372C82.8327 216.362 82.2178 215.816 80.9956 215.816C80.0163 215.816 79.371 216.18 79.1585 216.818L79.1509 216.841H77.83L77.8375 216.795C78.0501 215.512 79.2951 214.647 81.0411 214.647C83.0377 214.647 84.1536 215.672 84.1536 217.372V222.975H82.8327V221.768H82.7112C82.195 222.641 81.3372 223.119 80.2364 223.119ZM78.8548 220.659C78.8548 221.487 79.5608 221.973 80.5097 221.973C81.8534 221.973 82.8327 221.092 82.8327 219.923V219.179L80.6464 219.316C79.4014 219.391 78.8548 219.832 78.8548 220.644V220.659ZM89.5651 225.859C87.5914 225.859 86.3312 224.971 86.1262 223.627L86.1414 223.62H87.5079L87.5154 223.627C87.6597 224.25 88.3885 224.69 89.5651 224.69C91.0303 224.69 91.9033 223.999 91.9033 222.792V221.137H91.7818C91.2656 222.041 90.3395 222.549 89.2159 222.549C87.0979 222.549 85.7846 220.91 85.7846 218.617V218.602C85.7846 216.309 87.1055 214.647 89.2463 214.647C90.4002 214.647 91.296 215.216 91.797 216.142H91.8881V214.791H93.209V222.861C93.209 224.69 91.797 225.859 89.5651 225.859ZM89.5044 221.38C91.0227 221.38 91.9337 220.242 91.9337 218.617V218.602C91.9337 216.977 91.0151 215.816 89.5044 215.816C87.9861 215.816 87.1359 216.977 87.1359 218.602V218.617C87.1359 220.242 87.9861 221.38 89.5044 221.38ZM98.6357 223.119C96.2976 223.119 94.8856 221.479 94.8856 218.913V218.906C94.8856 216.378 96.3279 214.647 98.5522 214.647C100.776 214.647 102.128 216.302 102.128 218.746V219.262H96.2368C96.2748 220.955 97.2085 221.942 98.6661 221.942C99.7744 221.942 100.458 221.418 100.678 220.925L100.708 220.857H102.029L102.014 220.917C101.733 222.026 100.564 223.119 98.6357 223.119ZM98.5446 215.823C97.33 215.823 96.4038 216.651 96.2596 218.207H100.784C100.647 216.59 99.7517 215.823 98.5446 215.823ZM107.971 222.975V212.02H114.758V213.25H109.337V216.765H114.477V217.979H109.337V221.745H114.758V222.975H107.971ZM116.039 222.975L118.841 218.883L116.009 214.791H117.565L119.509 217.835H119.63L121.551 214.791H123.031L120.253 218.83L123.069 222.975H121.52L119.585 219.885H119.463L117.52 222.975H116.039ZM127.38 223.035C125.695 223.035 124.989 222.413 124.989 220.849V215.884H123.698V214.791H124.989V212.673H126.355V214.791H128.147V215.884H126.355V220.515C126.355 221.479 126.689 221.866 127.539 221.866C127.775 221.866 127.904 221.859 128.147 221.836V222.959C127.888 223.005 127.638 223.035 127.38 223.035ZM132.966 223.119C130.628 223.119 129.216 221.479 129.216 218.913V218.906C129.216 216.378 130.658 214.647 132.882 214.647C135.107 214.647 136.458 216.302 136.458 218.746V219.262H130.567C130.605 220.955 131.539 221.942 132.996 221.942C134.105 221.942 134.788 221.418 135.008 220.925L135.038 220.857H136.359L136.344 220.917C136.063 222.026 134.894 223.119 132.966 223.119ZM132.875 215.823C131.66 215.823 130.734 216.651 130.59 218.207H135.114C134.978 216.59 134.082 215.823 132.875 215.823ZM138.135 222.975V214.791H139.455V216.021H139.577C139.987 215.155 140.754 214.647 141.961 214.647C143.798 214.647 144.823 215.732 144.823 217.676V222.975H143.502V217.995C143.502 216.522 142.894 215.816 141.589 215.816C140.283 215.816 139.455 216.697 139.455 218.131V222.975H138.135ZM149.65 223.119C147.828 223.119 146.575 222.238 146.423 220.887H147.774C147.995 221.57 148.647 222.018 149.695 222.018C150.796 222.018 151.578 221.494 151.578 220.75V220.735C151.578 220.181 151.16 219.794 150.151 219.551L148.883 219.247C147.349 218.883 146.659 218.215 146.659 217.038V217.031C146.659 215.672 147.964 214.647 149.703 214.647C151.418 214.647 152.61 215.505 152.792 216.841H151.494C151.32 216.195 150.682 215.748 149.695 215.748C148.723 215.748 148.01 216.249 148.01 216.97V216.985C148.01 217.539 148.42 217.888 149.384 218.124L150.644 218.427C152.185 218.799 152.929 219.467 152.929 220.636V220.652C152.929 222.109 151.509 223.119 149.65 223.119ZM155.304 213.212C154.803 213.212 154.393 212.802 154.393 212.301C154.393 211.8 154.803 211.39 155.304 211.39C155.805 211.39 156.215 211.8 156.215 212.301C156.215 212.802 155.805 213.212 155.304 213.212ZM154.636 222.975V214.791H155.957V222.975H154.636ZM161.437 223.119C159.106 223.119 157.664 221.509 157.664 218.89V218.875C157.664 216.249 159.106 214.647 161.437 214.647C163.767 214.647 165.21 216.249 165.21 218.875V218.89C165.21 221.509 163.767 223.119 161.437 223.119ZM161.437 221.95C162.985 221.95 163.858 220.819 163.858 218.89V218.875C163.858 216.939 162.985 215.816 161.437 215.816C159.888 215.816 159.015 216.939 159.015 218.875V218.89C159.015 220.819 159.888 221.95 161.437 221.95ZM166.886 222.975V214.791H168.207V216.021H168.329C168.739 215.155 169.505 214.647 170.712 214.647C172.549 214.647 173.574 215.732 173.574 217.676V222.975H172.253V217.995C172.253 216.522 171.646 215.816 170.34 215.816C169.035 215.816 168.207 216.697 168.207 218.131V222.975H166.886ZM178.401 223.119C176.579 223.119 175.327 222.238 175.175 220.887H176.526C176.746 221.57 177.399 222.018 178.447 222.018C179.548 222.018 180.329 221.494 180.329 220.75V220.735C180.329 220.181 179.912 219.794 178.902 219.551L177.634 219.247C176.101 218.883 175.41 218.215 175.41 217.038V217.031C175.41 215.672 176.716 214.647 178.454 214.647C180.17 214.647 181.362 215.505 181.544 216.841H180.246C180.071 216.195 179.434 215.748 178.447 215.748C177.475 215.748 176.761 216.249 176.761 216.97V216.985C176.761 217.539 177.171 217.888 178.136 218.124L179.396 218.427C180.937 218.799 181.681 219.467 181.681 220.636V220.652C181.681 222.109 180.261 223.119 178.401 223.119Z" fill="black"/>
<path d="M259.607 211.187C259.607 210.03 260.545 209.091 261.703 209.091C262.86 209.091 263.798 210.03 263.798 211.187V212.445H264.637C265.809 212.445 266.395 212.445 266.857 212.636C267.473 212.891 267.963 213.381 268.218 213.997C268.409 214.459 268.409 215.045 268.409 216.217H269.667C270.824 216.217 271.763 217.155 271.763 218.313C271.763 219.47 270.824 220.409 269.667 220.409H268.409V221.834C268.409 223.242 268.409 223.947 268.135 224.485C267.894 224.958 267.509 225.343 267.036 225.584C266.498 225.858 265.794 225.858 264.385 225.858H263.798V224.391C263.798 223.349 262.954 222.505 261.912 222.505C260.87 222.505 260.026 223.349 260.026 224.391V225.858H259.02C257.611 225.858 256.907 225.858 256.369 225.584C255.896 225.343 255.511 224.958 255.27 224.485C254.996 223.947 254.996 223.242 254.996 221.834V220.409H256.253C257.411 220.409 258.349 219.47 258.349 218.313C258.349 217.155 257.411 216.217 256.253 216.217H254.996C254.996 215.045 254.996 214.459 255.187 213.997C255.443 213.381 255.932 212.891 256.548 212.636C257.011 212.445 257.597 212.445 258.768 212.445H259.607V211.187Z" stroke="black" stroke-width="1.37181" stroke-linecap="round" stroke-linejoin="round"/>
<path d="M32 196.915H288.072H32ZM288.072 238.492H32V237.577H288.072V238.492ZM32 238.034V196.915V238.034ZM288.072 196.915V238.034V196.915Z" fill="#E8E8E8" mask="url(#path-14-inside-1_46_1986)"/>
<mask id="path-18-inside-2_46_1986" fill="white">
<path d="M32 238.035H288.072V278.275H32V238.035Z"/>
</mask>
<path d="M32 238.035H288.072V278.275H32V238.035Z" fill="white"/>
<rect x="46.6327" y="252.667" width="184.738" height="10.9745" rx="5.48725" fill="#CED6E3"/>
<rect x="253.319" y="248.095" width="20.1199" height="20.1199" rx="5.48726" fill="#CED6E3"/>
<path d="M288.072 277.36H32V279.189H288.072V277.36Z" fill="#E8E8E8" mask="url(#path-18-inside-2_46_1986)"/>
<mask id="path-22-inside-3_46_1986" fill="white">
<path d="M32 278.274H288.072V318.514H32V278.274Z"/>
</mask>
<path d="M32 278.274H288.072V318.514H32V278.274Z" fill="white"/>
<rect x="46.6327" y="292.907" width="184.738" height="10.9745" rx="5.48725" fill="#CED6E3"/>
<rect x="253.319" y="288.334" width="20.1199" height="20.1199" rx="5.48726" fill="#CED6E3"/>
<path d="M288.072 318.057H32V318.972H288.072V318.057Z" fill="#3C3C43" fill-opacity="0.36" mask="url(#path-22-inside-3_46_1986)"/>
</g>
<rect x="32.4573" y="197.372" width="255.157" height="120.685" rx="10.5172" stroke="#E8E8E8" stroke-width="0.914542" shape-rendering="crispEdges"/>
</g>
<rect x="29.4541" y="135.454" width="44.4982" height="42.682" rx="5.90283" stroke="#2375EF" stroke-opacity="0.5" stroke-width="0.908127"/>
<g filter="url(#filter4_d_46_1986)">
<mask id="path-27-inside-4_46_1986" fill="white">
<path d="M33 355.349C33 349.276 33 346.24 34.1818 343.92C35.2213 341.88 36.8801 340.221 38.9203 339.182C41.2397 338 44.276 338 50.3486 338H268.651C274.724 338 277.76 338 280.08 339.182C282.12 340.221 283.779 341.88 284.818 343.92C286 346.24 286 349.276 286 355.349V370.348C286 376.42 286 379.457 284.818 381.776C283.779 383.816 282.12 385.475 280.08 386.515C277.76 387.696 274.724 387.696 268.651 387.696H50.3486C44.276 387.696 41.2397 387.696 38.9203 386.515C36.8801 385.475 35.2213 383.816 34.1818 381.776C33 379.457 33 376.42 33 370.348V355.349Z"/>
</mask>
<path d="M33 355.349C33 349.276 33 346.24 34.1818 343.92C35.2213 341.88 36.8801 340.221 38.9203 339.182C41.2397 338 44.276 338 50.3486 338H268.651C274.724 338 277.76 338 280.08 339.182C282.12 340.221 283.779 341.88 284.818 343.92C286 346.24 286 349.276 286 355.349V370.348C286 376.42 286 379.457 284.818 381.776C283.779 383.816 282.12 385.475 280.08 386.515C277.76 387.696 274.724 387.696 268.651 387.696H50.3486C44.276 387.696 41.2397 387.696 38.9203 386.515C36.8801 385.475 35.2213 383.816 34.1818 381.776C33 379.457 33 376.42 33 370.348V355.349Z" fill="white" shape-rendering="crispEdges"/>
<g clip-path="url(#clip1_46_1986)">
<g clip-path="url(#clip2_46_1986)">
<circle cx="58.3" cy="363.3" r="9.73222" fill="white" stroke="#2375EF" stroke-width="0.414137"/>
<rect x="52.7092" y="360.039" width="11.0055" height="5.92778" rx="2.96389" fill="#2375EF"/>
<rect x="57.6924" y="360.247" width="5.81458" height="5.51246" rx="2.75623" fill="white"/>
</g>
</g>
<path d="M82.2967 368.103C79.1916 368.103 77.3315 365.898 77.3315 362.44V362.425C77.3315 358.953 79.2366 356.77 82.2967 356.77C85.3719 356.77 87.262 358.96 87.262 362.425V362.44C87.262 365.891 85.3869 368.103 82.2967 368.103ZM82.2967 366.858C84.5168 366.858 85.8819 365.118 85.8819 362.44V362.425C85.8819 359.725 84.5093 358.015 82.2967 358.015C80.0916 358.015 78.7116 359.725 78.7116 362.425V362.44C78.7116 365.118 80.0466 366.858 82.2967 366.858ZM91.941 367.908C90.276 367.908 89.5784 367.293 89.5784 365.748V360.843H88.3034V359.763H89.5784V357.67H90.9285V359.763H92.6986V360.843H90.9285V365.418C90.9285 366.371 91.2585 366.753 92.0986 366.753C92.3311 366.753 92.4586 366.746 92.6986 366.723V367.833C92.4436 367.878 92.1961 367.908 91.941 367.908ZM94.355 367.848V356.553H95.6601V360.978H95.7801C96.1851 360.123 96.9426 359.62 98.1352 359.62C99.9503 359.62 100.963 360.693 100.963 362.613V367.848H99.6578V362.928C99.6578 361.473 99.0577 360.775 97.7677 360.775C96.4776 360.775 95.6601 361.645 95.6601 363.063V367.848H94.355ZM106.257 367.991C103.947 367.991 102.552 366.371 102.552 363.835V363.828C102.552 361.33 103.977 359.62 106.174 359.62C108.372 359.62 109.707 361.255 109.707 363.67V364.18H103.887C103.924 365.853 104.847 366.828 106.287 366.828C107.382 366.828 108.057 366.311 108.275 365.823L108.305 365.756H109.61L109.595 365.816C109.317 366.911 108.162 367.991 106.257 367.991ZM106.167 360.783C104.967 360.783 104.052 361.6 103.909 363.138H108.38C108.245 361.54 107.359 360.783 106.167 360.783ZM111.364 367.848V359.763H112.669V360.978H112.789C113.194 360.123 113.951 359.62 115.144 359.62C116.959 359.62 117.971 360.693 117.971 362.613V367.848H116.666V362.928C116.666 361.473 116.066 360.775 114.776 360.775C113.486 360.775 112.669 361.645 112.669 363.063V367.848H111.364ZM122.838 367.908C121.173 367.908 120.475 367.293 120.475 365.748V360.843H119.2V359.763H120.475V357.67H121.825V359.763H123.595V360.843H121.825V365.418C121.825 366.371 122.155 366.753 122.995 366.753C123.228 366.753 123.355 366.746 123.595 366.723V367.833C123.34 367.878 123.093 367.908 122.838 367.908Z" fill="black"/>
<path fill-rule="evenodd" clip-rule="evenodd" d="M239.296 348.469C240.868 348.379 242.438 348.386 244.011 348.386C244.021 348.386 251.977 348.386 251.977 348.386C253.58 348.386 255.151 348.379 256.722 348.469C258.151 348.55 259.542 348.724 260.927 349.111C263.843 349.926 266.389 351.629 268.23 354.042C270.06 356.44 271.05 359.376 271.05 362.39C271.05 365.408 270.06 368.342 268.23 370.74C266.389 373.153 263.843 374.856 260.927 375.671C259.542 376.059 258.151 376.231 256.722 376.313C255.151 376.404 253.58 376.396 252.008 376.396C251.997 376.396 244.04 376.397 244.04 376.397C242.438 376.396 240.868 376.404 239.296 376.313C237.868 376.231 236.477 376.059 235.091 375.671C232.176 374.856 229.629 373.153 227.789 370.74C225.959 368.342 224.968 365.408 224.968 362.391C224.968 359.376 225.959 356.44 227.789 354.042C229.629 351.629 232.176 349.926 235.091 349.111C236.477 348.724 237.868 348.55 239.296 348.469Z" fill="#34C759"/>
<g filter="url(#filter5_dd_46_1986)">
<path fill-rule="evenodd" clip-rule="evenodd" d="M257.045 374.589C263.782 374.589 269.243 369.128 269.243 362.391C269.243 355.654 263.782 350.193 257.045 350.193C250.308 350.193 244.846 355.654 244.846 362.391C244.846 369.128 250.308 374.589 257.045 374.589Z" fill="white"/>
</g>
<path d="M33 338H286H33ZM286 376.854C286 383.091 280.943 388.148 274.705 388.148H44.2946C38.0568 388.148 33 383.091 33 376.854V376.854C33 382.592 37.8545 387.245 43.8429 387.245H275.157C281.145 387.245 286 382.592 286 376.854V376.854ZM33 387.696V338V387.696ZM286 338V387.696V338Z" fill="#E8E8E8" mask="url(#path-27-inside-4_46_1986)"/>
</g>
<rect x="240.973" y="196.457" width="44.8126" height="42.9835" rx="5.94453" stroke="#2375EF" stroke-opacity="0.5" stroke-width="0.914542"/>
<rect x="223.202" y="342.066" width="51.5036" height="42.4679" rx="5.87321" stroke="#2375EF" stroke-opacity="0.5" stroke-width="0.903571"/>
<path d="M191.17 55.5849C191.17 60.652 190.172 65.6694 188.233 70.3507C186.294 75.0321 183.451 79.2856 179.869 82.8686C176.286 86.4515 172.032 89.2937 167.351 91.2327C162.669 93.1718 157.652 94.1698 152.585 94.1698C142.352 94.1698 132.537 90.1047 125.301 82.8686C118.065 75.6325 114 65.8183 114 55.5849C114 45.3516 118.065 35.5373 125.301 28.3013C132.537 21.0652 142.352 17 152.585 17C157.652 17 162.669 17.998 167.351 19.9371C172.032 21.8762 176.286 24.7183 179.869 28.3013C183.451 31.8842 186.294 36.1378 188.233 40.8191C190.172 45.5004 191.17 50.5179 191.17 55.5849Z" fill="url(#paint0_linear_46_1986)" stroke="#CDCDCD" stroke-width="0.351543" stroke-linecap="round" stroke-linejoin="round"/>
<path d="M188.146 55.5849C188.146 65.0164 184.4 74.0615 177.731 80.7306C171.062 87.3997 162.016 91.1463 152.585 91.1463C143.153 91.1463 134.108 87.3997 127.439 80.7306C120.77 74.0615 117.023 65.0164 117.023 55.5849C117.023 46.1534 120.77 37.1082 127.439 30.4391C134.108 23.7701 143.153 20.0234 152.585 20.0234C162.016 20.0234 171.062 23.7701 177.731 30.4391C184.4 37.1082 188.146 46.1534 188.146 55.5849Z" fill="url(#paint1_radial_46_1986)"/>
<path d="M152.585 21.8779C152.298 21.8779 152.066 22.1092 152.066 22.3964V28.3768C152.066 28.664 152.298 28.8952 152.585 28.8952C152.872 28.8952 153.103 28.664 153.103 28.3768V22.3964C153.103 22.1092 152.872 21.8779 152.585 21.8779ZM149.193 22.0923C149.159 22.0886 149.123 22.0886 149.088 22.0927C148.802 22.1225 148.596 22.3765 148.626 22.6622L148.887 25.1641C148.917 25.4498 149.171 25.6558 149.457 25.626C149.742 25.5962 149.948 25.3422 149.918 25.0565L149.657 22.5546C149.631 22.3046 149.433 22.1156 149.193 22.0923ZM156 22.0948C155.76 22.1179 155.562 22.3069 155.536 22.5568L155.273 25.0586C155.243 25.3442 155.449 25.5984 155.734 25.6285C156.02 25.6585 156.274 25.4527 156.304 25.1671L156.567 22.6651C156.597 22.3795 156.391 22.1255 156.106 22.0954C156.07 22.0917 156.035 22.0917 156 22.0948ZM145.709 22.5976C145.674 22.5978 145.639 22.6013 145.604 22.6087C145.323 22.6681 145.145 22.9423 145.204 23.2233L146.443 29.0739C146.502 29.3549 146.776 29.5333 147.057 29.4738C147.338 29.4143 147.517 29.1403 147.457 28.8593L146.219 23.0085C146.167 22.7626 145.95 22.5957 145.709 22.5976ZM159.485 22.6025C159.243 22.6 159.027 22.7675 158.974 23.0133L157.732 28.8632C157.672 29.1442 157.85 29.4185 158.131 29.4781C158.412 29.5379 158.686 29.3597 158.746 29.0787L159.989 23.2288C160.048 22.9478 159.87 22.6736 159.589 22.6139C159.554 22.6065 159.519 22.6025 159.485 22.6025ZM142.384 23.5351C142.316 23.529 142.247 23.5364 142.179 23.559C141.906 23.6478 141.757 23.939 141.846 24.2122L142.623 26.6047C142.712 26.8779 143.003 27.0265 143.277 26.9377C143.55 26.8489 143.698 26.5575 143.609 26.2843L142.832 23.8918C142.766 23.6869 142.585 23.5523 142.384 23.5351ZM162.791 23.5364C162.59 23.5535 162.409 23.6882 162.342 23.8931L161.565 26.2853C161.476 26.5585 161.624 26.8499 161.897 26.9387C162.171 27.0275 162.462 26.8791 162.551 26.606L163.329 24.2135C163.417 23.9403 163.269 23.6489 162.996 23.5601C162.928 23.5379 162.858 23.5307 162.791 23.5364ZM139.095 24.7384C139.028 24.7397 138.96 24.7545 138.894 24.7836C138.632 24.9003 138.514 25.2055 138.631 25.4679L141.06 30.9327C141.177 31.1952 141.482 31.3126 141.744 31.1959C142.007 31.0793 142.124 30.7741 142.008 30.5116L139.578 25.0468C139.491 24.8499 139.297 24.7345 139.095 24.7384ZM166.116 24.7568C165.914 24.7531 165.72 24.8678 165.633 25.0645L163.196 30.5259C163.079 30.7883 163.196 31.0936 163.459 31.2107C163.721 31.3277 164.026 31.2107 164.143 30.9484L166.58 25.487C166.697 25.2246 166.58 24.9193 166.317 24.8022C166.252 24.773 166.184 24.7583 166.116 24.7568ZM136.043 26.3534C135.944 26.346 135.841 26.3682 135.748 26.4221C135.499 26.5657 135.414 26.8816 135.558 27.1303L136.816 29.3089C136.96 29.5577 137.275 29.6423 137.524 29.4987C137.773 29.355 137.857 29.0392 137.714 28.7904L136.456 26.6119C136.366 26.4564 136.209 26.365 136.043 26.3534ZM169.127 26.3534C168.961 26.3645 168.804 26.4563 168.714 26.6118L167.456 28.7904C167.312 29.0392 167.397 29.355 167.646 29.4986C167.895 29.6423 168.211 29.5576 168.354 29.3089L169.612 27.1303C169.756 26.8815 169.671 26.5657 169.422 26.4221C169.329 26.3682 169.226 26.3465 169.127 26.3534ZM133.079 28.2019C132.98 28.2056 132.88 28.2376 132.793 28.3008C132.56 28.4695 132.509 28.7924 132.677 29.0249L136.189 33.8657C136.358 34.0982 136.681 34.1496 136.913 33.9809C137.146 33.8123 137.197 33.4893 137.028 33.2568L133.517 28.4161C133.411 28.2708 133.246 28.1962 133.079 28.2019ZM172.128 28.2283C171.961 28.2221 171.796 28.2966 171.69 28.4417L168.172 33.2778C168.003 33.51 168.054 33.8331 168.286 34.0021C168.518 34.1711 168.841 34.1202 169.01 33.888L172.528 29.052C172.697 28.8197 172.646 28.4967 172.414 28.3277C172.327 28.2644 172.227 28.2318 172.128 28.2283ZM130.43 30.4236C130.298 30.4162 130.163 30.4605 130.056 30.5565C129.843 30.7487 129.825 31.0752 130.018 31.2887L131.701 33.1585C131.893 33.372 132.22 33.3892 132.433 33.1969C132.647 33.0048 132.664 32.678 132.471 32.4645L130.789 30.595C130.692 30.4882 130.563 30.4306 130.43 30.4236ZM174.743 30.4273C174.611 30.4347 174.481 30.492 174.385 30.5987L172.702 32.4681C172.51 32.6815 172.527 33.0083 172.74 33.2005C172.954 33.3927 173.28 33.3754 173.472 33.162L175.156 31.2927C175.348 31.0792 175.331 30.7525 175.117 30.5603C175.011 30.4642 174.876 30.4204 174.743 30.4273ZM127.891 32.8626C127.759 32.87 127.629 32.9272 127.533 33.034C127.341 33.2475 127.358 33.574 127.572 33.7661L132.016 37.7673C132.23 37.9595 132.556 37.9423 132.748 37.7289C132.941 37.5154 132.924 37.1889 132.71 36.9967L128.265 32.9955C128.158 32.8995 128.024 32.8556 127.891 32.8626ZM177.295 32.8801C177.162 32.8727 177.027 32.9168 176.92 33.0127L172.473 37.0108C172.259 37.2028 172.242 37.5293 172.434 37.7429C172.626 37.9566 172.953 37.9739 173.166 37.7819L177.614 33.7838C177.827 33.5918 177.845 33.2653 177.653 33.0517C177.557 32.9449 177.427 32.8871 177.295 32.8801ZM125.78 35.5776C125.614 35.5714 125.448 35.6463 125.342 35.7915C125.173 36.0239 125.225 36.3468 125.457 36.5156L127.492 37.9942C127.725 38.1631 128.047 38.1121 128.216 37.8797C128.385 37.6473 128.334 37.3242 128.102 37.1554L126.067 35.6767C125.98 35.6134 125.879 35.5811 125.78 35.5776ZM179.404 35.5964C179.304 35.6001 179.204 35.632 179.117 35.6953L177.081 37.1726C176.849 37.3413 176.797 37.6645 176.966 37.897C177.135 38.1295 177.458 38.1807 177.69 38.012L179.726 36.5347C179.959 36.366 180.01 36.0431 179.841 35.8106C179.736 35.6653 179.57 35.5907 179.404 35.5964ZM123.807 38.4736C123.641 38.4847 123.484 38.5766 123.394 38.732C123.25 38.9808 123.335 39.2966 123.584 39.4403L128.763 42.4305C129.011 42.5741 129.327 42.4895 129.471 42.2407C129.615 41.9919 129.53 41.6761 129.281 41.5325L124.102 38.5423C124.009 38.4885 123.906 38.4667 123.807 38.4736ZM181.363 38.4736C181.264 38.4662 181.161 38.4884 181.068 38.5423L175.889 41.5325C175.64 41.6762 175.555 41.992 175.699 42.2408C175.842 42.4895 176.158 42.5741 176.407 42.4305L181.586 39.4403C181.835 39.2967 181.92 38.9809 181.776 38.7321C181.686 38.5766 181.529 38.4852 181.363 38.4736ZM122.315 41.5605C122.113 41.5555 121.919 41.6712 121.831 41.8679C121.714 42.1302 121.831 42.4356 122.093 42.5526L124.391 43.5775C124.653 43.6945 124.959 43.5776 125.076 43.3152C125.193 43.0529 125.076 42.7475 124.813 42.6305L122.516 41.6057C122.45 41.5763 122.382 41.5618 122.315 41.5605ZM182.865 41.5818C182.798 41.583 182.729 41.5978 182.664 41.627L180.366 42.65C180.103 42.7669 179.986 43.0721 180.103 43.3345C180.22 43.5969 180.525 43.7143 180.787 43.5975L183.086 42.5742C183.348 42.4574 183.465 42.1521 183.348 41.8897C183.261 41.6929 183.067 41.5777 182.865 41.5818ZM120.985 44.7868C120.784 44.8036 120.603 44.9382 120.536 45.143C120.447 45.4161 120.596 45.7076 120.869 45.7966L126.555 47.6494C126.828 47.7383 127.119 47.5902 127.208 47.3171C127.297 47.044 127.149 46.7525 126.876 46.6635L121.19 44.8107C121.122 44.7884 121.052 44.7811 120.985 44.7868ZM184.192 44.8089C184.125 44.8028 184.056 44.8102 183.988 44.8328L178.3 46.6816C178.027 46.7704 177.879 47.0618 177.967 47.335C178.056 47.6082 178.348 47.7565 178.621 47.6677L184.308 45.819C184.581 45.7302 184.73 45.4388 184.641 45.1656C184.574 44.9607 184.394 44.826 184.192 44.8089ZM120.157 48.1735C119.915 48.171 119.699 48.3387 119.646 48.5846C119.587 48.8655 119.765 49.1397 120.046 49.1995L122.506 49.7224C122.787 49.7821 123.062 49.6039 123.121 49.323C123.181 49.042 123.003 48.7678 122.722 48.7081L120.261 48.1851C120.226 48.1777 120.191 48.1735 120.157 48.1735ZM185.014 48.1784C184.98 48.1787 184.945 48.1834 184.91 48.1895L182.449 48.7122C182.168 48.772 181.99 49.046 182.05 49.3269C182.109 49.6079 182.384 49.7863 182.664 49.7266L185.125 49.2039C185.406 49.1441 185.584 48.8699 185.525 48.5889C185.472 48.3431 185.256 48.1764 185.014 48.1784ZM119.53 51.5801C119.289 51.6032 119.091 51.7918 119.065 52.0418C119.035 52.3274 119.24 52.5817 119.526 52.6119L125.473 53.2407C125.759 53.2709 126.013 53.0652 126.043 52.7795C126.073 52.4939 125.868 52.2395 125.582 52.2094L119.635 51.5806C119.599 51.5769 119.564 51.5769 119.53 51.5801ZM185.646 51.6248C185.611 51.6211 185.576 51.6211 185.54 51.6253L179.592 52.246C179.307 52.2758 179.101 52.5298 179.13 52.8155C179.16 53.1012 179.414 53.3072 179.7 53.2773L185.648 52.6566C185.934 52.6268 186.14 52.3728 186.11 52.0871C186.084 51.8371 185.886 51.6482 185.646 51.6248ZM119.429 55.0673C119.142 55.0673 118.911 55.2985 118.911 55.5857C118.911 55.873 119.142 56.1042 119.429 56.1042H121.945C122.232 56.1042 122.463 55.873 122.463 55.5857C122.463 55.2985 122.232 55.0673 121.945 55.0673H119.429ZM183.225 55.0673C182.938 55.0673 182.707 55.2985 182.707 55.5857C182.707 55.873 182.938 56.1042 183.225 56.1042H185.741C186.028 56.1042 186.259 55.873 186.259 55.5857C186.259 55.2985 186.028 55.0673 185.741 55.0673H183.225ZM125.575 57.8937C125.541 57.89 125.506 57.89 125.47 57.8941L119.522 58.5148C119.236 58.5446 119.03 58.7986 119.06 59.0843C119.09 59.37 119.344 59.576 119.629 59.5461L125.578 58.9254C125.863 58.8956 126.069 58.6416 126.039 58.3559C126.013 58.106 125.816 57.917 125.575 57.8937ZM179.591 57.9304C179.351 57.9534 179.153 58.142 179.127 58.392C179.097 58.6776 179.302 58.932 179.588 58.9622L185.535 59.5909C185.821 59.6211 186.075 59.4154 186.105 59.1298C186.135 58.8441 185.93 58.5898 185.644 58.5596L179.697 57.9308C179.661 57.9271 179.626 57.9271 179.591 57.9304ZM122.61 61.433C122.576 61.4333 122.541 61.4367 122.506 61.4441L120.045 61.9668C119.764 62.0265 119.586 62.3007 119.645 62.5817C119.705 62.8627 119.979 63.0408 120.26 62.9811L122.721 62.4586C123.002 62.3989 123.18 62.1247 123.121 61.8437C123.068 61.5978 122.852 61.4309 122.61 61.433ZM182.559 61.4379C182.317 61.4354 182.101 61.6029 182.049 61.8487C181.989 62.1297 182.167 62.4039 182.448 62.4636L184.909 62.9866C185.19 63.0463 185.464 62.8683 185.524 62.5874C185.583 62.3064 185.405 62.032 185.124 61.9723L182.664 61.4493C182.628 61.4419 182.593 61.4379 182.559 61.4379ZM126.754 63.48C126.687 63.4738 126.618 63.4812 126.549 63.5039L120.862 65.3526C120.589 65.4414 120.44 65.7329 120.529 66.006C120.618 66.2792 120.909 66.4276 121.182 66.3388L126.87 64.49C127.143 64.4012 127.291 64.1098 127.203 63.8366C127.136 63.6317 126.955 63.4971 126.754 63.48ZM178.41 63.4983C178.209 63.5152 178.028 63.6498 177.962 63.8546C177.873 64.1277 178.021 64.4192 178.294 64.5082L183.98 66.361C184.253 66.4499 184.545 66.3017 184.634 66.0287C184.723 65.7556 184.574 65.4641 184.301 65.3751L178.615 63.5223C178.547 63.5 178.477 63.4927 178.41 63.4983ZM124.584 67.5293C124.516 67.5305 124.448 67.545 124.383 67.5742L122.084 68.5975C121.822 68.7143 121.705 69.0196 121.822 69.282C121.938 69.5444 122.244 69.6615 122.506 69.5447L124.804 68.5216C125.067 68.4049 125.184 68.0996 125.067 67.8371C124.979 67.6403 124.786 67.5253 124.584 67.5293ZM180.578 67.549C180.376 67.5441 180.182 67.6597 180.094 67.8564C179.977 68.1188 180.094 68.4242 180.357 68.5412L182.654 69.566C182.916 69.683 183.222 69.5661 183.339 69.3037C183.456 69.0414 183.339 68.736 183.076 68.619L180.779 67.5942C180.713 67.5649 180.645 67.5503 180.578 67.549ZM129.058 68.6725C128.959 68.6651 128.856 68.6873 128.763 68.7412L123.584 71.7314C123.335 71.875 123.25 72.1909 123.394 72.4396C123.538 72.6884 123.853 72.773 124.102 72.6294L129.281 69.6394C129.53 69.4958 129.615 69.1797 129.471 68.931C129.381 68.7755 129.224 68.6841 129.058 68.6725ZM176.112 68.6725C175.946 68.6836 175.789 68.7755 175.699 68.931C175.555 69.1797 175.64 69.4958 175.889 69.6394L181.068 72.6294C181.316 72.773 181.632 72.6884 181.776 72.4396C181.92 72.1909 181.835 71.875 181.586 71.7314L176.407 68.7412C176.314 68.6874 176.211 68.6656 176.112 68.6725ZM127.767 73.0606C127.667 73.0643 127.567 73.0964 127.48 73.1597L125.444 74.637C125.211 74.8057 125.16 75.1286 125.328 75.3611C125.497 75.5936 125.82 75.645 126.052 75.4763L128.089 73.999C128.321 73.8303 128.373 73.5074 128.204 73.2749C128.099 73.1296 127.933 73.0549 127.767 73.0606ZM177.391 73.078C177.225 73.0719 177.059 73.1468 176.953 73.292C176.785 73.5243 176.836 73.8475 177.068 74.0163L179.103 75.4949C179.336 75.6638 179.659 75.6126 179.828 75.3801C179.996 75.1478 179.945 74.8249 179.713 74.656L177.678 73.1774C177.591 73.1141 177.491 73.0816 177.391 73.078ZM132.378 73.2571C132.246 73.2497 132.111 73.2938 132.004 73.3898L127.556 77.3878C127.343 77.5798 127.325 77.9063 127.517 78.1199C127.709 78.3336 128.036 78.3509 128.249 78.1589L132.697 74.1608C132.911 73.9688 132.928 73.6423 132.736 73.4287C132.64 73.3219 132.51 73.2641 132.378 73.2571ZM172.78 73.2713C172.647 73.2787 172.517 73.336 172.421 73.4427C172.229 73.6562 172.246 73.9827 172.46 74.1749L176.904 78.1761C177.118 78.3683 177.445 78.3511 177.637 78.1376C177.829 77.9242 177.812 77.5976 177.598 77.4055L173.153 73.4043C173.047 73.3082 172.912 73.2644 172.78 73.2713ZM136.597 77.0696C136.431 77.0634 136.265 77.1378 136.16 77.283L132.642 82.1191C132.473 82.3513 132.523 82.6744 132.756 82.8434C132.988 83.0124 133.311 82.9615 133.48 82.7292L136.998 77.8932C137.167 77.6609 137.116 77.3378 136.884 77.1688C136.797 77.1055 136.697 77.073 136.597 77.0696ZM168.544 77.0912C168.444 77.0949 168.344 77.1268 168.257 77.1901C168.024 77.3588 167.973 77.6817 168.142 77.9143L171.653 82.755C171.822 82.9875 172.145 83.0389 172.377 82.8703C172.61 82.7016 172.661 82.3787 172.492 82.1462L168.981 77.3054C168.875 77.1601 168.71 77.0856 168.544 77.0912ZM132.056 77.8382C131.923 77.8456 131.794 77.9028 131.697 78.0096L130.014 79.8789C129.822 80.0924 129.839 80.4191 130.053 80.6113C130.266 80.8035 130.593 80.7863 130.785 80.5728L132.468 78.7034C132.66 78.49 132.643 78.1632 132.43 77.971C132.323 77.875 132.188 77.8312 132.056 77.8382ZM173.111 77.8406C172.979 77.8332 172.844 77.8775 172.737 77.9736C172.524 78.1657 172.506 78.4922 172.699 78.7057L174.381 80.5755C174.574 80.789 174.9 80.8062 175.114 80.6139C175.327 80.4218 175.344 80.095 175.152 79.8815L173.469 78.012C173.373 77.9052 173.243 77.8476 173.111 77.8406ZM141.51 79.9145C141.308 79.9096 141.114 80.0252 141.027 80.2219L138.59 85.6834C138.473 85.9457 138.59 86.2511 138.852 86.3681C139.115 86.4852 139.42 86.3682 139.537 86.1059L141.974 80.6444C142.091 80.3821 141.974 80.0767 141.711 79.9597C141.646 79.9304 141.577 79.9158 141.51 79.9145ZM163.627 79.9295C163.559 79.9308 163.491 79.9453 163.425 79.9745C163.163 80.0911 163.046 80.3963 163.162 80.6588L165.591 86.1236C165.708 86.3859 166.013 86.5034 166.276 86.3867C166.538 86.2701 166.656 85.9649 166.539 85.7025L164.11 80.2376C164.023 80.0409 163.829 79.9257 163.627 79.9295ZM137.228 81.6031C137.063 81.6142 136.906 81.706 136.816 81.8615L135.558 84.0401C135.414 84.2889 135.499 84.6047 135.748 84.7483C135.997 84.8919 136.312 84.8073 136.456 84.5586L137.714 82.38C137.857 82.1312 137.773 81.8154 137.524 81.6718C137.431 81.6179 137.328 81.5962 137.228 81.6031ZM167.941 81.6031C167.842 81.5957 167.739 81.618 167.646 81.6718C167.397 81.8154 167.313 82.1313 167.456 82.38L168.714 84.5586C168.858 84.8074 169.173 84.892 169.422 84.7484C169.671 84.6047 169.756 84.2889 169.612 84.0401L168.354 81.8615C168.264 81.7061 168.107 81.6147 167.941 81.6031ZM146.934 81.6812C146.693 81.6787 146.476 81.8461 146.424 82.092L145.181 87.9419C145.122 88.2229 145.3 88.4971 145.581 88.5568C145.862 88.6166 146.136 88.4383 146.196 88.1574L147.438 82.3075C147.498 82.0265 147.32 81.7523 147.039 81.6926C147.004 81.6852 146.969 81.6812 146.934 81.6812ZM158.217 81.6849C158.183 81.6851 158.148 81.6886 158.113 81.6959C157.832 81.7554 157.653 82.0294 157.713 82.3104L158.951 88.1612C159.011 88.4422 159.285 88.6206 159.566 88.5611C159.847 88.5016 160.025 88.2274 159.966 87.9464L158.727 82.096C158.675 81.8501 158.459 81.683 158.217 81.6849ZM152.585 82.2749C152.298 82.2749 152.066 82.5061 152.066 82.7934V88.7738C152.066 89.061 152.298 89.2922 152.585 89.2922C152.872 89.2922 153.103 89.061 153.103 88.7738V82.7934C153.103 82.5061 152.872 82.2749 152.585 82.2749ZM143.068 84.2074C142.866 84.2245 142.686 84.3592 142.619 84.5641L141.841 86.9566C141.753 87.2297 141.901 87.5212 142.174 87.61C142.447 87.6988 142.739 87.5501 142.828 87.277L143.605 84.8847C143.694 84.6116 143.546 84.3201 143.272 84.2313C143.204 84.2091 143.135 84.2017 143.068 84.2074ZM162.098 84.2086C162.031 84.2024 161.962 84.2098 161.893 84.2324C161.62 84.3212 161.472 84.6126 161.56 84.8858L162.338 87.2783C162.427 87.5515 162.718 87.6998 162.991 87.611C163.264 87.5222 163.413 87.231 163.324 86.9579L162.547 84.5653C162.48 84.3605 162.299 84.2257 162.098 84.2086ZM149.33 85.5411C149.09 85.5643 148.892 85.753 148.866 86.003L148.603 88.5049C148.573 88.7906 148.778 89.0446 149.064 89.0746C149.35 89.1047 149.604 88.8989 149.634 88.6132L149.897 86.1115C149.927 85.8258 149.721 85.5716 149.436 85.5416C149.4 85.5379 149.365 85.5379 149.33 85.5411ZM155.819 85.5436C155.784 85.5399 155.749 85.5399 155.713 85.544C155.427 85.5738 155.221 85.8278 155.251 86.1135L155.513 88.6157C155.542 88.9013 155.796 89.1071 156.082 89.0773C156.368 89.0475 156.574 88.7935 156.544 88.5078L156.283 86.0059C156.257 85.7559 156.059 85.5669 155.819 85.5436Z" fill="#F4F2F3"/>
<g opacity="0.409" filter="url(#filter6_f_46_1986)">
<path d="M176.885 34.8462L148.518 51.3271L130.583 79.5622L156.821 60.1282L176.885 34.8462Z" fill="black"/>
</g>
<path d="M156.65 59.8422L148.52 51.3274L177.362 31.9248L156.65 59.8422Z" fill="#FF5150"/>
<path d="M156.65 59.8424L148.519 51.3276L127.807 79.245L156.65 59.8424Z" fill="#F1F1F1"/>
<path opacity="0.243" d="M127.807 79.2448L156.65 59.8422L177.362 31.9248L127.807 79.2448Z" fill="black"/>
<defs>
<filter id="filter0_d_46_1986" x="95.5" y="0" width="118" height="118" filterUnits="userSpaceOnUse" color-interpolation-filters="sRGB">
<feFlood flood-opacity="0" result="BackgroundImageFix"/>
<feColorMatrix in="SourceAlpha" type="matrix" values="0 0 0 0 0 0 0 0 0 0 0 0 0 0 0 0 0 0 127 0" result="hardAlpha"/>
<feOffset dx="1.5" dy="3"/>
<feGaussianBlur stdDeviation="6"/>
<feComposite in2="hardAlpha" operator="out"/>
<feColorMatrix type="matrix" values="0 0 0 0 0 0 0 0 0 0 0 0 0 0 0 0 0 0 0.1 0"/>
<feBlend mode="normal" in2="BackgroundImageFix" result="effect1_dropShadow_46_1986"/>
<feBlend mode="normal" in="SourceGraphic" in2="effect1_dropShadow_46_1986" result="shape"/>
</filter>
<filter id="filter1_d_46_1986" x="95.5" y="0" width="118" height="118" filterUnits="userSpaceOnUse" color-interpolation-filters="sRGB">
<feFlood flood-opacity="0" result="BackgroundImageFix"/>
<feColorMatrix in="SourceAlpha" type="matrix" values="0 0 0 0 0 0 0 0 0 0 0 0 0 0 0 0 0 0 127 0" result="hardAlpha"/>
<feOffset dx="1.5" dy="3"/>
<feGaussianBlur stdDeviation="6"/>
<feComposite in2="hardAlpha" operator="out"/>
<feColorMatrix type="matrix" values="0 0 0 0 0 0 0 0 0 0 0 0 0 0 0 0 0 0 0.1 0"/>
<feBlend mode="normal" in2="BackgroundImageFix" result="effect1_dropShadow_46_1986"/>
<feBlend mode="normal" in="SourceGraphic" in2="effect1_dropShadow_46_1986" result="shape"/>
</filter>
<filter id="filter2_d_46_1986" x="19.0106" y="127.735" width="283.336" height="65.3853" filterUnits="userSpaceOnUse" color-interpolation-filters="sRGB">
<feFlood flood-opacity="0" result="BackgroundImageFix"/>
<feColorMatrix in="SourceAlpha" type="matrix" values="0 0 0 0 0 0 0 0 0 0 0 0 0 0 0 0 0 0 127 0" result="hardAlpha"/>
<feOffset dx="1.81625" dy="3.63251"/>
<feGaussianBlur stdDeviation="7.26502"/>
<feComposite in2="hardAlpha" operator="out"/>
<feColorMatrix type="matrix" values="0 0 0 0 0 0 0 0 0 0 0 0 0 0 0 0 0 0 0.1 0"/>
<feBlend mode="normal" in2="BackgroundImageFix" result="effect1_dropShadow_46_1986"/>
<feBlend mode="normal" in="SourceGraphic" in2="effect1_dropShadow_46_1986" result="shape"/>
</filter>
<filter id="filter3_d_46_1986" x="19.1964" y="185.94" width="285.337" height="150.865" filterUnits="userSpaceOnUse" color-interpolation-filters="sRGB">
<feFlood flood-opacity="0" result="BackgroundImageFix"/>
<feColorMatrix in="SourceAlpha" type="matrix" values="0 0 0 0 0 0 0 0 0 0 0 0 0 0 0 0 0 0 127 0" result="hardAlpha"/>
<feOffset dx="1.82908" dy="3.65817"/>
<feGaussianBlur stdDeviation="7.31634"/>
<feComposite in2="hardAlpha" operator="out"/>
<feColorMatrix type="matrix" values="0 0 0 0 0 0 0 0 0 0 0 0 0 0 0 0 0 0 0.1 0"/>
<feBlend mode="normal" in2="BackgroundImageFix" result="effect1_dropShadow_46_1986"/>
<feBlend mode="normal" in="SourceGraphic" in2="effect1_dropShadow_46_1986" result="shape"/>
</filter>
<filter id="filter4_d_46_1986" x="20.35" y="327.157" width="281.914" height="78.6106" filterUnits="userSpaceOnUse" color-interpolation-filters="sRGB">
<feFlood flood-opacity="0" result="BackgroundImageFix"/>
<feColorMatrix in="SourceAlpha" type="matrix" values="0 0 0 0 0 0 0 0 0 0 0 0 0 0 0 0 0 0 127 0" result="hardAlpha"/>
<feOffset dx="1.80714" dy="3.61429"/>
<feGaussianBlur stdDeviation="7.22857"/>
<feComposite in2="hardAlpha" operator="out"/>
<feColorMatrix type="matrix" values="0 0 0 0 0 0 0 0 0 0 0 0 0 0 0 0 0 0 0.1 0"/>
<feBlend mode="normal" in2="BackgroundImageFix" result="effect1_dropShadow_46_1986"/>
<feBlend mode="normal" in="SourceGraphic" in2="effect1_dropShadow_46_1986" result="shape"/>
</filter>
<filter id="filter5_dd_46_1986" x="237.618" y="345.675" width="38.8536" height="38.8536" filterUnits="userSpaceOnUse" color-interpolation-filters="sRGB">
<feFlood flood-opacity="0" result="BackgroundImageFix"/>
<feColorMatrix in="SourceAlpha" type="matrix" values="0 0 0 0 0 0 0 0 0 0 0 0 0 0 0 0 0 0 127 0" result="hardAlpha"/>
<feOffset dy="2.71071"/>
<feGaussianBlur stdDeviation="0.451786"/>
<feColorMatrix type="matrix" values="0 0 0 0 0 0 0 0 0 0 0 0 0 0 0 0 0 0 0.06 0"/>
<feBlend mode="normal" in2="BackgroundImageFix" result="effect1_dropShadow_46_1986"/>
<feColorMatrix in="SourceAlpha" type="matrix" values="0 0 0 0 0 0 0 0 0 0 0 0 0 0 0 0 0 0 127 0" result="hardAlpha"/>
<feOffset dy="2.71071"/>
<feGaussianBlur stdDeviation="3.61429"/>
<feColorMatrix type="matrix" values="0 0 0 0 0 0 0 0 0 0 0 0 0 0 0 0 0 0 0.15 0"/>
<feBlend mode="normal" in2="effect1_dropShadow_46_1986" result="effect2_dropShadow_46_1986"/>
<feBlend mode="normal" in="SourceGraphic" in2="effect2_dropShadow_46_1986" result="shape"/>
</filter>
<filter id="filter6_f_46_1986" x="128.038" y="32.3014" width="51.3912" height="49.8055" filterUnits="userSpaceOnUse" color-interpolation-filters="sRGB">
<feFlood flood-opacity="0" result="BackgroundImageFix"/>
<feBlend mode="normal" in="SourceGraphic" in2="BackgroundImageFix" result="shape"/>
<feGaussianBlur stdDeviation="1.27242" result="effect1_foregroundBlur_46_1986"/>
</filter>
<linearGradient id="paint0_linear_46_1986" x1="152.584" y1="94.169" x2="152.584" y2="16.9998" gradientUnits="userSpaceOnUse">
<stop stop-color="#BDBDBD"/>
<stop offset="1" stop-color="white"/>
</linearGradient>
<radialGradient id="paint1_radial_46_1986" cx="0" cy="0" r="1" gradientUnits="userSpaceOnUse" gradientTransform="translate(152.745 50.3995) scale(38.5848 38.5848)">
<stop stop-color="#06C2E7"/>
<stop offset="0.25" stop-color="#0DB8EC"/>
<stop offset="0.5" stop-color="#12AEF1"/>
<stop offset="0.75" stop-color="#1F86F9"/>
<stop offset="1" stop-color="#107DDD"/>
</radialGradient>
<clipPath id="clip0_46_1986">
<rect x="32" y="196.915" width="256.072" height="121.6" rx="10.9745" fill="white"/>
</clipPath>
<clipPath id="clip1_46_1986">
<rect x="47.4572" y="352.005" width="21.6857" height="21.6857" rx="7.22857" fill="white"/>
</clipPath>
<clipPath id="clip2_46_1986">
<rect width="19.8786" height="19.8786" fill="white" transform="translate(48.3607 353.361)"/>
</clipPath>
</defs>
</svg>
