<svg width="283" height="79" viewBox="0 0 283 79" fill="none" xmlns="http://www.w3.org/2000/svg">
<g filter="url(#filter0_d_42_1872)">
<mask id="path-1-inside-1_42_1872" fill="white">
<path d="M13 28.3486C13 22.276 13 19.2397 14.1818 16.9203C15.2213 14.8801 16.8801 13.2213 18.9203 12.1818C21.2397 11 24.276 11 30.3486 11H248.651C254.724 11 257.76 11 260.08 12.1818C262.12 13.2213 263.779 14.8801 264.818 16.9203C266 19.2397 266 22.276 266 28.3486V43.3478C266 49.4204 266 52.4567 264.818 54.7761C263.779 56.8163 262.12 58.4751 260.08 59.5146C257.76 60.6964 254.724 60.6964 248.651 60.6964H30.3486C24.276 60.6964 21.2397 60.6964 18.9203 59.5146C16.8801 58.4751 15.2213 56.8163 14.1818 54.7761C13 52.4567 13 49.4204 13 43.3479V28.3486Z"/>
</mask>
<path d="M13 28.3486C13 22.276 13 19.2397 14.1818 16.9203C15.2213 14.8801 16.8801 13.2213 18.9203 12.1818C21.2397 11 24.276 11 30.3486 11H248.651C254.724 11 257.76 11 260.08 12.1818C262.12 13.2213 263.779 14.8801 264.818 16.9203C266 19.2397 266 22.276 266 28.3486V43.3478C266 49.4204 266 52.4567 264.818 54.7761C263.779 56.8163 262.12 58.4751 260.08 59.5146C257.76 60.6964 254.724 60.6964 248.651 60.6964H30.3486C24.276 60.6964 21.2397 60.6964 18.9203 59.5146C16.8801 58.4751 15.2213 56.8163 14.1818 54.7761C13 52.4567 13 49.4204 13 43.3479V28.3486Z" fill="white" shape-rendering="crispEdges"/>
<g clip-path="url(#clip0_42_1872)">
<g clip-path="url(#clip1_42_1872)">
<circle cx="38.3" cy="36.3001" r="9.73222" fill="white" stroke="#2375EF" stroke-width="0.414137"/>
<rect x="32.7092" y="33.0391" width="11.0055" height="5.92778" rx="2.96389" fill="#2375EF"/>
<rect x="37.6924" y="33.2466" width="5.81458" height="5.51246" rx="2.75623" fill="white"/>
</g>
</g>
<path d="M62.2967 41.1032C59.1916 41.1032 57.3315 38.8981 57.3315 35.4404V35.4254C57.3315 31.9527 59.2366 29.7701 62.2967 29.7701C65.3719 29.7701 67.262 31.9602 67.262 35.4254V35.4404C67.262 38.8906 65.3869 41.1032 62.2967 41.1032ZM62.2967 39.8581C64.5168 39.8581 65.8819 38.118 65.8819 35.4404V35.4254C65.8819 32.7253 64.5093 31.0152 62.2967 31.0152C60.0916 31.0152 58.7116 32.7253 58.7116 35.4254V35.4404C58.7116 38.118 60.0466 39.8581 62.2967 39.8581ZM71.941 40.9081C70.276 40.9081 69.5784 40.2931 69.5784 38.748V33.8428H68.3034V32.7628H69.5784V30.6702H70.9285V32.7628H72.6986V33.8428H70.9285V38.418C70.9285 39.3706 71.2585 39.7531 72.0986 39.7531C72.3311 39.7531 72.4586 39.7456 72.6986 39.7231V40.8331C72.4436 40.8781 72.1961 40.9081 71.941 40.9081ZM74.355 40.8481V29.5526H75.6601V33.9778H75.7801C76.1851 33.1228 76.9426 32.6203 78.1352 32.6203C79.9503 32.6203 80.9628 33.6928 80.9628 35.6129V40.8481H79.6578V35.9279C79.6578 34.4728 79.0577 33.7753 77.7677 33.7753C76.4776 33.7753 75.6601 34.6454 75.6601 36.0629V40.8481H74.355ZM86.2569 40.9907C83.9468 40.9907 82.5518 39.3706 82.5518 36.8355V36.828C82.5518 34.3303 83.9768 32.6203 86.1744 32.6203C88.372 32.6203 89.7071 34.2553 89.7071 36.6705V37.1805H83.8868C83.9243 38.8531 84.8469 39.8281 86.2869 39.8281C87.382 39.8281 88.057 39.3106 88.2745 38.8231L88.3045 38.7555H89.6096L89.5946 38.8156C89.3171 39.9106 88.162 40.9907 86.2569 40.9907ZM86.1669 33.7828C84.9669 33.7828 84.0518 34.6004 83.9093 36.1379H88.3795C88.2445 34.5404 87.3595 33.7828 86.1669 33.7828ZM91.3635 40.8481V32.7628H92.6686V33.9778H92.7886C93.1936 33.1228 93.9511 32.6203 95.1437 32.6203C96.9588 32.6203 97.9713 33.6928 97.9713 35.6129V40.8481H96.6663V35.9279C96.6663 34.4728 96.0662 33.7753 94.7762 33.7753C93.4861 33.7753 92.6686 34.6454 92.6686 36.0629V40.8481H91.3635ZM102.838 40.9081C101.173 40.9081 100.475 40.2931 100.475 38.748V33.8428H99.2002V32.7628H100.475V30.6702H101.825V32.7628H103.595V33.8428H101.825V38.418C101.825 39.3706 102.155 39.7531 102.995 39.7531C103.228 39.7531 103.355 39.7456 103.595 39.7231V40.8331C103.34 40.8781 103.093 40.9081 102.838 40.9081Z" fill="black"/>
<path fill-rule="evenodd" clip-rule="evenodd" d="M219.296 21.469C220.868 21.3787 222.438 21.3859 224.011 21.3859C224.021 21.3859 231.977 21.3859 231.977 21.3859C233.58 21.3859 235.151 21.3787 236.722 21.469C238.151 21.5503 239.542 21.7238 240.927 22.1114C243.843 22.9265 246.389 24.6288 248.23 27.0422C250.06 29.4403 251.05 32.376 251.05 35.3903C251.05 38.4083 250.06 41.3422 248.23 43.7402C246.389 46.1528 243.843 47.856 240.927 48.671C239.542 49.0587 238.151 49.2312 236.722 49.3135C235.151 49.4038 233.58 49.3957 232.008 49.3957C231.997 49.3957 224.04 49.3966 224.04 49.3966C222.438 49.3957 220.868 49.4038 219.296 49.3135C217.868 49.2312 216.477 49.0587 215.091 48.671C212.176 47.856 209.629 46.1528 207.789 43.7402C205.959 41.3422 204.968 38.4083 204.968 35.3912C204.968 32.376 205.959 29.4403 207.789 27.0422C209.629 24.6288 212.176 22.9265 215.091 22.1114C216.477 21.7238 217.868 21.5503 219.296 21.469Z" fill="#34C759"/>
<g filter="url(#filter1_dd_42_1872)">
<path fill-rule="evenodd" clip-rule="evenodd" d="M237.045 47.5893C243.782 47.5893 249.243 42.128 249.243 35.3911C249.243 28.6542 243.782 23.1929 237.045 23.1929C230.308 23.1929 224.846 28.6542 224.846 35.3911C224.846 42.128 230.308 47.5893 237.045 47.5893Z" fill="white"/>
</g>
<path d="M13 11H266H13ZM266 49.8536C266 56.0914 260.943 61.1482 254.705 61.1482H24.2946C18.0568 61.1482 13 56.0914 13 49.8536V49.8536C13 55.5924 17.8545 60.2446 23.8429 60.2446H255.157C261.145 60.2446 266 55.5924 266 49.8536V49.8536ZM13 60.6964V11V60.6964ZM266 11V60.6964V11Z" fill="#E8E8E8" mask="url(#path-1-inside-1_42_1872)"/>
</g>
<rect x="203.202" y="15.066" width="51.5036" height="42.4679" rx="5.87321" stroke="#2375EF" stroke-opacity="0.5" stroke-width="0.903571"/>
<defs>
<filter id="filter0_d_42_1872" x="0.35" y="0.157143" width="281.914" height="78.6106" filterUnits="userSpaceOnUse" color-interpolation-filters="sRGB">
<feFlood flood-opacity="0" result="BackgroundImageFix"/>
<feColorMatrix in="SourceAlpha" type="matrix" values="0 0 0 0 0 0 0 0 0 0 0 0 0 0 0 0 0 0 127 0" result="hardAlpha"/>
<feOffset dx="1.80714" dy="3.61429"/>
<feGaussianBlur stdDeviation="7.22857"/>
<feComposite in2="hardAlpha" operator="out"/>
<feColorMatrix type="matrix" values="0 0 0 0 0 0 0 0 0 0 0 0 0 0 0 0 0 0 0.1 0"/>
<feBlend mode="normal" in2="BackgroundImageFix" result="effect1_dropShadow_42_1872"/>
<feBlend mode="normal" in="SourceGraphic" in2="effect1_dropShadow_42_1872" result="shape"/>
</filter>
<filter id="filter1_dd_42_1872" x="217.618" y="18.675" width="38.8536" height="38.8536" filterUnits="userSpaceOnUse" color-interpolation-filters="sRGB">
<feFlood flood-opacity="0" result="BackgroundImageFix"/>
<feColorMatrix in="SourceAlpha" type="matrix" values="0 0 0 0 0 0 0 0 0 0 0 0 0 0 0 0 0 0 127 0" result="hardAlpha"/>
<feOffset dy="2.71071"/>
<feGaussianBlur stdDeviation="0.451786"/>
<feColorMatrix type="matrix" values="0 0 0 0 0 0 0 0 0 0 0 0 0 0 0 0 0 0 0.06 0"/>
<feBlend mode="normal" in2="BackgroundImageFix" result="effect1_dropShadow_42_1872"/>
<feColorMatrix in="SourceAlpha" type="matrix" values="0 0 0 0 0 0 0 0 0 0 0 0 0 0 0 0 0 0 127 0" result="hardAlpha"/>
<feOffset dy="2.71071"/>
<feGaussianBlur stdDeviation="3.61429"/>
<feColorMatrix type="matrix" values="0 0 0 0 0 0 0 0 0 0 0 0 0 0 0 0 0 0 0.15 0"/>
<feBlend mode="normal" in2="effect1_dropShadow_42_1872" result="effect2_dropShadow_42_1872"/>
<feBlend mode="normal" in="SourceGraphic" in2="effect2_dropShadow_42_1872" result="shape"/>
</filter>
<clipPath id="clip0_42_1872">
<rect x="27.4572" y="25.0054" width="21.6857" height="21.6857" rx="7.22857" fill="white"/>
</clipPath>
<clipPath id="clip1_42_1872">
<rect width="19.8786" height="19.8786" fill="white" transform="translate(28.3607 26.3608)"/>
</clipPath>
</defs>
</svg>
