<svg xmlns="http://www.w3.org/2000/svg" width="31" height="31" viewBox="-5 -5 41 41" fill="#003153"><path d="M2 30a2 2 0 0 1-2-2V2a2 2 0 0 1 2-2h26a2 2 0 0 1 2 2v18.549c0 .62-.582.972-1.202.972-.614 0-1.193-.354-1.193-.968V4.422a2 2 0 0 0-2-2H4.426a2 2 0 0 0-2 2v21.16a2 2 0 0 0 2 2h22.8a.356.356 0 0 0 .366-.353c0-.263.271-.454.527-.392.227.055.451.082.675.08.59-.002 1.214.39 1.214.979v.782c0 .73-.592 1.322-1.322 1.322H2Z"/><path d="M25.17 25.974h-5.243c-.009-.032-.02-.053-.02-.075-.02-.524-.022-.53.486-.69.383-.12.772-.22 1.18-.336l-1.387-3.727h-1.573c-1.043 0-2.087-.003-3.13.006-.079 0-.205.062-.228.125-.442 1.19-.87 2.386-1.308 3.595.33.08.648.155.966.236.106.027.21.066.315.101.527.179.527.179.447.763h-4.519c-.007-.029-.018-.05-.018-.072-.016-.534-.017-.538.496-.718.253-.09.509-.174.77-.236.157-.038.233-.116.29-.264 1.662-4.34 3.328-8.678 4.996-13.015.038-.1.083-.258.15-.274a1.6 1.6 0 0 1 .541-.003c.044.005.083.12.11.191.82 2.127 1.64 4.255 2.457 6.383.858 2.232 1.717 4.462 2.567 6.697.068.18.167.248.348.289.352.08.698.192 1.045.297.194.058.308.172.265.399-.019.098-.003.203-.003.328Zm-9.43-5.933h4.075c-.657-2.028-1.654-3.926-1.965-6.01l-2.11 6.01ZM30.727 24.28a1.942 1.942 0 1 1-3.888-.005 1.943 1.943 0 1 1 3.888.005Z"/></svg>