<svg width="24" height="24" fill="none" xmlns="http://www.w3.org/2000/svg"><path d="M13.724 16.4c-.077-.075-.077-.226-.153-.377 0-.151-.077-.302-.077-.453-.153.151-.306.226-.46.377-.153.151-.383.227-.536.302-.23.076-.384.151-.69.227-.23.075-.537.075-.767.075a3.22 3.22 0 0 1-1.226-.226 4.15 4.15 0 0 1-.997-.529c-.306-.226-.46-.528-.613-.83a2.38 2.38 0 0 1-.23-1.056c0-.906.383-1.66 1.073-2.114.69-.528 1.763-.754 3.143-.754h1.303v-.529c0-.452-.153-.754-.383-.98-.307-.227-.69-.378-1.227-.378-.46 0-.766.075-.996.302-.23.226-.307.453-.307.754h-2.3c0-.377.077-.754.23-1.056.154-.302.384-.604.767-.906.307-.226.69-.453 1.15-.604.46-.15.996-.226 1.61-.226.536 0 .996.076 1.456.226.46.151.843.302 1.226.604.307.227.614.604.767.981.153.378.307.83.307 1.359v3.774c0 .452 0 .83.076 1.132.077.301.154.603.23.754v.151h-2.376Zm-2.223-1.585c.23 0 .46 0 .613-.075.23-.076.384-.151.537-.227.153-.075.306-.15.383-.302l.307-.301V12.4h-1.15c-.383 0-.69 0-.92.076-.23.075-.46.15-.613.302-.153.15-.307.226-.383.452-.077.151-.077.378-.077.529 0 .302.077.528.307.754.23.227.613.302.996.302Z" fill="#222326"/><circle cx="50%" cy="50%" r="11.25" stroke="#222326" stroke-width="2"/></svg>