<svg xmlns="http://www.w3.org/2000/svg" width="1685" height="1472" viewBox="0 -106 1685 1579" fill="none"><path d="M214.935 1075.29c98.271 0 177.935 80.52 177.935 179.85 0 99.34-79.664 179.86-177.935 179.86S37 1354.48 37 1255.14c0-99.33 79.664-179.85 177.935-179.85Zm0 0h711.74m-711.74 0H85.576m1383.494 0c98.27 0 177.93 80.52 177.93 179.85 0 99.34-79.66 179.86-177.93 179.86-98.28 0-177.94-80.52-177.94-179.86 0-99.33 79.66-179.85 177.94-179.85Zm0 0H926.675m542.395 0h132.78m-675.175 0H85.576m841.099 0h675.175m-1516.274 0c-26.828 0-48.576-21.75-48.576-48.58l.002-422.229c0-33.018 26.766-59.785 59.784-59.785M1601.85 1075.29c24.94 0 45.15-20.22 45.15-45.15V644.696c0-55.228-44.77-100-100-100H994m-897.214 0 334.038-496.57c4.813-7.154 15.378-7.048 20.046.202L770.5 544.696m-673.714 0H770.5M605.75 288.848 806.383 41.765a12 12 0 0 1 16.299-2.194L1171 288.848M770.5 544.696H994m0 0 196.11-.001h250.04l88.35.002-208.29-389.778c-13.17-24.642-47.85-26.357-63.39-3.133L994 544.696Z" stroke="#000" stroke-width="74"/></svg>