<svg width="120" height="120" viewBox="10 10 100 100" fill="none" xmlns="http://www.w3.org/2000/svg"><path d="M88.987 34.319a11.591 11.591 0 0 0-5.943-1.663H82.02a12.163 12.163 0 0 0-4.445 1.334l-6.156 3.346-2.9 1.556L47.58 50.11a11.54 11.54 0 0 0-6.117 10.21v10.124l7.73-4.138v-5.986a3.87 3.87 0 0 1 2.03-3.394l17.298-9.263 2.899-1.547 7.73-4.138 2.079-1.112c.258-.145.534-.256.82-.329.314-.096.64-.145.967-.145a3.94 3.94 0 0 1 1.99.56 3.79 3.79 0 0 1 1.866 3.298v21.775a3.868 3.868 0 0 1-2.03 3.394L49.194 88.514V81.66l-7.731 4.1v8.799a4.092 4.092 0 0 0 3.991 4.091 4.087 4.087 0 0 0 2.03-.485l41.012-21.968a11.532 11.532 0 0 0 6.117-10.172V44.25a11.492 11.492 0 0 0-5.625-9.93Z" fill="#222326"/><path d="M71.419 49.403v5.985a3.87 3.87 0 0 1-2.03 3.394l-17.297 9.263-2.9 1.557-7.73 4.138-2.9 1.547-4.831 2.592V49.683a3.87 3.87 0 0 1 2.03-3.394l29.956-16.06a3.728 3.728 0 0 1 1.798-.474 3.94 3.94 0 0 1 1.99.561 3.79 3.79 0 0 1 1.866 3.297v.435l4.783-2.562c.8-.427 1.638-.78 2.503-1.054a11.448 11.448 0 0 0-5.18-6.768 11.476 11.476 0 0 0-11.413-.28l-29.956 16.07A11.542 11.542 0 0 0 26 49.683V83.96a4.091 4.091 0 0 0 3.992 4.091 4.086 4.086 0 0 0 2.028-.485l6.543-3.5 2.899-1.557 7.73-4.138 2.9-1.557L73.032 65.6a11.53 11.53 0 0 0 6.118-10.21V45.264l-7.731 4.138Z" fill="#222326"/></svg>