<svg xmlns="http://www.w3.org/2000/svg" width="250" height="250"><g fill="#830ebf" id="document"><path d="M-29.146-18.007H4.228c-4.562-11.765-6.723-24.25-6.723-36.976 0-4.561.24-8.883.96-13.445.24-1.68-.96-3.121-2.64-3.362-2.882-.24-5.763-.48-8.644-.48-15.366 0-29.772 4.082-42.017 11.285v17.287c-.24 14.166 11.525 25.69 25.69 25.69Z" transform="matrix(.83333 0 0 .83333 125 125)"/><path d="M119.475-30.252c-1.92.48-3.601.72-5.522.72-2.161 0-4.322-.24-6.723-.72-7.683-1.681-15.126-6.483-20.888-13.206-5.522-6.723-8.884-14.886-9.364-22.81-.24-6.002 1.2-11.524 4.322-16.086-3.842-.96-7.924-1.68-12.245-1.68-1.2 0-2.161 0-3.362.24-2.64.24-5.522-.48-7.923-1.681-12.005-5.763-25.45-9.124-39.616-8.644h-.24c-3.122 6.243-5.763 12.726-7.203 19.688C9.27-67.948 8.55-61.465 8.55-54.983A92.656 92.656 0 0 0 24.877-2.4c1.68 2.641 1.2 6.002-1.441 7.923-.96.72-2.16.96-3.121.96-1.681 0-3.602-.96-4.562-2.4C13.592.72 11.43-2.641 9.51-6.002h-38.656c-20.888 0-37.935-17.047-37.935-37.936v-8.884c-12.005 10.085-21.129 23.29-26.411 38.416-4.322 14.406-14.166 26.17-27.371 33.134 8.643.48 16.807-.96 24.01-4.082 1.44-.72 3.12 0 3.601 1.44 1.2 3.362 2.401 6.963 3.361 10.565 2.161 7.923 3.362 16.086 3.362 24.73 0 12.725-2.401 24.97-6.963 36.015-1.44 3.361 1.2 6.963 4.802 6.963h32.893c3.122 0 6.003-2.161 6.723-5.042 1.921-7.924 5.763-14.886 10.805-21.129 1.44-1.92 3.841-2.641 6.242-2.401 3.122.48 6.483.72 9.604.72 4.562 0 8.884-.48 13.206-1.2 2.64-.48 5.522.48 7.203 2.64 5.042 6.484 8.163 14.167 9.363 22.57.24 2.161 2.401 3.842 4.562 3.842h36.495c1.921 0 3.122-1.921 2.401-3.602-6.002-13.925-9.364-29.292-9.364-45.619 0-6.962.72-13.685 1.921-20.168 0-.24.24-.96.24-1.44 1.68-5.283 4.082-9.364 8.404-12.245.72-.72 4.562-2.161 5.522-2.401 1.2-.24 2.401-.48 3.601-.48 8.884 0 14.887 6.482 17.528 14.645.72 1.681 1.2 3.122 1.44 5.043.72 4.081 1.2 8.163 1.2 12.485 0 24.25-13.205 39.856-22.328 50.9-.96.96 0 2.642 1.2 2.642h16.087c2.16 0 3.841-1.2 4.802-2.882 5.282-10.564 22.809-46.098 25.93-54.022 0-.24.24-.48.24-.48 7.684-16.807 12.005-35.294 12.005-54.983.721-3.841.48-7.923.24-12.004Z" transform="matrix(.83333 0 0 .83333 125 125)"/><path d="M109.151-39.856c3.121.72 6.243.72 8.884 0-.72-4.802-1.921-9.364-3.121-13.926l-.721-1.44c-4.562-10.805-12.965-18.248-23.53-23.53-2.88 2.88-4.321 6.962-4.081 12.005.24 5.762 2.641 12.005 6.963 17.047 4.562 5.042 10.084 8.643 15.606 9.844Z" transform="matrix(.83333 0 0 .83333 125 125)"/><path d="M107.816 17.315c11.318-1.964 16.543-43.03 10.517-63.718-6.025-20.69-27.79-43.068-48.48-37.042-20.69 6.025-48.004 30.058-41.427 52.637 6.576 22.58 68.073 50.086 79.39 48.123ZM19.458-64.713c-1.172-10.157-38.643-9.207-62.394-2.369-23.75 6.839-54.847 42.224-50.539 60.914 4.309 18.69 39.684 24.774 60.081 20.072 20.398-4.701 54.025-68.46 52.852-78.617Z" transform="matrix(.83333 0 0 .83333 125 125)"/><path d="M63.893-52.18C62.72-62.338 25.249-61.388 1.498-54.55-22.252-47.71-53.348-12.325-49.04 6.365c4.308 18.69 39.683 24.774 60.08 20.072 20.398-4.702 54.025-68.46 52.853-78.618Z" transform="matrix(.83333 0 0 .83333 125 125)"/></g></svg>