<svg xmlns="http://www.w3.org/2000/svg" viewBox="650 700 1150 1200"><path fill="#1B1B1B" d="M831.579 1843v-56.65c20.987-1.62 41.344-3.013 61.658-4.862 6.722-.612 13.89-1.182 19.883-3.907 11.469-5.216 16.582-15.313 16.667-27.863.178-26.37.45-52.74.454-79.111.036-228.416.057-456.832-.145-685.247-.007-7.399 2.037-11.722 8.596-15.381 14.612-8.15 28.596-17.422 43.111-25.757 5.805-3.333 8.398-7.338 8.182-14.127-.415-13.021-.564-26.09.166-39.084.216-3.849 3.495-10.496 5.799-10.686 6.252-.518 7.063 5.232 7.026 10.564-.089 12.715-.029 25.43-.029 40.226l59.154-35.387v400.4c15.496 2.028 30.112 4.227 44.794 5.81 54.945 5.924 109.145 2.474 161.476-16.212 81.468-29.091 130.197-86.773 145.739-171.83 9.279-50.778 10.502-101.79-1.359-152.404-19.914-84.975-72.087-138.514-157.208-159.204-30.524-7.42-61.434-11.865-92.988-11.442-27.305.366-54.619.081-81.929.07-3.989-.002-7.557.529-9.067-5.235-6.972-26.612-18.293-51.278-36.063-74.226 3.258-.271 5.243-.598 7.226-.578 58.938.592 117.939-.281 176.797 2.223 71.831 3.056 142.35 14.516 209.413 42.44 79.39 33.057 129.062 91.189 147.979 175.002 16.101 71.336 17.083 142.964-3.297 213.52-24.829 85.958-81.415 146.24-159.41 187.206-65.093 34.189-135.389 50.123-208.38 52.271-42.977 1.264-86.088-1.986-129.137-3.262-4.301-.127-8.59-.649-14.079-1.082v10.614c-.049 118.55-.106 237.1-.142 355.65-.008 24.996 9.524 34.768 34.589 36.068 23.541 1.221 47.069 2.695 70.599 4.113 2.718.164 5.415.684 8.405 1.076V1843h-344.48z"/><path fill="#FF8500" d="M980.369 710.045c8.001 8.813 16.962 16.941 23.833 26.561 25.958 36.341 38.318 77.281 37.074 121.824-.572 20.472-10.929 35.995-31.041 46.301 13.354-32.931 3.334-61.68-9.445-90.29-15.504 27.25-26.105 55.313-19.184 87.218-15.019-1.847-27.358-18.327-28.485-37.187-.953-15.953 3.36-30.599 10.06-44.77 5.552-11.742 11.57-23.29 16.552-35.269 10.087-24.253 9.533-37.451-1.683-72.527l2.319-1.861z"/></svg>