<svg width="56" height="56" viewBox="-128 -96 672 672" fill="none" xmlns="http://www.w3.org/2000/svg"><path d="M32 64v384h384V64H32ZM0 32h448v448H0V32Z" fill="#000"/><path d="m289 281.277-3.512-21.63-16.055-15.845-26.088-2.767h-56.191l-15.302-3.018c-.837-2.851-1.422-5.366-1.756-7.545-.335-2.348-.92-4.779-1.756-7.294v-26.409l3.512-14.839 16.556-3.27 64.218-1.66H272.5l9.225-20.976L252.626 152H202.5l-40.933 3.521-16.306 16.097L142 192.745v34.457l3.261 21.127 16.306 15.845 42.933 3.27h38.845l15.302 2.515a71.923 71.923 0 0 0 1.756 7.042 80.62 80.62 0 0 1 1.756 6.791v32.948c-.335 2.18-.92 4.527-1.756 7.042a213.973 213.973 0 0 0-1.756 7.043l-16.306 2.515L200 335.5l-28.148-6.184h-16.306l-6.271 27.163 29.35 3.521h65.221l25.587-3.018 16.055-15.845 3.512-21.63v-38.23Z" fill="#2D2D2D"/><path d="m305 281.277-3.512-21.63-16.055-15.845-26.088-2.767h-56.191l-15.302-3.018c-.837-2.851-1.422-5.366-1.756-7.545-.335-2.348-.92-4.779-1.756-7.294v-26.409l3.512-14.839 16.556-3.27h63.717l23.58 4.779 6.02-27.415L268.626 152h-65.974l-25.085 3.521-16.306 16.097L158 192.745v34.457l3.261 21.127 16.306 15.845 25.085 3.27h56.693l15.302 2.515a71.923 71.923 0 0 0 1.756 7.042 80.62 80.62 0 0 1 1.756 6.791v32.948c-.335 2.18-.92 4.527-1.756 7.042a213.973 213.973 0 0 0-1.756 7.043l-16.306 2.515H196.13l-24.584-4.024-6.271 27.163 29.35 3.521h65.221l25.587-3.018 16.055-15.845 3.512-21.63v-38.23Z" fill="#000"/></svg>