<svg width="35" height="35" viewBox="10 10 119 119" fill="none" xmlns="http://www.w3.org/2000/svg"><path d="M0 0v139h139V0Z" fill="#356B9D"/><path d="m78.475 62.354-.61 14.585-.352 12.497 13.065 6.643.078-12.589.336-14.677-12.517-6.459Z" fill="#fff"/><path d="m78.475 62.354 12.517 6.459v-18.3l-12.47-6.203-.047 18.044ZM77.031 105.354l13.104 6.734.443-16.01-13.065-6.642-.482 15.918Z" fill="#fff"/><path d="m63.881 98.384 13.15 6.97.482-15.918-13.135-6.9-.497 15.848Z" fill="#fff"/><path d="m50.792 91.278 13.09 7.106.496-15.847-13.09-7.045-.496 15.786Z" fill="#fff"/><path d="m64.378 82.537.003-13.069-13.093-6.862v12.886l13.09 7.045Z" fill="#fff"/><path d="m51.288 62.606 13.093 6.862.213-12.333-13.097-6.623-.209 12.094ZM51.497 50.512l13.097 6.623.325-18.745-13.086-7.296-.336 19.418Z" fill="#fff"/><path d="m76.475 62.354-.61 14.585-.352 12.497 13.065 6.643.078-12.589.336-14.677-12.517-6.459Z" fill="#EC7F00"/><path d="m76.475 62.354 12.517 6.459v-18.3l-12.47-6.203-.047 18.044ZM75.031 105.354l13.104 6.734.443-16.01-13.065-6.642-.482 15.918Z" fill="#EC7F00"/><path d="m61.881 98.384 13.15 6.97.482-15.918-13.135-6.9-.497 15.848Z" fill="#EC7F00"/><path d="m48.792 91.278 13.09 7.106.496-15.847-13.09-7.045-.496 15.786Z" fill="#EC7F00"/><path d="m62.378 82.537.003-13.069-13.093-6.862v12.886l13.09 7.045Z" fill="#EC7F00"/><path d="m49.288 62.606 13.093 6.862.213-12.333-13.097-6.623-.209 12.094ZM49.497 50.512l13.097 6.623.325-18.745-13.086-7.296-.336 19.418Z" fill="#EC7F00"/><path d="m73.475 63.354-.61 14.585-.352 12.497 13.065 6.643.078-12.589.336-14.677-12.517-6.459Z" fill="#fff"/><path d="m73.475 63.354 12.517 6.459v-18.3l-12.47-6.203-.047 18.044ZM72.031 106.354l13.104 6.734.443-16.01-13.065-6.642-.482 15.918Z" fill="#fff"/><path d="m58.881 99.384 13.15 6.97.482-15.918-13.135-6.9-.497 15.848Z" fill="#fff"/><path d="m45.792 92.278 13.09 7.106.496-15.847-13.09-7.045-.496 15.786Z" fill="#fff"/><path d="m59.378 83.537.003-13.069-13.093-6.862v12.886l13.09 7.045Z" fill="#fff"/><path d="m46.288 63.606 13.093 6.862.213-12.333-13.097-6.623-.209 12.094ZM46.497 51.512l13.097 6.623.325-18.745-13.086-7.296-.336 19.418Z" fill="#fff"/></svg>