<svg width="500" height="500" viewBox="-25 -25 550 550" fill="none" xmlns="http://www.w3.org/2000/svg"><path d="M447.572 137.556a9.487 9.487 0 0 1-.095 12.775L308.807 300.36c-3.21 3.472-8.719 3.409-11.847-.139l-43.365-49.192a4.787 4.787 0 0 0-7.206.027l-42.684 49.152c-3.116 3.587-8.658 3.672-11.884.184L52.312 149.501a9.487 9.487 0 0 1-.112-12.758l22.86-25.615c3.222-3.611 8.85-3.671 12.15-.131l105.622 113.34a4.788 4.788 0 0 0 7.117-.125l43.567-50.168c3.262-3.756 9.087-3.778 12.376-.046l44.376 50.336a4.787 4.787 0 0 0 7.103.088l104.692-113.005c3.289-3.551 8.922-3.506 12.154.098l23.355 26.041Z" fill="#233562"/><path fill-rule="evenodd" clip-rule="evenodd" d="M337.662 27a25.306 25.306 0 0 1 18.823 8.393l38.32 42.657a8.22 8.22 0 0 1-.11 11.108l-24.924 26.677c-3.299 3.531-8.915 3.47-12.138-.131L326.824 81.26a4.797 4.797 0 0 0-3.571-1.596H176.092c-1.362 0-2.66.58-3.568 1.596l-30.586 34.192c-3.22 3.599-8.834 3.661-12.133.135l-24.851-26.561a8.223 8.223 0 0 1-.123-11.102l38.027-42.495A25.302 25.302 0 0 1 161.712 27h175.95Zm155.842 162.207c8.77 9.744 8.647 24.573-.29 34.167L268.241 464.947c-10.025 10.765-27.082 10.74-37.076-.051L6.739 222.595c-8.785-9.484-9.006-24.066-.514-33.812l14.132-16.219c3.223-3.7 8.948-3.771 12.263-.153l213.532 233.134a4.787 4.787 0 0 0 7.054.007l213.768-232.375c3.283-3.567 8.922-3.536 12.163.066l14.367 15.964ZM253.438 293.44a4.791 4.791 0 0 0-7.224 0l-26.496 30.455a7.98 7.98 0 0 0 .053 10.535l26.475 29.822a4.789 4.789 0 0 0 7.161 0l26.472-29.822a7.976 7.976 0 0 0 .054-10.535l-26.495-30.455Z" fill="url('#paint0_linear_30_1496')"/><defs><linearGradient id="paint0_linear_30_1496" x1="-130.267" y1="168.942" x2="203.413" y2="626.204" gradientUnits="userSpaceOnUse"><stop stop-color="#7398FF"/><stop offset="1" stop-color="#4D6DFA"/></linearGradient></defs></svg>